<svg xmlns="http://www.w3.org/2000/svg" xmlns:xlink="http://www.w3.org/1999/xlink" width="566" zoomAndPan="magnify" viewBox="0 0 425.03998 425.249996" height="566" preserveAspectRatio="xMidYMid meet" version="1.0"><defs><g/><clipPath id="c2afc392c2"><path d="M 0 0.105469 L 424.042969 0.105469 L 424.042969 424.148438 L 0 424.148438 Z M 0 0.105469 " clip-rule="nonzero"/></clipPath><clipPath id="316eac5d22"><path d="M 355 43 L 424.042969 43 L 424.042969 144 L 355 144 Z M 355 43 " clip-rule="nonzero"/></clipPath><clipPath id="5f8a22c906"><path d="M 349 45 L 424.042969 45 L 424.042969 146 L 349 146 Z M 349 45 " clip-rule="nonzero"/></clipPath><clipPath id="f9e8df866d"><path d="M 68 157.113281 L 406 157.113281 L 406 424.148438 L 68 424.148438 Z M 68 157.113281 " clip-rule="nonzero"/></clipPath><clipPath id="3e31cf7b22"><path d="M 113 387 L 349 387 L 349 424.148438 L 113 424.148438 Z M 113 387 " clip-rule="nonzero"/></clipPath><clipPath id="037f5292c5"><path d="M 132 206 L 289 206 L 289 424.148438 L 132 424.148438 Z M 132 206 " clip-rule="nonzero"/></clipPath><clipPath id="1caeb7ee63"><path d="M 79 372 L 386 372 L 386 424.148438 L 79 424.148438 Z M 79 372 " clip-rule="nonzero"/></clipPath><clipPath id="2ced9c6c19"><path d="M 83 168 L 394 168 L 394 424.148438 L 83 424.148438 Z M 83 168 " clip-rule="nonzero"/></clipPath></defs><g clip-path="url(#c2afc392c2)"><path fill="#ffffff" d="M 0 0.105469 L 424.042969 0.105469 L 424.042969 424.148438 L 0 424.148438 Z M 0 0.105469 " fill-opacity="1" fill-rule="nonzero"/><path fill="#673ab7" d="M 0 0.105469 L 424.042969 0.105469 L 424.042969 424.148438 L 0 424.148438 Z M 0 0.105469 " fill-opacity="1" fill-rule="nonzero"/></g><g fill="#ff0000" fill-opacity="1"><g transform="translate(22.814469, 147.886838)"><g><path d="M 20.609375 -2.921875 C 20.609375 -1.066406 20 0.316406 18.78125 1.234375 C 17.5625 2.160156 16.222656 2.625 14.765625 2.625 C 13.304688 2.625 11.96875 2.160156 10.75 1.234375 C 9.53125 0.316406 8.921875 -1.066406 8.921875 -2.921875 C 8.921875 -18.515625 9.113281 -34.035156 9.5 -49.484375 C 9.894531 -64.941406 10.820312 -80.414062 12.28125 -95.90625 C 12.476562 -97.570312 13.085938 -98.890625 14.109375 -99.859375 C 15.128906 -100.835938 16.25 -101.398438 17.46875 -101.546875 C 18.6875 -101.691406 19.90625 -101.445312 21.125 -100.8125 C 22.34375 -100.175781 23.242188 -99.078125 23.828125 -97.515625 C 25.773438 -91.960938 27.578125 -86.382812 29.234375 -80.78125 C 30.898438 -75.175781 32.535156 -69.546875 34.140625 -63.890625 C 35.742188 -58.234375 37.398438 -52.601562 39.109375 -47 C 40.816406 -41.394531 42.691406 -35.863281 44.734375 -30.40625 C 49.804688 -43.175781 54.410156 -55.992188 58.546875 -68.859375 C 62.691406 -81.734375 66.035156 -94.941406 68.578125 -108.484375 C 68.867188 -109.953125 69.550781 -111.023438 70.625 -111.703125 C 71.695312 -112.390625 72.890625 -112.734375 74.203125 -112.734375 C 75.515625 -112.734375 76.707031 -112.390625 77.78125 -111.703125 C 78.851562 -111.023438 79.535156 -109.953125 79.828125 -108.484375 C 80.609375 -104.097656 80.875 -99.785156 80.625 -95.546875 C 80.382812 -91.304688 80.265625 -86.992188 80.265625 -82.609375 C 80.265625 -77.929688 80.53125 -73.347656 81.0625 -68.859375 C 81.601562 -64.378906 82.070312 -59.847656 82.46875 -55.265625 C 83.238281 -46.109375 83.816406 -36.945312 84.203125 -27.78125 C 84.597656 -18.613281 84.941406 -9.453125 85.234375 -0.296875 C 85.234375 1.648438 84.648438 3.085938 83.484375 4.015625 C 82.316406 4.941406 81 5.40625 79.53125 5.40625 C 78.070312 5.40625 76.707031 4.941406 75.4375 4.015625 C 74.175781 3.085938 73.546875 1.648438 73.546875 -0.296875 C 73.347656 -9.453125 73.03125 -18.613281 72.59375 -27.78125 C 72.15625 -36.945312 71.546875 -46.109375 70.765625 -55.265625 C 70.566406 -56.921875 70.394531 -58.625 70.25 -60.375 C 70.101562 -62.132812 69.929688 -63.84375 69.734375 -65.5 C 66.910156 -56.632812 63.863281 -47.910156 60.59375 -39.328125 C 57.332031 -30.753906 53.945312 -22.175781 50.4375 -13.59375 C 49.957031 -12.425781 49.253906 -11.425781 48.328125 -10.59375 C 47.398438 -9.769531 46.253906 -9.359375 44.890625 -9.359375 C 43.910156 -9.359375 42.929688 -9.625 41.953125 -10.15625 C 40.984375 -10.695312 40.253906 -11.40625 39.765625 -12.28125 C 35.867188 -20.851562 32.554688 -29.578125 29.828125 -38.453125 C 27.097656 -47.328125 24.414062 -56.296875 21.78125 -65.359375 C 21.289062 -54.929688 20.972656 -44.523438 20.828125 -34.140625 C 20.679688 -23.753906 20.609375 -13.347656 20.609375 -2.921875 Z M 20.609375 -2.921875 "/></g></g></g><g fill="#ff0000" fill-opacity="1"><g transform="translate(117.693577, 147.886838)"><g><path d="M 2.625 0 C 0.875 -0.488281 -0.289062 -1.460938 -0.875 -2.921875 C -1.457031 -4.390625 -1.550781 -5.804688 -1.15625 -7.171875 C -0.769531 -8.535156 0.03125 -9.675781 1.25 -10.59375 C 2.46875 -11.519531 3.953125 -11.742188 5.703125 -11.265625 C 9.597656 -10.085938 13.492188 -9.351562 17.390625 -9.0625 C 21.296875 -8.769531 25.296875 -8.722656 29.390625 -8.921875 C 27.734375 -15.835938 26.90625 -22.78125 26.90625 -29.75 C 26.90625 -36.71875 27.171875 -43.6875 27.703125 -50.65625 C 28.242188 -57.625 28.78125 -64.617188 29.3125 -71.640625 C 29.851562 -78.660156 29.878906 -85.679688 29.390625 -92.703125 C 25.679688 -92.796875 21.953125 -92.960938 18.203125 -93.203125 C 14.453125 -93.453125 10.722656 -93.820312 7.015625 -94.3125 C 5.359375 -94.5 3.96875 -95.078125 2.84375 -96.046875 C 1.726562 -97.023438 1.171875 -98.34375 1.171875 -100 C 1.171875 -101.46875 1.726562 -102.859375 2.84375 -104.171875 C 3.96875 -105.484375 5.359375 -106.046875 7.015625 -105.859375 C 11.503906 -105.367188 16.015625 -104.953125 20.546875 -104.609375 C 25.078125 -104.265625 29.582031 -104.140625 34.0625 -104.234375 C 38.550781 -104.335938 43.007812 -104.726562 47.4375 -105.40625 C 51.875 -106.09375 56.285156 -107.21875 60.671875 -108.78125 C 62.140625 -109.269531 63.578125 -109.070312 64.984375 -108.1875 C 66.398438 -107.3125 67.351562 -106.144531 67.84375 -104.6875 C 68.332031 -103.03125 68.160156 -101.539062 67.328125 -100.21875 C 66.503906 -98.90625 65.3125 -98.003906 63.75 -97.515625 C 56.4375 -94.984375 48.832031 -93.472656 40.9375 -92.984375 C 41.519531 -86.066406 41.519531 -79.097656 40.9375 -72.078125 C 40.351562 -65.054688 39.769531 -58.085938 39.1875 -51.171875 C 38.601562 -44.253906 38.332031 -37.332031 38.375 -30.40625 C 38.425781 -23.488281 39.328125 -16.617188 41.078125 -9.796875 C 44.203125 -10.085938 47.273438 -10.378906 50.296875 -10.671875 C 53.316406 -10.960938 56.335938 -11.207031 59.359375 -11.40625 C 61.210938 -11.5 62.601562 -10.984375 63.53125 -9.859375 C 64.457031 -8.742188 64.921875 -7.453125 64.921875 -5.984375 C 64.921875 -4.523438 64.457031 -3.160156 63.53125 -1.890625 C 62.601562 -0.628906 61.210938 0.046875 59.359375 0.140625 C 54.585938 0.429688 49.835938 0.84375 45.109375 1.375 C 40.378906 1.914062 35.648438 2.304688 30.921875 2.546875 C 26.191406 2.796875 21.460938 2.773438 16.734375 2.484375 C 12.015625 2.191406 7.3125 1.363281 2.625 0 Z M 2.625 0 "/></g></g></g><g fill="#ff0000" fill-opacity="1"><g transform="translate(184.211287, 147.886838)"><g><path d="M 6.71875 -88.015625 C 4.769531 -88.597656 3.601562 -89.863281 3.21875 -91.8125 C 2.726562 -93.175781 2.875 -94.660156 3.65625 -96.265625 C 4.4375 -97.878906 5.65625 -98.785156 7.3125 -98.984375 C 16.769531 -100.441406 26.25 -101.242188 35.75 -101.390625 C 45.25 -101.535156 54.773438 -101.660156 64.328125 -101.765625 C 66.179688 -101.765625 67.59375 -101.175781 68.5625 -100 C 69.539062 -98.832031 70.03125 -97.515625 70.03125 -96.046875 C 70.03125 -94.585938 69.539062 -93.25 68.5625 -92.03125 C 67.59375 -90.820312 66.179688 -90.21875 64.328125 -90.21875 C 56.722656 -90.019531 49.070312 -89.921875 41.375 -89.921875 C 33.675781 -89.921875 25.976562 -89.53125 18.28125 -88.75 C 18.46875 -84.851562 18.707031 -80.976562 19 -77.125 C 19.300781 -73.269531 19.597656 -69.394531 19.890625 -65.5 C 27.296875 -65.894531 34.675781 -66.382812 42.03125 -66.96875 C 49.394531 -67.550781 56.78125 -67.644531 64.1875 -67.25 C 66.039062 -67.15625 67.453125 -66.472656 68.421875 -65.203125 C 69.398438 -63.941406 69.890625 -62.578125 69.890625 -61.109375 C 69.890625 -59.648438 69.398438 -58.332031 68.421875 -57.15625 C 67.453125 -55.988281 66.039062 -55.457031 64.1875 -55.5625 C 56.875 -55.945312 49.632812 -55.847656 42.46875 -55.265625 C 35.3125 -54.679688 28.078125 -54.195312 20.765625 -53.8125 C 21.347656 -46.789062 21.90625 -39.796875 22.4375 -32.828125 C 22.976562 -25.859375 23.347656 -18.863281 23.546875 -11.84375 C 26.953125 -12.625 30.410156 -13.378906 33.921875 -14.109375 C 37.429688 -14.835938 40.941406 -15.421875 44.453125 -15.859375 C 47.960938 -16.296875 51.46875 -16.515625 54.96875 -16.515625 C 58.476562 -16.515625 61.988281 -16.222656 65.5 -15.640625 C 67.0625 -15.347656 68.234375 -14.421875 69.015625 -12.859375 C 69.796875 -11.304688 69.988281 -9.847656 69.59375 -8.484375 C 69.101562 -6.828125 68.175781 -5.65625 66.8125 -4.96875 C 65.445312 -4.289062 63.9375 -4.097656 62.28125 -4.390625 C 59.164062 -4.972656 56 -5.164062 52.78125 -4.96875 C 49.5625 -4.769531 46.394531 -4.429688 43.28125 -3.953125 C 39.675781 -3.367188 36.09375 -2.6875 32.53125 -1.90625 C 28.96875 -1.125 25.4375 -0.296875 21.9375 0.578125 C 20.28125 0.972656 18.71875 0.679688 17.25 -0.296875 C 15.882812 -0.484375 14.664062 -1.015625 13.59375 -1.890625 C 12.519531 -2.773438 11.984375 -4.09375 11.984375 -5.84375 C 11.796875 -14.132812 11.429688 -22.320312 10.890625 -30.40625 C 10.359375 -38.5 9.75 -46.640625 9.0625 -54.828125 C 7.988281 -55.898438 7.378906 -57.238281 7.234375 -58.84375 C 7.085938 -60.457031 7.503906 -61.847656 8.484375 -63.015625 C 7.703125 -71.296875 7.113281 -79.628906 6.71875 -88.015625 Z M 6.71875 -88.015625 "/></g></g></g><g fill="#ff0000" fill-opacity="1"><g transform="translate(260.231527, 147.886838)"><g><path d="M 76.46875 -36.109375 C 75.976562 -30.160156 74.222656 -24.875 71.203125 -20.25 C 68.179688 -15.625 64.1875 -11.703125 59.21875 -8.484375 C 55.90625 -6.429688 52.347656 -4.578125 48.546875 -2.921875 C 44.742188 -1.265625 40.941406 0 37.140625 0.875 C 33.722656 1.65625 30.378906 1.992188 27.109375 1.890625 C 23.847656 1.796875 20.5625 1.554688 17.25 1.171875 C 16.46875 2.046875 15.515625 2.65625 14.390625 3 C 13.273438 3.34375 12.179688 3.367188 11.109375 3.078125 C 8.867188 2.484375 7.503906 1.066406 7.015625 -1.171875 C 5.847656 -2.335938 5.265625 -3.75 5.265625 -5.40625 C 5.265625 -7.550781 6.238281 -9.257812 8.1875 -10.53125 C 8.769531 -14.425781 9.234375 -18.320312 9.578125 -22.21875 C 9.921875 -26.125 10.1875 -30.070312 10.375 -34.0625 C 10.664062 -38.738281 10.910156 -43.367188 11.109375 -47.953125 C 11.304688 -52.535156 11.359375 -57.164062 11.265625 -61.84375 C 11.265625 -64.769531 11.164062 -67.789062 10.96875 -70.90625 C 10.769531 -74.03125 10.671875 -77.125 10.671875 -80.1875 C 10.671875 -83.257812 10.84375 -86.304688 11.1875 -89.328125 C 11.53125 -92.347656 12.238281 -95.273438 13.3125 -98.109375 C 12.820312 -99.671875 12.914062 -101.28125 13.59375 -102.9375 C 14.28125 -104.59375 15.597656 -105.613281 17.546875 -106 C 18.710938 -107.269531 20.097656 -107.851562 21.703125 -107.75 C 23.316406 -107.65625 24.660156 -107.117188 25.734375 -106.140625 C 30.503906 -105.753906 35.15625 -104.851562 39.6875 -103.4375 C 44.226562 -102.03125 48.398438 -99.765625 52.203125 -96.640625 C 56.878906 -92.941406 60.628906 -88.484375 63.453125 -83.265625 C 66.273438 -78.046875 68.566406 -72.660156 70.328125 -67.109375 C 71.109375 -64.671875 71.910156 -62.1875 72.734375 -59.65625 C 73.566406 -57.125 74.300781 -54.539062 74.9375 -51.90625 C 75.570312 -49.269531 76.035156 -46.632812 76.328125 -44 C 76.617188 -41.375 76.664062 -38.742188 76.46875 -36.109375 Z M 52.046875 -17.84375 C 53.316406 -18.613281 54.460938 -19.390625 55.484375 -20.171875 C 56.503906 -20.953125 57.550781 -21.878906 58.625 -22.953125 C 59.507812 -23.929688 60.191406 -24.710938 60.671875 -25.296875 C 61.160156 -25.878906 61.75 -26.753906 62.4375 -27.921875 C 64.09375 -31.335938 64.867188 -35.191406 64.765625 -39.484375 C 64.765625 -41.910156 64.566406 -44.171875 64.171875 -46.265625 C 63.785156 -48.367188 63.207031 -50.734375 62.4375 -53.359375 C 61.65625 -56.085938 60.847656 -58.789062 60.015625 -61.46875 C 59.191406 -64.15625 58.242188 -66.765625 57.171875 -69.296875 C 56.390625 -71.441406 55.335938 -73.757812 54.015625 -76.25 C 52.703125 -78.738281 51.363281 -80.8125 50 -82.46875 C 46.59375 -86.5625 42.742188 -89.507812 38.453125 -91.3125 C 34.160156 -93.113281 29.484375 -94.160156 24.421875 -94.453125 C 23.347656 -91.722656 22.6875 -88.867188 22.4375 -85.890625 C 22.195312 -82.921875 22.125 -79.925781 22.21875 -76.90625 C 22.320312 -73.882812 22.492188 -70.863281 22.734375 -67.84375 C 22.972656 -64.820312 23.046875 -61.894531 22.953125 -59.0625 C 22.566406 -50.78125 22.203125 -42.59375 21.859375 -34.5 C 21.515625 -26.414062 20.804688 -18.28125 19.734375 -10.09375 C 21.492188 -9.894531 23.273438 -9.742188 25.078125 -9.640625 C 26.878906 -9.546875 28.65625 -9.597656 30.40625 -9.796875 C 34.113281 -10.179688 37.84375 -11.128906 41.59375 -12.640625 C 45.34375 -14.148438 48.828125 -15.882812 52.046875 -17.84375 Z M 52.046875 -17.84375 "/></g></g></g><g fill="#ff0000" fill-opacity="1"><g transform="translate(343.561405, 147.886838)"><g><path d="M 21.9375 -7.171875 C 19.6875 -8.828125 17.660156 -10.703125 15.859375 -12.796875 C 14.054688 -14.890625 12.425781 -17.109375 10.96875 -19.453125 C 9.601562 -21.492188 8.285156 -23.679688 7.015625 -26.015625 C 5.753906 -28.359375 4.632812 -30.75 3.65625 -33.1875 C 2.675781 -35.625 1.914062 -38.109375 1.375 -40.640625 C 0.84375 -43.179688 0.675781 -45.71875 0.875 -48.25 C 1.164062 -53.21875 1.675781 -58.113281 2.40625 -62.9375 C 3.144531 -67.769531 4.144531 -72.523438 5.40625 -77.203125 C 5.800781 -78.953125 6.289062 -80.898438 6.875 -83.046875 C 7.457031 -85.191406 8.210938 -87.265625 9.140625 -89.265625 C 10.066406 -91.265625 11.160156 -93.09375 12.421875 -94.75 C 13.691406 -96.40625 15.300781 -97.671875 17.25 -98.546875 C 20.175781 -99.816406 23.097656 -100.28125 26.015625 -99.9375 C 28.941406 -99.59375 31.796875 -98.785156 34.578125 -97.515625 C 37.359375 -96.253906 40.015625 -94.722656 42.546875 -92.921875 C 45.078125 -91.117188 47.46875 -89.335938 49.71875 -87.578125 C 51.757812 -85.921875 53.78125 -84.191406 55.78125 -82.390625 C 57.78125 -80.585938 59.851562 -78.859375 62 -77.203125 C 64.53125 -74.953125 67.085938 -72.707031 69.671875 -70.46875 C 72.253906 -68.226562 74.375 -65.644531 76.03125 -62.71875 C 77.976562 -59.40625 79.097656 -56.066406 79.390625 -52.703125 C 79.679688 -49.347656 79.4375 -46.035156 78.65625 -42.765625 C 77.875 -39.503906 76.65625 -36.3125 75 -33.1875 C 73.34375 -30.070312 71.539062 -27.050781 69.59375 -24.125 C 67.84375 -21.59375 65.820312 -18.910156 63.53125 -16.078125 C 61.238281 -13.253906 58.703125 -10.671875 55.921875 -8.328125 C 53.148438 -5.992188 50.175781 -4.144531 47 -2.78125 C 43.832031 -1.414062 40.492188 -0.925781 36.984375 -1.3125 C 34.941406 -1.601562 33.429688 -2.382812 32.453125 -3.65625 C 30.609375 -3.945312 28.804688 -4.335938 27.046875 -4.828125 C 25.296875 -5.316406 23.59375 -6.097656 21.9375 -7.171875 Z M 12.578125 -49.265625 C 12.378906 -46.835938 12.5 -44.597656 12.9375 -42.546875 C 13.375 -40.503906 14.128906 -38.210938 15.203125 -35.671875 C 16.566406 -32.847656 18.078125 -30 19.734375 -27.125 C 21.390625 -24.25 23.34375 -21.640625 25.59375 -19.296875 C 27.539062 -17.148438 29.78125 -15.835938 32.3125 -15.359375 C 33.96875 -15.054688 35.578125 -14.785156 37.140625 -14.546875 C 38.703125 -14.304688 40.257812 -13.941406 41.8125 -13.453125 C 42.394531 -13.648438 42.976562 -13.867188 43.5625 -14.109375 C 44.15625 -14.347656 44.742188 -14.710938 45.328125 -15.203125 C 46.984375 -16.273438 48.492188 -17.441406 49.859375 -18.703125 C 51.222656 -19.972656 52.539062 -21.289062 53.8125 -22.65625 C 56.238281 -25.382812 58.597656 -28.359375 60.890625 -31.578125 C 63.179688 -34.796875 65.007812 -38.113281 66.375 -41.53125 C 67.738281 -44.9375 68.273438 -48.148438 67.984375 -51.171875 C 67.691406 -54.191406 66.28125 -57.117188 63.75 -59.953125 C 61.40625 -62.578125 58.84375 -64.984375 56.0625 -67.171875 C 53.289062 -69.367188 50.585938 -71.585938 47.953125 -73.828125 C 45.710938 -75.785156 43.519531 -77.640625 41.375 -79.390625 C 39.226562 -81.148438 36.890625 -82.804688 34.359375 -84.359375 C 32.015625 -85.921875 29.722656 -87.09375 27.484375 -87.875 C 27.191406 -87.96875 26.921875 -88.039062 26.671875 -88.09375 C 26.429688 -88.144531 26.164062 -88.21875 25.875 -88.3125 L 23.6875 -88.453125 C 22.90625 -88.265625 22.414062 -88.070312 22.21875 -87.875 C 21.539062 -87.09375 21.148438 -86.703125 21.046875 -86.703125 C 20.367188 -85.535156 19.929688 -84.707031 19.734375 -84.21875 C 19.546875 -83.726562 19.253906 -82.945312 18.859375 -81.875 C 17.890625 -79.050781 17.0625 -76.203125 16.375 -73.328125 C 15.695312 -70.453125 15.113281 -67.597656 14.625 -64.765625 C 14.132812 -61.941406 13.71875 -59.359375 13.375 -57.015625 C 13.03125 -54.679688 12.765625 -52.097656 12.578125 -49.265625 Z M 12.578125 -49.265625 "/></g></g></g><g fill="#00ffff" fill-opacity="1"><g transform="translate(33.717973, 143.918289)"><g><path d="M 20.609375 -2.921875 C 20.609375 -1.066406 20 0.316406 18.78125 1.234375 C 17.5625 2.160156 16.222656 2.625 14.765625 2.625 C 13.304688 2.625 11.96875 2.160156 10.75 1.234375 C 9.53125 0.316406 8.921875 -1.066406 8.921875 -2.921875 C 8.921875 -18.515625 9.113281 -34.035156 9.5 -49.484375 C 9.894531 -64.941406 10.820312 -80.414062 12.28125 -95.90625 C 12.476562 -97.570312 13.085938 -98.890625 14.109375 -99.859375 C 15.128906 -100.835938 16.25 -101.398438 17.46875 -101.546875 C 18.6875 -101.691406 19.90625 -101.445312 21.125 -100.8125 C 22.34375 -100.175781 23.242188 -99.078125 23.828125 -97.515625 C 25.773438 -91.960938 27.578125 -86.382812 29.234375 -80.78125 C 30.898438 -75.175781 32.535156 -69.546875 34.140625 -63.890625 C 35.742188 -58.234375 37.398438 -52.601562 39.109375 -47 C 40.816406 -41.394531 42.691406 -35.863281 44.734375 -30.40625 C 49.804688 -43.175781 54.410156 -55.992188 58.546875 -68.859375 C 62.691406 -81.734375 66.035156 -94.941406 68.578125 -108.484375 C 68.867188 -109.953125 69.550781 -111.023438 70.625 -111.703125 C 71.695312 -112.390625 72.890625 -112.734375 74.203125 -112.734375 C 75.515625 -112.734375 76.707031 -112.390625 77.78125 -111.703125 C 78.851562 -111.023438 79.535156 -109.953125 79.828125 -108.484375 C 80.609375 -104.097656 80.875 -99.785156 80.625 -95.546875 C 80.382812 -91.304688 80.265625 -86.992188 80.265625 -82.609375 C 80.265625 -77.929688 80.53125 -73.347656 81.0625 -68.859375 C 81.601562 -64.378906 82.070312 -59.847656 82.46875 -55.265625 C 83.238281 -46.109375 83.816406 -36.945312 84.203125 -27.78125 C 84.597656 -18.613281 84.941406 -9.453125 85.234375 -0.296875 C 85.234375 1.648438 84.648438 3.085938 83.484375 4.015625 C 82.316406 4.941406 81 5.40625 79.53125 5.40625 C 78.070312 5.40625 76.707031 4.941406 75.4375 4.015625 C 74.175781 3.085938 73.546875 1.648438 73.546875 -0.296875 C 73.347656 -9.453125 73.03125 -18.613281 72.59375 -27.78125 C 72.15625 -36.945312 71.546875 -46.109375 70.765625 -55.265625 C 70.566406 -56.921875 70.394531 -58.625 70.25 -60.375 C 70.101562 -62.132812 69.929688 -63.84375 69.734375 -65.5 C 66.910156 -56.632812 63.863281 -47.910156 60.59375 -39.328125 C 57.332031 -30.753906 53.945312 -22.175781 50.4375 -13.59375 C 49.957031 -12.425781 49.253906 -11.425781 48.328125 -10.59375 C 47.398438 -9.769531 46.253906 -9.359375 44.890625 -9.359375 C 43.910156 -9.359375 42.929688 -9.625 41.953125 -10.15625 C 40.984375 -10.695312 40.253906 -11.40625 39.765625 -12.28125 C 35.867188 -20.851562 32.554688 -29.578125 29.828125 -38.453125 C 27.097656 -47.328125 24.414062 -56.296875 21.78125 -65.359375 C 21.289062 -54.929688 20.972656 -44.523438 20.828125 -34.140625 C 20.679688 -23.753906 20.609375 -13.347656 20.609375 -2.921875 Z M 20.609375 -2.921875 "/></g></g></g><g fill="#00ffff" fill-opacity="1"><g transform="translate(128.59708, 143.918289)"><g><path d="M 2.625 0 C 0.875 -0.488281 -0.289062 -1.460938 -0.875 -2.921875 C -1.457031 -4.390625 -1.550781 -5.804688 -1.15625 -7.171875 C -0.769531 -8.535156 0.03125 -9.675781 1.25 -10.59375 C 2.46875 -11.519531 3.953125 -11.742188 5.703125 -11.265625 C 9.597656 -10.085938 13.492188 -9.351562 17.390625 -9.0625 C 21.296875 -8.769531 25.296875 -8.722656 29.390625 -8.921875 C 27.734375 -15.835938 26.90625 -22.78125 26.90625 -29.75 C 26.90625 -36.71875 27.171875 -43.6875 27.703125 -50.65625 C 28.242188 -57.625 28.78125 -64.617188 29.3125 -71.640625 C 29.851562 -78.660156 29.878906 -85.679688 29.390625 -92.703125 C 25.679688 -92.796875 21.953125 -92.960938 18.203125 -93.203125 C 14.453125 -93.453125 10.722656 -93.820312 7.015625 -94.3125 C 5.359375 -94.5 3.96875 -95.078125 2.84375 -96.046875 C 1.726562 -97.023438 1.171875 -98.34375 1.171875 -100 C 1.171875 -101.46875 1.726562 -102.859375 2.84375 -104.171875 C 3.96875 -105.484375 5.359375 -106.046875 7.015625 -105.859375 C 11.503906 -105.367188 16.015625 -104.953125 20.546875 -104.609375 C 25.078125 -104.265625 29.582031 -104.140625 34.0625 -104.234375 C 38.550781 -104.335938 43.007812 -104.726562 47.4375 -105.40625 C 51.875 -106.09375 56.285156 -107.21875 60.671875 -108.78125 C 62.140625 -109.269531 63.578125 -109.070312 64.984375 -108.1875 C 66.398438 -107.3125 67.351562 -106.144531 67.84375 -104.6875 C 68.332031 -103.03125 68.160156 -101.539062 67.328125 -100.21875 C 66.503906 -98.90625 65.3125 -98.003906 63.75 -97.515625 C 56.4375 -94.984375 48.832031 -93.472656 40.9375 -92.984375 C 41.519531 -86.066406 41.519531 -79.097656 40.9375 -72.078125 C 40.351562 -65.054688 39.769531 -58.085938 39.1875 -51.171875 C 38.601562 -44.253906 38.332031 -37.332031 38.375 -30.40625 C 38.425781 -23.488281 39.328125 -16.617188 41.078125 -9.796875 C 44.203125 -10.085938 47.273438 -10.378906 50.296875 -10.671875 C 53.316406 -10.960938 56.335938 -11.207031 59.359375 -11.40625 C 61.210938 -11.5 62.601562 -10.984375 63.53125 -9.859375 C 64.457031 -8.742188 64.921875 -7.453125 64.921875 -5.984375 C 64.921875 -4.523438 64.457031 -3.160156 63.53125 -1.890625 C 62.601562 -0.628906 61.210938 0.046875 59.359375 0.140625 C 54.585938 0.429688 49.835938 0.84375 45.109375 1.375 C 40.378906 1.914062 35.648438 2.304688 30.921875 2.546875 C 26.191406 2.796875 21.460938 2.773438 16.734375 2.484375 C 12.015625 2.191406 7.3125 1.363281 2.625 0 Z M 2.625 0 "/></g></g></g><g fill="#00ffff" fill-opacity="1"><g transform="translate(195.114791, 143.918289)"><g><path d="M 6.71875 -88.015625 C 4.769531 -88.597656 3.601562 -89.863281 3.21875 -91.8125 C 2.726562 -93.175781 2.875 -94.660156 3.65625 -96.265625 C 4.4375 -97.878906 5.65625 -98.785156 7.3125 -98.984375 C 16.769531 -100.441406 26.25 -101.242188 35.75 -101.390625 C 45.25 -101.535156 54.773438 -101.660156 64.328125 -101.765625 C 66.179688 -101.765625 67.59375 -101.175781 68.5625 -100 C 69.539062 -98.832031 70.03125 -97.515625 70.03125 -96.046875 C 70.03125 -94.585938 69.539062 -93.25 68.5625 -92.03125 C 67.59375 -90.820312 66.179688 -90.21875 64.328125 -90.21875 C 56.722656 -90.019531 49.070312 -89.921875 41.375 -89.921875 C 33.675781 -89.921875 25.976562 -89.53125 18.28125 -88.75 C 18.46875 -84.851562 18.707031 -80.976562 19 -77.125 C 19.300781 -73.269531 19.597656 -69.394531 19.890625 -65.5 C 27.296875 -65.894531 34.675781 -66.382812 42.03125 -66.96875 C 49.394531 -67.550781 56.78125 -67.644531 64.1875 -67.25 C 66.039062 -67.15625 67.453125 -66.472656 68.421875 -65.203125 C 69.398438 -63.941406 69.890625 -62.578125 69.890625 -61.109375 C 69.890625 -59.648438 69.398438 -58.332031 68.421875 -57.15625 C 67.453125 -55.988281 66.039062 -55.457031 64.1875 -55.5625 C 56.875 -55.945312 49.632812 -55.847656 42.46875 -55.265625 C 35.3125 -54.679688 28.078125 -54.195312 20.765625 -53.8125 C 21.347656 -46.789062 21.90625 -39.796875 22.4375 -32.828125 C 22.976562 -25.859375 23.347656 -18.863281 23.546875 -11.84375 C 26.953125 -12.625 30.410156 -13.378906 33.921875 -14.109375 C 37.429688 -14.835938 40.941406 -15.421875 44.453125 -15.859375 C 47.960938 -16.296875 51.46875 -16.515625 54.96875 -16.515625 C 58.476562 -16.515625 61.988281 -16.222656 65.5 -15.640625 C 67.0625 -15.347656 68.234375 -14.421875 69.015625 -12.859375 C 69.796875 -11.304688 69.988281 -9.847656 69.59375 -8.484375 C 69.101562 -6.828125 68.175781 -5.65625 66.8125 -4.96875 C 65.445312 -4.289062 63.9375 -4.097656 62.28125 -4.390625 C 59.164062 -4.972656 56 -5.164062 52.78125 -4.96875 C 49.5625 -4.769531 46.394531 -4.429688 43.28125 -3.953125 C 39.675781 -3.367188 36.09375 -2.6875 32.53125 -1.90625 C 28.96875 -1.125 25.4375 -0.296875 21.9375 0.578125 C 20.28125 0.972656 18.71875 0.679688 17.25 -0.296875 C 15.882812 -0.484375 14.664062 -1.015625 13.59375 -1.890625 C 12.519531 -2.773438 11.984375 -4.09375 11.984375 -5.84375 C 11.796875 -14.132812 11.429688 -22.320312 10.890625 -30.40625 C 10.359375 -38.5 9.75 -46.640625 9.0625 -54.828125 C 7.988281 -55.898438 7.378906 -57.238281 7.234375 -58.84375 C 7.085938 -60.457031 7.503906 -61.847656 8.484375 -63.015625 C 7.703125 -71.296875 7.113281 -79.628906 6.71875 -88.015625 Z M 6.71875 -88.015625 "/></g></g></g><g fill="#00ffff" fill-opacity="1"><g transform="translate(271.13503, 143.918289)"><g><path d="M 76.46875 -36.109375 C 75.976562 -30.160156 74.222656 -24.875 71.203125 -20.25 C 68.179688 -15.625 64.1875 -11.703125 59.21875 -8.484375 C 55.90625 -6.429688 52.347656 -4.578125 48.546875 -2.921875 C 44.742188 -1.265625 40.941406 0 37.140625 0.875 C 33.722656 1.65625 30.378906 1.992188 27.109375 1.890625 C 23.847656 1.796875 20.5625 1.554688 17.25 1.171875 C 16.46875 2.046875 15.515625 2.65625 14.390625 3 C 13.273438 3.34375 12.179688 3.367188 11.109375 3.078125 C 8.867188 2.484375 7.503906 1.066406 7.015625 -1.171875 C 5.847656 -2.335938 5.265625 -3.75 5.265625 -5.40625 C 5.265625 -7.550781 6.238281 -9.257812 8.1875 -10.53125 C 8.769531 -14.425781 9.234375 -18.320312 9.578125 -22.21875 C 9.921875 -26.125 10.1875 -30.070312 10.375 -34.0625 C 10.664062 -38.738281 10.910156 -43.367188 11.109375 -47.953125 C 11.304688 -52.535156 11.359375 -57.164062 11.265625 -61.84375 C 11.265625 -64.769531 11.164062 -67.789062 10.96875 -70.90625 C 10.769531 -74.03125 10.671875 -77.125 10.671875 -80.1875 C 10.671875 -83.257812 10.84375 -86.304688 11.1875 -89.328125 C 11.53125 -92.347656 12.238281 -95.273438 13.3125 -98.109375 C 12.820312 -99.671875 12.914062 -101.28125 13.59375 -102.9375 C 14.28125 -104.59375 15.597656 -105.613281 17.546875 -106 C 18.710938 -107.269531 20.097656 -107.851562 21.703125 -107.75 C 23.316406 -107.65625 24.660156 -107.117188 25.734375 -106.140625 C 30.503906 -105.753906 35.15625 -104.851562 39.6875 -103.4375 C 44.226562 -102.03125 48.398438 -99.765625 52.203125 -96.640625 C 56.878906 -92.941406 60.628906 -88.484375 63.453125 -83.265625 C 66.273438 -78.046875 68.566406 -72.660156 70.328125 -67.109375 C 71.109375 -64.671875 71.910156 -62.1875 72.734375 -59.65625 C 73.566406 -57.125 74.300781 -54.539062 74.9375 -51.90625 C 75.570312 -49.269531 76.035156 -46.632812 76.328125 -44 C 76.617188 -41.375 76.664062 -38.742188 76.46875 -36.109375 Z M 52.046875 -17.84375 C 53.316406 -18.613281 54.460938 -19.390625 55.484375 -20.171875 C 56.503906 -20.953125 57.550781 -21.878906 58.625 -22.953125 C 59.507812 -23.929688 60.191406 -24.710938 60.671875 -25.296875 C 61.160156 -25.878906 61.75 -26.753906 62.4375 -27.921875 C 64.09375 -31.335938 64.867188 -35.191406 64.765625 -39.484375 C 64.765625 -41.910156 64.566406 -44.171875 64.171875 -46.265625 C 63.785156 -48.367188 63.207031 -50.734375 62.4375 -53.359375 C 61.65625 -56.085938 60.847656 -58.789062 60.015625 -61.46875 C 59.191406 -64.15625 58.242188 -66.765625 57.171875 -69.296875 C 56.390625 -71.441406 55.335938 -73.757812 54.015625 -76.25 C 52.703125 -78.738281 51.363281 -80.8125 50 -82.46875 C 46.59375 -86.5625 42.742188 -89.507812 38.453125 -91.3125 C 34.160156 -93.113281 29.484375 -94.160156 24.421875 -94.453125 C 23.347656 -91.722656 22.6875 -88.867188 22.4375 -85.890625 C 22.195312 -82.921875 22.125 -79.925781 22.21875 -76.90625 C 22.320312 -73.882812 22.492188 -70.863281 22.734375 -67.84375 C 22.972656 -64.820312 23.046875 -61.894531 22.953125 -59.0625 C 22.566406 -50.78125 22.203125 -42.59375 21.859375 -34.5 C 21.515625 -26.414062 20.804688 -18.28125 19.734375 -10.09375 C 21.492188 -9.894531 23.273438 -9.742188 25.078125 -9.640625 C 26.878906 -9.546875 28.65625 -9.597656 30.40625 -9.796875 C 34.113281 -10.179688 37.84375 -11.128906 41.59375 -12.640625 C 45.34375 -14.148438 48.828125 -15.882812 52.046875 -17.84375 Z M 52.046875 -17.84375 "/></g></g></g><g clip-path="url(#316eac5d22)"><g fill="#00ffff" fill-opacity="1"><g transform="translate(354.464909, 143.918289)"><g><path d="M 21.9375 -7.171875 C 19.6875 -8.828125 17.660156 -10.703125 15.859375 -12.796875 C 14.054688 -14.890625 12.425781 -17.109375 10.96875 -19.453125 C 9.601562 -21.492188 8.285156 -23.679688 7.015625 -26.015625 C 5.753906 -28.359375 4.632812 -30.75 3.65625 -33.1875 C 2.675781 -35.625 1.914062 -38.109375 1.375 -40.640625 C 0.84375 -43.179688 0.675781 -45.71875 0.875 -48.25 C 1.164062 -53.21875 1.675781 -58.113281 2.40625 -62.9375 C 3.144531 -67.769531 4.144531 -72.523438 5.40625 -77.203125 C 5.800781 -78.953125 6.289062 -80.898438 6.875 -83.046875 C 7.457031 -85.191406 8.210938 -87.265625 9.140625 -89.265625 C 10.066406 -91.265625 11.160156 -93.09375 12.421875 -94.75 C 13.691406 -96.40625 15.300781 -97.671875 17.25 -98.546875 C 20.175781 -99.816406 23.097656 -100.28125 26.015625 -99.9375 C 28.941406 -99.59375 31.796875 -98.785156 34.578125 -97.515625 C 37.359375 -96.253906 40.015625 -94.722656 42.546875 -92.921875 C 45.078125 -91.117188 47.46875 -89.335938 49.71875 -87.578125 C 51.757812 -85.921875 53.78125 -84.191406 55.78125 -82.390625 C 57.78125 -80.585938 59.851562 -78.859375 62 -77.203125 C 64.53125 -74.953125 67.085938 -72.707031 69.671875 -70.46875 C 72.253906 -68.226562 74.375 -65.644531 76.03125 -62.71875 C 77.976562 -59.40625 79.097656 -56.066406 79.390625 -52.703125 C 79.679688 -49.347656 79.4375 -46.035156 78.65625 -42.765625 C 77.875 -39.503906 76.65625 -36.3125 75 -33.1875 C 73.34375 -30.070312 71.539062 -27.050781 69.59375 -24.125 C 67.84375 -21.59375 65.820312 -18.910156 63.53125 -16.078125 C 61.238281 -13.253906 58.703125 -10.671875 55.921875 -8.328125 C 53.148438 -5.992188 50.175781 -4.144531 47 -2.78125 C 43.832031 -1.414062 40.492188 -0.925781 36.984375 -1.3125 C 34.941406 -1.601562 33.429688 -2.382812 32.453125 -3.65625 C 30.609375 -3.945312 28.804688 -4.335938 27.046875 -4.828125 C 25.296875 -5.316406 23.59375 -6.097656 21.9375 -7.171875 Z M 12.578125 -49.265625 C 12.378906 -46.835938 12.5 -44.597656 12.9375 -42.546875 C 13.375 -40.503906 14.128906 -38.210938 15.203125 -35.671875 C 16.566406 -32.847656 18.078125 -30 19.734375 -27.125 C 21.390625 -24.25 23.34375 -21.640625 25.59375 -19.296875 C 27.539062 -17.148438 29.78125 -15.835938 32.3125 -15.359375 C 33.96875 -15.054688 35.578125 -14.785156 37.140625 -14.546875 C 38.703125 -14.304688 40.257812 -13.941406 41.8125 -13.453125 C 42.394531 -13.648438 42.976562 -13.867188 43.5625 -14.109375 C 44.15625 -14.347656 44.742188 -14.710938 45.328125 -15.203125 C 46.984375 -16.273438 48.492188 -17.441406 49.859375 -18.703125 C 51.222656 -19.972656 52.539062 -21.289062 53.8125 -22.65625 C 56.238281 -25.382812 58.597656 -28.359375 60.890625 -31.578125 C 63.179688 -34.796875 65.007812 -38.113281 66.375 -41.53125 C 67.738281 -44.9375 68.273438 -48.148438 67.984375 -51.171875 C 67.691406 -54.191406 66.28125 -57.117188 63.75 -59.953125 C 61.40625 -62.578125 58.84375 -64.984375 56.0625 -67.171875 C 53.289062 -69.367188 50.585938 -71.585938 47.953125 -73.828125 C 45.710938 -75.785156 43.519531 -77.640625 41.375 -79.390625 C 39.226562 -81.148438 36.890625 -82.804688 34.359375 -84.359375 C 32.015625 -85.921875 29.722656 -87.09375 27.484375 -87.875 C 27.191406 -87.96875 26.921875 -88.039062 26.671875 -88.09375 C 26.429688 -88.144531 26.164062 -88.21875 25.875 -88.3125 L 23.6875 -88.453125 C 22.90625 -88.265625 22.414062 -88.070312 22.21875 -87.875 C 21.539062 -87.09375 21.148438 -86.703125 21.046875 -86.703125 C 20.367188 -85.535156 19.929688 -84.707031 19.734375 -84.21875 C 19.546875 -83.726562 19.253906 -82.945312 18.859375 -81.875 C 17.890625 -79.050781 17.0625 -76.203125 16.375 -73.328125 C 15.695312 -70.453125 15.113281 -67.597656 14.625 -64.765625 C 14.132812 -61.941406 13.71875 -59.359375 13.375 -57.015625 C 13.03125 -54.679688 12.765625 -52.097656 12.578125 -49.265625 Z M 12.578125 -49.265625 "/></g></g></g></g><g fill="#dfb28b" fill-opacity="1"><g transform="translate(28.266221, 145.902562)"><g><path d="M 20.609375 -2.921875 C 20.609375 -1.066406 20 0.316406 18.78125 1.234375 C 17.5625 2.160156 16.222656 2.625 14.765625 2.625 C 13.304688 2.625 11.96875 2.160156 10.75 1.234375 C 9.53125 0.316406 8.921875 -1.066406 8.921875 -2.921875 C 8.921875 -18.515625 9.113281 -34.035156 9.5 -49.484375 C 9.894531 -64.941406 10.820312 -80.414062 12.28125 -95.90625 C 12.476562 -97.570312 13.085938 -98.890625 14.109375 -99.859375 C 15.128906 -100.835938 16.25 -101.398438 17.46875 -101.546875 C 18.6875 -101.691406 19.90625 -101.445312 21.125 -100.8125 C 22.34375 -100.175781 23.242188 -99.078125 23.828125 -97.515625 C 25.773438 -91.960938 27.578125 -86.382812 29.234375 -80.78125 C 30.898438 -75.175781 32.535156 -69.546875 34.140625 -63.890625 C 35.742188 -58.234375 37.398438 -52.601562 39.109375 -47 C 40.816406 -41.394531 42.691406 -35.863281 44.734375 -30.40625 C 49.804688 -43.175781 54.410156 -55.992188 58.546875 -68.859375 C 62.691406 -81.734375 66.035156 -94.941406 68.578125 -108.484375 C 68.867188 -109.953125 69.550781 -111.023438 70.625 -111.703125 C 71.695312 -112.390625 72.890625 -112.734375 74.203125 -112.734375 C 75.515625 -112.734375 76.707031 -112.390625 77.78125 -111.703125 C 78.851562 -111.023438 79.535156 -109.953125 79.828125 -108.484375 C 80.609375 -104.097656 80.875 -99.785156 80.625 -95.546875 C 80.382812 -91.304688 80.265625 -86.992188 80.265625 -82.609375 C 80.265625 -77.929688 80.53125 -73.347656 81.0625 -68.859375 C 81.601562 -64.378906 82.070312 -59.847656 82.46875 -55.265625 C 83.238281 -46.109375 83.816406 -36.945312 84.203125 -27.78125 C 84.597656 -18.613281 84.941406 -9.453125 85.234375 -0.296875 C 85.234375 1.648438 84.648438 3.085938 83.484375 4.015625 C 82.316406 4.941406 81 5.40625 79.53125 5.40625 C 78.070312 5.40625 76.707031 4.941406 75.4375 4.015625 C 74.175781 3.085938 73.546875 1.648438 73.546875 -0.296875 C 73.347656 -9.453125 73.03125 -18.613281 72.59375 -27.78125 C 72.15625 -36.945312 71.546875 -46.109375 70.765625 -55.265625 C 70.566406 -56.921875 70.394531 -58.625 70.25 -60.375 C 70.101562 -62.132812 69.929688 -63.84375 69.734375 -65.5 C 66.910156 -56.632812 63.863281 -47.910156 60.59375 -39.328125 C 57.332031 -30.753906 53.945312 -22.175781 50.4375 -13.59375 C 49.957031 -12.425781 49.253906 -11.425781 48.328125 -10.59375 C 47.398438 -9.769531 46.253906 -9.359375 44.890625 -9.359375 C 43.910156 -9.359375 42.929688 -9.625 41.953125 -10.15625 C 40.984375 -10.695312 40.253906 -11.40625 39.765625 -12.28125 C 35.867188 -20.851562 32.554688 -29.578125 29.828125 -38.453125 C 27.097656 -47.328125 24.414062 -56.296875 21.78125 -65.359375 C 21.289062 -54.929688 20.972656 -44.523438 20.828125 -34.140625 C 20.679688 -23.753906 20.609375 -13.347656 20.609375 -2.921875 Z M 20.609375 -2.921875 "/></g></g></g><g fill="#dfb28b" fill-opacity="1"><g transform="translate(123.145328, 145.902562)"><g><path d="M 2.625 0 C 0.875 -0.488281 -0.289062 -1.460938 -0.875 -2.921875 C -1.457031 -4.390625 -1.550781 -5.804688 -1.15625 -7.171875 C -0.769531 -8.535156 0.03125 -9.675781 1.25 -10.59375 C 2.46875 -11.519531 3.953125 -11.742188 5.703125 -11.265625 C 9.597656 -10.085938 13.492188 -9.351562 17.390625 -9.0625 C 21.296875 -8.769531 25.296875 -8.722656 29.390625 -8.921875 C 27.734375 -15.835938 26.90625 -22.78125 26.90625 -29.75 C 26.90625 -36.71875 27.171875 -43.6875 27.703125 -50.65625 C 28.242188 -57.625 28.78125 -64.617188 29.3125 -71.640625 C 29.851562 -78.660156 29.878906 -85.679688 29.390625 -92.703125 C 25.679688 -92.796875 21.953125 -92.960938 18.203125 -93.203125 C 14.453125 -93.453125 10.722656 -93.820312 7.015625 -94.3125 C 5.359375 -94.5 3.96875 -95.078125 2.84375 -96.046875 C 1.726562 -97.023438 1.171875 -98.34375 1.171875 -100 C 1.171875 -101.46875 1.726562 -102.859375 2.84375 -104.171875 C 3.96875 -105.484375 5.359375 -106.046875 7.015625 -105.859375 C 11.503906 -105.367188 16.015625 -104.953125 20.546875 -104.609375 C 25.078125 -104.265625 29.582031 -104.140625 34.0625 -104.234375 C 38.550781 -104.335938 43.007812 -104.726562 47.4375 -105.40625 C 51.875 -106.09375 56.285156 -107.21875 60.671875 -108.78125 C 62.140625 -109.269531 63.578125 -109.070312 64.984375 -108.1875 C 66.398438 -107.3125 67.351562 -106.144531 67.84375 -104.6875 C 68.332031 -103.03125 68.160156 -101.539062 67.328125 -100.21875 C 66.503906 -98.90625 65.3125 -98.003906 63.75 -97.515625 C 56.4375 -94.984375 48.832031 -93.472656 40.9375 -92.984375 C 41.519531 -86.066406 41.519531 -79.097656 40.9375 -72.078125 C 40.351562 -65.054688 39.769531 -58.085938 39.1875 -51.171875 C 38.601562 -44.253906 38.332031 -37.332031 38.375 -30.40625 C 38.425781 -23.488281 39.328125 -16.617188 41.078125 -9.796875 C 44.203125 -10.085938 47.273438 -10.378906 50.296875 -10.671875 C 53.316406 -10.960938 56.335938 -11.207031 59.359375 -11.40625 C 61.210938 -11.5 62.601562 -10.984375 63.53125 -9.859375 C 64.457031 -8.742188 64.921875 -7.453125 64.921875 -5.984375 C 64.921875 -4.523438 64.457031 -3.160156 63.53125 -1.890625 C 62.601562 -0.628906 61.210938 0.046875 59.359375 0.140625 C 54.585938 0.429688 49.835938 0.84375 45.109375 1.375 C 40.378906 1.914062 35.648438 2.304688 30.921875 2.546875 C 26.191406 2.796875 21.460938 2.773438 16.734375 2.484375 C 12.015625 2.191406 7.3125 1.363281 2.625 0 Z M 2.625 0 "/></g></g></g><g fill="#dfb28b" fill-opacity="1"><g transform="translate(189.663039, 145.902562)"><g><path d="M 6.71875 -88.015625 C 4.769531 -88.597656 3.601562 -89.863281 3.21875 -91.8125 C 2.726562 -93.175781 2.875 -94.660156 3.65625 -96.265625 C 4.4375 -97.878906 5.65625 -98.785156 7.3125 -98.984375 C 16.769531 -100.441406 26.25 -101.242188 35.75 -101.390625 C 45.25 -101.535156 54.773438 -101.660156 64.328125 -101.765625 C 66.179688 -101.765625 67.59375 -101.175781 68.5625 -100 C 69.539062 -98.832031 70.03125 -97.515625 70.03125 -96.046875 C 70.03125 -94.585938 69.539062 -93.25 68.5625 -92.03125 C 67.59375 -90.820312 66.179688 -90.21875 64.328125 -90.21875 C 56.722656 -90.019531 49.070312 -89.921875 41.375 -89.921875 C 33.675781 -89.921875 25.976562 -89.53125 18.28125 -88.75 C 18.46875 -84.851562 18.707031 -80.976562 19 -77.125 C 19.300781 -73.269531 19.597656 -69.394531 19.890625 -65.5 C 27.296875 -65.894531 34.675781 -66.382812 42.03125 -66.96875 C 49.394531 -67.550781 56.78125 -67.644531 64.1875 -67.25 C 66.039062 -67.15625 67.453125 -66.472656 68.421875 -65.203125 C 69.398438 -63.941406 69.890625 -62.578125 69.890625 -61.109375 C 69.890625 -59.648438 69.398438 -58.332031 68.421875 -57.15625 C 67.453125 -55.988281 66.039062 -55.457031 64.1875 -55.5625 C 56.875 -55.945312 49.632812 -55.847656 42.46875 -55.265625 C 35.3125 -54.679688 28.078125 -54.195312 20.765625 -53.8125 C 21.347656 -46.789062 21.90625 -39.796875 22.4375 -32.828125 C 22.976562 -25.859375 23.347656 -18.863281 23.546875 -11.84375 C 26.953125 -12.625 30.410156 -13.378906 33.921875 -14.109375 C 37.429688 -14.835938 40.941406 -15.421875 44.453125 -15.859375 C 47.960938 -16.296875 51.46875 -16.515625 54.96875 -16.515625 C 58.476562 -16.515625 61.988281 -16.222656 65.5 -15.640625 C 67.0625 -15.347656 68.234375 -14.421875 69.015625 -12.859375 C 69.796875 -11.304688 69.988281 -9.847656 69.59375 -8.484375 C 69.101562 -6.828125 68.175781 -5.65625 66.8125 -4.96875 C 65.445312 -4.289062 63.9375 -4.097656 62.28125 -4.390625 C 59.164062 -4.972656 56 -5.164062 52.78125 -4.96875 C 49.5625 -4.769531 46.394531 -4.429688 43.28125 -3.953125 C 39.675781 -3.367188 36.09375 -2.6875 32.53125 -1.90625 C 28.96875 -1.125 25.4375 -0.296875 21.9375 0.578125 C 20.28125 0.972656 18.71875 0.679688 17.25 -0.296875 C 15.882812 -0.484375 14.664062 -1.015625 13.59375 -1.890625 C 12.519531 -2.773438 11.984375 -4.09375 11.984375 -5.84375 C 11.796875 -14.132812 11.429688 -22.320312 10.890625 -30.40625 C 10.359375 -38.5 9.75 -46.640625 9.0625 -54.828125 C 7.988281 -55.898438 7.378906 -57.238281 7.234375 -58.84375 C 7.085938 -60.457031 7.503906 -61.847656 8.484375 -63.015625 C 7.703125 -71.296875 7.113281 -79.628906 6.71875 -88.015625 Z M 6.71875 -88.015625 "/></g></g></g><g fill="#dfb28b" fill-opacity="1"><g transform="translate(265.683279, 145.902562)"><g><path d="M 76.46875 -36.109375 C 75.976562 -30.160156 74.222656 -24.875 71.203125 -20.25 C 68.179688 -15.625 64.1875 -11.703125 59.21875 -8.484375 C 55.90625 -6.429688 52.347656 -4.578125 48.546875 -2.921875 C 44.742188 -1.265625 40.941406 0 37.140625 0.875 C 33.722656 1.65625 30.378906 1.992188 27.109375 1.890625 C 23.847656 1.796875 20.5625 1.554688 17.25 1.171875 C 16.46875 2.046875 15.515625 2.65625 14.390625 3 C 13.273438 3.34375 12.179688 3.367188 11.109375 3.078125 C 8.867188 2.484375 7.503906 1.066406 7.015625 -1.171875 C 5.847656 -2.335938 5.265625 -3.75 5.265625 -5.40625 C 5.265625 -7.550781 6.238281 -9.257812 8.1875 -10.53125 C 8.769531 -14.425781 9.234375 -18.320312 9.578125 -22.21875 C 9.921875 -26.125 10.1875 -30.070312 10.375 -34.0625 C 10.664062 -38.738281 10.910156 -43.367188 11.109375 -47.953125 C 11.304688 -52.535156 11.359375 -57.164062 11.265625 -61.84375 C 11.265625 -64.769531 11.164062 -67.789062 10.96875 -70.90625 C 10.769531 -74.03125 10.671875 -77.125 10.671875 -80.1875 C 10.671875 -83.257812 10.84375 -86.304688 11.1875 -89.328125 C 11.53125 -92.347656 12.238281 -95.273438 13.3125 -98.109375 C 12.820312 -99.671875 12.914062 -101.28125 13.59375 -102.9375 C 14.28125 -104.59375 15.597656 -105.613281 17.546875 -106 C 18.710938 -107.269531 20.097656 -107.851562 21.703125 -107.75 C 23.316406 -107.65625 24.660156 -107.117188 25.734375 -106.140625 C 30.503906 -105.753906 35.15625 -104.851562 39.6875 -103.4375 C 44.226562 -102.03125 48.398438 -99.765625 52.203125 -96.640625 C 56.878906 -92.941406 60.628906 -88.484375 63.453125 -83.265625 C 66.273438 -78.046875 68.566406 -72.660156 70.328125 -67.109375 C 71.109375 -64.671875 71.910156 -62.1875 72.734375 -59.65625 C 73.566406 -57.125 74.300781 -54.539062 74.9375 -51.90625 C 75.570312 -49.269531 76.035156 -46.632812 76.328125 -44 C 76.617188 -41.375 76.664062 -38.742188 76.46875 -36.109375 Z M 52.046875 -17.84375 C 53.316406 -18.613281 54.460938 -19.390625 55.484375 -20.171875 C 56.503906 -20.953125 57.550781 -21.878906 58.625 -22.953125 C 59.507812 -23.929688 60.191406 -24.710938 60.671875 -25.296875 C 61.160156 -25.878906 61.75 -26.753906 62.4375 -27.921875 C 64.09375 -31.335938 64.867188 -35.191406 64.765625 -39.484375 C 64.765625 -41.910156 64.566406 -44.171875 64.171875 -46.265625 C 63.785156 -48.367188 63.207031 -50.734375 62.4375 -53.359375 C 61.65625 -56.085938 60.847656 -58.789062 60.015625 -61.46875 C 59.191406 -64.15625 58.242188 -66.765625 57.171875 -69.296875 C 56.390625 -71.441406 55.335938 -73.757812 54.015625 -76.25 C 52.703125 -78.738281 51.363281 -80.8125 50 -82.46875 C 46.59375 -86.5625 42.742188 -89.507812 38.453125 -91.3125 C 34.160156 -93.113281 29.484375 -94.160156 24.421875 -94.453125 C 23.347656 -91.722656 22.6875 -88.867188 22.4375 -85.890625 C 22.195312 -82.921875 22.125 -79.925781 22.21875 -76.90625 C 22.320312 -73.882812 22.492188 -70.863281 22.734375 -67.84375 C 22.972656 -64.820312 23.046875 -61.894531 22.953125 -59.0625 C 22.566406 -50.78125 22.203125 -42.59375 21.859375 -34.5 C 21.515625 -26.414062 20.804688 -18.28125 19.734375 -10.09375 C 21.492188 -9.894531 23.273438 -9.742188 25.078125 -9.640625 C 26.878906 -9.546875 28.65625 -9.597656 30.40625 -9.796875 C 34.113281 -10.179688 37.84375 -11.128906 41.59375 -12.640625 C 45.34375 -14.148438 48.828125 -15.882812 52.046875 -17.84375 Z M 52.046875 -17.84375 "/></g></g></g><g clip-path="url(#5f8a22c906)"><g fill="#dfb28b" fill-opacity="1"><g transform="translate(349.013157, 145.902562)"><g><path d="M 21.9375 -7.171875 C 19.6875 -8.828125 17.660156 -10.703125 15.859375 -12.796875 C 14.054688 -14.890625 12.425781 -17.109375 10.96875 -19.453125 C 9.601562 -21.492188 8.285156 -23.679688 7.015625 -26.015625 C 5.753906 -28.359375 4.632812 -30.75 3.65625 -33.1875 C 2.675781 -35.625 1.914062 -38.109375 1.375 -40.640625 C 0.84375 -43.179688 0.675781 -45.71875 0.875 -48.25 C 1.164062 -53.21875 1.675781 -58.113281 2.40625 -62.9375 C 3.144531 -67.769531 4.144531 -72.523438 5.40625 -77.203125 C 5.800781 -78.953125 6.289062 -80.898438 6.875 -83.046875 C 7.457031 -85.191406 8.210938 -87.265625 9.140625 -89.265625 C 10.066406 -91.265625 11.160156 -93.09375 12.421875 -94.75 C 13.691406 -96.40625 15.300781 -97.671875 17.25 -98.546875 C 20.175781 -99.816406 23.097656 -100.28125 26.015625 -99.9375 C 28.941406 -99.59375 31.796875 -98.785156 34.578125 -97.515625 C 37.359375 -96.253906 40.015625 -94.722656 42.546875 -92.921875 C 45.078125 -91.117188 47.46875 -89.335938 49.71875 -87.578125 C 51.757812 -85.921875 53.78125 -84.191406 55.78125 -82.390625 C 57.78125 -80.585938 59.851562 -78.859375 62 -77.203125 C 64.53125 -74.953125 67.085938 -72.707031 69.671875 -70.46875 C 72.253906 -68.226562 74.375 -65.644531 76.03125 -62.71875 C 77.976562 -59.40625 79.097656 -56.066406 79.390625 -52.703125 C 79.679688 -49.347656 79.4375 -46.035156 78.65625 -42.765625 C 77.875 -39.503906 76.65625 -36.3125 75 -33.1875 C 73.34375 -30.070312 71.539062 -27.050781 69.59375 -24.125 C 67.84375 -21.59375 65.820312 -18.910156 63.53125 -16.078125 C 61.238281 -13.253906 58.703125 -10.671875 55.921875 -8.328125 C 53.148438 -5.992188 50.175781 -4.144531 47 -2.78125 C 43.832031 -1.414062 40.492188 -0.925781 36.984375 -1.3125 C 34.941406 -1.601562 33.429688 -2.382812 32.453125 -3.65625 C 30.609375 -3.945312 28.804688 -4.335938 27.046875 -4.828125 C 25.296875 -5.316406 23.59375 -6.097656 21.9375 -7.171875 Z M 12.578125 -49.265625 C 12.378906 -46.835938 12.5 -44.597656 12.9375 -42.546875 C 13.375 -40.503906 14.128906 -38.210938 15.203125 -35.671875 C 16.566406 -32.847656 18.078125 -30 19.734375 -27.125 C 21.390625 -24.25 23.34375 -21.640625 25.59375 -19.296875 C 27.539062 -17.148438 29.78125 -15.835938 32.3125 -15.359375 C 33.96875 -15.054688 35.578125 -14.785156 37.140625 -14.546875 C 38.703125 -14.304688 40.257812 -13.941406 41.8125 -13.453125 C 42.394531 -13.648438 42.976562 -13.867188 43.5625 -14.109375 C 44.15625 -14.347656 44.742188 -14.710938 45.328125 -15.203125 C 46.984375 -16.273438 48.492188 -17.441406 49.859375 -18.703125 C 51.222656 -19.972656 52.539062 -21.289062 53.8125 -22.65625 C 56.238281 -25.382812 58.597656 -28.359375 60.890625 -31.578125 C 63.179688 -34.796875 65.007812 -38.113281 66.375 -41.53125 C 67.738281 -44.9375 68.273438 -48.148438 67.984375 -51.171875 C 67.691406 -54.191406 66.28125 -57.117188 63.75 -59.953125 C 61.40625 -62.578125 58.84375 -64.984375 56.0625 -67.171875 C 53.289062 -69.367188 50.585938 -71.585938 47.953125 -73.828125 C 45.710938 -75.785156 43.519531 -77.640625 41.375 -79.390625 C 39.226562 -81.148438 36.890625 -82.804688 34.359375 -84.359375 C 32.015625 -85.921875 29.722656 -87.09375 27.484375 -87.875 C 27.191406 -87.96875 26.921875 -88.039062 26.671875 -88.09375 C 26.429688 -88.144531 26.164062 -88.21875 25.875 -88.3125 L 23.6875 -88.453125 C 22.90625 -88.265625 22.414062 -88.070312 22.21875 -87.875 C 21.539062 -87.09375 21.148438 -86.703125 21.046875 -86.703125 C 20.367188 -85.535156 19.929688 -84.707031 19.734375 -84.21875 C 19.546875 -83.726562 19.253906 -82.945312 18.859375 -81.875 C 17.890625 -79.050781 17.0625 -76.203125 16.375 -73.328125 C 15.695312 -70.453125 15.113281 -67.597656 14.625 -64.765625 C 14.132812 -61.941406 13.71875 -59.359375 13.375 -57.015625 C 13.03125 -54.679688 12.765625 -52.097656 12.578125 -49.265625 Z M 12.578125 -49.265625 "/></g></g></g></g><g clip-path="url(#f9e8df866d)"><path fill="#f2f2f2" d="M 394.007812 234.636719 C 392.933594 233.527344 391.792969 232.5 390.605469 231.542969 C 391.816406 225.046875 391.046875 218.113281 388.222656 211.882812 C 383.300781 200.9375 372.773438 192.855469 360.058594 190.257812 C 357.902344 189.816406 355.722656 189.535156 353.441406 189.386719 C 350.867188 182.554688 346.019531 176.660156 339.675781 173 C 334.523438 170.03125 328.707031 168.53125 322.40625 168.53125 C 315.539062 168.53125 308.480469 170.335938 302.011719 173.769531 C 301.300781 174.152344 300.589844 174.550781 299.898438 174.964844 C 294.027344 169.691406 286.132812 166.824219 277.414062 166.824219 C 276.882812 166.824219 276.339844 166.835938 275.8125 166.859375 C 275.527344 166.847656 275.246094 166.847656 274.976562 166.847656 C 273.191406 166.847656 271.429688 167.003906 269.722656 167.320312 C 268.152344 165.515625 266.289062 163.898438 264.167969 162.523438 C 258.644531 158.933594 251.722656 157.113281 243.613281 157.113281 C 240.429688 157.113281 237.074219 157.382812 233.394531 157.925781 C 226.480469 158.941406 219.910156 161.078125 214.035156 164.183594 C 209.542969 162.160156 204.628906 161.101562 199.570312 161.101562 C 194.53125 161.101562 189.449219 162.195312 184.886719 164.25 C 178.972656 166.925781 173.910156 171.351562 170.296875 176.875 C 161.320312 178.535156 154.058594 184.679688 150.230469 188.574219 C 146.46875 192.414062 143.339844 196.683594 140.933594 201.277344 C 139.367188 204.28125 138.328125 207.230469 137.421875 209.835938 C 137.074219 210.832031 136.746094 211.789062 136.394531 212.707031 C 136.113281 212.839844 135.808594 212.976562 135.492188 213.125 C 134.609375 213.53125 133.605469 213.980469 132.589844 214.523438 C 128.265625 216.78125 124.1875 219.933594 120.808594 223.613281 C 114.203125 230.785156 109.945312 240.15625 108.804688 249.992188 C 108.253906 254.804688 108.171875 261.859375 110.917969 268.21875 C 112.113281 270.996094 113.988281 273.414062 116.292969 275.277344 C 117.09375 278.324219 118.507812 281.195312 120.496094 283.710938 C 121.613281 285.132812 122.898438 286.398438 124.300781 287.496094 C 124.355469 293.402344 126.445312 299.203125 130.421875 303.652344 C 134.441406 308.183594 140.347656 311.09375 146.648438 311.660156 C 147.269531 320.195312 148.027344 329.21875 148.546875 335.328125 C 147.925781 335.65625 147.441406 335.90625 147.136719 336.039062 C 141.917969 337.890625 138.382812 342.625 138.078125 348.191406 C 137.050781 367.320312 133.492188 383.796875 130.148438 395.605469 C 122.605469 397.277344 109.980469 401.625 100.257812 412.726562 C 91.742188 422.460938 88.058594 431.210938 83.800781 441.339844 L 82.933594 443.417969 C 80.796875 448.488281 78.710938 453.628906 76.6875 458.597656 L 75.535156 461.429688 C 75.082031 462.546875 74.53125 463.757812 73.953125 465.042969 C 71.742188 469.976562 69.222656 475.566406 68.75 482.050781 C 68.070312 491.535156 74.238281 501.078125 88.171875 512.085938 C 97.265625 519.28125 107.328125 525.1875 111.855469 527.398438 C 113.132812 528.019531 114.261719 528.710938 115.457031 529.445312 C 119.636719 531.996094 124.832031 535.179688 135.242188 535.179688 C 137.457031 535.179688 139.839844 535.042969 142.515625 534.773438 C 144.347656 534.582031 146.117188 534.140625 147.777344 533.441406 C 165.679688 537.132812 202.753906 543.707031 239.546875 543.707031 C 243.230469 543.707031 246.855469 543.636719 250.320312 543.503906 C 282.417969 542.238281 308.359375 534.625 322.203125 527.804688 C 330.582031 524.734375 355.710938 515.261719 367.410156 508.042969 C 381.074219 499.597656 392.867188 487.550781 393.363281 487.042969 L 397 483.316406 L 396.523438 478.121094 C 396.480469 477.625 395.394531 465.9375 394.546875 460.042969 C 394.4375 459.238281 394.265625 457.703125 394.027344 455.683594 C 391.78125 436.226562 389.148438 417.015625 385.105469 408.230469 C 379.089844 395.15625 355.8125 386.574219 348.132812 386.15625 C 336.46875 383.683594 305.761719 377.382812 289.90625 376.105469 L 286.933594 368.191406 C 286.503906 364.621094 286.085938 360.738281 285.773438 356.511719 C 290.0625 359.121094 294.839844 360.828125 299.796875 361.503906 C 301.605469 361.753906 303.421875 361.878906 305.207031 361.878906 C 310.402344 361.878906 315.257812 360.804688 319.335938 358.761719 C 321.355469 359.109375 323.480469 359.28125 325.691406 359.28125 C 326.519531 359.28125 327.363281 359.257812 328.222656 359.199219 C 336.625 358.671875 344.835938 356.773438 352.617188 353.554688 C 369.171875 346.722656 383.109375 334.628906 390.855469 320.390625 C 396.421875 310.203125 395.316406 302.265625 393.417969 297.441406 C 393.25 296.992188 393.058594 296.550781 392.855469 296.121094 C 397.179688 290.09375 401.359375 282.863281 403.570312 274.566406 C 407.480469 259.714844 403.910156 244.777344 394.007812 234.636719 Z M 394.007812 234.636719 " fill-opacity="1" fill-rule="nonzero"/></g><g clip-path="url(#3e31cf7b22)"><path fill="#f47a20" d="M 330.1875 433.210938 C 322.824219 455.953125 325.5 511.5 325.5 511.5 C 324.191406 516.71875 292.738281 530.5625 249.882812 532.246094 C 190.34375 534.59375 112.296875 515.261719 114.023438 511.5 C 121.105469 496.042969 119.78125 472.980469 124.425781 456.632812 C 129.078125 440.246094 131.289062 423.125 136.902344 407.023438 C 137.613281 404.992188 140.179688 404.3125 141.667969 405.464844 C 146.46875 401.953125 155.820312 398.996094 157.59375 398.476562 C 169.132812 395.085938 201.367188 396.476562 200.449219 400.710938 C 201.027344 402.179688 201.230469 403.839844 201.0625 405.488281 C 204.042969 416.996094 206.582031 428.875 211.234375 439.804688 C 213.878906 446.015625 217.253906 452.113281 220.992188 457.726562 C 221.511719 458.503906 222.054688 459.261719 222.609375 460.007812 C 223.070312 459.542969 223.558594 459.113281 224.085938 458.707031 C 248.683594 439.929688 268.144531 416.160156 281.128906 388.03125 C 283.152344 383.660156 348.246094 397.753906 348.246094 397.753906 C 348.246094 397.753906 337.527344 410.46875 330.1875 433.210938 Z M 330.1875 433.210938 " fill-opacity="1" fill-rule="nonzero"/></g><g clip-path="url(#037f5292c5)"><path fill="#a54a17" d="M 271.847656 275.480469 C 271.472656 275.074219 271.035156 274.699219 270.492188 274.371094 C 262.304688 269.394531 254.09375 264.445312 245.839844 259.558594 C 244.109375 258.53125 242.269531 257.570312 240.394531 256.609375 C 239.027344 254.160156 236.417969 253.109375 233.730469 253.175781 C 229.6875 250.996094 225.839844 248.582031 222.835938 245.417969 C 217.84375 240.15625 216.488281 232.894531 210.0625 228.773438 C 204.664062 225.308594 193.300781 206.121094 193.300781 206.121094 C 193.300781 206.121094 182.574219 224.347656 175.988281 233.222656 C 169.484375 241.988281 163.410156 254.722656 158.203125 264.378906 C 152.679688 274.597656 156.441406 283.058594 156.914062 294.710938 C 157.503906 309.027344 160.425781 341.640625 160.425781 341.640625 C 160.425781 341.640625 152.738281 346.101562 150.984375 346.667969 C 149.980469 346.992188 149.40625 347.785156 149.347656 348.8125 C 147.371094 385.558594 136.257812 415.085938 132.363281 422.449219 C 131.820312 423.476562 132.308594 424.640625 133.402344 425 C 138.03125 426.546875 142.675781 428.082031 147.304688 429.632812 C 150.984375 430.851562 153.988281 432.398438 157.828125 431.855469 C 158.472656 431.765625 158.765625 431.066406 158.664062 430.464844 C 161.792969 429.878906 164.84375 427.484375 167.328125 425.78125 C 171.753906 422.753906 174.296875 419.535156 178.238281 415.910156 C 188.039062 406.910156 192.171875 372.558594 192.285156 372.242188 C 196.191406 372.921875 206.367188 375.222656 206.367188 375.222656 C 206.367188 375.222656 210.355469 383.039062 205.726562 391.925781 C 204.515625 394.242188 224.289062 413.550781 230.300781 414.746094 C 236.308594 415.945312 266.234375 396.828125 274.207031 390.820312 C 274.863281 390.546875 275.234375 390.074219 275.414062 389.519531 C 276.332031 388.773438 276.929688 387.726562 277.1875 386.585938 C 279.367188 383.523438 269.9375 355.878906 275.789062 308.273438 C 277.085938 307.132812 278.261719 305.945312 279.289062 304.78125 C 284.632812 298.730469 288.199219 290.386719 288.007812 282.222656 C 287.804688 271.921875 278.65625 271.300781 271.847656 275.480469 Z M 159.558594 365.207031 C 158.226562 365.332031 161.332031 352.402344 161.996094 351.917969 C 161.75 352.359375 162.179688 358.375 163.691406 360.816406 C 163.859375 361.074219 159.171875 366.066406 159.558594 365.207031 Z M 159.558594 365.207031 " fill-opacity="1" fill-rule="nonzero"/></g><g clip-path="url(#1caeb7ee63)"><path fill="#ccdde5" d="M 276.386719 372.242188 L 282.417969 388.300781 C 282.417969 388.300781 231.5625 475.578125 221.433594 462.074219 C 210.898438 448.027344 198.464844 402.019531 198.769531 398.40625 C 198.992188 395.71875 205.125 389.304688 205.125 389.304688 C 205.125 389.304688 220.65625 407.65625 229.554688 404.257812 C 235.539062 401.964844 241.117188 397.265625 246.480469 393.8125 C 252.625 389.847656 276.386719 372.242188 276.386719 372.242188 Z M 133.976562 422.15625 C 134.035156 421.816406 134.089844 421.464844 134.148438 421.128906 C 134.351562 419.886719 137.355469 405.871094 137.355469 405.871094 C 137.355469 405.871094 120.324219 406.957031 108.75 420.179688 C 100.921875 429.121094 97.875 437.050781 93.324219 447.824219 C 90.816406 453.761719 88.410156 459.734375 85.980469 465.710938 C 83.78125 471.109375 80.4375 476.96875 80.007812 482.875 C 79.128906 495.125 109.066406 513.488281 116.8125 517.269531 C 124.558594 521.054688 125.902344 525.140625 141.375 523.558594 C 156.847656 521.992188 150.320312 476.097656 152.328125 464.816406 C 152.859375 461.722656 160.191406 429.710938 160.191406 429.710938 C 160.191406 429.710938 140.425781 423.082031 134.90625 422.179688 C 134.589844 422.121094 134.273438 422.121094 133.976562 422.15625 Z M 383.367188 461.65625 C 382.632812 456.449219 379.460938 422.992188 374.851562 412.984375 C 370.730469 404.03125 348.597656 396.453125 346.992188 397.5625 C 330.59375 408.851562 321.277344 429.699219 316.457031 448.410156 C 311.179688 468.90625 316.792969 517.789062 316.792969 517.789062 C 316.792969 517.789062 348.820312 506.273438 361.46875 498.46875 C 374.109375 490.65625 385.277344 479.191406 385.277344 479.191406 C 385.277344 479.191406 384.179688 467.359375 383.367188 461.65625 Z M 383.367188 461.65625 " fill-opacity="1" fill-rule="nonzero"/></g><path fill="#f2f2f2" d="M 218.363281 343.695312 C 218.363281 343.695312 187.710938 345.140625 188.300781 343.878906 C 188.433594 343.324219 188.390625 337.699219 188.773438 337.292969 C 189.867188 331.117188 211.652344 331.828125 214.941406 331.78125 C 221.839844 331.679688 222.96875 340.761719 218.363281 343.695312 Z M 218.363281 343.695312 " fill-opacity="1" fill-rule="nonzero"/><g clip-path="url(#2ced9c6c19)"><path fill="#0c0e19" d="M 145.261719 469.246094 C 145.476562 469.347656 145.394531 469.664062 145.179688 469.730469 C 143.949219 470.113281 142.5625 469.820312 141.308594 469.640625 C 139.941406 469.449219 138.585938 469.1875 137.253906 468.847656 C 134.609375 468.183594 132.023438 467.269531 129.539062 466.148438 C 124.390625 463.835938 119.804688 460.503906 115.988281 456.335938 C 115.886719 456.222656 116.042969 456.066406 116.15625 456.167969 C 120.210938 459.847656 124.875 462.898438 129.890625 465.113281 C 132.441406 466.242188 135.097656 467.121094 137.808594 467.753906 C 139.152344 468.070312 140.507812 468.339844 141.859375 468.554688 C 143 468.726562 144.210938 468.746094 145.261719 469.246094 Z M 129.359375 450.90625 C 129.519531 449.085938 129.925781 447.304688 130.601562 445.609375 C 131.234375 444.027344 132.105469 442.222656 133.460938 441.125 C 133.527344 441.070312 133.59375 441.070312 133.664062 441.082031 C 133.664062 441.046875 133.664062 441.023438 133.664062 440.992188 C 133.707031 440.699219 134.082031 440.675781 134.261719 440.832031 C 135.0625 441.523438 135.128906 442.785156 135.109375 443.769531 C 135.097656 444.820312 134.90625 445.902344 134.496094 446.875 C 133.695312 448.839844 132.214844 450.53125 130.25 451.414062 C 129.878906 451.582031 129.3125 451.402344 129.359375 450.90625 Z M 130.660156 449.789062 C 131.84375 448.953125 132.757812 447.765625 133.277344 446.398438 C 133.605469 445.542969 133.820312 444.636719 133.820312 443.699219 C 133.832031 443.035156 133.671875 442.378906 133.640625 441.726562 C 133.324219 442.378906 132.949219 443.011719 132.613281 443.65625 C 132.226562 444.402344 131.890625 445.167969 131.59375 445.960938 C 131.144531 447.203125 130.828125 448.476562 130.660156 449.789062 Z M 194.476562 347.714844 C 196.621094 346.925781 198.859375 346.15625 200.542969 344.566406 C 202.449219 346.429688 200.03125 349.558594 198.53125 350.878906 C 196.441406 352.71875 194.523438 354.433594 193.167969 356.917969 C 190.410156 361.980469 189.621094 368.414062 190.386719 374.074219 C 190.433594 374.433594 191.042969 374.421875 191.101562 374.074219 C 191.765625 370.503906 191.664062 366.847656 192.457031 363.289062 C 193.167969 360.09375 194.464844 356.929688 196.722656 354.515625 C 198.574219 352.539062 201.253906 351.125 202.292969 348.496094 C 203.09375 346.441406 202.777344 344.058594 200.878906 342.757812 C 200.597656 342.566406 200.125 342.636719 199.886719 342.882812 C 198.519531 344.363281 196.710938 345.152344 194.847656 345.84375 C 194.53125 343.132812 189.992188 342.828125 188.039062 343.425781 C 184.347656 344.542969 182.394531 348.335938 180.835938 351.554688 C 177.300781 358.882812 174.226562 367.140625 167.566406 372.265625 C 167.238281 372.527344 167.53125 373.089844 167.902344 372.84375 C 173.890625 368.820312 177.164062 362.5 180.191406 356.175781 C 181.738281 352.945312 183.046875 349.160156 185.601562 346.574219 C 186.863281 345.300781 188.46875 344.441406 190.296875 344.507812 C 191.078125 344.53125 191.867188 344.710938 192.546875 345.109375 C 193.054688 345.402344 193.4375 345.84375 193.890625 346.203125 C 191.132812 347.21875 188.421875 348.257812 187.113281 351.320312 C 186.4375 352.898438 186.109375 354.605469 185.621094 356.242188 C 185.101562 357.980469 184.492188 359.6875 183.792969 361.367188 C 182.359375 364.789062 180.710938 368.199219 178.824219 371.386719 C 178.710938 371.566406 178.980469 371.792969 179.128906 371.621094 C 181.398438 368.914062 183.363281 366.113281 184.867188 362.894531 C 186.324219 359.777344 187.339844 356.570312 188.308594 353.285156 C 189.257812 350.066406 191.507812 348.8125 194.476562 347.714844 Z M 174.125 346.554688 C 177.128906 345.085938 180.382812 345.683594 183.554688 345.210938 C 183.960938 345.164062 183.917969 344.53125 183.554688 344.441406 C 180.6875 343.730469 177.117188 344 174.351562 345.074219 C 173.460938 345.425781 172.679688 345.886719 171.992188 346.441406 C 171.980469 346.441406 171.980469 346.441406 171.96875 346.453125 C 171.132812 346.871094 170.332031 347.355469 169.449219 347.648438 C 168.535156 347.953125 167.597656 348.132812 166.660156 348.335938 C 164.855469 348.722656 162.96875 349.152344 161.558594 350.414062 C 159.796875 351.984375 159.558594 354.425781 159.242188 356.613281 C 158.835938 359.484375 158.496094 362.339844 158.226562 365.230469 C 158.191406 365.625 158.835938 365.714844 158.914062 365.320312 C 159.5 362.601562 160.042969 359.890625 160.507812 357.144531 C 160.550781 356.886719 160.597656 356.613281 160.628906 356.34375 C 160.628906 356.195312 160.652344 356.0625 160.652344 355.914062 C 160.652344 355.769531 160.699219 355.65625 160.765625 355.542969 C 161.070312 353.824219 161.546875 352.085938 163.070312 351.082031 C 164.582031 350.078125 166.503906 349.875 168.230469 349.476562 C 168.683594 349.375 169.15625 349.261719 169.621094 349.117188 C 169.15625 349.839844 168.75 350.597656 168.390625 351.410156 C 166.921875 354.660156 165.53125 357.878906 163.601562 360.90625 C 161.601562 364.054688 159.230469 367.015625 156.800781 369.839844 C 156.710938 369.941406 156.847656 370.074219 156.949219 369.984375 C 162.1875 365.816406 166.074219 360.082031 168.695312 353.960938 C 169.9375 351.070312 171.121094 348.019531 174.125 346.554688 Z M 161.128906 342.578125 C 161.816406 342.78125 162.574219 342.738281 163.296875 342.78125 C 164.121094 342.839844 164.933594 342.859375 165.757812 342.894531 C 167.339844 342.953125 168.929688 342.960938 170.511719 343.054688 C 172.09375 343.144531 173.675781 343.3125 175.253906 343.46875 C 176.070312 343.5625 176.882812 343.664062 177.707031 343.753906 C 178.394531 343.832031 179.003906 343.910156 179.648438 343.59375 C 179.886719 343.492188 179.910156 343.144531 179.738281 342.972656 C 178.777344 342.023438 176.882812 342.082031 175.617188 341.914062 C 173.933594 341.699219 172.230469 341.597656 170.523438 341.527344 C 168.886719 341.460938 167.226562 341.394531 165.589844 341.503906 C 164.175781 341.605469 162.390625 341.605469 161.082031 342.195312 C 160.914062 342.273438 160.96875 342.535156 161.128906 342.578125 Z M 184.652344 343.3125 C 191.316406 341.765625 198.089844 340.625 204.921875 340.242188 C 208.199219 340.058594 211.472656 340.050781 214.75 340.195312 C 218.191406 340.355469 221.601562 340.78125 225.046875 340.851562 C 225.589844 340.851562 225.679688 340.058594 225.171875 339.914062 C 218.65625 338.050781 211.359375 338.21875 204.652344 338.660156 C 197.773438 339.113281 190.964844 340.285156 184.414062 342.441406 C 183.859375 342.625 184.085938 343.4375 184.652344 343.3125 Z M 227.023438 409.847656 C 226.097656 410.050781 225.351562 411.066406 224.789062 411.765625 C 224.078125 412.648438 223.355469 413.503906 222.628906 414.375 C 221.175781 416.101562 219.648438 417.761719 218.046875 419.367188 C 216.488281 420.925781 214.90625 422.449219 213.234375 423.894531 C 212.386719 424.628906 211.519531 425.351562 210.671875 426.085938 C 209.890625 426.761719 208.898438 427.472656 208.355469 428.367188 C 208.242188 428.546875 208.425781 428.738281 208.605469 428.695312 C 209.621094 428.480469 210.636719 427.746094 211.496094 427.167969 C 212.398438 426.570312 213.257812 425.90625 214.117188 425.238281 C 215.933594 423.804688 217.707031 422.3125 219.367188 420.699219 C 220.992188 419.128906 222.550781 417.492188 224.03125 415.796875 C 224.800781 414.929688 225.523438 414.023438 226.234375 413.097656 C 226.808594 412.34375 227.667969 411.292969 227.578125 410.289062 C 227.566406 409.980469 227.328125 409.777344 227.023438 409.847656 Z M 232.75 414.65625 C 231.226562 412.523438 229.984375 410.230469 228.515625 408.0625 C 228.355469 407.835938 228.027344 407.984375 228.074219 408.242188 C 228.527344 410.839844 229.78125 413.347656 231.167969 415.570312 C 232.601562 417.875 234.261719 420 236.160156 421.953125 C 238.058594 423.90625 240.167969 425.632812 242.449219 427.125 C 243.546875 427.835938 244.675781 428.492188 245.851562 429.089844 C 247.171875 429.765625 248.414062 430.140625 249.871094 430.375 C 250.785156 430.523438 251.371094 429.371094 250.515625 428.828125 C 249.394531 428.117188 248.335938 427.472656 247.136719 426.886719 C 246.019531 426.332031 244.921875 425.710938 243.863281 425.046875 C 241.695312 423.679688 239.636719 422.097656 237.773438 420.347656 C 235.933594 418.621094 234.21875 416.710938 232.75 414.65625 Z M 200.675781 450.726562 C 196.429688 440.832031 193.472656 430.320312 191.867188 419.683594 C 191.40625 416.601562 191.03125 413.503906 190.804688 410.390625 C 190.570312 407.304688 190.601562 404.1875 190.320312 401.105469 C 190.296875 400.871094 189.980469 400.871094 189.949219 401.105469 C 189.238281 406.527344 189.734375 412.320312 190.277344 417.738281 C 190.804688 423.171875 191.765625 428.570312 193.042969 433.875 C 195.605469 444.480469 199.75 454.859375 205.160156 464.320312 C 208.230469 469.683594 211.632812 474.878906 215.808594 479.453125 C 216.304688 480.007812 217.277344 479.285156 216.847656 478.652344 C 210.75 469.695312 204.957031 460.707031 200.675781 450.726562 Z M 293.03125 391.710938 C 290.988281 394.964844 289.375 398.429688 287.613281 401.828125 C 285.839844 405.238281 283.988281 408.59375 282.042969 411.902344 C 278.160156 418.519531 273.957031 424.957031 269.453125 431.167969 C 260.339844 443.722656 249.894531 455.253906 238.53125 465.800781 C 232.183594 471.695312 225.273438 476.902344 218.78125 482.613281 C 218.6875 482.695312 218.800781 482.839844 218.902344 482.785156 C 225.578125 478.957031 231.597656 473.917969 237.402344 468.90625 C 243.34375 463.789062 248.964844 458.347656 254.273438 452.578125 C 264.789062 441.183594 274.195312 428.726562 282.144531 415.425781 C 284.394531 411.664062 286.527344 407.847656 288.550781 403.964844 C 290.570312 400.089844 292.570312 396.21875 293.835938 392.027344 C 293.96875 391.566406 293.292969 391.292969 293.03125 391.710938 Z M 324.777344 396.511719 C 316.105469 406.335938 310.164062 418.675781 306.597656 431.210938 C 302.992188 443.871094 301.75 457.160156 303.085938 470.261719 C 303.851562 477.792969 305.578125 485.007812 308.359375 492.054688 C 308.492188 492.394531 309.023438 492.269531 308.921875 491.898438 C 305.46875 479.417969 303.796875 466.296875 304.664062 453.367188 C 305.535156 440.324219 308.730469 427.472656 314.21875 415.605469 C 317.28125 408.988281 321.039062 402.800781 325.152344 396.792969 C 325.308594 396.578125 324.960938 396.308594 324.777344 396.511719 Z M 132.613281 424.867188 C 132.734375 424.5625 132.261719 424.402344 132.105469 424.652344 C 129.167969 429.042969 126.796875 433.84375 124.039062 438.347656 C 121.320312 442.796875 118.460938 447.167969 115.480469 451.449219 C 109.402344 460.1875 102.820312 468.566406 95.761719 476.527344 C 91.808594 480.988281 87.722656 485.347656 83.65625 489.707031 C 83.566406 489.808594 83.699219 489.941406 83.800781 489.851562 C 91.785156 482.636719 98.933594 474.519531 105.65625 466.128906 C 112.25 457.894531 118.359375 449.257812 123.9375 440.300781 C 127.023438 435.34375 130.363281 430.261719 132.613281 424.867188 Z M 392.628906 271.695312 C 390.179688 280.878906 384.609375 288.816406 378.570312 296.089844 C 380.5 297.398438 382.023438 299.398438 382.859375 301.554688 C 384.621094 306.035156 383.121094 310.972656 380.917969 315.003906 C 373.949219 327.808594 361.59375 337.644531 348.28125 343.144531 C 341.660156 345.875 334.625 347.503906 327.488281 347.953125 C 324.15625 348.15625 320.386719 347.828125 317.222656 346.496094 C 316.558594 347.230469 315.765625 347.851562 314.910156 348.335938 C 310.910156 350.605469 305.792969 350.945312 301.324219 350.335938 C 296.703125 349.703125 292.433594 347.816406 288.808594 344.90625 C 282.316406 339.699219 279.222656 331.140625 280.011719 322.988281 C 277.246094 321.328125 275.597656 318.121094 275.652344 314.675781 C 275.6875 312.53125 276.375 310.644531 277.359375 308.882812 C 277.425781 306.441406 278.9375 304.117188 280.375 302.085938 C 282.507812 299.058594 284.425781 295.804688 285.648438 292.292969 C 286.84375 288.839844 287.171875 285.292969 286.71875 281.667969 C 286.675781 281.296875 286.605469 280.921875 286.539062 280.550781 C 285.667969 278.980469 284.992188 277.296875 283.683594 276.144531 C 282.609375 275.199219 281.433594 275.003906 279.964844 274.644531 C 278.871094 274.371094 277.910156 273.820312 276.839844 273.492188 C 275.527344 274.585938 274.171875 275.613281 272.761719 276.542969 C 271.464844 277.386719 270.109375 278.054688 268.71875 278.550781 C 267.835938 279.738281 267.011719 280.96875 266.246094 282.234375 C 263.773438 286.355469 261.898438 290.792969 260.28125 295.308594 C 259.492188 297.523438 256.441406 296.617188 256.804688 294.347656 C 257.324219 291.039062 257.367188 287.710938 257.085938 284.378906 C 256.949219 282.71875 256.726562 281.09375 256.542969 279.441406 C 256.523438 279.21875 256.476562 278.980469 256.429688 278.730469 C 255.808594 278.539062 255.1875 278.324219 254.578125 278.078125 C 245.046875 274.125 236.632812 264.84375 236.476562 254.261719 C 229.6875 253.777344 222.597656 251.914062 216.949219 248.21875 C 214.171875 246.402344 211.652344 243.804688 211.121094 240.40625 C 210.886719 238.8125 211.03125 237.199219 211.597656 235.765625 C 208.863281 234.941406 206.164062 233.980469 203.601562 232.738281 C 196.996094 229.53125 192.183594 223.828125 191.664062 216.445312 C 188.921875 221.863281 186.921875 227.613281 184.527344 233.191406 C 182.085938 238.890625 178.949219 244.992188 173.832031 248.761719 C 173.820312 248.785156 173.796875 248.796875 173.789062 248.820312 C 174.238281 255.0625 171.097656 261.058594 165.496094 263.859375 C 166.820312 269.902344 163.542969 276.328125 157.964844 278.933594 C 158.585938 282.253906 158.734375 285.652344 158.203125 288.996094 C 157.828125 291.335938 157.242188 293.898438 156.167969 296.144531 C 156.261719 296.3125 156.269531 296.527344 156.148438 296.730469 C 155.71875 297.441406 155.253906 298.042969 154.703125 298.5625 C 154.609375 298.683594 154.53125 298.808594 154.429688 298.921875 C 154.351562 299 154.261719 299.011719 154.183594 298.980469 C 153.785156 299.273438 153.367188 299.554688 152.871094 299.78125 C 151.402344 300.457031 149.417969 300.558594 147.824219 300.4375 C 144.480469 300.175781 141.105469 298.695312 138.855469 296.167969 C 135.175781 292.035156 134.65625 285.855469 137.027344 281.023438 C 134.058594 280.59375 131.269531 279.136719 129.347656 276.710938 C 127.359375 274.191406 126.582031 271.074219 126.886719 268.015625 C 124.558594 267.765625 122.300781 266.117188 121.285156 263.757812 C 119.660156 259.996094 119.558594 255.3125 120.019531 251.292969 C 120.878906 243.859375 124.027344 236.792969 129.109375 231.269531 C 131.585938 228.570312 134.566406 226.234375 137.808594 224.539062 C 139.625 223.582031 141.566406 222.878906 143.328125 221.828125 C 144.84375 220.925781 145.78125 219.605469 146.445312 217.980469 C 148.015625 214.183594 149.011719 210.199219 150.929688 206.539062 C 152.847656 202.871094 155.378906 199.460938 158.28125 196.5 C 162.992188 191.714844 170.308594 186.585938 177.265625 188.007812 C 179.410156 182.183594 183.882812 177.113281 189.53125 174.558594 C 196.972656 171.195312 205.859375 171.769531 212.703125 176.320312 C 213.246094 176.683594 213.605469 177.136719 213.832031 177.621094 C 219.976562 173.058594 227.519531 170.210938 235.03125 169.105469 C 242.449219 168 251.453125 167.726562 258.023438 171.996094 C 260.847656 173.828125 262.9375 176.367188 263.828125 179.640625 C 263.917969 179.945312 264 180.25 264.101562 180.546875 C 264.597656 180.488281 265.566406 180.375 265.703125 180.34375 C 266.5625 180.105469 267.410156 179.824219 268.253906 179.5625 C 270.515625 178.46875 273.179688 178.039062 275.878906 178.164062 C 282.304688 177.824219 288.785156 179.550781 293.394531 184.375 C 294.917969 185.976562 296.058594 187.785156 296.863281 189.75 C 298.476562 188.6875 300.238281 187.816406 302.101562 187.128906 C 303.738281 185.875 305.46875 184.734375 307.320312 183.753906 C 315.417969 179.460938 325.816406 178.050781 334.0625 182.792969 C 339.992188 186.214844 343.761719 192.628906 344.167969 199.335938 C 344.257812 199.71875 344.316406 200.101562 344.382812 200.488281 C 346.8125 200.214844 349.25 200.25 351.644531 200.601562 C 353.710938 200.679688 355.765625 200.90625 357.824219 201.324219 C 366.292969 203.050781 374.320312 208.480469 377.9375 216.511719 C 380.78125 222.8125 380.535156 230.535156 376.839844 236.339844 C 380.238281 237.773438 383.34375 239.875 385.921875 242.515625 C 393.542969 250.320312 395.363281 261.375 392.628906 271.695312 Z M 163.511719 266.605469 C 163.375 267.867188 163.148438 269.121094 162.84375 270.351562 C 162.84375 270.410156 162.855469 270.453125 162.855469 270.511719 C 163.296875 269.257812 163.53125 267.9375 163.511719 266.605469 Z M 237.976562 270.238281 C 236.859375 269.730469 235.867188 269.371094 234.636719 269.179688 C 233.527344 269.007812 232.398438 268.941406 231.292969 268.773438 C 228.851562 268.398438 226.4375 267.867188 224.042969 267.246094 C 221.726562 266.648438 219.46875 265.890625 217.234375 265.058594 C 216.125 264.640625 215.019531 264.210938 213.902344 263.792969 C 212.828125 263.386719 211.753906 262.84375 210.59375 262.777344 C 210.082031 262.753906 209.675781 263.398438 209.980469 263.824219 C 211.269531 265.644531 213.902344 266.75 215.867188 267.664062 C 218.148438 268.726562 220.542969 269.597656 222.9375 270.339844 C 225.375 271.097656 227.859375 271.640625 230.390625 272.035156 C 232.917969 272.429688 235.300781 272.835938 237.753906 271.96875 C 238.441406 271.742188 238.78125 270.613281 237.976562 270.238281 Z M 181.578125 268.601562 C 178.757812 270.25 176.101562 272.070312 173.121094 273.445312 C 171.496094 274.203125 169.8125 274.835938 168.117188 275.433594 C 166.445312 276.023438 164.59375 276.429688 163.058594 277.320312 C 162.878906 277.421875 162.902344 277.738281 163.113281 277.785156 C 164.605469 278.089844 166.121094 277.773438 167.585938 277.535156 C 169.167969 277.273438 170.726562 276.890625 172.238281 276.394531 C 175.3125 275.390625 178.371094 274.136719 181.140625 272.453125 C 182.269531 271.765625 184.277344 270.851562 184.390625 269.335938 C 184.527344 267.664062 182.484375 268.0625 181.578125 268.601562 Z M 187.644531 262.945312 C 187.160156 262.347656 184.199219 259.660156 183.636719 261.273438 C 183.421875 261.871094 183.960938 262.503906 184.300781 262.957031 C 184.742188 263.542969 185 264.222656 185.351562 264.863281 C 185.960938 266.003906 186.335938 267.40625 186.425781 268.671875 C 186.527344 270.070312 186.289062 271.414062 185.78125 272.722656 C 185.632812 273.097656 185.519531 273.570312 185.417969 273.875 C 185.316406 274.160156 185.160156 274.417969 185.023438 274.6875 C 184.832031 275.074219 184.765625 275.433594 184.640625 275.820312 C 184.527344 276.179688 184.359375 276.472656 184.402344 276.855469 C 184.449219 277.308594 184.71875 277.570312 185.171875 277.625 C 185.972656 277.714844 187.125 276.957031 187.621094 276.382812 C 188.308594 275.582031 188.929688 274.800781 189.328125 273.820312 C 190.0625 271.945312 190.230469 269.921875 189.9375 267.949219 C 189.664062 266.105469 188.820312 264.378906 187.644531 262.945312 Z M 208.378906 256.40625 C 204.5625 257.523438 202.347656 261.839844 201.90625 265.507812 C 201.671875 267.53125 201.929688 269.617188 202.699219 271.515625 C 203.117188 272.554688 203.726562 273.480469 204.414062 274.363281 C 204.980469 275.074219 205.984375 275.785156 206.921875 275.886719 C 207.496094 275.941406 207.746094 275.332031 207.691406 274.882812 C 207.589844 274.160156 207.035156 273.253906 206.652344 272.644531 C 206.1875 271.921875 205.828125 271.132812 205.488281 270.339844 C 204.84375 268.828125 204.515625 267.15625 204.585938 265.507812 C 204.71875 262.0625 206.683594 259.421875 208.695312 256.8125 C 208.839844 256.609375 208.59375 256.339844 208.378906 256.40625 Z M 191.574219 311.207031 C 193.03125 310.28125 193.910156 308.9375 194.046875 307.199219 C 194.207031 305.269531 193.71875 303.214844 193.472656 301.304688 C 193.199219 299.160156 192.917969 297.015625 192.648438 294.867188 C 192.363281 292.632812 192.070312 290.386719 191.777344 288.148438 C 191.496094 286.039062 191.28125 283.871094 190.558594 281.847656 C 190.398438 281.398438 189.597656 281.273438 189.507812 281.847656 C 189.125 284.300781 189.371094 286.804688 189.484375 289.265625 C 189.609375 291.875 189.777344 294.496094 189.925781 297.105469 C 190.070312 299.714844 190.195312 302.332031 190.378906 304.941406 C 190.433594 305.71875 190.738281 306.996094 190.195312 307.683594 C 189.734375 308.273438 188.683594 308.566406 188.027344 308.882812 C 184.664062 310.496094 182.878906 314.699219 185.046875 318.050781 C 186.027344 319.566406 187.882812 320.726562 189.710938 320.761719 C 191.609375 320.796875 192.929688 319.925781 194.011719 318.445312 C 194.757812 317.488281 193.425781 316.628906 192.578125 316.988281 C 190.296875 317.972656 186.753906 316.109375 188.230469 313.386719 C 188.886719 312.191406 190.488281 311.898438 191.574219 311.207031 Z M 241.988281 354.988281 C 241.152344 355.417969 240.351562 355.6875 239.558594 356.21875 C 238.757812 356.75 238.023438 357.304688 237.277344 357.925781 C 235.867188 359.085938 234.433594 360.21875 232.941406 361.277344 C 229.972656 363.378906 226.832031 365.242188 223.566406 366.855469 C 220.328125 368.460938 216.972656 369.839844 213.539062 370.988281 C 212.636719 371.292969 205.316406 373.339844 206.121094 374.785156 C 206.742188 375.914062 208.964844 375.574219 210.003906 375.484375 C 211.855469 375.316406 213.664062 374.929688 215.449219 374.433594 C 219.128906 373.417969 222.699219 372.007812 226.121094 370.324219 C 229.453125 368.675781 232.660156 366.765625 235.6875 364.609375 C 237.222656 363.515625 238.734375 362.375 240.167969 361.144531 C 240.902344 360.511719 241.5 359.902344 242.113281 359.15625 C 242.789062 358.332031 243.117188 357.550781 243.613281 356.613281 C 244.199219 355.542969 243.050781 354.445312 241.988281 354.988281 Z M 277.898438 287.585938 C 278.667969 287.042969 279.277344 286.535156 279.808594 285.746094 C 280.089844 285.382812 279.855469 284.773438 279.390625 284.671875 C 277.472656 284.289062 275.832031 285.179688 274.230469 286.152344 C 272.625 287.121094 271.066406 288.238281 269.679688 289.515625 C 268.324219 290.757812 267.058594 292.101562 265.984375 293.59375 C 265.046875 294.902344 263.761719 296.730469 263.804688 298.414062 C 263.816406 298.796875 264.222656 299.035156 264.5625 298.84375 C 265.25 298.472656 265.851562 297.816406 266.359375 297.230469 C 266.921875 296.585938 267.488281 295.953125 268.0625 295.332031 C 269.136719 294.179688 270.230469 293.074219 271.429688 292.046875 C 271.28125 292.8125 271.15625 293.59375 271.011719 294.347656 C 270.71875 295.976562 270.46875 297.613281 270.1875 299.238281 C 269.914062 300.875 269.597656 302.511719 269.363281 304.152344 C 269.238281 305.03125 269.023438 305.933594 269.023438 306.828125 C 269.023438 307.628906 268.875 308.542969 269.148438 309.300781 C 269.351562 309.875 270.097656 310.160156 270.558594 309.671875 C 271.136719 309.074219 271.328125 308.273438 271.65625 307.539062 C 272.015625 306.726562 272.175781 305.84375 272.367188 304.976562 C 272.75 303.226562 272.976562 301.417969 273.167969 299.632812 C 273.359375 297.871094 273.484375 296.066406 273.484375 294.304688 C 273.484375 293.050781 273.53125 291.742188 273.347656 290.488281 C 274.128906 289.898438 274.929688 289.335938 275.777344 288.828125 C 276.476562 288.410156 277.234375 288.058594 277.898438 287.585938 Z M 215.730469 287.507812 C 215.730469 291.109375 217.085938 294.03125 218.746094 294.03125 C 220.40625 294.03125 221.761719 291.109375 221.761719 287.507812 C 221.761719 283.902344 220.40625 280.980469 218.746094 280.980469 C 217.085938 280.980469 215.730469 283.902344 215.730469 287.507812 Z M 174.578125 292.191406 C 174.578125 295.792969 175.933594 298.71875 177.59375 298.71875 C 179.253906 298.71875 180.609375 295.792969 180.609375 292.191406 C 180.609375 288.589844 179.253906 285.664062 177.59375 285.664062 C 175.933594 285.664062 174.578125 288.589844 174.578125 292.191406 Z M 174.578125 292.191406 " fill-opacity="1" fill-rule="nonzero"/></g><path fill="#ccdde5" d="M 318.023438 280.007812 C 318.636719 287.347656 314.976562 294.394531 309.296875 298.867188 C 302.566406 304.171875 294.09375 306.351562 285.839844 307.933594 C 285.332031 308.035156 285.105469 307.277344 285.625 307.144531 C 289.90625 306.035156 294.230469 304.886719 298.386719 303.359375 C 305.332031 300.796875 312.074219 296.550781 315.132812 289.527344 C 317.789062 283.453125 317.675781 275.695312 312.46875 271.007812 C 312.140625 270.714844 312.300781 270.273438 312.59375 270.046875 C 321.742188 263 323.355469 247.304688 314.851562 239.105469 C 314.601562 238.871094 314.558594 238.476562 314.726562 238.179688 C 317.199219 233.945312 318.984375 229.632812 319.472656 224.699219 C 319.921875 220.089844 319.347656 215.414062 317.675781 211.089844 C 314.480469 202.8125 307.566406 196.582031 299.355469 193.464844 C 298.917969 193.304688 299.085938 192.617188 299.550781 192.753906 C 303.378906 193.859375 306.855469 195.824219 309.917969 198.363281 C 315.507812 203.015625 319.414062 209.601562 320.589844 216.792969 C 321.773438 224.019531 320.5 232.367188 316.320312 238.53125 C 323.964844 247.882812 323.242188 262.730469 313.789062 270.601562 C 316.332031 273.121094 317.742188 276.449219 318.023438 280.007812 Z M 249.78125 290.871094 C 249.632812 289.628906 248.832031 283.214844 248.886719 282.390625 C 248.898438 282.164062 248.550781 282.121094 248.492188 282.335938 C 248.390625 282.773438 247.386719 288.035156 247.183594 289.300781 C 246.992188 290.476562 246.808594 291.640625 246.617188 292.8125 C 246.460938 293.796875 246.1875 294.847656 246.414062 295.839844 C 246.742188 297.273438 248.761719 298.402344 249.722656 296.832031 C 250.164062 296.097656 250.0625 295.140625 250.039062 294.328125 C 249.996094 293.175781 249.914062 292.023438 249.78125 290.871094 Z M 249.78125 290.871094 " fill-opacity="1" fill-rule="nonzero"/></svg>