<svg xmlns="http://www.w3.org/2000/svg" xmlns:xlink="http://www.w3.org/1999/xlink" width="566" zoomAndPan="magnify" viewBox="0 0 425.03998 425.249996" height="566" preserveAspectRatio="xMidYMid meet" version="1.0"><defs><g/><clipPath id="a736fc4649"><path d="M 0 0.105469 L 424.042969 0.105469 L 424.042969 424.148438 L 0 424.148438 Z M 0 0.105469 " clip-rule="nonzero"/></clipPath><clipPath id="f9768e4250"><path d="M 25 0.105469 L 424.042969 0.105469 L 424.042969 391 L 25 391 Z M 25 0.105469 " clip-rule="nonzero"/></clipPath></defs><g clip-path="url(#a736fc4649)"><path fill="#ffffff" d="M 0 0.105469 L 424.042969 0.105469 L 424.042969 424.148438 L 0 424.148438 Z M 0 0.105469 " fill-opacity="1" fill-rule="nonzero"/><path fill="#673ab7" d="M 0 0.105469 L 424.042969 0.105469 L 424.042969 424.148438 L 0 424.148438 Z M 0 0.105469 " fill-opacity="1" fill-rule="nonzero"/><path fill="#000000" d="M 162.648438 359.613281 L 151.992188 372.902344 C 143.824219 383.097656 135.183594 391.613281 126.039062 397.667969 C 101.265625 414.054688 73.535156 413.113281 43.347656 380.136719 C 15.714844 349.957031 16.253906 323.171875 32.355469 299.6875 C 33.53125 297.96875 34.777344 296.285156 36.121094 294.605469 L 56.859375 268.730469 C 43.414062 270.546875 30.777344 270.714844 19.515625 268.59375 C -8.453125 263.347656 -27.714844 244.738281 -29.460938 203.824219 C -30.4375 180.101562 -25.5625 163.277344 -16.386719 151.804688 L 28.589844 95.644531 C 17.296875 75.289062 17.902344 52.574219 38.035156 27.441406 L 86.8125 -33.429688 C 88.425781 -35.480469 90.207031 -37.535156 92.089844 -39.621094 C 123.117188 -73.503906 151.488281 -73.636719 176.765625 -55.804688 C 178.949219 -54.257812 181.101562 -52.574219 183.253906 -50.757812 L 221.304688 -98.234375 C 221.507812 -98.503906 221.742188 -98.773438 221.945312 -99.007812 C 222.011719 -99.109375 222.078125 -99.175781 222.144531 -99.277344 C 222.683594 -99.882812 223.222656 -100.488281 223.792969 -101.09375 C 223.828125 -101.128906 223.859375 -101.160156 223.859375 -101.195312 C 235.222656 -113.175781 253.375 -119.800781 280.703125 -118.660156 C 321.3125 -116.941406 339.898438 -97.863281 345.3125 -70.136719 C 348.035156 -56.039062 347.160156 -39.71875 343.933594 -22.390625 L 351.832031 -32.25 C 352 -32.453125 352.136719 -32.65625 352.304688 -32.855469 C 352.335938 -32.890625 352.40625 -32.957031 352.4375 -32.992188 C 360.035156 -42.378906 368.136719 -50.285156 376.777344 -56.007812 C 400.105469 -71.417969 426.558594 -71.519531 456.207031 -44.164062 C 487.972656 -14.886719 489.824219 12.0625 475.03125 36.222656 C 473.285156 39.117188 471.265625 41.976562 469.015625 44.769531 L 447.332031 71.855469 C 462.964844 69.734375 477.554688 69.734375 490.125 72.765625 C 517.65625 79.460938 535.335938 99.851562 533.488281 142.988281 C 532.648438 163.140625 527.539062 177.878906 519.203125 188.277344 C 504.480469 206.648438 489.753906 225.019531 475.03125 243.394531 C 486.089844 261.460938 487.839844 281.078125 474.761719 302.039062 C 474.730469 302.109375 474.664062 302.175781 474.628906 302.277344 C 474.160156 303.015625 473.652344 303.757812 473.148438 304.53125 C 473.050781 304.699219 472.914062 304.867188 472.78125 305.070312 C 472.34375 305.707031 471.871094 306.382812 471.402344 307.019531 C 471.234375 307.257812 471.066406 307.457031 470.929688 307.695312 C 470.425781 308.332031 469.921875 309.007812 469.386719 309.679688 C 469.25 309.847656 469.082031 310.050781 468.949219 310.25 C 468.878906 310.316406 468.847656 310.386719 468.8125 310.453125 L 420.039062 371.289062 C 416.507812 375.695312 412.339844 380.136719 407.464844 384.644531 C 378.558594 411.296875 352.671875 411.867188 329.746094 397.566406 C 326.519531 395.582031 323.359375 393.261719 320.300781 390.667969 L 284.90625 434.847656 C 274.585938 447.734375 257.675781 455.8125 231.929688 456.886719 C 187.625 458.773438 167.320312 440.066406 161.269531 411.226562 C 158.144531 396.222656 159.117188 378.488281 162.648438 359.613281 " fill-opacity="1" fill-rule="evenodd"/></g><g clip-path="url(#f9768e4250)"><path fill="#ffffff" d="M 229.710938 253.386719 C 196.96875 319.671875 151.824219 375.832031 96.425781 315.296875 C 45.800781 259.980469 97.738281 218.054688 160.664062 187.707031 C 94.710938 210.71875 28.355469 217.71875 25.160156 142.75 C 21.800781 62.738281 89.835938 68.289062 158.109375 90.699219 C 96.324219 60.484375 46.472656 18.925781 96.425781 -35.648438 C 153.335938 -97.863281 199.421875 -36.859375 232.363281 31.746094 C 206.953125 -40.226562 196.0625 -116.371094 280.46875 -112.804688 C 354.890625 -109.640625 348.4375 -44.027344 325.816406 21.585938 C 356.203125 -40.191406 397.851562 -89.992188 452.242188 -39.820312 C 510.53125 13.949219 459.9375 57.789062 396.609375 90.09375 C 464.242188 68.1875 531 63.476562 527.640625 142.75 C 524.511719 216.710938 459.90625 210.890625 394.859375 188.648438 C 458.996094 221.015625 511.101562 265.164062 452.273438 319.4375 C 399.195312 368.394531 358.289062 322.195312 328.101562 262.570312 C 348.808594 325.863281 352.335938 387.136719 280.46875 390.164062 C 199.085938 393.628906 206.28125 322.9375 229.710938 253.386719 " fill-opacity="1" fill-rule="evenodd"/></g><path fill="#000000" d="M 276.402344 16.136719 C 344.035156 16.136719 398.859375 71.015625 398.859375 138.679688 C 398.859375 206.378906 344.035156 261.257812 276.402344 261.257812 C 208.800781 261.257812 153.976562 206.378906 153.976562 138.679688 C 153.976562 71.015625 208.800781 16.136719 276.402344 16.136719 " fill-opacity="1" fill-rule="evenodd"/><path fill="#ffcc00" d="M 276.402344 22.023438 C 340.773438 22.023438 392.976562 74.246094 392.976562 138.679688 C 392.976562 203.117188 340.773438 255.371094 276.402344 255.371094 C 212.027344 255.371094 159.859375 203.117188 159.859375 138.679688 C 159.859375 74.246094 212.027344 22.023438 276.402344 22.023438 " fill-opacity="1" fill-rule="evenodd"/><path fill="#000000" d="M 241.777344 77.207031 C 251.121094 77.207031 258.6875 91.84375 258.6875 109.878906 C 258.6875 127.878906 251.121094 142.515625 241.777344 142.515625 C 232.433594 142.515625 224.867188 127.878906 224.867188 109.878906 C 224.867188 91.84375 232.433594 77.207031 241.777344 77.207031 " fill-opacity="1" fill-rule="evenodd"/><path fill="#000000" d="M 308.335938 77.207031 C 317.648438 77.207031 325.242188 91.84375 325.242188 109.878906 C 325.242188 127.878906 317.648438 142.515625 308.335938 142.515625 C 298.988281 142.515625 291.394531 127.878906 291.394531 109.878906 C 291.394531 91.84375 298.988281 77.207031 308.335938 77.207031 " fill-opacity="1" fill-rule="evenodd"/><path fill="#000000" d="M 357.648438 158.699219 C 353.210938 176.835938 342.859375 192.683594 328.773438 204.023438 C 314.417969 215.53125 296.199219 222.429688 276.402344 222.429688 C 256.601562 222.429688 238.414062 215.53125 224.0625 204.023438 C 209.945312 192.683594 199.589844 176.835938 195.152344 158.699219 C 193.773438 158.363281 192.496094 157.726562 191.386719 156.816406 C 189.675781 155.472656 188.464844 153.519531 187.960938 151.332031 C 187.625 149.785156 188.597656 148.238281 190.144531 147.898438 C 191.691406 147.5625 193.238281 148.574219 193.574219 150.121094 C 193.773438 151.027344 194.28125 151.804688 194.984375 152.375 C 195.65625 152.914062 196.53125 153.25 197.507812 153.25 C 198.449219 153.25 199.320312 152.914062 200.027344 152.375 C 200.734375 151.804688 201.238281 151.027344 201.4375 150.121094 C 201.777344 148.574219 203.289062 147.5625 204.835938 147.898438 C 206.378906 148.238281 207.355469 149.785156 207.019531 151.332031 C 206.546875 153.519531 205.304688 155.472656 203.589844 156.816406 C 202.816406 157.457031 201.945312 157.996094 200.96875 158.363281 C 205.238281 174.816406 214.75 189.1875 227.660156 199.550781 C 241.003906 210.28125 257.945312 216.710938 276.402344 216.710938 C 294.890625 216.710938 311.832031 210.28125 325.175781 199.550781 C 338.050781 189.1875 347.5625 174.816406 351.832031 158.363281 C 350.890625 157.996094 350.019531 157.457031 349.210938 156.816406 C 347.53125 155.472656 346.285156 153.519531 345.78125 151.332031 C 345.445312 149.785156 346.453125 148.238281 348 147.898438 C 349.546875 147.5625 351.058594 148.574219 351.394531 150.121094 C 351.597656 151.027344 352.101562 151.804688 352.808594 152.375 C 353.480469 152.914062 354.355469 153.25 355.328125 153.25 C 356.269531 153.25 357.179688 152.914062 357.851562 152.375 C 358.554688 151.804688 359.058594 151.027344 359.261719 150.121094 C 359.597656 148.574219 361.109375 147.5625 362.65625 147.898438 C 364.203125 148.238281 365.179688 149.785156 364.84375 151.332031 C 364.371094 153.519531 363.128906 155.472656 361.414062 156.816406 C 360.335938 157.726562 359.058594 158.363281 357.648438 158.699219 " fill-opacity="1" fill-rule="nonzero"/><path fill="#ffffff" d="M 245.84375 84.675781 C 248.128906 84.675781 249.980469 88.242188 249.980469 92.683594 C 249.980469 97.089844 248.128906 100.660156 245.84375 100.660156 C 243.558594 100.660156 241.710938 97.089844 241.710938 92.683594 C 241.710938 88.242188 243.558594 84.675781 245.84375 84.675781 " fill-opacity="1" fill-rule="evenodd"/><path fill="#ffffff" d="M 313.476562 84.675781 C 315.765625 84.675781 317.613281 88.242188 317.613281 92.683594 C 317.613281 97.089844 315.765625 100.660156 313.476562 100.660156 C 311.191406 100.660156 309.34375 97.089844 309.34375 92.683594 C 309.34375 88.242188 311.191406 84.675781 313.476562 84.675781 " fill-opacity="1" fill-rule="evenodd"/><g fill="#ff0000" fill-opacity="1"><g transform="translate(19.937551, 330.971135)"><g><path d="M 11.546875 -1.359375 C 11.546875 -0.0351562 11.109375 0.957031 10.234375 1.625 C 9.359375 2.289062 8.394531 2.625 7.34375 2.625 C 6.289062 2.625 5.34375 2.289062 4.5 1.625 C 3.664062 0.957031 3.25 -0.0351562 3.25 -1.359375 C 3.25 -6.816406 3.878906 -12.066406 5.140625 -17.109375 C 6.398438 -22.148438 7.972656 -27.15625 9.859375 -32.125 C 9.367188 -33.03125 9.234375 -34.039062 9.453125 -35.15625 C 9.867188 -36.632812 10.773438 -37.546875 12.171875 -37.890625 C 13.578125 -41.253906 15.03125 -44.597656 16.53125 -47.921875 C 18.03125 -51.242188 19.476562 -54.582031 20.875 -57.9375 C 22.28125 -61.300781 23.578125 -64.695312 24.765625 -68.125 C 25.960938 -71.550781 26.941406 -75.050781 27.703125 -78.625 C 27.921875 -79.664062 28.359375 -80.570312 29.015625 -81.34375 C 29.679688 -82.113281 30.609375 -82.5 31.796875 -82.5 C 32.921875 -82.5 33.9375 -82.097656 34.84375 -81.296875 C 35.757812 -80.492188 36.144531 -79.492188 36 -78.296875 C 35.789062 -74.242188 35.859375 -70.519531 36.203125 -67.125 C 36.554688 -63.726562 37.082031 -60.367188 37.78125 -57.046875 C 38.488281 -53.722656 39.28125 -50.398438 40.15625 -47.078125 C 41.03125 -43.753906 41.847656 -40.445312 42.609375 -37.15625 C 43.378906 -34.007812 44.078125 -30.859375 44.703125 -27.703125 C 45.335938 -24.554688 46.359375 -21.515625 47.765625 -18.578125 C 48.460938 -17.109375 49.195312 -15.691406 49.96875 -14.328125 C 50.738281 -12.960938 51.578125 -11.582031 52.484375 -10.1875 C 53.328125 -8.925781 54.097656 -7.613281 54.796875 -6.25 C 55.492188 -4.882812 55.984375 -3.394531 56.265625 -1.78125 C 56.398438 -0.664062 56.238281 0.378906 55.78125 1.359375 C 55.332031 2.335938 54.515625 3.003906 53.328125 3.359375 C 52.347656 3.640625 51.296875 3.5 50.171875 2.9375 C 49.054688 2.375 48.390625 1.535156 48.171875 0.421875 C 47.898438 -1.191406 47.359375 -2.625 46.546875 -3.875 C 45.742188 -5.132812 44.921875 -6.429688 44.078125 -7.765625 C 43.097656 -9.304688 42.207031 -10.863281 41.40625 -12.4375 C 40.601562 -14.007812 39.882812 -15.632812 39.25 -17.3125 C 38.550781 -19.0625 37.957031 -20.828125 37.46875 -22.609375 C 36.976562 -24.398438 36.523438 -26.207031 36.109375 -28.03125 C 32.960938 -28.238281 29.863281 -28.394531 26.8125 -28.5 C 23.769531 -28.601562 20.710938 -28.832031 17.640625 -29.1875 C 15.953125 -24.707031 14.53125 -20.15625 13.375 -15.53125 C 12.226562 -10.914062 11.617188 -6.191406 11.546875 -1.359375 Z M 21.40625 -38.515625 C 21.269531 -38.304688 21.179688 -38.078125 21.140625 -37.828125 C 21.109375 -37.585938 21.023438 -37.363281 20.890625 -37.15625 C 23.128906 -36.945312 25.332031 -36.820312 27.5 -36.78125 C 29.664062 -36.75 31.867188 -36.664062 34.109375 -36.53125 C 33.335938 -39.882812 32.515625 -43.222656 31.640625 -46.546875 C 30.765625 -49.867188 29.976562 -53.25 29.28125 -56.6875 C 28.019531 -53.601562 26.722656 -50.570312 25.390625 -47.59375 C 24.066406 -44.625 22.738281 -41.597656 21.40625 -38.515625 Z M 21.40625 -38.515625 "/></g></g></g><g fill="#ff0000" fill-opacity="1"><g transform="translate(77.874477, 330.971135)"><g><path d="M 8.921875 0.84375 C 7.804688 0.84375 6.914062 0.546875 6.25 -0.046875 C 5.582031 -0.640625 5.144531 -1.335938 4.9375 -2.140625 C 4.726562 -2.953125 4.742188 -3.773438 4.984375 -4.609375 C 5.234375 -5.453125 5.707031 -6.15625 6.40625 -6.71875 C 6.96875 -9.09375 7.109375 -11.488281 6.828125 -13.90625 C 6.546875 -16.320312 6.265625 -18.71875 5.984375 -21.09375 C 5.628906 -24.03125 5.519531 -26.914062 5.65625 -29.75 C 5.800781 -32.59375 6.085938 -35.484375 6.515625 -38.421875 C 6.929688 -41.359375 7.382812 -44.273438 7.875 -47.171875 C 8.363281 -50.078125 8.78125 -53.003906 9.125 -55.953125 C 9.476562 -59.097656 9.773438 -62.207031 10.015625 -65.28125 C 10.265625 -68.363281 10.457031 -71.476562 10.59375 -74.625 C 10.59375 -75.957031 11.046875 -76.972656 11.953125 -77.671875 C 12.867188 -78.367188 13.851562 -78.71875 14.90625 -78.71875 C 15.957031 -78.71875 16.898438 -78.367188 17.734375 -77.671875 C 18.578125 -76.972656 18.960938 -75.957031 18.890625 -74.625 C 18.753906 -71.34375 18.5625 -68.09375 18.3125 -64.875 C 18.070312 -61.65625 17.773438 -58.363281 17.421875 -55 C 17.078125 -51.925781 16.640625 -48.914062 16.109375 -45.96875 C 15.585938 -43.03125 15.113281 -40.023438 14.6875 -36.953125 C 14.269531 -34.015625 14.0625 -31.125 14.0625 -28.28125 C 14.0625 -25.445312 14.238281 -22.5625 14.59375 -19.625 C 14.800781 -17.59375 14.992188 -15.5625 15.171875 -13.53125 C 15.347656 -11.507812 15.296875 -9.484375 15.015625 -7.453125 C 20.253906 -7.316406 25.5 -7.054688 30.75 -6.671875 C 36 -6.285156 41.25 -5.984375 46.5 -5.765625 C 47.832031 -5.703125 48.828125 -5.210938 49.484375 -4.296875 C 50.148438 -3.390625 50.484375 -2.410156 50.484375 -1.359375 C 50.484375 -0.316406 50.148438 0.625 49.484375 1.46875 C 48.828125 2.3125 47.832031 2.695312 46.5 2.625 C 40.132812 2.34375 33.851562 1.972656 27.65625 1.515625 C 21.46875 1.066406 15.222656 0.84375 8.921875 0.84375 Z M 8.921875 0.84375 "/></g></g></g><g fill="#ff0000" fill-opacity="1"><g transform="translate(124.056085, 330.971135)"><g><path d="M 4.828125 -63.1875 C 3.429688 -63.601562 2.59375 -64.515625 2.3125 -65.921875 C 1.957031 -66.898438 2.0625 -67.960938 2.625 -69.109375 C 3.1875 -70.265625 4.0625 -70.914062 5.25 -71.0625 C 12.039062 -72.113281 18.84375 -72.691406 25.65625 -72.796875 C 32.476562 -72.898438 39.320312 -72.988281 46.1875 -73.0625 C 47.507812 -73.0625 48.519531 -72.640625 49.21875 -71.796875 C 49.925781 -70.953125 50.28125 -70.003906 50.28125 -68.953125 C 50.28125 -67.910156 49.925781 -66.953125 49.21875 -66.078125 C 48.519531 -65.203125 47.507812 -64.765625 46.1875 -64.765625 C 40.726562 -64.617188 35.234375 -64.546875 29.703125 -64.546875 C 24.171875 -64.546875 18.644531 -64.269531 13.125 -63.71875 C 13.257812 -60.914062 13.429688 -58.128906 13.640625 -55.359375 C 13.847656 -52.597656 14.0625 -49.820312 14.28125 -47.03125 C 19.59375 -47.300781 24.890625 -47.644531 30.171875 -48.0625 C 35.460938 -48.488281 40.765625 -48.5625 46.078125 -48.28125 C 47.410156 -48.207031 48.425781 -47.71875 49.125 -46.8125 C 49.820312 -45.90625 50.171875 -44.925781 50.171875 -43.875 C 50.171875 -42.820312 49.820312 -41.875 49.125 -41.03125 C 48.425781 -40.195312 47.410156 -39.816406 46.078125 -39.890625 C 40.828125 -40.171875 35.628906 -40.097656 30.484375 -39.671875 C 25.347656 -39.253906 20.15625 -38.90625 14.90625 -38.625 C 15.320312 -33.582031 15.722656 -28.5625 16.109375 -23.5625 C 16.492188 -18.5625 16.757812 -13.539062 16.90625 -8.5 C 19.351562 -9.0625 21.832031 -9.601562 24.34375 -10.125 C 26.863281 -10.65625 29.382812 -11.078125 31.90625 -11.390625 C 34.425781 -11.703125 36.945312 -11.859375 39.46875 -11.859375 C 41.988281 -11.859375 44.507812 -11.648438 47.03125 -11.234375 C 48.144531 -11.023438 48.984375 -10.359375 49.546875 -9.234375 C 50.109375 -8.117188 50.25 -7.070312 49.96875 -6.09375 C 49.613281 -4.894531 48.945312 -4.050781 47.96875 -3.5625 C 46.988281 -3.070312 45.90625 -2.9375 44.71875 -3.15625 C 42.476562 -3.570312 40.203125 -3.707031 37.890625 -3.5625 C 35.578125 -3.425781 33.300781 -3.179688 31.0625 -2.828125 C 28.476562 -2.410156 25.910156 -1.921875 23.359375 -1.359375 C 20.804688 -0.804688 18.269531 -0.210938 15.75 0.421875 C 14.550781 0.703125 13.429688 0.492188 12.390625 -0.203125 C 11.410156 -0.347656 10.535156 -0.734375 9.765625 -1.359375 C 8.992188 -1.992188 8.609375 -2.941406 8.609375 -4.203125 C 8.460938 -10.148438 8.195312 -16.023438 7.8125 -21.828125 C 7.4375 -27.640625 7.003906 -33.484375 6.515625 -39.359375 C 5.742188 -40.128906 5.300781 -41.09375 5.1875 -42.25 C 5.082031 -43.40625 5.382812 -44.398438 6.09375 -45.234375 C 5.53125 -51.179688 5.109375 -57.164062 4.828125 -63.1875 Z M 4.828125 -63.1875 "/></g></g></g><g fill="#ff0000" fill-opacity="1"><g transform="translate(178.634349, 330.971135)"><g><path d="M 16.375 1.78125 C 14.269531 0.457031 12.378906 -1.179688 10.703125 -3.140625 C 9.023438 -5.109375 7.554688 -7.242188 6.296875 -9.546875 C 5.035156 -11.859375 3.984375 -14.238281 3.140625 -16.6875 C 2.304688 -19.132812 1.679688 -21.582031 1.265625 -24.03125 C 0.835938 -26.34375 0.585938 -28.707031 0.515625 -31.125 C 0.453125 -33.539062 0.769531 -35.898438 1.46875 -38.203125 C 2.03125 -40.023438 2.78125 -41.773438 3.71875 -43.453125 C 4.664062 -45.128906 5.703125 -46.738281 6.828125 -48.28125 C 9.554688 -52.0625 12.597656 -55.628906 15.953125 -58.984375 C 19.316406 -62.347656 22.988281 -65.289062 26.96875 -67.8125 C 28.789062 -69 30.695312 -70.046875 32.6875 -70.953125 C 34.6875 -71.867188 36.71875 -72.535156 38.78125 -72.953125 C 40.84375 -73.367188 42.921875 -73.488281 45.015625 -73.3125 C 47.117188 -73.144531 49.222656 -72.570312 51.328125 -71.59375 C 52.378906 -71.09375 53.046875 -70.25 53.328125 -69.0625 C 53.609375 -67.875 53.46875 -66.828125 52.90625 -65.921875 C 52.269531 -64.867188 51.410156 -64.238281 50.328125 -64.03125 C 49.242188 -63.820312 48.175781 -63.960938 47.125 -64.453125 C 45.9375 -65.003906 44.429688 -65.210938 42.609375 -65.078125 C 41.910156 -65.078125 41.050781 -64.953125 40.03125 -64.703125 C 39.019531 -64.460938 38.023438 -64.132812 37.046875 -63.71875 C 35.023438 -62.945312 33.015625 -61.878906 31.015625 -60.515625 C 29.023438 -59.148438 27.15625 -57.734375 25.40625 -56.265625 C 22.320312 -53.597656 19.429688 -50.707031 16.734375 -47.59375 C 14.046875 -44.488281 11.789062 -41.113281 9.96875 -37.46875 C 9.757812 -36.976562 9.550781 -36.242188 9.34375 -35.265625 C 9.132812 -34.285156 8.992188 -33.445312 8.921875 -32.75 C 8.785156 -30.71875 8.890625 -28.722656 9.234375 -26.765625 C 9.648438 -24.453125 10.226562 -22.160156 10.96875 -19.890625 C 11.707031 -17.617188 12.671875 -15.46875 13.859375 -13.4375 C 14.972656 -11.539062 16.28125 -9.664062 17.78125 -7.8125 C 19.289062 -5.957031 21.164062 -4.753906 23.40625 -4.203125 C 25.78125 -3.566406 28.226562 -3.707031 30.75 -4.625 C 31.3125 -4.832031 31.835938 -5.054688 32.328125 -5.296875 C 32.816406 -5.546875 33.34375 -5.8125 33.90625 -6.09375 C 34.113281 -6.226562 34.320312 -6.363281 34.53125 -6.5 C 34.738281 -6.644531 34.945312 -6.785156 35.15625 -6.921875 C 36.769531 -8.328125 38.207031 -9.796875 39.46875 -11.328125 C 40.726562 -12.867188 41.914062 -14.484375 43.03125 -16.171875 C 43.59375 -17.148438 44.171875 -18.144531 44.765625 -19.15625 C 45.359375 -20.164062 45.832031 -21.160156 46.1875 -22.140625 C 46.53125 -23.054688 46.804688 -23.878906 47.015625 -24.609375 C 47.234375 -25.347656 47.34375 -26.101562 47.34375 -26.875 C 46.644531 -27.15625 45.941406 -27.296875 45.234375 -27.296875 C 44.535156 -27.296875 43.800781 -27.296875 43.03125 -27.296875 C 41.070312 -27.222656 39.128906 -27.082031 37.203125 -26.875 C 35.285156 -26.664062 33.3125 -26.5625 31.28125 -26.5625 C 29.945312 -26.5625 28.945312 -27 28.28125 -27.875 C 27.625 -28.75 27.296875 -29.707031 27.296875 -30.75 C 27.296875 -31.800781 27.625 -32.742188 28.28125 -33.578125 C 28.945312 -34.421875 29.945312 -34.84375 31.28125 -34.84375 C 33.164062 -34.84375 35.050781 -34.945312 36.9375 -35.15625 C 38.832031 -35.375 40.722656 -35.515625 42.609375 -35.578125 C 44.503906 -35.648438 46.359375 -35.582031 48.171875 -35.375 C 49.992188 -35.164062 51.816406 -34.675781 53.640625 -33.90625 C 55.453125 -33.207031 56.988281 -31.945312 58.25 -30.125 C 59.019531 -28.9375 59.351562 -27.609375 59.25 -26.140625 C 59.144531 -24.671875 59.09375 -23.234375 59.09375 -21.828125 C 58.957031 -18.816406 58.867188 -15.820312 58.828125 -12.84375 C 58.796875 -9.875 58.742188 -6.921875 58.671875 -3.984375 C 58.671875 -2.585938 58.21875 -1.554688 57.3125 -0.890625 C 56.40625 -0.222656 55.425781 0.109375 54.375 0.109375 C 53.320312 0.109375 52.375 -0.222656 51.53125 -0.890625 C 50.695312 -1.554688 50.28125 -2.585938 50.28125 -3.984375 C 50.351562 -5.390625 50.390625 -6.789062 50.390625 -8.1875 C 50.390625 -9.582031 50.421875 -10.984375 50.484375 -12.390625 C 48.453125 -9.171875 46.179688 -6.195312 43.671875 -3.46875 C 41.984375 -1.644531 40.019531 -0.0859375 37.78125 1.203125 C 35.539062 2.503906 33.210938 3.429688 30.796875 3.984375 C 28.390625 4.546875 25.925781 4.6875 23.40625 4.40625 C 20.882812 4.125 18.539062 3.25 16.375 1.78125 Z M 16.375 1.78125 "/></g></g></g><g fill="#ff0000" fill-opacity="1"><g transform="translate(241.609269, 330.971135)"><g><path d="M 45.5625 -2.625 C 45 -1.644531 44.140625 -0.976562 42.984375 -0.625 C 41.828125 -0.28125 40.757812 -0.457031 39.78125 -1.15625 C 37.894531 -2.550781 36.078125 -4 34.328125 -5.5 C 32.578125 -7.007812 30.6875 -8.359375 28.65625 -9.546875 C 26.832031 -10.671875 25.007812 -11.703125 23.1875 -12.640625 C 21.375 -13.585938 19.628906 -14.691406 17.953125 -15.953125 C 15.921875 -17.492188 14.03125 -19.175781 12.28125 -21 C 12.207031 -17.5 12.238281 -14.015625 12.375 -10.546875 C 12.519531 -7.085938 12.734375 -3.609375 13.015625 -0.109375 C 13.148438 1.078125 12.765625 2.070312 11.859375 2.875 C 10.953125 3.6875 9.972656 4.09375 8.921875 4.09375 C 7.660156 4.09375 6.679688 3.6875 5.984375 2.875 C 5.285156 2.070312 4.863281 1.078125 4.71875 -0.109375 C 4.300781 -5.140625 4.054688 -10.085938 3.984375 -14.953125 C 3.921875 -19.816406 4.023438 -24.734375 4.296875 -29.703125 C 3.742188 -30.472656 3.1875 -31.257812 2.625 -32.0625 C 2.0625 -32.875 1.535156 -33.695312 1.046875 -34.53125 C 0.628906 -35.375 0.472656 -36.179688 0.578125 -36.953125 C 0.679688 -37.722656 0.957031 -38.382812 1.40625 -38.9375 C 1.863281 -39.5 2.425781 -39.953125 3.09375 -40.296875 C 3.757812 -40.648438 4.476562 -40.789062 5.25 -40.71875 C 5.382812 -42.332031 5.554688 -43.960938 5.765625 -45.609375 C 5.984375 -47.253906 6.195312 -48.878906 6.40625 -50.484375 C 6.613281 -51.609375 6.804688 -52.710938 6.984375 -53.796875 C 7.160156 -54.878906 7.316406 -55.976562 7.453125 -57.09375 C 7.585938 -57.65625 7.671875 -58.179688 7.703125 -58.671875 C 7.742188 -59.160156 7.835938 -59.6875 7.984375 -60.25 C 7.984375 -60.53125 8.050781 -60.878906 8.1875 -61.296875 C 8.257812 -62.210938 8.296875 -63.101562 8.296875 -63.96875 C 8.296875 -64.84375 8.328125 -65.738281 8.390625 -66.65625 C 8.460938 -67.769531 8.585938 -68.972656 8.765625 -70.265625 C 8.941406 -71.566406 9.222656 -72.828125 9.609375 -74.046875 C 9.992188 -75.273438 10.535156 -76.410156 11.234375 -77.453125 C 11.929688 -78.503906 12.875 -79.3125 14.0625 -79.875 C 15.1875 -80.363281 16.320312 -80.644531 17.46875 -80.71875 C 18.625 -80.789062 19.78125 -80.71875 20.9375 -80.5 C 22.09375 -80.289062 23.226562 -79.992188 24.34375 -79.609375 C 25.46875 -79.222656 26.554688 -78.820312 27.609375 -78.40625 C 30.054688 -77.5 32.484375 -76.46875 34.890625 -75.3125 C 37.304688 -74.15625 39.460938 -72.664062 41.359375 -70.84375 C 43.171875 -69.03125 44.742188 -66.878906 46.078125 -64.390625 C 47.410156 -61.910156 48.003906 -59.34375 47.859375 -56.6875 C 47.722656 -55.070312 47.390625 -53.648438 46.859375 -52.421875 C 46.335938 -51.203125 45.625 -49.960938 44.71875 -48.703125 C 42.476562 -45.554688 40.0625 -42.546875 37.46875 -39.671875 C 34.882812 -36.804688 32.125 -34.179688 29.1875 -31.796875 C 27.78125 -30.679688 26.253906 -29.5625 24.609375 -28.4375 C 22.960938 -27.320312 21.234375 -26.378906 19.421875 -25.609375 C 20.046875 -25.046875 20.671875 -24.484375 21.296875 -23.921875 C 21.929688 -23.367188 22.597656 -22.882812 23.296875 -22.46875 C 25.117188 -21.269531 26.957031 -20.164062 28.8125 -19.15625 C 30.664062 -18.144531 32.46875 -17.039062 34.21875 -15.84375 C 35.894531 -14.65625 37.535156 -13.394531 39.140625 -12.0625 C 40.753906 -10.738281 42.367188 -9.484375 43.984375 -8.296875 C 44.960938 -7.660156 45.609375 -6.816406 45.921875 -5.765625 C 46.234375 -4.722656 46.113281 -3.675781 45.5625 -2.625 Z M 17.21875 -33.796875 C 18.894531 -34.703125 20.414062 -35.660156 21.78125 -36.671875 C 23.144531 -37.691406 24.492188 -38.796875 25.828125 -39.984375 C 27.222656 -41.242188 28.582031 -42.570312 29.90625 -43.96875 C 31.238281 -45.375 32.535156 -46.773438 33.796875 -48.171875 C 34.285156 -48.804688 34.738281 -49.367188 35.15625 -49.859375 C 35.582031 -50.347656 35.96875 -50.816406 36.3125 -51.265625 C 36.664062 -51.722656 37.035156 -52.210938 37.421875 -52.734375 C 37.804688 -53.265625 38.207031 -53.878906 38.625 -54.578125 C 38.769531 -54.785156 38.910156 -54.992188 39.046875 -55.203125 C 39.179688 -55.421875 39.320312 -55.632812 39.46875 -55.84375 C 39.539062 -57.800781 39.117188 -59.617188 38.203125 -61.296875 C 37.015625 -63.328125 35.523438 -64.972656 33.734375 -66.234375 C 31.953125 -67.492188 29.976562 -68.539062 27.8125 -69.375 C 26.550781 -69.9375 25.289062 -70.425781 24.03125 -70.84375 C 22.769531 -71.269531 21.441406 -71.65625 20.046875 -72 C 19.703125 -72.144531 19.175781 -72.285156 18.46875 -72.421875 C 18.050781 -72.285156 17.773438 -72.078125 17.640625 -71.796875 C 17.359375 -70.890625 17.21875 -70.257812 17.21875 -69.90625 C 17.144531 -69.695312 17.039062 -69.3125 16.90625 -68.75 C 16.832031 -68.050781 16.773438 -67.507812 16.734375 -67.125 C 16.703125 -66.738281 16.6875 -66.335938 16.6875 -65.921875 C 16.476562 -61.085938 15.96875 -56.328125 15.15625 -51.640625 C 14.351562 -46.953125 13.707031 -42.195312 13.21875 -37.375 C 13.082031 -36.601562 12.992188 -35.8125 12.953125 -35 C 12.921875 -34.195312 12.875 -33.410156 12.8125 -32.640625 C 13.4375 -32.578125 13.785156 -32.578125 13.859375 -32.640625 C 14.628906 -32.785156 15.238281 -32.941406 15.6875 -33.109375 C 16.144531 -33.285156 16.65625 -33.515625 17.21875 -33.796875 Z M 17.21875 -33.796875 "/></g></g></g><g fill="#ff0000" fill-opacity="1"><g transform="translate(290.51979, 330.971135)"><g><path d="M 1.890625 0 C 0.628906 -0.351562 -0.207031 -1.050781 -0.625 -2.09375 C -1.050781 -3.144531 -1.125 -4.160156 -0.84375 -5.140625 C -0.5625 -6.117188 0.015625 -6.941406 0.890625 -7.609375 C 1.765625 -8.273438 2.832031 -8.429688 4.09375 -8.078125 C 6.894531 -7.242188 9.691406 -6.71875 12.484375 -6.5 C 15.285156 -6.289062 18.15625 -6.257812 21.09375 -6.40625 C 19.90625 -11.375 19.3125 -16.359375 19.3125 -21.359375 C 19.3125 -26.359375 19.503906 -31.359375 19.890625 -36.359375 C 20.273438 -41.367188 20.660156 -46.390625 21.046875 -51.421875 C 21.429688 -56.460938 21.445312 -61.503906 21.09375 -66.546875 C 18.4375 -66.617188 15.757812 -66.738281 13.0625 -66.90625 C 10.375 -67.082031 7.695312 -67.347656 5.03125 -67.703125 C 3.84375 -67.835938 2.847656 -68.253906 2.046875 -68.953125 C 1.242188 -69.660156 0.84375 -70.609375 0.84375 -71.796875 C 0.84375 -72.847656 1.242188 -73.84375 2.046875 -74.78125 C 2.847656 -75.726562 3.84375 -76.132812 5.03125 -76 C 8.25 -75.644531 11.484375 -75.34375 14.734375 -75.09375 C 17.992188 -74.851562 21.234375 -74.765625 24.453125 -74.828125 C 27.671875 -74.898438 30.875 -75.179688 34.0625 -75.671875 C 37.25 -76.171875 40.414062 -76.976562 43.5625 -78.09375 C 44.613281 -78.445312 45.644531 -78.304688 46.65625 -77.671875 C 47.664062 -77.046875 48.347656 -76.207031 48.703125 -75.15625 C 49.054688 -73.96875 48.929688 -72.898438 48.328125 -71.953125 C 47.734375 -71.003906 46.878906 -70.359375 45.765625 -70.015625 C 40.515625 -68.191406 35.054688 -67.109375 29.390625 -66.765625 C 29.804688 -61.796875 29.804688 -56.789062 29.390625 -51.75 C 28.972656 -46.707031 28.550781 -41.703125 28.125 -36.734375 C 27.707031 -31.765625 27.515625 -26.796875 27.546875 -21.828125 C 27.585938 -16.859375 28.238281 -11.925781 29.5 -7.03125 C 31.738281 -7.238281 33.941406 -7.445312 36.109375 -7.65625 C 38.273438 -7.875 40.441406 -8.050781 42.609375 -8.1875 C 43.941406 -8.257812 44.941406 -7.890625 45.609375 -7.078125 C 46.273438 -6.273438 46.609375 -5.347656 46.609375 -4.296875 C 46.609375 -3.253906 46.273438 -2.273438 45.609375 -1.359375 C 44.941406 -0.453125 43.941406 0.0351562 42.609375 0.109375 C 39.179688 0.316406 35.769531 0.613281 32.375 1 C 28.988281 1.382812 25.597656 1.660156 22.203125 1.828125 C 18.804688 2.003906 15.410156 1.988281 12.015625 1.78125 C 8.617188 1.570312 5.242188 0.976562 1.890625 0 Z M 34.109375 -99.1875 C 35.023438 -99.882812 36.003906 -100.285156 37.046875 -100.390625 C 38.097656 -100.492188 39.078125 -100.09375 39.984375 -99.1875 C 40.753906 -98.414062 41.175781 -97.414062 41.25 -96.1875 C 41.320312 -94.96875 40.898438 -93.972656 39.984375 -93.203125 C 34.953125 -89.359375 29.707031 -86.035156 24.25 -83.234375 C 23.0625 -82.609375 21.941406 -82.519531 20.890625 -82.96875 C 19.835938 -83.425781 19.046875 -84.109375 18.515625 -85.015625 C 17.992188 -85.929688 17.800781 -86.910156 17.9375 -87.953125 C 18.082031 -89.003906 18.75 -89.847656 19.9375 -90.484375 C 22.457031 -91.734375 24.890625 -93.054688 27.234375 -94.453125 C 29.578125 -95.859375 31.867188 -97.4375 34.109375 -99.1875 Z M 34.109375 -99.1875 "/></g></g></g><g fill="#ff0000" fill-opacity="1"><g transform="translate(338.275784, 330.971135)"><g><path d="M 11.546875 -1.359375 C 11.546875 -0.0351562 11.109375 0.957031 10.234375 1.625 C 9.359375 2.289062 8.394531 2.625 7.34375 2.625 C 6.289062 2.625 5.34375 2.289062 4.5 1.625 C 3.664062 0.957031 3.25 -0.0351562 3.25 -1.359375 C 3.25 -6.816406 3.878906 -12.066406 5.140625 -17.109375 C 6.398438 -22.148438 7.972656 -27.15625 9.859375 -32.125 C 9.367188 -33.03125 9.234375 -34.039062 9.453125 -35.15625 C 9.867188 -36.632812 10.773438 -37.546875 12.171875 -37.890625 C 13.578125 -41.253906 15.03125 -44.597656 16.53125 -47.921875 C 18.03125 -51.242188 19.476562 -54.582031 20.875 -57.9375 C 22.28125 -61.300781 23.578125 -64.695312 24.765625 -68.125 C 25.960938 -71.550781 26.941406 -75.050781 27.703125 -78.625 C 27.921875 -79.664062 28.359375 -80.570312 29.015625 -81.34375 C 29.679688 -82.113281 30.609375 -82.5 31.796875 -82.5 C 32.921875 -82.5 33.9375 -82.097656 34.84375 -81.296875 C 35.757812 -80.492188 36.144531 -79.492188 36 -78.296875 C 35.789062 -74.242188 35.859375 -70.519531 36.203125 -67.125 C 36.554688 -63.726562 37.082031 -60.367188 37.78125 -57.046875 C 38.488281 -53.722656 39.28125 -50.398438 40.15625 -47.078125 C 41.03125 -43.753906 41.847656 -40.445312 42.609375 -37.15625 C 43.378906 -34.007812 44.078125 -30.859375 44.703125 -27.703125 C 45.335938 -24.554688 46.359375 -21.515625 47.765625 -18.578125 C 48.460938 -17.109375 49.195312 -15.691406 49.96875 -14.328125 C 50.738281 -12.960938 51.578125 -11.582031 52.484375 -10.1875 C 53.328125 -8.925781 54.097656 -7.613281 54.796875 -6.25 C 55.492188 -4.882812 55.984375 -3.394531 56.265625 -1.78125 C 56.398438 -0.664062 56.238281 0.378906 55.78125 1.359375 C 55.332031 2.335938 54.515625 3.003906 53.328125 3.359375 C 52.347656 3.640625 51.296875 3.5 50.171875 2.9375 C 49.054688 2.375 48.390625 1.535156 48.171875 0.421875 C 47.898438 -1.191406 47.359375 -2.625 46.546875 -3.875 C 45.742188 -5.132812 44.921875 -6.429688 44.078125 -7.765625 C 43.097656 -9.304688 42.207031 -10.863281 41.40625 -12.4375 C 40.601562 -14.007812 39.882812 -15.632812 39.25 -17.3125 C 38.550781 -19.0625 37.957031 -20.828125 37.46875 -22.609375 C 36.976562 -24.398438 36.523438 -26.207031 36.109375 -28.03125 C 32.960938 -28.238281 29.863281 -28.394531 26.8125 -28.5 C 23.769531 -28.601562 20.710938 -28.832031 17.640625 -29.1875 C 15.953125 -24.707031 14.53125 -20.15625 13.375 -15.53125 C 12.226562 -10.914062 11.617188 -6.191406 11.546875 -1.359375 Z M 21.40625 -38.515625 C 21.269531 -38.304688 21.179688 -38.078125 21.140625 -37.828125 C 21.109375 -37.585938 21.023438 -37.363281 20.890625 -37.15625 C 23.128906 -36.945312 25.332031 -36.820312 27.5 -36.78125 C 29.664062 -36.75 31.867188 -36.664062 34.109375 -36.53125 C 33.335938 -39.882812 32.515625 -43.222656 31.640625 -46.546875 C 30.765625 -49.867188 29.976562 -53.25 29.28125 -56.6875 C 28.019531 -53.601562 26.722656 -50.570312 25.390625 -47.59375 C 24.066406 -44.625 22.738281 -41.597656 21.40625 -38.515625 Z M 21.40625 -38.515625 "/></g></g></g><g fill="#00ffff" fill-opacity="1"><g transform="translate(27.765654, 328.121945)"><g><path d="M 11.546875 -1.359375 C 11.546875 -0.0351562 11.109375 0.957031 10.234375 1.625 C 9.359375 2.289062 8.394531 2.625 7.34375 2.625 C 6.289062 2.625 5.34375 2.289062 4.5 1.625 C 3.664062 0.957031 3.25 -0.0351562 3.25 -1.359375 C 3.25 -6.816406 3.878906 -12.066406 5.140625 -17.109375 C 6.398438 -22.148438 7.972656 -27.15625 9.859375 -32.125 C 9.367188 -33.03125 9.234375 -34.039062 9.453125 -35.15625 C 9.867188 -36.632812 10.773438 -37.546875 12.171875 -37.890625 C 13.578125 -41.253906 15.03125 -44.597656 16.53125 -47.921875 C 18.03125 -51.242188 19.476562 -54.582031 20.875 -57.9375 C 22.28125 -61.300781 23.578125 -64.695312 24.765625 -68.125 C 25.960938 -71.550781 26.941406 -75.050781 27.703125 -78.625 C 27.921875 -79.664062 28.359375 -80.570312 29.015625 -81.34375 C 29.679688 -82.113281 30.609375 -82.5 31.796875 -82.5 C 32.921875 -82.5 33.9375 -82.097656 34.84375 -81.296875 C 35.757812 -80.492188 36.144531 -79.492188 36 -78.296875 C 35.789062 -74.242188 35.859375 -70.519531 36.203125 -67.125 C 36.554688 -63.726562 37.082031 -60.367188 37.78125 -57.046875 C 38.488281 -53.722656 39.28125 -50.398438 40.15625 -47.078125 C 41.03125 -43.753906 41.847656 -40.445312 42.609375 -37.15625 C 43.378906 -34.007812 44.078125 -30.859375 44.703125 -27.703125 C 45.335938 -24.554688 46.359375 -21.515625 47.765625 -18.578125 C 48.460938 -17.109375 49.195312 -15.691406 49.96875 -14.328125 C 50.738281 -12.960938 51.578125 -11.582031 52.484375 -10.1875 C 53.328125 -8.925781 54.097656 -7.613281 54.796875 -6.25 C 55.492188 -4.882812 55.984375 -3.394531 56.265625 -1.78125 C 56.398438 -0.664062 56.238281 0.378906 55.78125 1.359375 C 55.332031 2.335938 54.515625 3.003906 53.328125 3.359375 C 52.347656 3.640625 51.296875 3.5 50.171875 2.9375 C 49.054688 2.375 48.390625 1.535156 48.171875 0.421875 C 47.898438 -1.191406 47.359375 -2.625 46.546875 -3.875 C 45.742188 -5.132812 44.921875 -6.429688 44.078125 -7.765625 C 43.097656 -9.304688 42.207031 -10.863281 41.40625 -12.4375 C 40.601562 -14.007812 39.882812 -15.632812 39.25 -17.3125 C 38.550781 -19.0625 37.957031 -20.828125 37.46875 -22.609375 C 36.976562 -24.398438 36.523438 -26.207031 36.109375 -28.03125 C 32.960938 -28.238281 29.863281 -28.394531 26.8125 -28.5 C 23.769531 -28.601562 20.710938 -28.832031 17.640625 -29.1875 C 15.953125 -24.707031 14.53125 -20.15625 13.375 -15.53125 C 12.226562 -10.914062 11.617188 -6.191406 11.546875 -1.359375 Z M 21.40625 -38.515625 C 21.269531 -38.304688 21.179688 -38.078125 21.140625 -37.828125 C 21.109375 -37.585938 21.023438 -37.363281 20.890625 -37.15625 C 23.128906 -36.945312 25.332031 -36.820312 27.5 -36.78125 C 29.664062 -36.75 31.867188 -36.664062 34.109375 -36.53125 C 33.335938 -39.882812 32.515625 -43.222656 31.640625 -46.546875 C 30.765625 -49.867188 29.976562 -53.25 29.28125 -56.6875 C 28.019531 -53.601562 26.722656 -50.570312 25.390625 -47.59375 C 24.066406 -44.625 22.738281 -41.597656 21.40625 -38.515625 Z M 21.40625 -38.515625 "/></g></g></g><g fill="#00ffff" fill-opacity="1"><g transform="translate(85.70258, 328.121945)"><g><path d="M 8.921875 0.84375 C 7.804688 0.84375 6.914062 0.546875 6.25 -0.046875 C 5.582031 -0.640625 5.144531 -1.335938 4.9375 -2.140625 C 4.726562 -2.953125 4.742188 -3.773438 4.984375 -4.609375 C 5.234375 -5.453125 5.707031 -6.15625 6.40625 -6.71875 C 6.96875 -9.09375 7.109375 -11.488281 6.828125 -13.90625 C 6.546875 -16.320312 6.265625 -18.71875 5.984375 -21.09375 C 5.628906 -24.03125 5.519531 -26.914062 5.65625 -29.75 C 5.800781 -32.59375 6.085938 -35.484375 6.515625 -38.421875 C 6.929688 -41.359375 7.382812 -44.273438 7.875 -47.171875 C 8.363281 -50.078125 8.78125 -53.003906 9.125 -55.953125 C 9.476562 -59.097656 9.773438 -62.207031 10.015625 -65.28125 C 10.265625 -68.363281 10.457031 -71.476562 10.59375 -74.625 C 10.59375 -75.957031 11.046875 -76.972656 11.953125 -77.671875 C 12.867188 -78.367188 13.851562 -78.71875 14.90625 -78.71875 C 15.957031 -78.71875 16.898438 -78.367188 17.734375 -77.671875 C 18.578125 -76.972656 18.960938 -75.957031 18.890625 -74.625 C 18.753906 -71.34375 18.5625 -68.09375 18.3125 -64.875 C 18.070312 -61.65625 17.773438 -58.363281 17.421875 -55 C 17.078125 -51.925781 16.640625 -48.914062 16.109375 -45.96875 C 15.585938 -43.03125 15.113281 -40.023438 14.6875 -36.953125 C 14.269531 -34.015625 14.0625 -31.125 14.0625 -28.28125 C 14.0625 -25.445312 14.238281 -22.5625 14.59375 -19.625 C 14.800781 -17.59375 14.992188 -15.5625 15.171875 -13.53125 C 15.347656 -11.507812 15.296875 -9.484375 15.015625 -7.453125 C 20.253906 -7.316406 25.5 -7.054688 30.75 -6.671875 C 36 -6.285156 41.25 -5.984375 46.5 -5.765625 C 47.832031 -5.703125 48.828125 -5.210938 49.484375 -4.296875 C 50.148438 -3.390625 50.484375 -2.410156 50.484375 -1.359375 C 50.484375 -0.316406 50.148438 0.625 49.484375 1.46875 C 48.828125 2.3125 47.832031 2.695312 46.5 2.625 C 40.132812 2.34375 33.851562 1.972656 27.65625 1.515625 C 21.46875 1.066406 15.222656 0.84375 8.921875 0.84375 Z M 8.921875 0.84375 "/></g></g></g><g fill="#00ffff" fill-opacity="1"><g transform="translate(131.884189, 328.121945)"><g><path d="M 4.828125 -63.1875 C 3.429688 -63.601562 2.59375 -64.515625 2.3125 -65.921875 C 1.957031 -66.898438 2.0625 -67.960938 2.625 -69.109375 C 3.1875 -70.265625 4.0625 -70.914062 5.25 -71.0625 C 12.039062 -72.113281 18.84375 -72.691406 25.65625 -72.796875 C 32.476562 -72.898438 39.320312 -72.988281 46.1875 -73.0625 C 47.507812 -73.0625 48.519531 -72.640625 49.21875 -71.796875 C 49.925781 -70.953125 50.28125 -70.003906 50.28125 -68.953125 C 50.28125 -67.910156 49.925781 -66.953125 49.21875 -66.078125 C 48.519531 -65.203125 47.507812 -64.765625 46.1875 -64.765625 C 40.726562 -64.617188 35.234375 -64.546875 29.703125 -64.546875 C 24.171875 -64.546875 18.644531 -64.269531 13.125 -63.71875 C 13.257812 -60.914062 13.429688 -58.128906 13.640625 -55.359375 C 13.847656 -52.597656 14.0625 -49.820312 14.28125 -47.03125 C 19.59375 -47.300781 24.890625 -47.644531 30.171875 -48.0625 C 35.460938 -48.488281 40.765625 -48.5625 46.078125 -48.28125 C 47.410156 -48.207031 48.425781 -47.71875 49.125 -46.8125 C 49.820312 -45.90625 50.171875 -44.925781 50.171875 -43.875 C 50.171875 -42.820312 49.820312 -41.875 49.125 -41.03125 C 48.425781 -40.195312 47.410156 -39.816406 46.078125 -39.890625 C 40.828125 -40.171875 35.628906 -40.097656 30.484375 -39.671875 C 25.347656 -39.253906 20.15625 -38.90625 14.90625 -38.625 C 15.320312 -33.582031 15.722656 -28.5625 16.109375 -23.5625 C 16.492188 -18.5625 16.757812 -13.539062 16.90625 -8.5 C 19.351562 -9.0625 21.832031 -9.601562 24.34375 -10.125 C 26.863281 -10.65625 29.382812 -11.078125 31.90625 -11.390625 C 34.425781 -11.703125 36.945312 -11.859375 39.46875 -11.859375 C 41.988281 -11.859375 44.507812 -11.648438 47.03125 -11.234375 C 48.144531 -11.023438 48.984375 -10.359375 49.546875 -9.234375 C 50.109375 -8.117188 50.25 -7.070312 49.96875 -6.09375 C 49.613281 -4.894531 48.945312 -4.050781 47.96875 -3.5625 C 46.988281 -3.070312 45.90625 -2.9375 44.71875 -3.15625 C 42.476562 -3.570312 40.203125 -3.707031 37.890625 -3.5625 C 35.578125 -3.425781 33.300781 -3.179688 31.0625 -2.828125 C 28.476562 -2.410156 25.910156 -1.921875 23.359375 -1.359375 C 20.804688 -0.804688 18.269531 -0.210938 15.75 0.421875 C 14.550781 0.703125 13.429688 0.492188 12.390625 -0.203125 C 11.410156 -0.347656 10.535156 -0.734375 9.765625 -1.359375 C 8.992188 -1.992188 8.609375 -2.941406 8.609375 -4.203125 C 8.460938 -10.148438 8.195312 -16.023438 7.8125 -21.828125 C 7.4375 -27.640625 7.003906 -33.484375 6.515625 -39.359375 C 5.742188 -40.128906 5.300781 -41.09375 5.1875 -42.25 C 5.082031 -43.40625 5.382812 -44.398438 6.09375 -45.234375 C 5.53125 -51.179688 5.109375 -57.164062 4.828125 -63.1875 Z M 4.828125 -63.1875 "/></g></g></g><g fill="#00ffff" fill-opacity="1"><g transform="translate(186.462452, 328.121945)"><g><path d="M 16.375 1.78125 C 14.269531 0.457031 12.378906 -1.179688 10.703125 -3.140625 C 9.023438 -5.109375 7.554688 -7.242188 6.296875 -9.546875 C 5.035156 -11.859375 3.984375 -14.238281 3.140625 -16.6875 C 2.304688 -19.132812 1.679688 -21.582031 1.265625 -24.03125 C 0.835938 -26.34375 0.585938 -28.707031 0.515625 -31.125 C 0.453125 -33.539062 0.769531 -35.898438 1.46875 -38.203125 C 2.03125 -40.023438 2.78125 -41.773438 3.71875 -43.453125 C 4.664062 -45.128906 5.703125 -46.738281 6.828125 -48.28125 C 9.554688 -52.0625 12.597656 -55.628906 15.953125 -58.984375 C 19.316406 -62.347656 22.988281 -65.289062 26.96875 -67.8125 C 28.789062 -69 30.695312 -70.046875 32.6875 -70.953125 C 34.6875 -71.867188 36.71875 -72.535156 38.78125 -72.953125 C 40.84375 -73.367188 42.921875 -73.488281 45.015625 -73.3125 C 47.117188 -73.144531 49.222656 -72.570312 51.328125 -71.59375 C 52.378906 -71.09375 53.046875 -70.25 53.328125 -69.0625 C 53.609375 -67.875 53.46875 -66.828125 52.90625 -65.921875 C 52.269531 -64.867188 51.410156 -64.238281 50.328125 -64.03125 C 49.242188 -63.820312 48.175781 -63.960938 47.125 -64.453125 C 45.9375 -65.003906 44.429688 -65.210938 42.609375 -65.078125 C 41.910156 -65.078125 41.050781 -64.953125 40.03125 -64.703125 C 39.019531 -64.460938 38.023438 -64.132812 37.046875 -63.71875 C 35.023438 -62.945312 33.015625 -61.878906 31.015625 -60.515625 C 29.023438 -59.148438 27.15625 -57.734375 25.40625 -56.265625 C 22.320312 -53.597656 19.429688 -50.707031 16.734375 -47.59375 C 14.046875 -44.488281 11.789062 -41.113281 9.96875 -37.46875 C 9.757812 -36.976562 9.550781 -36.242188 9.34375 -35.265625 C 9.132812 -34.285156 8.992188 -33.445312 8.921875 -32.75 C 8.785156 -30.71875 8.890625 -28.722656 9.234375 -26.765625 C 9.648438 -24.453125 10.226562 -22.160156 10.96875 -19.890625 C 11.707031 -17.617188 12.671875 -15.46875 13.859375 -13.4375 C 14.972656 -11.539062 16.28125 -9.664062 17.78125 -7.8125 C 19.289062 -5.957031 21.164062 -4.753906 23.40625 -4.203125 C 25.78125 -3.566406 28.226562 -3.707031 30.75 -4.625 C 31.3125 -4.832031 31.835938 -5.054688 32.328125 -5.296875 C 32.816406 -5.546875 33.34375 -5.8125 33.90625 -6.09375 C 34.113281 -6.226562 34.320312 -6.363281 34.53125 -6.5 C 34.738281 -6.644531 34.945312 -6.785156 35.15625 -6.921875 C 36.769531 -8.328125 38.207031 -9.796875 39.46875 -11.328125 C 40.726562 -12.867188 41.914062 -14.484375 43.03125 -16.171875 C 43.59375 -17.148438 44.171875 -18.144531 44.765625 -19.15625 C 45.359375 -20.164062 45.832031 -21.160156 46.1875 -22.140625 C 46.53125 -23.054688 46.804688 -23.878906 47.015625 -24.609375 C 47.234375 -25.347656 47.34375 -26.101562 47.34375 -26.875 C 46.644531 -27.15625 45.941406 -27.296875 45.234375 -27.296875 C 44.535156 -27.296875 43.800781 -27.296875 43.03125 -27.296875 C 41.070312 -27.222656 39.128906 -27.082031 37.203125 -26.875 C 35.285156 -26.664062 33.3125 -26.5625 31.28125 -26.5625 C 29.945312 -26.5625 28.945312 -27 28.28125 -27.875 C 27.625 -28.75 27.296875 -29.707031 27.296875 -30.75 C 27.296875 -31.800781 27.625 -32.742188 28.28125 -33.578125 C 28.945312 -34.421875 29.945312 -34.84375 31.28125 -34.84375 C 33.164062 -34.84375 35.050781 -34.945312 36.9375 -35.15625 C 38.832031 -35.375 40.722656 -35.515625 42.609375 -35.578125 C 44.503906 -35.648438 46.359375 -35.582031 48.171875 -35.375 C 49.992188 -35.164062 51.816406 -34.675781 53.640625 -33.90625 C 55.453125 -33.207031 56.988281 -31.945312 58.25 -30.125 C 59.019531 -28.9375 59.351562 -27.609375 59.25 -26.140625 C 59.144531 -24.671875 59.09375 -23.234375 59.09375 -21.828125 C 58.957031 -18.816406 58.867188 -15.820312 58.828125 -12.84375 C 58.796875 -9.875 58.742188 -6.921875 58.671875 -3.984375 C 58.671875 -2.585938 58.21875 -1.554688 57.3125 -0.890625 C 56.40625 -0.222656 55.425781 0.109375 54.375 0.109375 C 53.320312 0.109375 52.375 -0.222656 51.53125 -0.890625 C 50.695312 -1.554688 50.28125 -2.585938 50.28125 -3.984375 C 50.351562 -5.390625 50.390625 -6.789062 50.390625 -8.1875 C 50.390625 -9.582031 50.421875 -10.984375 50.484375 -12.390625 C 48.453125 -9.171875 46.179688 -6.195312 43.671875 -3.46875 C 41.984375 -1.644531 40.019531 -0.0859375 37.78125 1.203125 C 35.539062 2.503906 33.210938 3.429688 30.796875 3.984375 C 28.390625 4.546875 25.925781 4.6875 23.40625 4.40625 C 20.882812 4.125 18.539062 3.25 16.375 1.78125 Z M 16.375 1.78125 "/></g></g></g><g fill="#00ffff" fill-opacity="1"><g transform="translate(249.437372, 328.121945)"><g><path d="M 45.5625 -2.625 C 45 -1.644531 44.140625 -0.976562 42.984375 -0.625 C 41.828125 -0.28125 40.757812 -0.457031 39.78125 -1.15625 C 37.894531 -2.550781 36.078125 -4 34.328125 -5.5 C 32.578125 -7.007812 30.6875 -8.359375 28.65625 -9.546875 C 26.832031 -10.671875 25.007812 -11.703125 23.1875 -12.640625 C 21.375 -13.585938 19.628906 -14.691406 17.953125 -15.953125 C 15.921875 -17.492188 14.03125 -19.175781 12.28125 -21 C 12.207031 -17.5 12.238281 -14.015625 12.375 -10.546875 C 12.519531 -7.085938 12.734375 -3.609375 13.015625 -0.109375 C 13.148438 1.078125 12.765625 2.070312 11.859375 2.875 C 10.953125 3.6875 9.972656 4.09375 8.921875 4.09375 C 7.660156 4.09375 6.679688 3.6875 5.984375 2.875 C 5.285156 2.070312 4.863281 1.078125 4.71875 -0.109375 C 4.300781 -5.140625 4.054688 -10.085938 3.984375 -14.953125 C 3.921875 -19.816406 4.023438 -24.734375 4.296875 -29.703125 C 3.742188 -30.472656 3.1875 -31.257812 2.625 -32.0625 C 2.0625 -32.875 1.535156 -33.695312 1.046875 -34.53125 C 0.628906 -35.375 0.472656 -36.179688 0.578125 -36.953125 C 0.679688 -37.722656 0.957031 -38.382812 1.40625 -38.9375 C 1.863281 -39.5 2.425781 -39.953125 3.09375 -40.296875 C 3.757812 -40.648438 4.476562 -40.789062 5.25 -40.71875 C 5.382812 -42.332031 5.554688 -43.960938 5.765625 -45.609375 C 5.984375 -47.253906 6.195312 -48.878906 6.40625 -50.484375 C 6.613281 -51.609375 6.804688 -52.710938 6.984375 -53.796875 C 7.160156 -54.878906 7.316406 -55.976562 7.453125 -57.09375 C 7.585938 -57.65625 7.671875 -58.179688 7.703125 -58.671875 C 7.742188 -59.160156 7.835938 -59.6875 7.984375 -60.25 C 7.984375 -60.53125 8.050781 -60.878906 8.1875 -61.296875 C 8.257812 -62.210938 8.296875 -63.101562 8.296875 -63.96875 C 8.296875 -64.84375 8.328125 -65.738281 8.390625 -66.65625 C 8.460938 -67.769531 8.585938 -68.972656 8.765625 -70.265625 C 8.941406 -71.566406 9.222656 -72.828125 9.609375 -74.046875 C 9.992188 -75.273438 10.535156 -76.410156 11.234375 -77.453125 C 11.929688 -78.503906 12.875 -79.3125 14.0625 -79.875 C 15.1875 -80.363281 16.320312 -80.644531 17.46875 -80.71875 C 18.625 -80.789062 19.78125 -80.71875 20.9375 -80.5 C 22.09375 -80.289062 23.226562 -79.992188 24.34375 -79.609375 C 25.46875 -79.222656 26.554688 -78.820312 27.609375 -78.40625 C 30.054688 -77.5 32.484375 -76.46875 34.890625 -75.3125 C 37.304688 -74.15625 39.460938 -72.664062 41.359375 -70.84375 C 43.171875 -69.03125 44.742188 -66.878906 46.078125 -64.390625 C 47.410156 -61.910156 48.003906 -59.34375 47.859375 -56.6875 C 47.722656 -55.070312 47.390625 -53.648438 46.859375 -52.421875 C 46.335938 -51.203125 45.625 -49.960938 44.71875 -48.703125 C 42.476562 -45.554688 40.0625 -42.546875 37.46875 -39.671875 C 34.882812 -36.804688 32.125 -34.179688 29.1875 -31.796875 C 27.78125 -30.679688 26.253906 -29.5625 24.609375 -28.4375 C 22.960938 -27.320312 21.234375 -26.378906 19.421875 -25.609375 C 20.046875 -25.046875 20.671875 -24.484375 21.296875 -23.921875 C 21.929688 -23.367188 22.597656 -22.882812 23.296875 -22.46875 C 25.117188 -21.269531 26.957031 -20.164062 28.8125 -19.15625 C 30.664062 -18.144531 32.46875 -17.039062 34.21875 -15.84375 C 35.894531 -14.65625 37.535156 -13.394531 39.140625 -12.0625 C 40.753906 -10.738281 42.367188 -9.484375 43.984375 -8.296875 C 44.960938 -7.660156 45.609375 -6.816406 45.921875 -5.765625 C 46.234375 -4.722656 46.113281 -3.675781 45.5625 -2.625 Z M 17.21875 -33.796875 C 18.894531 -34.703125 20.414062 -35.660156 21.78125 -36.671875 C 23.144531 -37.691406 24.492188 -38.796875 25.828125 -39.984375 C 27.222656 -41.242188 28.582031 -42.570312 29.90625 -43.96875 C 31.238281 -45.375 32.535156 -46.773438 33.796875 -48.171875 C 34.285156 -48.804688 34.738281 -49.367188 35.15625 -49.859375 C 35.582031 -50.347656 35.96875 -50.816406 36.3125 -51.265625 C 36.664062 -51.722656 37.035156 -52.210938 37.421875 -52.734375 C 37.804688 -53.265625 38.207031 -53.878906 38.625 -54.578125 C 38.769531 -54.785156 38.910156 -54.992188 39.046875 -55.203125 C 39.179688 -55.421875 39.320312 -55.632812 39.46875 -55.84375 C 39.539062 -57.800781 39.117188 -59.617188 38.203125 -61.296875 C 37.015625 -63.328125 35.523438 -64.972656 33.734375 -66.234375 C 31.953125 -67.492188 29.976562 -68.539062 27.8125 -69.375 C 26.550781 -69.9375 25.289062 -70.425781 24.03125 -70.84375 C 22.769531 -71.269531 21.441406 -71.65625 20.046875 -72 C 19.703125 -72.144531 19.175781 -72.285156 18.46875 -72.421875 C 18.050781 -72.285156 17.773438 -72.078125 17.640625 -71.796875 C 17.359375 -70.890625 17.21875 -70.257812 17.21875 -69.90625 C 17.144531 -69.695312 17.039062 -69.3125 16.90625 -68.75 C 16.832031 -68.050781 16.773438 -67.507812 16.734375 -67.125 C 16.703125 -66.738281 16.6875 -66.335938 16.6875 -65.921875 C 16.476562 -61.085938 15.96875 -56.328125 15.15625 -51.640625 C 14.351562 -46.953125 13.707031 -42.195312 13.21875 -37.375 C 13.082031 -36.601562 12.992188 -35.8125 12.953125 -35 C 12.921875 -34.195312 12.875 -33.410156 12.8125 -32.640625 C 13.4375 -32.578125 13.785156 -32.578125 13.859375 -32.640625 C 14.628906 -32.785156 15.238281 -32.941406 15.6875 -33.109375 C 16.144531 -33.285156 16.65625 -33.515625 17.21875 -33.796875 Z M 17.21875 -33.796875 "/></g></g></g><g fill="#00ffff" fill-opacity="1"><g transform="translate(298.347893, 328.121945)"><g><path d="M 1.890625 0 C 0.628906 -0.351562 -0.207031 -1.050781 -0.625 -2.09375 C -1.050781 -3.144531 -1.125 -4.160156 -0.84375 -5.140625 C -0.5625 -6.117188 0.015625 -6.941406 0.890625 -7.609375 C 1.765625 -8.273438 2.832031 -8.429688 4.09375 -8.078125 C 6.894531 -7.242188 9.691406 -6.71875 12.484375 -6.5 C 15.285156 -6.289062 18.15625 -6.257812 21.09375 -6.40625 C 19.90625 -11.375 19.3125 -16.359375 19.3125 -21.359375 C 19.3125 -26.359375 19.503906 -31.359375 19.890625 -36.359375 C 20.273438 -41.367188 20.660156 -46.390625 21.046875 -51.421875 C 21.429688 -56.460938 21.445312 -61.503906 21.09375 -66.546875 C 18.4375 -66.617188 15.757812 -66.738281 13.0625 -66.90625 C 10.375 -67.082031 7.695312 -67.347656 5.03125 -67.703125 C 3.84375 -67.835938 2.847656 -68.253906 2.046875 -68.953125 C 1.242188 -69.660156 0.84375 -70.609375 0.84375 -71.796875 C 0.84375 -72.847656 1.242188 -73.84375 2.046875 -74.78125 C 2.847656 -75.726562 3.84375 -76.132812 5.03125 -76 C 8.25 -75.644531 11.484375 -75.34375 14.734375 -75.09375 C 17.992188 -74.851562 21.234375 -74.765625 24.453125 -74.828125 C 27.671875 -74.898438 30.875 -75.179688 34.0625 -75.671875 C 37.25 -76.171875 40.414062 -76.976562 43.5625 -78.09375 C 44.613281 -78.445312 45.644531 -78.304688 46.65625 -77.671875 C 47.664062 -77.046875 48.347656 -76.207031 48.703125 -75.15625 C 49.054688 -73.96875 48.929688 -72.898438 48.328125 -71.953125 C 47.734375 -71.003906 46.878906 -70.359375 45.765625 -70.015625 C 40.515625 -68.191406 35.054688 -67.109375 29.390625 -66.765625 C 29.804688 -61.796875 29.804688 -56.789062 29.390625 -51.75 C 28.972656 -46.707031 28.550781 -41.703125 28.125 -36.734375 C 27.707031 -31.765625 27.515625 -26.796875 27.546875 -21.828125 C 27.585938 -16.859375 28.238281 -11.925781 29.5 -7.03125 C 31.738281 -7.238281 33.941406 -7.445312 36.109375 -7.65625 C 38.273438 -7.875 40.441406 -8.050781 42.609375 -8.1875 C 43.941406 -8.257812 44.941406 -7.890625 45.609375 -7.078125 C 46.273438 -6.273438 46.609375 -5.347656 46.609375 -4.296875 C 46.609375 -3.253906 46.273438 -2.273438 45.609375 -1.359375 C 44.941406 -0.453125 43.941406 0.0351562 42.609375 0.109375 C 39.179688 0.316406 35.769531 0.613281 32.375 1 C 28.988281 1.382812 25.597656 1.660156 22.203125 1.828125 C 18.804688 2.003906 15.410156 1.988281 12.015625 1.78125 C 8.617188 1.570312 5.242188 0.976562 1.890625 0 Z M 34.109375 -99.1875 C 35.023438 -99.882812 36.003906 -100.285156 37.046875 -100.390625 C 38.097656 -100.492188 39.078125 -100.09375 39.984375 -99.1875 C 40.753906 -98.414062 41.175781 -97.414062 41.25 -96.1875 C 41.320312 -94.96875 40.898438 -93.972656 39.984375 -93.203125 C 34.953125 -89.359375 29.707031 -86.035156 24.25 -83.234375 C 23.0625 -82.609375 21.941406 -82.519531 20.890625 -82.96875 C 19.835938 -83.425781 19.046875 -84.109375 18.515625 -85.015625 C 17.992188 -85.929688 17.800781 -86.910156 17.9375 -87.953125 C 18.082031 -89.003906 18.75 -89.847656 19.9375 -90.484375 C 22.457031 -91.734375 24.890625 -93.054688 27.234375 -94.453125 C 29.578125 -95.859375 31.867188 -97.4375 34.109375 -99.1875 Z M 34.109375 -99.1875 "/></g></g></g><g fill="#00ffff" fill-opacity="1"><g transform="translate(346.103888, 328.121945)"><g><path d="M 11.546875 -1.359375 C 11.546875 -0.0351562 11.109375 0.957031 10.234375 1.625 C 9.359375 2.289062 8.394531 2.625 7.34375 2.625 C 6.289062 2.625 5.34375 2.289062 4.5 1.625 C 3.664062 0.957031 3.25 -0.0351562 3.25 -1.359375 C 3.25 -6.816406 3.878906 -12.066406 5.140625 -17.109375 C 6.398438 -22.148438 7.972656 -27.15625 9.859375 -32.125 C 9.367188 -33.03125 9.234375 -34.039062 9.453125 -35.15625 C 9.867188 -36.632812 10.773438 -37.546875 12.171875 -37.890625 C 13.578125 -41.253906 15.03125 -44.597656 16.53125 -47.921875 C 18.03125 -51.242188 19.476562 -54.582031 20.875 -57.9375 C 22.28125 -61.300781 23.578125 -64.695312 24.765625 -68.125 C 25.960938 -71.550781 26.941406 -75.050781 27.703125 -78.625 C 27.921875 -79.664062 28.359375 -80.570312 29.015625 -81.34375 C 29.679688 -82.113281 30.609375 -82.5 31.796875 -82.5 C 32.921875 -82.5 33.9375 -82.097656 34.84375 -81.296875 C 35.757812 -80.492188 36.144531 -79.492188 36 -78.296875 C 35.789062 -74.242188 35.859375 -70.519531 36.203125 -67.125 C 36.554688 -63.726562 37.082031 -60.367188 37.78125 -57.046875 C 38.488281 -53.722656 39.28125 -50.398438 40.15625 -47.078125 C 41.03125 -43.753906 41.847656 -40.445312 42.609375 -37.15625 C 43.378906 -34.007812 44.078125 -30.859375 44.703125 -27.703125 C 45.335938 -24.554688 46.359375 -21.515625 47.765625 -18.578125 C 48.460938 -17.109375 49.195312 -15.691406 49.96875 -14.328125 C 50.738281 -12.960938 51.578125 -11.582031 52.484375 -10.1875 C 53.328125 -8.925781 54.097656 -7.613281 54.796875 -6.25 C 55.492188 -4.882812 55.984375 -3.394531 56.265625 -1.78125 C 56.398438 -0.664062 56.238281 0.378906 55.78125 1.359375 C 55.332031 2.335938 54.515625 3.003906 53.328125 3.359375 C 52.347656 3.640625 51.296875 3.5 50.171875 2.9375 C 49.054688 2.375 48.390625 1.535156 48.171875 0.421875 C 47.898438 -1.191406 47.359375 -2.625 46.546875 -3.875 C 45.742188 -5.132812 44.921875 -6.429688 44.078125 -7.765625 C 43.097656 -9.304688 42.207031 -10.863281 41.40625 -12.4375 C 40.601562 -14.007812 39.882812 -15.632812 39.25 -17.3125 C 38.550781 -19.0625 37.957031 -20.828125 37.46875 -22.609375 C 36.976562 -24.398438 36.523438 -26.207031 36.109375 -28.03125 C 32.960938 -28.238281 29.863281 -28.394531 26.8125 -28.5 C 23.769531 -28.601562 20.710938 -28.832031 17.640625 -29.1875 C 15.953125 -24.707031 14.53125 -20.15625 13.375 -15.53125 C 12.226562 -10.914062 11.617188 -6.191406 11.546875 -1.359375 Z M 21.40625 -38.515625 C 21.269531 -38.304688 21.179688 -38.078125 21.140625 -37.828125 C 21.109375 -37.585938 21.023438 -37.363281 20.890625 -37.15625 C 23.128906 -36.945312 25.332031 -36.820312 27.5 -36.78125 C 29.664062 -36.75 31.867188 -36.664062 34.109375 -36.53125 C 33.335938 -39.882812 32.515625 -43.222656 31.640625 -46.546875 C 30.765625 -49.867188 29.976562 -53.25 29.28125 -56.6875 C 28.019531 -53.601562 26.722656 -50.570312 25.390625 -47.59375 C 24.066406 -44.625 22.738281 -41.597656 21.40625 -38.515625 Z M 21.40625 -38.515625 "/></g></g></g><g fill="#68b4e7" fill-opacity="1"><g transform="translate(23.851604, 329.54654)"><g><path d="M 11.546875 -1.359375 C 11.546875 -0.0351562 11.109375 0.957031 10.234375 1.625 C 9.359375 2.289062 8.394531 2.625 7.34375 2.625 C 6.289062 2.625 5.34375 2.289062 4.5 1.625 C 3.664062 0.957031 3.25 -0.0351562 3.25 -1.359375 C 3.25 -6.816406 3.878906 -12.066406 5.140625 -17.109375 C 6.398438 -22.148438 7.972656 -27.15625 9.859375 -32.125 C 9.367188 -33.03125 9.234375 -34.039062 9.453125 -35.15625 C 9.867188 -36.632812 10.773438 -37.546875 12.171875 -37.890625 C 13.578125 -41.253906 15.03125 -44.597656 16.53125 -47.921875 C 18.03125 -51.242188 19.476562 -54.582031 20.875 -57.9375 C 22.28125 -61.300781 23.578125 -64.695312 24.765625 -68.125 C 25.960938 -71.550781 26.941406 -75.050781 27.703125 -78.625 C 27.921875 -79.664062 28.359375 -80.570312 29.015625 -81.34375 C 29.679688 -82.113281 30.609375 -82.5 31.796875 -82.5 C 32.921875 -82.5 33.9375 -82.097656 34.84375 -81.296875 C 35.757812 -80.492188 36.144531 -79.492188 36 -78.296875 C 35.789062 -74.242188 35.859375 -70.519531 36.203125 -67.125 C 36.554688 -63.726562 37.082031 -60.367188 37.78125 -57.046875 C 38.488281 -53.722656 39.28125 -50.398438 40.15625 -47.078125 C 41.03125 -43.753906 41.847656 -40.445312 42.609375 -37.15625 C 43.378906 -34.007812 44.078125 -30.859375 44.703125 -27.703125 C 45.335938 -24.554688 46.359375 -21.515625 47.765625 -18.578125 C 48.460938 -17.109375 49.195312 -15.691406 49.96875 -14.328125 C 50.738281 -12.960938 51.578125 -11.582031 52.484375 -10.1875 C 53.328125 -8.925781 54.097656 -7.613281 54.796875 -6.25 C 55.492188 -4.882812 55.984375 -3.394531 56.265625 -1.78125 C 56.398438 -0.664062 56.238281 0.378906 55.78125 1.359375 C 55.332031 2.335938 54.515625 3.003906 53.328125 3.359375 C 52.347656 3.640625 51.296875 3.5 50.171875 2.9375 C 49.054688 2.375 48.390625 1.535156 48.171875 0.421875 C 47.898438 -1.191406 47.359375 -2.625 46.546875 -3.875 C 45.742188 -5.132812 44.921875 -6.429688 44.078125 -7.765625 C 43.097656 -9.304688 42.207031 -10.863281 41.40625 -12.4375 C 40.601562 -14.007812 39.882812 -15.632812 39.25 -17.3125 C 38.550781 -19.0625 37.957031 -20.828125 37.46875 -22.609375 C 36.976562 -24.398438 36.523438 -26.207031 36.109375 -28.03125 C 32.960938 -28.238281 29.863281 -28.394531 26.8125 -28.5 C 23.769531 -28.601562 20.710938 -28.832031 17.640625 -29.1875 C 15.953125 -24.707031 14.53125 -20.15625 13.375 -15.53125 C 12.226562 -10.914062 11.617188 -6.191406 11.546875 -1.359375 Z M 21.40625 -38.515625 C 21.269531 -38.304688 21.179688 -38.078125 21.140625 -37.828125 C 21.109375 -37.585938 21.023438 -37.363281 20.890625 -37.15625 C 23.128906 -36.945312 25.332031 -36.820312 27.5 -36.78125 C 29.664062 -36.75 31.867188 -36.664062 34.109375 -36.53125 C 33.335938 -39.882812 32.515625 -43.222656 31.640625 -46.546875 C 30.765625 -49.867188 29.976562 -53.25 29.28125 -56.6875 C 28.019531 -53.601562 26.722656 -50.570312 25.390625 -47.59375 C 24.066406 -44.625 22.738281 -41.597656 21.40625 -38.515625 Z M 21.40625 -38.515625 "/></g></g></g><g fill="#68b4e7" fill-opacity="1"><g transform="translate(81.78853, 329.54654)"><g><path d="M 8.921875 0.84375 C 7.804688 0.84375 6.914062 0.546875 6.25 -0.046875 C 5.582031 -0.640625 5.144531 -1.335938 4.9375 -2.140625 C 4.726562 -2.953125 4.742188 -3.773438 4.984375 -4.609375 C 5.234375 -5.453125 5.707031 -6.15625 6.40625 -6.71875 C 6.96875 -9.09375 7.109375 -11.488281 6.828125 -13.90625 C 6.546875 -16.320312 6.265625 -18.71875 5.984375 -21.09375 C 5.628906 -24.03125 5.519531 -26.914062 5.65625 -29.75 C 5.800781 -32.59375 6.085938 -35.484375 6.515625 -38.421875 C 6.929688 -41.359375 7.382812 -44.273438 7.875 -47.171875 C 8.363281 -50.078125 8.78125 -53.003906 9.125 -55.953125 C 9.476562 -59.097656 9.773438 -62.207031 10.015625 -65.28125 C 10.265625 -68.363281 10.457031 -71.476562 10.59375 -74.625 C 10.59375 -75.957031 11.046875 -76.972656 11.953125 -77.671875 C 12.867188 -78.367188 13.851562 -78.71875 14.90625 -78.71875 C 15.957031 -78.71875 16.898438 -78.367188 17.734375 -77.671875 C 18.578125 -76.972656 18.960938 -75.957031 18.890625 -74.625 C 18.753906 -71.34375 18.5625 -68.09375 18.3125 -64.875 C 18.070312 -61.65625 17.773438 -58.363281 17.421875 -55 C 17.078125 -51.925781 16.640625 -48.914062 16.109375 -45.96875 C 15.585938 -43.03125 15.113281 -40.023438 14.6875 -36.953125 C 14.269531 -34.015625 14.0625 -31.125 14.0625 -28.28125 C 14.0625 -25.445312 14.238281 -22.5625 14.59375 -19.625 C 14.800781 -17.59375 14.992188 -15.5625 15.171875 -13.53125 C 15.347656 -11.507812 15.296875 -9.484375 15.015625 -7.453125 C 20.253906 -7.316406 25.5 -7.054688 30.75 -6.671875 C 36 -6.285156 41.25 -5.984375 46.5 -5.765625 C 47.832031 -5.703125 48.828125 -5.210938 49.484375 -4.296875 C 50.148438 -3.390625 50.484375 -2.410156 50.484375 -1.359375 C 50.484375 -0.316406 50.148438 0.625 49.484375 1.46875 C 48.828125 2.3125 47.832031 2.695312 46.5 2.625 C 40.132812 2.34375 33.851562 1.972656 27.65625 1.515625 C 21.46875 1.066406 15.222656 0.84375 8.921875 0.84375 Z M 8.921875 0.84375 "/></g></g></g><g fill="#68b4e7" fill-opacity="1"><g transform="translate(127.970138, 329.54654)"><g><path d="M 4.828125 -63.1875 C 3.429688 -63.601562 2.59375 -64.515625 2.3125 -65.921875 C 1.957031 -66.898438 2.0625 -67.960938 2.625 -69.109375 C 3.1875 -70.265625 4.0625 -70.914062 5.25 -71.0625 C 12.039062 -72.113281 18.84375 -72.691406 25.65625 -72.796875 C 32.476562 -72.898438 39.320312 -72.988281 46.1875 -73.0625 C 47.507812 -73.0625 48.519531 -72.640625 49.21875 -71.796875 C 49.925781 -70.953125 50.28125 -70.003906 50.28125 -68.953125 C 50.28125 -67.910156 49.925781 -66.953125 49.21875 -66.078125 C 48.519531 -65.203125 47.507812 -64.765625 46.1875 -64.765625 C 40.726562 -64.617188 35.234375 -64.546875 29.703125 -64.546875 C 24.171875 -64.546875 18.644531 -64.269531 13.125 -63.71875 C 13.257812 -60.914062 13.429688 -58.128906 13.640625 -55.359375 C 13.847656 -52.597656 14.0625 -49.820312 14.28125 -47.03125 C 19.59375 -47.300781 24.890625 -47.644531 30.171875 -48.0625 C 35.460938 -48.488281 40.765625 -48.5625 46.078125 -48.28125 C 47.410156 -48.207031 48.425781 -47.71875 49.125 -46.8125 C 49.820312 -45.90625 50.171875 -44.925781 50.171875 -43.875 C 50.171875 -42.820312 49.820312 -41.875 49.125 -41.03125 C 48.425781 -40.195312 47.410156 -39.816406 46.078125 -39.890625 C 40.828125 -40.171875 35.628906 -40.097656 30.484375 -39.671875 C 25.347656 -39.253906 20.15625 -38.90625 14.90625 -38.625 C 15.320312 -33.582031 15.722656 -28.5625 16.109375 -23.5625 C 16.492188 -18.5625 16.757812 -13.539062 16.90625 -8.5 C 19.351562 -9.0625 21.832031 -9.601562 24.34375 -10.125 C 26.863281 -10.65625 29.382812 -11.078125 31.90625 -11.390625 C 34.425781 -11.703125 36.945312 -11.859375 39.46875 -11.859375 C 41.988281 -11.859375 44.507812 -11.648438 47.03125 -11.234375 C 48.144531 -11.023438 48.984375 -10.359375 49.546875 -9.234375 C 50.109375 -8.117188 50.25 -7.070312 49.96875 -6.09375 C 49.613281 -4.894531 48.945312 -4.050781 47.96875 -3.5625 C 46.988281 -3.070312 45.90625 -2.9375 44.71875 -3.15625 C 42.476562 -3.570312 40.203125 -3.707031 37.890625 -3.5625 C 35.578125 -3.425781 33.300781 -3.179688 31.0625 -2.828125 C 28.476562 -2.410156 25.910156 -1.921875 23.359375 -1.359375 C 20.804688 -0.804688 18.269531 -0.210938 15.75 0.421875 C 14.550781 0.703125 13.429688 0.492188 12.390625 -0.203125 C 11.410156 -0.347656 10.535156 -0.734375 9.765625 -1.359375 C 8.992188 -1.992188 8.609375 -2.941406 8.609375 -4.203125 C 8.460938 -10.148438 8.195312 -16.023438 7.8125 -21.828125 C 7.4375 -27.640625 7.003906 -33.484375 6.515625 -39.359375 C 5.742188 -40.128906 5.300781 -41.09375 5.1875 -42.25 C 5.082031 -43.40625 5.382812 -44.398438 6.09375 -45.234375 C 5.53125 -51.179688 5.109375 -57.164062 4.828125 -63.1875 Z M 4.828125 -63.1875 "/></g></g></g><g fill="#68b4e7" fill-opacity="1"><g transform="translate(182.548402, 329.54654)"><g><path d="M 16.375 1.78125 C 14.269531 0.457031 12.378906 -1.179688 10.703125 -3.140625 C 9.023438 -5.109375 7.554688 -7.242188 6.296875 -9.546875 C 5.035156 -11.859375 3.984375 -14.238281 3.140625 -16.6875 C 2.304688 -19.132812 1.679688 -21.582031 1.265625 -24.03125 C 0.835938 -26.34375 0.585938 -28.707031 0.515625 -31.125 C 0.453125 -33.539062 0.769531 -35.898438 1.46875 -38.203125 C 2.03125 -40.023438 2.78125 -41.773438 3.71875 -43.453125 C 4.664062 -45.128906 5.703125 -46.738281 6.828125 -48.28125 C 9.554688 -52.0625 12.597656 -55.628906 15.953125 -58.984375 C 19.316406 -62.347656 22.988281 -65.289062 26.96875 -67.8125 C 28.789062 -69 30.695312 -70.046875 32.6875 -70.953125 C 34.6875 -71.867188 36.71875 -72.535156 38.78125 -72.953125 C 40.84375 -73.367188 42.921875 -73.488281 45.015625 -73.3125 C 47.117188 -73.144531 49.222656 -72.570312 51.328125 -71.59375 C 52.378906 -71.09375 53.046875 -70.25 53.328125 -69.0625 C 53.609375 -67.875 53.46875 -66.828125 52.90625 -65.921875 C 52.269531 -64.867188 51.410156 -64.238281 50.328125 -64.03125 C 49.242188 -63.820312 48.175781 -63.960938 47.125 -64.453125 C 45.9375 -65.003906 44.429688 -65.210938 42.609375 -65.078125 C 41.910156 -65.078125 41.050781 -64.953125 40.03125 -64.703125 C 39.019531 -64.460938 38.023438 -64.132812 37.046875 -63.71875 C 35.023438 -62.945312 33.015625 -61.878906 31.015625 -60.515625 C 29.023438 -59.148438 27.15625 -57.734375 25.40625 -56.265625 C 22.320312 -53.597656 19.429688 -50.707031 16.734375 -47.59375 C 14.046875 -44.488281 11.789062 -41.113281 9.96875 -37.46875 C 9.757812 -36.976562 9.550781 -36.242188 9.34375 -35.265625 C 9.132812 -34.285156 8.992188 -33.445312 8.921875 -32.75 C 8.785156 -30.71875 8.890625 -28.722656 9.234375 -26.765625 C 9.648438 -24.453125 10.226562 -22.160156 10.96875 -19.890625 C 11.707031 -17.617188 12.671875 -15.46875 13.859375 -13.4375 C 14.972656 -11.539062 16.28125 -9.664062 17.78125 -7.8125 C 19.289062 -5.957031 21.164062 -4.753906 23.40625 -4.203125 C 25.78125 -3.566406 28.226562 -3.707031 30.75 -4.625 C 31.3125 -4.832031 31.835938 -5.054688 32.328125 -5.296875 C 32.816406 -5.546875 33.34375 -5.8125 33.90625 -6.09375 C 34.113281 -6.226562 34.320312 -6.363281 34.53125 -6.5 C 34.738281 -6.644531 34.945312 -6.785156 35.15625 -6.921875 C 36.769531 -8.328125 38.207031 -9.796875 39.46875 -11.328125 C 40.726562 -12.867188 41.914062 -14.484375 43.03125 -16.171875 C 43.59375 -17.148438 44.171875 -18.144531 44.765625 -19.15625 C 45.359375 -20.164062 45.832031 -21.160156 46.1875 -22.140625 C 46.53125 -23.054688 46.804688 -23.878906 47.015625 -24.609375 C 47.234375 -25.347656 47.34375 -26.101562 47.34375 -26.875 C 46.644531 -27.15625 45.941406 -27.296875 45.234375 -27.296875 C 44.535156 -27.296875 43.800781 -27.296875 43.03125 -27.296875 C 41.070312 -27.222656 39.128906 -27.082031 37.203125 -26.875 C 35.285156 -26.664062 33.3125 -26.5625 31.28125 -26.5625 C 29.945312 -26.5625 28.945312 -27 28.28125 -27.875 C 27.625 -28.75 27.296875 -29.707031 27.296875 -30.75 C 27.296875 -31.800781 27.625 -32.742188 28.28125 -33.578125 C 28.945312 -34.421875 29.945312 -34.84375 31.28125 -34.84375 C 33.164062 -34.84375 35.050781 -34.945312 36.9375 -35.15625 C 38.832031 -35.375 40.722656 -35.515625 42.609375 -35.578125 C 44.503906 -35.648438 46.359375 -35.582031 48.171875 -35.375 C 49.992188 -35.164062 51.816406 -34.675781 53.640625 -33.90625 C 55.453125 -33.207031 56.988281 -31.945312 58.25 -30.125 C 59.019531 -28.9375 59.351562 -27.609375 59.25 -26.140625 C 59.144531 -24.671875 59.09375 -23.234375 59.09375 -21.828125 C 58.957031 -18.816406 58.867188 -15.820312 58.828125 -12.84375 C 58.796875 -9.875 58.742188 -6.921875 58.671875 -3.984375 C 58.671875 -2.585938 58.21875 -1.554688 57.3125 -0.890625 C 56.40625 -0.222656 55.425781 0.109375 54.375 0.109375 C 53.320312 0.109375 52.375 -0.222656 51.53125 -0.890625 C 50.695312 -1.554688 50.28125 -2.585938 50.28125 -3.984375 C 50.351562 -5.390625 50.390625 -6.789062 50.390625 -8.1875 C 50.390625 -9.582031 50.421875 -10.984375 50.484375 -12.390625 C 48.453125 -9.171875 46.179688 -6.195312 43.671875 -3.46875 C 41.984375 -1.644531 40.019531 -0.0859375 37.78125 1.203125 C 35.539062 2.503906 33.210938 3.429688 30.796875 3.984375 C 28.390625 4.546875 25.925781 4.6875 23.40625 4.40625 C 20.882812 4.125 18.539062 3.25 16.375 1.78125 Z M 16.375 1.78125 "/></g></g></g><g fill="#68b4e7" fill-opacity="1"><g transform="translate(245.523322, 329.54654)"><g><path d="M 45.5625 -2.625 C 45 -1.644531 44.140625 -0.976562 42.984375 -0.625 C 41.828125 -0.28125 40.757812 -0.457031 39.78125 -1.15625 C 37.894531 -2.550781 36.078125 -4 34.328125 -5.5 C 32.578125 -7.007812 30.6875 -8.359375 28.65625 -9.546875 C 26.832031 -10.671875 25.007812 -11.703125 23.1875 -12.640625 C 21.375 -13.585938 19.628906 -14.691406 17.953125 -15.953125 C 15.921875 -17.492188 14.03125 -19.175781 12.28125 -21 C 12.207031 -17.5 12.238281 -14.015625 12.375 -10.546875 C 12.519531 -7.085938 12.734375 -3.609375 13.015625 -0.109375 C 13.148438 1.078125 12.765625 2.070312 11.859375 2.875 C 10.953125 3.6875 9.972656 4.09375 8.921875 4.09375 C 7.660156 4.09375 6.679688 3.6875 5.984375 2.875 C 5.285156 2.070312 4.863281 1.078125 4.71875 -0.109375 C 4.300781 -5.140625 4.054688 -10.085938 3.984375 -14.953125 C 3.921875 -19.816406 4.023438 -24.734375 4.296875 -29.703125 C 3.742188 -30.472656 3.1875 -31.257812 2.625 -32.0625 C 2.0625 -32.875 1.535156 -33.695312 1.046875 -34.53125 C 0.628906 -35.375 0.472656 -36.179688 0.578125 -36.953125 C 0.679688 -37.722656 0.957031 -38.382812 1.40625 -38.9375 C 1.863281 -39.5 2.425781 -39.953125 3.09375 -40.296875 C 3.757812 -40.648438 4.476562 -40.789062 5.25 -40.71875 C 5.382812 -42.332031 5.554688 -43.960938 5.765625 -45.609375 C 5.984375 -47.253906 6.195312 -48.878906 6.40625 -50.484375 C 6.613281 -51.609375 6.804688 -52.710938 6.984375 -53.796875 C 7.160156 -54.878906 7.316406 -55.976562 7.453125 -57.09375 C 7.585938 -57.65625 7.671875 -58.179688 7.703125 -58.671875 C 7.742188 -59.160156 7.835938 -59.6875 7.984375 -60.25 C 7.984375 -60.53125 8.050781 -60.878906 8.1875 -61.296875 C 8.257812 -62.210938 8.296875 -63.101562 8.296875 -63.96875 C 8.296875 -64.84375 8.328125 -65.738281 8.390625 -66.65625 C 8.460938 -67.769531 8.585938 -68.972656 8.765625 -70.265625 C 8.941406 -71.566406 9.222656 -72.828125 9.609375 -74.046875 C 9.992188 -75.273438 10.535156 -76.410156 11.234375 -77.453125 C 11.929688 -78.503906 12.875 -79.3125 14.0625 -79.875 C 15.1875 -80.363281 16.320312 -80.644531 17.46875 -80.71875 C 18.625 -80.789062 19.78125 -80.71875 20.9375 -80.5 C 22.09375 -80.289062 23.226562 -79.992188 24.34375 -79.609375 C 25.46875 -79.222656 26.554688 -78.820312 27.609375 -78.40625 C 30.054688 -77.5 32.484375 -76.46875 34.890625 -75.3125 C 37.304688 -74.15625 39.460938 -72.664062 41.359375 -70.84375 C 43.171875 -69.03125 44.742188 -66.878906 46.078125 -64.390625 C 47.410156 -61.910156 48.003906 -59.34375 47.859375 -56.6875 C 47.722656 -55.070312 47.390625 -53.648438 46.859375 -52.421875 C 46.335938 -51.203125 45.625 -49.960938 44.71875 -48.703125 C 42.476562 -45.554688 40.0625 -42.546875 37.46875 -39.671875 C 34.882812 -36.804688 32.125 -34.179688 29.1875 -31.796875 C 27.78125 -30.679688 26.253906 -29.5625 24.609375 -28.4375 C 22.960938 -27.320312 21.234375 -26.378906 19.421875 -25.609375 C 20.046875 -25.046875 20.671875 -24.484375 21.296875 -23.921875 C 21.929688 -23.367188 22.597656 -22.882812 23.296875 -22.46875 C 25.117188 -21.269531 26.957031 -20.164062 28.8125 -19.15625 C 30.664062 -18.144531 32.46875 -17.039062 34.21875 -15.84375 C 35.894531 -14.65625 37.535156 -13.394531 39.140625 -12.0625 C 40.753906 -10.738281 42.367188 -9.484375 43.984375 -8.296875 C 44.960938 -7.660156 45.609375 -6.816406 45.921875 -5.765625 C 46.234375 -4.722656 46.113281 -3.675781 45.5625 -2.625 Z M 17.21875 -33.796875 C 18.894531 -34.703125 20.414062 -35.660156 21.78125 -36.671875 C 23.144531 -37.691406 24.492188 -38.796875 25.828125 -39.984375 C 27.222656 -41.242188 28.582031 -42.570312 29.90625 -43.96875 C 31.238281 -45.375 32.535156 -46.773438 33.796875 -48.171875 C 34.285156 -48.804688 34.738281 -49.367188 35.15625 -49.859375 C 35.582031 -50.347656 35.96875 -50.816406 36.3125 -51.265625 C 36.664062 -51.722656 37.035156 -52.210938 37.421875 -52.734375 C 37.804688 -53.265625 38.207031 -53.878906 38.625 -54.578125 C 38.769531 -54.785156 38.910156 -54.992188 39.046875 -55.203125 C 39.179688 -55.421875 39.320312 -55.632812 39.46875 -55.84375 C 39.539062 -57.800781 39.117188 -59.617188 38.203125 -61.296875 C 37.015625 -63.328125 35.523438 -64.972656 33.734375 -66.234375 C 31.953125 -67.492188 29.976562 -68.539062 27.8125 -69.375 C 26.550781 -69.9375 25.289062 -70.425781 24.03125 -70.84375 C 22.769531 -71.269531 21.441406 -71.65625 20.046875 -72 C 19.703125 -72.144531 19.175781 -72.285156 18.46875 -72.421875 C 18.050781 -72.285156 17.773438 -72.078125 17.640625 -71.796875 C 17.359375 -70.890625 17.21875 -70.257812 17.21875 -69.90625 C 17.144531 -69.695312 17.039062 -69.3125 16.90625 -68.75 C 16.832031 -68.050781 16.773438 -67.507812 16.734375 -67.125 C 16.703125 -66.738281 16.6875 -66.335938 16.6875 -65.921875 C 16.476562 -61.085938 15.96875 -56.328125 15.15625 -51.640625 C 14.351562 -46.953125 13.707031 -42.195312 13.21875 -37.375 C 13.082031 -36.601562 12.992188 -35.8125 12.953125 -35 C 12.921875 -34.195312 12.875 -33.410156 12.8125 -32.640625 C 13.4375 -32.578125 13.785156 -32.578125 13.859375 -32.640625 C 14.628906 -32.785156 15.238281 -32.941406 15.6875 -33.109375 C 16.144531 -33.285156 16.65625 -33.515625 17.21875 -33.796875 Z M 17.21875 -33.796875 "/></g></g></g><g fill="#68b4e7" fill-opacity="1"><g transform="translate(294.433843, 329.54654)"><g><path d="M 1.890625 0 C 0.628906 -0.351562 -0.207031 -1.050781 -0.625 -2.09375 C -1.050781 -3.144531 -1.125 -4.160156 -0.84375 -5.140625 C -0.5625 -6.117188 0.015625 -6.941406 0.890625 -7.609375 C 1.765625 -8.273438 2.832031 -8.429688 4.09375 -8.078125 C 6.894531 -7.242188 9.691406 -6.71875 12.484375 -6.5 C 15.285156 -6.289062 18.15625 -6.257812 21.09375 -6.40625 C 19.90625 -11.375 19.3125 -16.359375 19.3125 -21.359375 C 19.3125 -26.359375 19.503906 -31.359375 19.890625 -36.359375 C 20.273438 -41.367188 20.660156 -46.390625 21.046875 -51.421875 C 21.429688 -56.460938 21.445312 -61.503906 21.09375 -66.546875 C 18.4375 -66.617188 15.757812 -66.738281 13.0625 -66.90625 C 10.375 -67.082031 7.695312 -67.347656 5.03125 -67.703125 C 3.84375 -67.835938 2.847656 -68.253906 2.046875 -68.953125 C 1.242188 -69.660156 0.84375 -70.609375 0.84375 -71.796875 C 0.84375 -72.847656 1.242188 -73.84375 2.046875 -74.78125 C 2.847656 -75.726562 3.84375 -76.132812 5.03125 -76 C 8.25 -75.644531 11.484375 -75.34375 14.734375 -75.09375 C 17.992188 -74.851562 21.234375 -74.765625 24.453125 -74.828125 C 27.671875 -74.898438 30.875 -75.179688 34.0625 -75.671875 C 37.25 -76.171875 40.414062 -76.976562 43.5625 -78.09375 C 44.613281 -78.445312 45.644531 -78.304688 46.65625 -77.671875 C 47.664062 -77.046875 48.347656 -76.207031 48.703125 -75.15625 C 49.054688 -73.96875 48.929688 -72.898438 48.328125 -71.953125 C 47.734375 -71.003906 46.878906 -70.359375 45.765625 -70.015625 C 40.515625 -68.191406 35.054688 -67.109375 29.390625 -66.765625 C 29.804688 -61.796875 29.804688 -56.789062 29.390625 -51.75 C 28.972656 -46.707031 28.550781 -41.703125 28.125 -36.734375 C 27.707031 -31.765625 27.515625 -26.796875 27.546875 -21.828125 C 27.585938 -16.859375 28.238281 -11.925781 29.5 -7.03125 C 31.738281 -7.238281 33.941406 -7.445312 36.109375 -7.65625 C 38.273438 -7.875 40.441406 -8.050781 42.609375 -8.1875 C 43.941406 -8.257812 44.941406 -7.890625 45.609375 -7.078125 C 46.273438 -6.273438 46.609375 -5.347656 46.609375 -4.296875 C 46.609375 -3.253906 46.273438 -2.273438 45.609375 -1.359375 C 44.941406 -0.453125 43.941406 0.0351562 42.609375 0.109375 C 39.179688 0.316406 35.769531 0.613281 32.375 1 C 28.988281 1.382812 25.597656 1.660156 22.203125 1.828125 C 18.804688 2.003906 15.410156 1.988281 12.015625 1.78125 C 8.617188 1.570312 5.242188 0.976562 1.890625 0 Z M 34.109375 -99.1875 C 35.023438 -99.882812 36.003906 -100.285156 37.046875 -100.390625 C 38.097656 -100.492188 39.078125 -100.09375 39.984375 -99.1875 C 40.753906 -98.414062 41.175781 -97.414062 41.25 -96.1875 C 41.320312 -94.96875 40.898438 -93.972656 39.984375 -93.203125 C 34.953125 -89.359375 29.707031 -86.035156 24.25 -83.234375 C 23.0625 -82.609375 21.941406 -82.519531 20.890625 -82.96875 C 19.835938 -83.425781 19.046875 -84.109375 18.515625 -85.015625 C 17.992188 -85.929688 17.800781 -86.910156 17.9375 -87.953125 C 18.082031 -89.003906 18.75 -89.847656 19.9375 -90.484375 C 22.457031 -91.734375 24.890625 -93.054688 27.234375 -94.453125 C 29.578125 -95.859375 31.867188 -97.4375 34.109375 -99.1875 Z M 34.109375 -99.1875 "/></g></g></g><g fill="#68b4e7" fill-opacity="1"><g transform="translate(342.189837, 329.54654)"><g><path d="M 11.546875 -1.359375 C 11.546875 -0.0351562 11.109375 0.957031 10.234375 1.625 C 9.359375 2.289062 8.394531 2.625 7.34375 2.625 C 6.289062 2.625 5.34375 2.289062 4.5 1.625 C 3.664062 0.957031 3.25 -0.0351562 3.25 -1.359375 C 3.25 -6.816406 3.878906 -12.066406 5.140625 -17.109375 C 6.398438 -22.148438 7.972656 -27.15625 9.859375 -32.125 C 9.367188 -33.03125 9.234375 -34.039062 9.453125 -35.15625 C 9.867188 -36.632812 10.773438 -37.546875 12.171875 -37.890625 C 13.578125 -41.253906 15.03125 -44.597656 16.53125 -47.921875 C 18.03125 -51.242188 19.476562 -54.582031 20.875 -57.9375 C 22.28125 -61.300781 23.578125 -64.695312 24.765625 -68.125 C 25.960938 -71.550781 26.941406 -75.050781 27.703125 -78.625 C 27.921875 -79.664062 28.359375 -80.570312 29.015625 -81.34375 C 29.679688 -82.113281 30.609375 -82.5 31.796875 -82.5 C 32.921875 -82.5 33.9375 -82.097656 34.84375 -81.296875 C 35.757812 -80.492188 36.144531 -79.492188 36 -78.296875 C 35.789062 -74.242188 35.859375 -70.519531 36.203125 -67.125 C 36.554688 -63.726562 37.082031 -60.367188 37.78125 -57.046875 C 38.488281 -53.722656 39.28125 -50.398438 40.15625 -47.078125 C 41.03125 -43.753906 41.847656 -40.445312 42.609375 -37.15625 C 43.378906 -34.007812 44.078125 -30.859375 44.703125 -27.703125 C 45.335938 -24.554688 46.359375 -21.515625 47.765625 -18.578125 C 48.460938 -17.109375 49.195312 -15.691406 49.96875 -14.328125 C 50.738281 -12.960938 51.578125 -11.582031 52.484375 -10.1875 C 53.328125 -8.925781 54.097656 -7.613281 54.796875 -6.25 C 55.492188 -4.882812 55.984375 -3.394531 56.265625 -1.78125 C 56.398438 -0.664062 56.238281 0.378906 55.78125 1.359375 C 55.332031 2.335938 54.515625 3.003906 53.328125 3.359375 C 52.347656 3.640625 51.296875 3.5 50.171875 2.9375 C 49.054688 2.375 48.390625 1.535156 48.171875 0.421875 C 47.898438 -1.191406 47.359375 -2.625 46.546875 -3.875 C 45.742188 -5.132812 44.921875 -6.429688 44.078125 -7.765625 C 43.097656 -9.304688 42.207031 -10.863281 41.40625 -12.4375 C 40.601562 -14.007812 39.882812 -15.632812 39.25 -17.3125 C 38.550781 -19.0625 37.957031 -20.828125 37.46875 -22.609375 C 36.976562 -24.398438 36.523438 -26.207031 36.109375 -28.03125 C 32.960938 -28.238281 29.863281 -28.394531 26.8125 -28.5 C 23.769531 -28.601562 20.710938 -28.832031 17.640625 -29.1875 C 15.953125 -24.707031 14.53125 -20.15625 13.375 -15.53125 C 12.226562 -10.914062 11.617188 -6.191406 11.546875 -1.359375 Z M 21.40625 -38.515625 C 21.269531 -38.304688 21.179688 -38.078125 21.140625 -37.828125 C 21.109375 -37.585938 21.023438 -37.363281 20.890625 -37.15625 C 23.128906 -36.945312 25.332031 -36.820312 27.5 -36.78125 C 29.664062 -36.75 31.867188 -36.664062 34.109375 -36.53125 C 33.335938 -39.882812 32.515625 -43.222656 31.640625 -46.546875 C 30.765625 -49.867188 29.976562 -53.25 29.28125 -56.6875 C 28.019531 -53.601562 26.722656 -50.570312 25.390625 -47.59375 C 24.066406 -44.625 22.738281 -41.597656 21.40625 -38.515625 Z M 21.40625 -38.515625 "/></g></g></g></svg>