<svg xmlns="http://www.w3.org/2000/svg" xmlns:xlink="http://www.w3.org/1999/xlink" width="566" zoomAndPan="magnify" viewBox="0 0 425.03998 425.249996" height="566" preserveAspectRatio="xMidYMid meet" version="1.0"><defs><g/><clipPath id="53b1961f25"><path d="M 0 0.105469 L 424.042969 0.105469 L 424.042969 424.398438 L 0 424.398438 Z M 0 0.105469 " clip-rule="nonzero"/></clipPath><clipPath id="dfa3df50b5"><path d="M 0 0.105469 L 424.042969 0.105469 L 424.042969 424.148438 L 0 424.148438 Z M 0 0.105469 " clip-rule="nonzero"/></clipPath><clipPath id="65d005d02e"><path d="M 0 50.394531 L 424.042969 50.394531 L 424.042969 424.148438 L 0 424.148438 Z M 0 50.394531 " clip-rule="nonzero"/></clipPath><clipPath id="1f3f51354d"><path d="M 213 66 L 424.042969 66 L 424.042969 408 L 213 408 Z M 213 66 " clip-rule="nonzero"/></clipPath><clipPath id="b6b8f88c54"><path d="M 382 138 L 424.042969 138 L 424.042969 215 L 382 215 Z M 382 138 " clip-rule="nonzero"/></clipPath><clipPath id="2ed93cd2f4"><path d="M 389 135 L 424.042969 135 L 424.042969 213 L 389 213 Z M 389 135 " clip-rule="nonzero"/></clipPath><clipPath id="8d59dba2aa"><path d="M 385 137 L 424.042969 137 L 424.042969 214 L 385 214 Z M 385 137 " clip-rule="nonzero"/></clipPath></defs><g clip-path="url(#53b1961f25)"><path fill="#ffffff" d="M 0 0.105469 L 424.042969 0.105469 L 424.042969 2150.230469 L 0 2150.230469 Z M 0 0.105469 " fill-opacity="1" fill-rule="nonzero"/></g><g clip-path="url(#dfa3df50b5)"><path fill="#ffffff" d="M 0 0.105469 L 424.042969 0.105469 L 424.042969 424.148438 L 0 424.148438 Z M 0 0.105469 " fill-opacity="1" fill-rule="nonzero"/><path fill="#5a5fa4" d="M 0 0.105469 L 424.042969 0.105469 L 424.042969 424.148438 L 0 424.148438 Z M 0 0.105469 " fill-opacity="1" fill-rule="nonzero"/></g><g clip-path="url(#65d005d02e)"><path fill="#cc4e78" d="M 212.066406 383.765625 C 232.234375 410.570312 268.363281 424.277344 301.566406 424.277344 C 318.308594 424.277344 335.054688 421.050781 350.472656 414.488281 C 362.445312 421.152344 376.328125 424.277344 389.976562 424.277344 C 404.761719 424.277344 419.769531 420.570312 432.402344 412.765625 L 432.800781 412.523438 C 432.890625 412.464844 432.976562 412.40625 433.066406 412.351562 L 433.527344 412.058594 C 433.554688 412.042969 433.574219 412.027344 433.601562 412.011719 L 434.21875 411.605469 C 434.242188 411.589844 434.265625 411.578125 434.289062 411.5625 L 434.34375 411.527344 C 434.375 411.507812 434.398438 411.488281 434.429688 411.46875 L 434.734375 411.257812 C 434.824219 411.207031 434.902344 411.152344 434.992188 411.089844 L 435.078125 411.035156 C 435.105469 411.03125 435.132812 411.027344 435.160156 411.023438 L 435.359375 411.003906 C 435.828125 410.953125 436.296875 410.894531 436.765625 410.828125 L 436.839844 410.816406 C 436.921875 410.804688 436.992188 410.792969 437.074219 410.78125 L 437.519531 410.707031 C 437.570312 410.703125 437.617188 410.691406 437.667969 410.683594 L 437.742188 410.671875 C 437.773438 410.667969 437.800781 410.664062 437.832031 410.65625 L 437.980469 410.632812 C 438.007812 410.625 438.035156 410.621094 438.070312 410.617188 L 438.246094 410.582031 C 438.289062 410.574219 438.328125 410.570312 438.367188 410.558594 C 438.425781 410.550781 438.472656 410.542969 438.53125 410.53125 C 457.636719 406.890625 470.546875 390.082031 478.15625 373.339844 C 487.21875 353.398438 490.90625 329.863281 490.90625 308.078125 C 490.90625 280.285156 484.386719 245.027344 465.933594 222.929688 C 466.617188 218.507812 466.96875 214.039062 466.96875 209.5625 C 466.96875 180.179688 451.890625 151.839844 425.894531 137.714844 C 425.882812 137.671875 425.871094 137.628906 425.859375 137.582031 L 425.707031 136.988281 C 425.695312 136.945312 425.683594 136.910156 425.671875 136.867188 L 425.632812 136.71875 C 425.621094 136.679688 425.613281 136.648438 425.605469 136.609375 L 425.519531 136.316406 C 425.515625 136.285156 425.507812 136.261719 425.5 136.230469 L 425.457031 136.082031 C 425.355469 135.71875 425.25 135.355469 425.140625 134.992188 L 425.050781 134.699219 C 415.847656 104.515625 386.496094 85.949219 356.097656 83.355469 C 356.082031 83.335938 356.066406 83.3125 356.050781 83.289062 C 355.835938 82.984375 355.625 82.679688 355.40625 82.382812 L 355.230469 82.144531 C 355.191406 82.085938 355.152344 82.03125 355.109375 81.976562 L 354.671875 81.394531 C 354.636719 81.339844 354.601562 81.296875 354.5625 81.242188 L 354.417969 81.054688 C 354.195312 80.769531 353.972656 80.484375 353.75 80.207031 L 353.566406 79.976562 C 353.511719 79.90625 353.460938 79.84375 353.402344 79.773438 L 352.949219 79.226562 C 352.898438 79.164062 352.851562 79.109375 352.796875 79.046875 L 352.527344 78.726562 C 352.484375 78.683594 352.453125 78.640625 352.414062 78.597656 L 352.046875 78.175781 C 352 78.121094 351.957031 78.074219 351.90625 78.015625 L 351.542969 77.605469 C 351.515625 77.574219 351.488281 77.542969 351.457031 77.507812 L 351.242188 77.273438 C 351.191406 77.21875 351.144531 77.167969 351.09375 77.113281 L 350.683594 76.671875 C 350.628906 76.613281 350.585938 76.570312 350.535156 76.511719 L 350.3125 76.28125 C 350.007812 75.957031 349.699219 75.644531 349.546875 75.496094 L 349.515625 75.464844 C 349.453125 75.402344 349.402344 75.347656 349.335938 75.28125 L 349.105469 75.050781 C 349.050781 75 349.007812 74.957031 348.957031 74.90625 L 348.488281 74.453125 C 348.449219 74.414062 348.421875 74.382812 348.382812 74.347656 L 348.144531 74.121094 C 348.101562 74.078125 348.0625 74.042969 348.019531 74.003906 L 347.644531 73.648438 C 347.558594 73.574219 347.476562 73.496094 347.386719 73.410156 L 347.140625 73.1875 C 347.109375 73.15625 347.078125 73.132812 347.042969 73.101562 L 346.550781 72.65625 C 346.507812 72.621094 346.472656 72.589844 346.433594 72.554688 L 346.128906 72.285156 C 346.09375 72.253906 346.058594 72.226562 346.023438 72.191406 L 345.550781 71.785156 C 345.496094 71.738281 345.449219 71.699219 345.394531 71.652344 L 344.839844 71.1875 C 327.316406 56.519531 302.546875 50.359375 280.074219 50.359375 C 261.824219 50.359375 242.738281 54.359375 226.742188 63.359375 C 221.460938 66.332031 216.460938 69.910156 212.066406 74.0625 C 207.675781 69.910156 202.675781 66.332031 197.394531 63.359375 C 181.398438 54.359375 162.308594 50.359375 144.0625 50.359375 C 121.589844 50.359375 96.824219 56.519531 79.300781 71.1875 L 78.742188 71.652344 C 78.6875 71.699219 78.640625 71.738281 78.585938 71.785156 L 78.113281 72.191406 C 78.078125 72.226562 78.046875 72.253906 78.007812 72.285156 L 77.703125 72.554688 C 77.664062 72.589844 77.628906 72.621094 77.585938 72.65625 L 77.09375 73.101562 C 77.058594 73.132812 77.027344 73.15625 76.992188 73.1875 L 76.75 73.410156 C 76.660156 73.496094 76.574219 73.574219 76.492188 73.648438 L 76.113281 74.003906 C 76.070312 74.042969 76.035156 74.078125 75.992188 74.121094 L 75.757812 74.347656 C 75.714844 74.382812 75.683594 74.414062 75.644531 74.453125 L 75.242188 74.84375 C 75.167969 74.917969 75.105469 74.976562 75.03125 75.050781 L 74.722656 75.359375 C 74.417969 75.660156 74.121094 75.96875 73.824219 76.28125 L 73.601562 76.511719 C 73.550781 76.570312 73.507812 76.613281 73.453125 76.671875 L 73.042969 77.113281 C 72.988281 77.167969 72.945312 77.21875 72.894531 77.273438 L 72.679688 77.507812 C 72.648438 77.542969 72.625 77.574219 72.59375 77.605469 L 72.230469 78.015625 C 72.179688 78.074219 72.140625 78.121094 72.089844 78.175781 L 71.722656 78.597656 C 71.683594 78.640625 71.648438 78.683594 71.609375 78.726562 L 71.335938 79.046875 C 71.285156 79.109375 71.238281 79.164062 71.1875 79.226562 L 70.734375 79.773438 C 70.675781 79.84375 70.625 79.90625 70.570312 79.976562 L 70.386719 80.207031 C 70.160156 80.484375 69.9375 80.769531 69.71875 81.054688 L 69.574219 81.242188 C 69.535156 81.296875 69.5 81.339844 69.460938 81.394531 L 69.027344 81.976562 C 68.984375 82.03125 68.945312 82.085938 68.90625 82.144531 L 68.730469 82.382812 C 68.492188 82.707031 68.261719 83.035156 68.113281 83.25 C 68.089844 83.285156 68.0625 83.324219 68.039062 83.355469 C 37.640625 85.949219 8.289062 104.515625 -0.914062 134.699219 L -1.003906 134.992188 C -1.117188 135.355469 -1.21875 135.71875 -1.320312 136.082031 L -1.363281 136.230469 C -1.371094 136.261719 -1.378906 136.285156 -1.386719 136.316406 L -1.464844 136.609375 C -1.476562 136.648438 -1.488281 136.679688 -1.496094 136.71875 L -1.535156 136.867188 C -1.550781 136.910156 -1.558594 136.945312 -1.570312 136.988281 L -1.726562 137.582031 C -1.734375 137.628906 -1.746094 137.671875 -1.757812 137.714844 C -27.753906 151.839844 -42.832031 180.179688 -42.832031 209.5625 C -42.832031 214.039062 -42.484375 218.507812 -41.796875 222.929688 C -60.253906 245.027344 -66.773438 280.285156 -66.773438 308.078125 C -66.773438 329.863281 -63.082031 353.398438 -54.019531 373.339844 C -46.410156 390.082031 -33.5 406.890625 -14.394531 410.53125 C -14.34375 410.539062 -14.300781 410.546875 -14.253906 410.558594 C -14.203125 410.566406 -14.160156 410.574219 -14.113281 410.582031 L -13.933594 410.617188 C -13.902344 410.621094 -13.875 410.625 -13.84375 410.632812 L -13.695312 410.65625 C -13.664062 410.664062 -13.636719 410.667969 -13.605469 410.671875 L -13.53125 410.683594 C -13.476562 410.691406 -13.433594 410.703125 -13.382812 410.707031 L -12.9375 410.78125 C -12.855469 410.792969 -12.785156 410.804688 -12.703125 410.816406 L -12.625 410.828125 C -12.164062 410.894531 -11.691406 410.953125 -11.226562 411.003906 L -11.023438 411.023438 C -10.996094 411.027344 -10.96875 411.03125 -10.941406 411.035156 L -10.855469 411.089844 C -10.765625 411.152344 -10.683594 411.207031 -10.601562 411.257812 L -10.292969 411.46875 C -10.261719 411.488281 -10.238281 411.507812 -10.207031 411.527344 L -10.152344 411.5625 C -10.128906 411.578125 -10.109375 411.589844 -10.082031 411.605469 L -9.46875 412.011719 C -9.441406 412.027344 -9.417969 412.042969 -9.394531 412.058594 L -8.929688 412.351562 C -8.84375 412.40625 -8.753906 412.464844 -8.664062 412.523438 L -8.265625 412.765625 C 4.367188 420.570312 19.375 424.277344 34.15625 424.277344 C 47.808594 424.277344 61.691406 421.152344 73.664062 414.488281 C 89.082031 421.050781 105.828125 424.277344 122.570312 424.277344 C 155.773438 424.277344 191.902344 410.570312 212.066406 383.765625 " fill-opacity="1" fill-rule="evenodd"/></g><path fill="#ff6699" d="M 63.390625 400.324219 C 42.460938 411.503906 12.007812 410.171875 -6.746094 394.59375 L -7.507812 394.574219 C -13.144531 361.964844 -22.308594 313.652344 -11.964844 300.28125 C -8.359375 295.621094 -0.28125 296.898438 14.878906 308.175781 C 17.492188 310.121094 21.226562 309.617188 23.210938 307.050781 C 25.195312 304.488281 24.683594 300.828125 22.066406 298.882812 C 0.0390625 282.5 -13.464844 282.925781 -21.441406 293.230469 C -34.355469 309.925781 -26.273438 356.355469 -20.148438 391.519531 C -38.347656 381.453125 -51.722656 347.914062 -51.722656 308.078125 C -51.722656 277.378906 -43.777344 250.417969 -31.8125 235.058594 C -27.375 236.976562 -22.644531 239.09375 -17.824219 241.460938 C 18.648438 259.394531 61.601562 292.90625 21.796875 370.734375 C 20.328125 373.617188 21.519531 377.125 24.460938 378.5625 C 27.398438 380.003906 30.972656 378.835938 32.445312 375.953125 C 76.976562 288.882812 28.570312 251.214844 -12.503906 231.023438 C -17.203125 228.714844 -21.789062 226.648438 -26.105469 224.773438 C -27.1875 219.535156 -27.78125 215.527344 -27.78125 209.5625 C -27.78125 185.371094 -15.425781 164.308594 2.820312 153.355469 C 28.199219 204.449219 51.734375 230.503906 71.316406 241.457031 C 88.957031 251.324219 107.3125 250.855469 120.425781 237.75 C 128.4375 229.730469 132.671875 218.28125 132.203125 208.257812 C 132.0625 205.035156 129.28125 202.53125 125.992188 202.667969 C 122.707031 202.804688 120.15625 205.535156 120.296875 208.757812 C 120.847656 220.960938 111.796875 234.78125 98.03125 236.421875 C 92.148438 237.121094 85.160156 235.746094 77.195312 231.292969 C 59.015625 221.128906 36.730469 195.867188 12.050781 145.25 L 13.414062 139.542969 C 19.929688 118.289062 41.554688 102.183594 68.03125 99.902344 C 63.019531 117.445312 63.671875 133.273438 76.101562 142.316406 C 116.457031 171.667969 149.0625 117.542969 149.152344 117.390625 C 150.855469 114.621094 149.941406 111.023438 147.121094 109.355469 C 144.300781 107.6875 140.628906 108.582031 138.925781 111.347656 C 138.851562 111.46875 112.878906 154.523438 83.199219 132.933594 C 71.992188 124.78125 75.382812 107.046875 84.023438 88.019531 L 88.398438 83.921875 C 100.820312 73.617188 120.4375 66.964844 142.511719 66.964844 C 180.070312 66.964844 210.519531 86.214844 210.519531 109.960938 C 210.519531 125.042969 198.238281 138.308594 179.648438 145.980469 C 198.683594 169.289062 210.519531 201.960938 210.519531 238.136719 C 210.519531 248.976562 209.453125 259.503906 207.453125 269.558594 C 206.039062 270.582031 204.640625 271.335938 203.261719 271.851562 C 192.183594 275.988281 181.640625 263.839844 181.058594 254.125 C 179.675781 231.082031 178.648438 180.730469 140.515625 166.488281 C 98.589844 150.828125 85.222656 205.25 85.183594 205.402344 C 84.375 208.523438 86.296875 211.699219 89.480469 212.496094 C 92.664062 213.292969 95.902344 211.40625 96.714844 208.285156 C 96.746094 208.167969 107.03125 166.507812 136.265625 177.429688 C 167.019531 188.914062 167.929688 234.21875 169.152344 254.808594 C 170.109375 270.984375 186.152344 287.664062 203.894531 283.839844 C 199.460938 298.539062 193.550781 311.074219 187.109375 324.433594 C 182 335.039062 176.941406 345.527344 171.6875 351.515625 C 157.648438 367.527344 135.011719 370.640625 125.386719 351.664062 C 120.683594 342.382812 119.339844 328.265625 123.871094 308.933594 C 124.609375 305.785156 122.597656 302.652344 119.390625 301.929688 C 116.183594 301.210938 112.980469 303.179688 112.246094 306.324219 C 107.03125 328.539062 108.867188 345.335938 114.695312 356.835938 C 128.03125 383.140625 160.730469 381.9375 180.746094 359.113281 C 189.589844 349.03125 197.390625 329.609375 204.589844 315.9375 C 207.726562 323.019531 209.433594 330.628906 209.433594 338.554688 C 209.433594 376.726562 169.851562 407.675781 121.019531 407.675781 C 104.429688 407.675781 88.773438 404.101562 75.277344 397.707031 C 74.746094 335.011719 88.363281 296.253906 104.402344 278.328125 C 111.828125 270.03125 122.136719 264.074219 131.214844 270.136719 C 139.117188 275.414062 144.828125 288.347656 145.429688 308.34375 C 145.519531 311.566406 148.257812 314.105469 151.546875 314.019531 C 154.832031 313.929688 157.425781 311.242188 157.335938 308.019531 C 156.613281 283.9375 148.800781 267.734375 137.941406 260.480469 C 123.46875 250.816406 107.179688 257.515625 95.4375 270.636719 C 77.628906 290.539062 62.484375 332.839844 63.390625 400.324219 " fill-opacity="1" fill-rule="evenodd"/><g clip-path="url(#1f3f51354d)"><path fill="#ff6699" d="M 360.746094 400.324219 C 381.675781 411.503906 412.128906 410.171875 430.878906 394.59375 L 431.648438 394.574219 C 437.28125 361.964844 446.445312 313.652344 436.101562 300.28125 C 432.496094 295.621094 424.417969 296.898438 409.257812 308.175781 C 406.644531 310.121094 402.910156 309.617188 400.925781 307.050781 C 398.941406 304.488281 399.453125 300.828125 402.070312 298.882812 C 424.097656 282.5 437.601562 282.925781 445.578125 293.230469 C 458.492188 309.925781 450.410156 356.355469 444.285156 391.519531 C 462.484375 381.453125 475.859375 347.914062 475.859375 308.078125 C 475.859375 277.378906 467.914062 250.417969 455.945312 235.058594 C 451.507812 236.976562 446.78125 239.09375 441.960938 241.460938 C 405.488281 259.394531 362.53125 292.90625 402.339844 370.734375 C 403.804688 373.617188 402.613281 377.125 399.675781 378.5625 C 396.734375 380.003906 393.164062 378.835938 391.691406 375.953125 C 347.160156 288.882812 395.566406 251.214844 436.640625 231.023438 C 441.339844 228.714844 445.925781 226.648438 450.242188 224.773438 C 451.324219 219.535156 451.917969 215.527344 451.917969 209.5625 C 451.917969 185.371094 439.5625 164.308594 421.316406 153.355469 C 395.9375 204.449219 372.402344 230.503906 352.820312 241.457031 C 335.179688 251.324219 316.820312 250.855469 303.710938 237.75 C 295.699219 229.730469 291.464844 218.28125 291.933594 208.257812 C 292.070312 205.035156 294.851562 202.53125 298.140625 202.667969 C 301.429688 202.804688 303.976562 205.535156 303.839844 208.757812 C 303.289062 220.960938 312.339844 234.78125 326.105469 236.421875 C 331.988281 237.121094 338.976562 235.746094 346.941406 231.292969 C 365.121094 221.128906 387.402344 195.867188 412.085938 145.25 L 410.722656 139.542969 C 404.207031 118.289062 382.582031 102.183594 356.105469 99.902344 C 361.117188 117.445312 360.464844 133.273438 348.035156 142.316406 C 307.679688 171.667969 275.074219 117.542969 274.984375 117.390625 C 273.28125 114.621094 274.195312 111.023438 277.015625 109.355469 C 279.835938 107.6875 283.507812 108.582031 285.207031 111.347656 C 285.28125 111.46875 311.253906 154.523438 340.933594 132.933594 C 352.144531 124.78125 348.753906 107.046875 340.113281 88.019531 L 335.738281 83.921875 C 323.3125 73.617188 303.699219 66.964844 281.621094 66.964844 C 244.0625 66.964844 213.613281 86.214844 213.613281 109.960938 C 213.613281 125.042969 225.898438 138.308594 244.484375 145.980469 C 225.453125 169.289062 213.613281 201.960938 213.613281 238.136719 C 213.613281 248.976562 214.683594 259.503906 216.679688 269.558594 C 218.09375 270.582031 219.496094 271.335938 220.871094 271.851562 C 231.953125 275.988281 242.496094 263.839844 243.078125 254.125 C 244.460938 231.082031 245.488281 180.730469 283.621094 166.488281 C 325.546875 150.828125 338.914062 205.25 338.953125 205.402344 C 339.761719 208.523438 337.839844 211.699219 334.65625 212.496094 C 331.472656 213.292969 328.234375 211.40625 327.421875 208.285156 C 327.390625 208.167969 317.101562 166.507812 287.871094 177.429688 C 257.117188 188.914062 256.207031 234.21875 254.984375 254.808594 C 254.277344 266.703125 245.289062 279.019531 233.59375 283.007812 C 216.417969 288.867188 228.183594 306.089844 237.027344 324.433594 C 242.136719 335.039062 247.195312 345.527344 252.449219 351.515625 C 266.484375 367.527344 289.125 370.640625 298.75 351.664062 C 303.453125 342.382812 304.796875 328.265625 300.265625 308.933594 C 299.527344 305.785156 301.535156 302.652344 304.746094 301.929688 C 307.953125 301.210938 311.15625 303.179688 311.890625 306.324219 C 317.101562 328.539062 315.269531 345.335938 309.4375 356.835938 C 296.101562 383.140625 263.40625 381.9375 243.390625 359.113281 C 234.546875 349.03125 226.746094 329.609375 219.542969 315.9375 C 216.40625 323.019531 214.703125 330.628906 214.703125 338.554688 C 214.703125 376.726562 254.285156 407.675781 303.113281 407.675781 C 319.707031 407.675781 335.363281 404.101562 348.859375 397.707031 C 349.390625 335.011719 335.769531 296.253906 319.734375 278.328125 C 312.308594 270.03125 302 264.074219 292.917969 270.136719 C 285.019531 275.414062 279.308594 288.347656 278.707031 308.34375 C 278.617188 311.566406 275.875 314.105469 272.589844 314.019531 C 269.300781 313.929688 266.707031 311.242188 266.800781 308.019531 C 267.523438 283.9375 275.335938 267.734375 286.199219 260.480469 C 300.667969 250.816406 316.960938 257.515625 328.699219 270.636719 C 346.507812 290.539062 361.652344 332.839844 360.746094 400.324219 " fill-opacity="1" fill-rule="evenodd"/></g><path fill="#ffffff" d="M 95.386719 406.300781 C 124.414062 406.300781 148.085938 382.617188 148.085938 353.582031 C 148.085938 324.542969 124.414062 300.863281 95.386719 300.863281 C 66.359375 300.863281 42.683594 324.542969 42.683594 353.582031 C 42.683594 382.617188 66.359375 406.300781 95.386719 406.300781 " fill-opacity="1" fill-rule="evenodd"/><path fill="#00ccff" d="M 95.386719 386.089844 C 111.457031 386.089844 124.5625 372.980469 124.5625 356.902344 C 124.5625 340.824219 111.457031 327.714844 95.386719 327.714844 C 79.316406 327.714844 66.203125 340.824219 66.203125 356.902344 C 66.203125 372.980469 79.316406 386.089844 95.386719 386.089844 " fill-opacity="1" fill-rule="evenodd"/><path fill="#000000" d="M 95.386719 366.417969 C 100.625 366.417969 104.898438 362.144531 104.898438 356.902344 C 104.898438 351.664062 100.625 347.386719 95.386719 347.386719 C 90.148438 347.386719 85.871094 351.664062 85.871094 356.902344 C 85.871094 362.144531 90.148438 366.417969 95.386719 366.417969 " fill-opacity="1" fill-rule="evenodd"/><path stroke-linecap="butt" transform="matrix(0.0792115, 0, 0, -0.0792403, -293.140452, 742.710128)" fill="none" stroke-linejoin="miter" d="M 4904.932796 4748.747808 C 4971.063094 4748.747808 5025.012792 4802.677917 5025.012792 4868.833498 C 5025.012792 4934.939783 4971.063094 4988.919187 4904.932796 4988.919187 C 4838.802498 4988.919187 4784.803486 4934.939783 4784.803486 4868.833498 C 4784.803486 4802.677917 4838.802498 4748.747808 4904.932796 4748.747808 Z M 4904.932796 4748.747808 " stroke="#000000" stroke-width="5.669" stroke-opacity="1" stroke-miterlimit="22.926001"/><path fill="#ffffff" d="M 79.984375 349.917969 C 85.8125 349.917969 90.566406 345.164062 90.566406 339.332031 C 90.566406 333.507812 85.8125 328.753906 79.984375 328.753906 C 74.164062 328.753906 69.410156 333.507812 69.410156 339.332031 C 69.410156 345.164062 74.164062 349.917969 79.984375 349.917969 " fill-opacity="1" fill-rule="evenodd"/><path fill="#ffffff" d="M 110.78125 385.050781 C 116.609375 385.050781 121.363281 380.300781 121.363281 374.472656 C 121.363281 368.644531 116.609375 363.890625 110.78125 363.890625 C 104.957031 363.890625 100.207031 368.644531 100.207031 374.472656 C 100.207031 380.300781 104.957031 385.050781 110.78125 385.050781 " fill-opacity="1" fill-rule="evenodd"/><path fill="#cc4e78" d="M 143.144531 321.027344 C 133.191406 336.933594 115.523438 347.511719 95.386719 347.511719 C 75.246094 347.511719 57.578125 336.933594 47.625 321.027344 C 57.578125 305.125 75.246094 294.542969 95.386719 294.542969 C 115.523438 294.542969 133.191406 305.125 143.144531 321.027344 " fill-opacity="1" fill-rule="evenodd"/><path fill="#ffffff" d="M 328.75 406.300781 C 357.777344 406.300781 381.449219 382.617188 381.449219 353.582031 C 381.449219 324.542969 357.777344 300.863281 328.75 300.863281 C 299.722656 300.863281 276.050781 324.542969 276.050781 353.582031 C 276.050781 382.617188 299.722656 406.300781 328.75 406.300781 " fill-opacity="1" fill-rule="evenodd"/><path fill="#00ccff" d="M 328.75 386.089844 C 344.820312 386.089844 357.933594 372.980469 357.933594 356.902344 C 357.933594 340.824219 344.820312 327.714844 328.75 327.714844 C 312.679688 327.714844 299.570312 340.824219 299.570312 356.902344 C 299.570312 372.980469 312.679688 386.089844 328.75 386.089844 " fill-opacity="1" fill-rule="evenodd"/><path fill="#000000" d="M 328.75 366.417969 C 333.992188 366.417969 338.261719 362.144531 338.261719 356.902344 C 338.261719 351.664062 333.992188 347.386719 328.75 347.386719 C 323.511719 347.386719 319.238281 351.664062 319.238281 356.902344 C 319.238281 362.144531 323.511719 366.417969 328.75 366.417969 " fill-opacity="1" fill-rule="evenodd"/><path stroke-linecap="butt" transform="matrix(0.0792115, 0, 0, -0.0792403, -293.140452, 742.710128)" fill="none" stroke-linejoin="miter" d="M 7851.010435 4748.747808 C 7917.190047 4748.747808 7971.090432 4802.677917 7971.090432 4868.833498 C 7971.090432 4934.939783 7917.190047 4988.919187 7851.010435 4988.919187 C 7784.880138 4988.919187 7730.930439 4934.939783 7730.930439 4868.833498 C 7730.930439 4802.677917 7784.880138 4748.747808 7851.010435 4748.747808 Z M 7851.010435 4748.747808 " stroke="#000000" stroke-width="5.669" stroke-opacity="1" stroke-miterlimit="22.926001"/><path fill="#ffffff" d="M 313.355469 349.917969 C 319.179688 349.917969 323.929688 345.164062 323.929688 339.332031 C 323.929688 333.507812 319.179688 328.753906 313.355469 328.753906 C 307.527344 328.753906 302.777344 333.507812 302.777344 339.332031 C 302.777344 345.164062 307.527344 349.917969 313.355469 349.917969 " fill-opacity="1" fill-rule="evenodd"/><path fill="#ffffff" d="M 344.148438 385.050781 C 349.972656 385.050781 354.726562 380.300781 354.726562 374.472656 C 354.726562 368.644531 349.972656 363.890625 344.148438 363.890625 C 338.324219 363.890625 333.570312 368.644531 333.570312 374.472656 C 333.570312 380.300781 338.324219 385.050781 344.148438 385.050781 " fill-opacity="1" fill-rule="evenodd"/><path fill="#cc4e78" d="M 376.511719 321.027344 C 366.558594 336.933594 348.890625 347.511719 328.75 347.511719 C 308.613281 347.511719 290.945312 336.933594 280.992188 321.027344 C 290.945312 305.125 308.613281 294.542969 328.75 294.542969 C 348.890625 294.542969 366.558594 305.125 376.511719 321.027344 " fill-opacity="1" fill-rule="evenodd"/><g fill="#ff0000" fill-opacity="1"><g transform="translate(25.886137, 211.250836)"><g><path d="M 10.1875 -1.203125 C 10.1875 -0.0234375 9.800781 0.851562 9.03125 1.4375 C 8.257812 2.019531 7.410156 2.3125 6.484375 2.3125 C 5.554688 2.3125 4.722656 2.019531 3.984375 1.4375 C 3.242188 0.851562 2.875 -0.0234375 2.875 -1.203125 C 2.875 -6.015625 3.425781 -10.640625 4.53125 -15.078125 C 5.644531 -19.523438 7.035156 -23.941406 8.703125 -28.328125 C 8.265625 -29.128906 8.140625 -30.023438 8.328125 -31.015625 C 8.703125 -32.304688 9.503906 -33.109375 10.734375 -33.421875 C 11.972656 -36.378906 13.253906 -39.320312 14.578125 -42.25 C 15.910156 -45.1875 17.191406 -48.132812 18.421875 -51.09375 C 19.660156 -54.0625 20.800781 -57.054688 21.84375 -60.078125 C 22.894531 -63.109375 23.757812 -66.195312 24.4375 -69.34375 C 24.625 -70.269531 25.007812 -71.070312 25.59375 -71.75 C 26.175781 -72.425781 26.992188 -72.765625 28.046875 -72.765625 C 29.035156 -72.765625 29.929688 -72.410156 30.734375 -71.703125 C 31.535156 -70.992188 31.875 -70.113281 31.75 -69.0625 C 31.5625 -65.476562 31.625 -62.191406 31.9375 -59.203125 C 32.25 -56.210938 32.710938 -53.25 33.328125 -50.3125 C 33.941406 -47.382812 34.632812 -44.453125 35.40625 -41.515625 C 36.175781 -38.585938 36.898438 -35.671875 37.578125 -32.765625 C 38.265625 -29.992188 38.882812 -27.21875 39.4375 -24.4375 C 39.988281 -21.664062 40.882812 -18.984375 42.125 -16.390625 C 42.738281 -15.085938 43.382812 -13.832031 44.0625 -12.625 C 44.738281 -11.425781 45.476562 -10.210938 46.28125 -8.984375 C 47.03125 -7.867188 47.710938 -6.707031 48.328125 -5.5 C 48.941406 -4.300781 49.375 -2.992188 49.625 -1.578125 C 49.75 -0.585938 49.609375 0.335938 49.203125 1.203125 C 48.804688 2.066406 48.082031 2.65625 47.03125 2.96875 C 46.164062 3.207031 45.238281 3.078125 44.25 2.578125 C 43.257812 2.085938 42.671875 1.351562 42.484375 0.375 C 42.242188 -1.050781 41.769531 -2.316406 41.0625 -3.421875 C 40.351562 -4.535156 39.625 -5.675781 38.875 -6.84375 C 38.007812 -8.207031 37.222656 -9.582031 36.515625 -10.96875 C 35.804688 -12.351562 35.175781 -13.789062 34.625 -15.28125 C 34.007812 -16.820312 33.484375 -18.378906 33.046875 -19.953125 C 32.617188 -21.523438 32.21875 -23.113281 31.84375 -24.71875 C 29.070312 -24.90625 26.34375 -25.039062 23.65625 -25.125 C 20.96875 -25.21875 18.265625 -25.421875 15.546875 -25.734375 C 14.066406 -21.785156 12.816406 -17.773438 11.796875 -13.703125 C 10.785156 -9.628906 10.25 -5.460938 10.1875 -1.203125 Z M 18.890625 -33.96875 C 18.765625 -33.789062 18.6875 -33.59375 18.65625 -33.375 C 18.625 -33.15625 18.546875 -32.953125 18.421875 -32.765625 C 20.398438 -32.585938 22.34375 -32.484375 24.25 -32.453125 C 26.164062 -32.421875 28.113281 -32.34375 30.09375 -32.21875 C 29.40625 -35.175781 28.675781 -38.117188 27.90625 -41.046875 C 27.132812 -43.984375 26.441406 -46.960938 25.828125 -49.984375 C 24.710938 -47.273438 23.566406 -44.609375 22.390625 -41.984375 C 21.222656 -39.359375 20.054688 -36.6875 18.890625 -33.96875 Z M 18.890625 -33.96875 "/></g></g></g><g fill="#ff0000" fill-opacity="1"><g transform="translate(76.980917, 211.250836)"><g><path d="M 13.046875 -1.84375 C 13.046875 -0.675781 12.660156 0.195312 11.890625 0.78125 C 11.117188 1.375 10.269531 1.671875 9.34375 1.671875 C 8.425781 1.671875 7.578125 1.375 6.796875 0.78125 C 6.023438 0.195312 5.640625 -0.675781 5.640625 -1.84375 C 5.640625 -11.71875 5.765625 -21.546875 6.015625 -31.328125 C 6.265625 -41.117188 6.851562 -50.921875 7.78125 -60.734375 C 7.90625 -61.773438 8.289062 -62.601562 8.9375 -63.21875 C 9.582031 -63.84375 10.289062 -64.203125 11.0625 -64.296875 C 11.832031 -64.390625 12.601562 -64.234375 13.375 -63.828125 C 14.144531 -63.429688 14.71875 -62.738281 15.09375 -61.75 C 16.320312 -58.226562 17.460938 -54.691406 18.515625 -51.140625 C 19.566406 -47.597656 20.597656 -44.035156 21.609375 -40.453125 C 22.628906 -36.878906 23.679688 -33.316406 24.765625 -29.765625 C 25.847656 -26.210938 27.035156 -22.707031 28.328125 -19.25 C 31.535156 -27.34375 34.453125 -35.460938 37.078125 -43.609375 C 39.703125 -51.753906 41.816406 -60.113281 43.421875 -68.6875 C 43.609375 -69.613281 44.039062 -70.289062 44.71875 -70.71875 C 45.394531 -71.15625 46.148438 -71.375 46.984375 -71.375 C 47.816406 -71.375 48.570312 -71.15625 49.25 -70.71875 C 49.925781 -70.289062 50.359375 -69.613281 50.546875 -68.6875 C 51.035156 -65.914062 51.203125 -63.1875 51.046875 -60.5 C 50.898438 -57.8125 50.828125 -55.082031 50.828125 -52.3125 C 50.828125 -49.34375 50.992188 -46.4375 51.328125 -43.59375 C 51.671875 -40.757812 51.96875 -37.894531 52.21875 -35 C 52.707031 -29.195312 53.070312 -23.394531 53.3125 -17.59375 C 53.5625 -11.789062 53.78125 -5.988281 53.96875 -0.1875 C 53.96875 1.050781 53.597656 1.960938 52.859375 2.546875 C 52.117188 3.128906 51.285156 3.421875 50.359375 3.421875 C 49.429688 3.421875 48.566406 3.128906 47.765625 2.546875 C 46.960938 1.960938 46.5625 1.050781 46.5625 -0.1875 C 46.4375 -5.988281 46.234375 -11.789062 45.953125 -17.59375 C 45.679688 -23.394531 45.300781 -29.195312 44.8125 -35 C 44.6875 -36.039062 44.578125 -37.117188 44.484375 -38.234375 C 44.390625 -39.347656 44.28125 -40.425781 44.15625 -41.46875 C 42.363281 -35.851562 40.429688 -30.328125 38.359375 -24.890625 C 36.296875 -19.460938 34.15625 -14.035156 31.9375 -8.609375 C 31.625 -7.867188 31.175781 -7.234375 30.59375 -6.703125 C 30.007812 -6.179688 29.285156 -5.921875 28.421875 -5.921875 C 27.804688 -5.921875 27.1875 -6.085938 26.5625 -6.421875 C 25.945312 -6.765625 25.488281 -7.21875 25.1875 -7.78125 C 22.71875 -13.207031 20.617188 -18.726562 18.890625 -24.34375 C 17.160156 -29.957031 15.460938 -35.632812 13.796875 -41.375 C 13.484375 -34.769531 13.28125 -28.179688 13.1875 -21.609375 C 13.09375 -15.035156 13.046875 -8.445312 13.046875 -1.84375 Z M 13.046875 -1.84375 "/></g></g></g><g fill="#ff0000" fill-opacity="1"><g transform="translate(137.05431, 211.250836)"><g><path d="M 1.671875 0 C 0.554688 -0.3125 -0.179688 -0.925781 -0.546875 -1.84375 C -0.921875 -2.769531 -0.984375 -3.664062 -0.734375 -4.53125 C -0.492188 -5.394531 0.0078125 -6.117188 0.78125 -6.703125 C 1.550781 -7.296875 2.492188 -7.4375 3.609375 -7.125 C 6.078125 -6.382812 8.546875 -5.921875 11.015625 -5.734375 C 13.484375 -5.554688 16.015625 -5.523438 18.609375 -5.640625 C 17.554688 -10.023438 17.03125 -14.421875 17.03125 -18.828125 C 17.03125 -23.242188 17.195312 -27.660156 17.53125 -32.078125 C 17.875 -36.492188 18.21875 -40.921875 18.5625 -45.359375 C 18.90625 -49.804688 18.921875 -54.25 18.609375 -58.6875 C 16.265625 -58.75 13.90625 -58.859375 11.53125 -59.015625 C 9.15625 -59.171875 6.789062 -59.398438 4.4375 -59.703125 C 3.394531 -59.828125 2.515625 -60.195312 1.796875 -60.8125 C 1.085938 -61.4375 0.734375 -62.273438 0.734375 -63.328125 C 0.734375 -64.242188 1.085938 -65.117188 1.796875 -65.953125 C 2.515625 -66.785156 3.394531 -67.144531 4.4375 -67.03125 C 7.28125 -66.71875 10.132812 -66.453125 13 -66.234375 C 15.875 -66.015625 18.726562 -65.9375 21.5625 -66 C 24.40625 -66.0625 27.226562 -66.304688 30.03125 -66.734375 C 32.84375 -67.171875 35.640625 -67.882812 38.421875 -68.875 C 39.347656 -69.1875 40.253906 -69.0625 41.140625 -68.5 C 42.035156 -67.945312 42.640625 -67.207031 42.953125 -66.28125 C 43.265625 -65.226562 43.15625 -64.285156 42.625 -63.453125 C 42.101562 -62.617188 41.347656 -62.050781 40.359375 -61.75 C 35.734375 -60.144531 30.921875 -59.1875 25.921875 -58.875 C 26.285156 -54.5 26.28125 -50.085938 25.90625 -45.640625 C 25.539062 -41.191406 25.171875 -36.773438 24.796875 -32.390625 C 24.429688 -28.015625 24.265625 -23.632812 24.296875 -19.25 C 24.328125 -14.875 24.898438 -10.523438 26.015625 -6.203125 C 27.984375 -6.390625 29.925781 -6.570312 31.84375 -6.75 C 33.757812 -6.9375 35.671875 -7.09375 37.578125 -7.21875 C 38.753906 -7.28125 39.632812 -6.957031 40.21875 -6.25 C 40.8125 -5.539062 41.109375 -4.722656 41.109375 -3.796875 C 41.109375 -2.867188 40.8125 -2.003906 40.21875 -1.203125 C 39.632812 -0.398438 38.753906 0.03125 37.578125 0.09375 C 34.554688 0.28125 31.546875 0.539062 28.546875 0.875 C 25.554688 1.21875 22.566406 1.460938 19.578125 1.609375 C 16.585938 1.765625 13.59375 1.75 10.59375 1.5625 C 7.601562 1.382812 4.628906 0.863281 1.671875 0 Z M 1.671875 0 "/></g></g></g><g fill="#ff0000" fill-opacity="1"><g transform="translate(179.170478, 211.250836)"><g><path d="M 14.4375 1.578125 C 12.59375 0.398438 10.925781 -1.050781 9.4375 -2.78125 C 7.957031 -4.507812 6.660156 -6.390625 5.546875 -8.421875 C 4.441406 -10.460938 3.519531 -12.5625 2.78125 -14.71875 C 2.039062 -16.875 1.484375 -19.035156 1.109375 -21.203125 C 0.742188 -23.234375 0.53125 -25.3125 0.46875 -27.4375 C 0.40625 -29.570312 0.679688 -31.660156 1.296875 -33.703125 C 1.785156 -35.304688 2.445312 -36.847656 3.28125 -38.328125 C 4.113281 -39.804688 5.023438 -41.222656 6.015625 -42.578125 C 8.421875 -45.910156 11.101562 -49.054688 14.0625 -52.015625 C 17.03125 -54.984375 20.273438 -57.578125 23.796875 -59.796875 C 25.398438 -60.847656 27.078125 -61.773438 28.828125 -62.578125 C 30.585938 -63.378906 32.378906 -63.960938 34.203125 -64.328125 C 36.023438 -64.703125 37.859375 -64.8125 39.703125 -64.65625 C 41.554688 -64.507812 43.410156 -64.003906 45.265625 -63.140625 C 46.191406 -62.703125 46.78125 -61.957031 47.03125 -60.90625 C 47.28125 -59.863281 47.15625 -58.941406 46.65625 -58.140625 C 46.101562 -57.210938 45.347656 -56.65625 44.390625 -56.46875 C 43.429688 -56.28125 42.488281 -56.40625 41.5625 -56.84375 C 40.519531 -57.332031 39.191406 -57.515625 37.578125 -57.390625 C 36.960938 -57.390625 36.207031 -57.28125 35.3125 -57.0625 C 34.414062 -56.851562 33.535156 -56.5625 32.671875 -56.1875 C 30.890625 -55.507812 29.117188 -54.566406 27.359375 -53.359375 C 25.597656 -52.160156 23.945312 -50.914062 22.40625 -49.625 C 19.6875 -47.28125 17.140625 -44.734375 14.765625 -41.984375 C 12.390625 -39.234375 10.398438 -36.253906 8.796875 -33.046875 C 8.609375 -32.617188 8.421875 -31.972656 8.234375 -31.109375 C 8.054688 -30.242188 7.9375 -29.503906 7.875 -28.890625 C 7.75 -27.097656 7.835938 -25.335938 8.140625 -23.609375 C 8.515625 -21.566406 9.023438 -19.539062 9.671875 -17.53125 C 10.316406 -15.53125 11.164062 -13.632812 12.21875 -11.84375 C 13.207031 -10.175781 14.363281 -8.523438 15.6875 -6.890625 C 17.019531 -5.253906 18.671875 -4.191406 20.640625 -3.703125 C 22.742188 -3.148438 24.90625 -3.273438 27.125 -4.078125 C 27.613281 -4.253906 28.070312 -4.453125 28.5 -4.671875 C 28.9375 -4.890625 29.40625 -5.125 29.90625 -5.375 C 30.082031 -5.488281 30.265625 -5.609375 30.453125 -5.734375 C 30.640625 -5.859375 30.828125 -5.984375 31.015625 -6.109375 C 32.429688 -7.347656 33.691406 -8.644531 34.796875 -10 C 35.910156 -11.351562 36.960938 -12.769531 37.953125 -14.25 C 38.453125 -15.113281 38.960938 -15.992188 39.484375 -16.890625 C 40.003906 -17.785156 40.421875 -18.664062 40.734375 -19.53125 C 41.046875 -20.332031 41.289062 -21.054688 41.46875 -21.703125 C 41.65625 -22.359375 41.75 -23.023438 41.75 -23.703125 C 41.132812 -23.941406 40.515625 -24.0625 39.890625 -24.0625 C 39.273438 -24.0625 38.628906 -24.0625 37.953125 -24.0625 C 36.222656 -24.007812 34.507812 -23.890625 32.8125 -23.703125 C 31.113281 -23.515625 29.375 -23.421875 27.59375 -23.421875 C 26.414062 -23.421875 25.53125 -23.804688 24.9375 -24.578125 C 24.351562 -25.347656 24.0625 -26.195312 24.0625 -27.125 C 24.0625 -28.050781 24.351562 -28.882812 24.9375 -29.625 C 25.53125 -30.363281 26.414062 -30.734375 27.59375 -30.734375 C 29.257812 -30.734375 30.925781 -30.828125 32.59375 -31.015625 C 34.257812 -31.203125 35.921875 -31.320312 37.578125 -31.375 C 39.242188 -31.4375 40.878906 -31.375 42.484375 -31.1875 C 44.097656 -31.007812 45.707031 -30.582031 47.3125 -29.90625 C 48.914062 -29.28125 50.269531 -28.164062 51.375 -26.5625 C 52.050781 -25.519531 52.34375 -24.347656 52.25 -23.046875 C 52.164062 -21.753906 52.125 -20.488281 52.125 -19.25 C 52 -16.601562 51.921875 -13.96875 51.890625 -11.34375 C 51.859375 -8.71875 51.8125 -6.109375 51.75 -3.515625 C 51.75 -2.285156 51.347656 -1.375 50.546875 -0.78125 C 49.742188 -0.195312 48.878906 0.09375 47.953125 0.09375 C 47.023438 0.09375 46.191406 -0.195312 45.453125 -0.78125 C 44.710938 -1.375 44.34375 -2.285156 44.34375 -3.515625 C 44.40625 -4.753906 44.4375 -5.988281 44.4375 -7.21875 C 44.4375 -8.457031 44.46875 -9.691406 44.53125 -10.921875 C 42.738281 -8.085938 40.734375 -5.46875 38.515625 -3.0625 C 37.035156 -1.445312 35.304688 -0.0703125 33.328125 1.0625 C 31.347656 2.207031 29.296875 3.023438 27.171875 3.515625 C 25.046875 4.015625 22.867188 4.140625 20.640625 3.890625 C 18.421875 3.640625 16.351562 2.867188 14.4375 1.578125 Z M 14.4375 1.578125 "/></g></g></g><g fill="#ff0000" fill-opacity="1"><g transform="translate(234.708283, 211.250836)"><g><path d="M 48.421875 -22.859375 C 48.109375 -19.097656 46.992188 -15.75 45.078125 -12.8125 C 43.171875 -9.882812 40.644531 -7.40625 37.5 -5.375 C 35.394531 -4.070312 33.140625 -2.894531 30.734375 -1.84375 C 28.328125 -0.800781 25.921875 0 23.515625 0.5625 C 21.359375 1.050781 19.242188 1.265625 17.171875 1.203125 C 15.109375 1.140625 13.023438 0.984375 10.921875 0.734375 C 10.429688 1.296875 9.828125 1.679688 9.109375 1.890625 C 8.398438 2.109375 7.707031 2.125 7.03125 1.9375 C 5.613281 1.570312 4.75 0.679688 4.4375 -0.734375 C 3.695312 -1.472656 3.328125 -2.367188 3.328125 -3.421875 C 3.328125 -4.785156 3.945312 -5.867188 5.1875 -6.671875 C 5.550781 -9.140625 5.84375 -11.609375 6.0625 -14.078125 C 6.28125 -16.546875 6.453125 -19.039062 6.578125 -21.5625 C 6.753906 -24.53125 6.90625 -27.460938 7.03125 -30.359375 C 7.15625 -33.265625 7.1875 -36.195312 7.125 -39.15625 C 7.125 -41.007812 7.0625 -42.921875 6.9375 -44.890625 C 6.820312 -46.867188 6.765625 -48.828125 6.765625 -50.765625 C 6.765625 -52.710938 6.867188 -54.644531 7.078125 -56.5625 C 7.296875 -58.476562 7.742188 -60.332031 8.421875 -62.125 C 8.117188 -63.101562 8.179688 -64.117188 8.609375 -65.171875 C 9.035156 -66.222656 9.867188 -66.867188 11.109375 -67.109375 C 11.847656 -67.921875 12.726562 -68.296875 13.75 -68.234375 C 14.769531 -68.171875 15.617188 -67.828125 16.296875 -67.203125 C 19.316406 -66.960938 22.257812 -66.394531 25.125 -65.5 C 28 -64.601562 30.640625 -63.164062 33.046875 -61.1875 C 36.015625 -58.84375 38.390625 -56.019531 40.171875 -52.71875 C 41.960938 -49.414062 43.414062 -46.003906 44.53125 -42.484375 C 45.019531 -40.941406 45.523438 -39.367188 46.046875 -37.765625 C 46.578125 -36.160156 47.039062 -34.523438 47.4375 -32.859375 C 47.84375 -31.191406 48.140625 -29.523438 48.328125 -27.859375 C 48.515625 -26.191406 48.546875 -24.523438 48.421875 -22.859375 Z M 32.953125 -11.296875 C 33.753906 -11.785156 34.476562 -12.273438 35.125 -12.765625 C 35.78125 -13.265625 36.445312 -13.851562 37.125 -14.53125 C 37.675781 -15.144531 38.101562 -15.640625 38.40625 -16.015625 C 38.71875 -16.390625 39.09375 -16.945312 39.53125 -17.6875 C 40.582031 -19.84375 41.078125 -22.28125 41.015625 -25 C 41.015625 -26.539062 40.890625 -27.972656 40.640625 -29.296875 C 40.390625 -30.628906 40.019531 -32.128906 39.53125 -33.796875 C 39.03125 -35.515625 38.519531 -37.222656 38 -38.921875 C 37.476562 -40.617188 36.878906 -42.269531 36.203125 -43.875 C 35.703125 -45.238281 35.035156 -46.707031 34.203125 -48.28125 C 33.367188 -49.851562 32.519531 -51.164062 31.65625 -52.21875 C 29.5 -54.800781 27.0625 -56.664062 24.34375 -57.8125 C 21.632812 -58.957031 18.671875 -59.617188 15.453125 -59.796875 C 14.773438 -58.078125 14.359375 -56.273438 14.203125 -54.390625 C 14.054688 -52.503906 14.007812 -50.601562 14.0625 -48.6875 C 14.125 -46.78125 14.234375 -44.867188 14.390625 -42.953125 C 14.546875 -41.035156 14.59375 -39.1875 14.53125 -37.40625 C 14.28125 -32.15625 14.046875 -26.96875 13.828125 -21.84375 C 13.617188 -16.71875 13.175781 -11.566406 12.5 -6.390625 C 13.601562 -6.265625 14.726562 -6.171875 15.875 -6.109375 C 17.019531 -6.046875 18.144531 -6.078125 19.25 -6.203125 C 21.601562 -6.453125 23.96875 -7.050781 26.34375 -8 C 28.71875 -8.957031 30.921875 -10.054688 32.953125 -11.296875 Z M 32.953125 -11.296875 "/></g></g></g><g fill="#ff0000" fill-opacity="1"><g transform="translate(287.469197, 211.250836)"><g><path d="M 10.1875 -1.203125 C 10.1875 -0.0234375 9.800781 0.851562 9.03125 1.4375 C 8.257812 2.019531 7.410156 2.3125 6.484375 2.3125 C 5.554688 2.3125 4.722656 2.019531 3.984375 1.4375 C 3.242188 0.851562 2.875 -0.0234375 2.875 -1.203125 C 2.875 -6.015625 3.425781 -10.640625 4.53125 -15.078125 C 5.644531 -19.523438 7.035156 -23.941406 8.703125 -28.328125 C 8.265625 -29.128906 8.140625 -30.023438 8.328125 -31.015625 C 8.703125 -32.304688 9.503906 -33.109375 10.734375 -33.421875 C 11.972656 -36.378906 13.253906 -39.320312 14.578125 -42.25 C 15.910156 -45.1875 17.191406 -48.132812 18.421875 -51.09375 C 19.660156 -54.0625 20.800781 -57.054688 21.84375 -60.078125 C 22.894531 -63.109375 23.757812 -66.195312 24.4375 -69.34375 C 24.625 -70.269531 25.007812 -71.070312 25.59375 -71.75 C 26.175781 -72.425781 26.992188 -72.765625 28.046875 -72.765625 C 29.035156 -72.765625 29.929688 -72.410156 30.734375 -71.703125 C 31.535156 -70.992188 31.875 -70.113281 31.75 -69.0625 C 31.5625 -65.476562 31.625 -62.191406 31.9375 -59.203125 C 32.25 -56.210938 32.710938 -53.25 33.328125 -50.3125 C 33.941406 -47.382812 34.632812 -44.453125 35.40625 -41.515625 C 36.175781 -38.585938 36.898438 -35.671875 37.578125 -32.765625 C 38.265625 -29.992188 38.882812 -27.21875 39.4375 -24.4375 C 39.988281 -21.664062 40.882812 -18.984375 42.125 -16.390625 C 42.738281 -15.085938 43.382812 -13.832031 44.0625 -12.625 C 44.738281 -11.425781 45.476562 -10.210938 46.28125 -8.984375 C 47.03125 -7.867188 47.710938 -6.707031 48.328125 -5.5 C 48.941406 -4.300781 49.375 -2.992188 49.625 -1.578125 C 49.75 -0.585938 49.609375 0.335938 49.203125 1.203125 C 48.804688 2.066406 48.082031 2.65625 47.03125 2.96875 C 46.164062 3.207031 45.238281 3.078125 44.25 2.578125 C 43.257812 2.085938 42.671875 1.351562 42.484375 0.375 C 42.242188 -1.050781 41.769531 -2.316406 41.0625 -3.421875 C 40.351562 -4.535156 39.625 -5.675781 38.875 -6.84375 C 38.007812 -8.207031 37.222656 -9.582031 36.515625 -10.96875 C 35.804688 -12.351562 35.175781 -13.789062 34.625 -15.28125 C 34.007812 -16.820312 33.484375 -18.378906 33.046875 -19.953125 C 32.617188 -21.523438 32.21875 -23.113281 31.84375 -24.71875 C 29.070312 -24.90625 26.34375 -25.039062 23.65625 -25.125 C 20.96875 -25.21875 18.265625 -25.421875 15.546875 -25.734375 C 14.066406 -21.785156 12.816406 -17.773438 11.796875 -13.703125 C 10.785156 -9.628906 10.25 -5.460938 10.1875 -1.203125 Z M 18.890625 -33.96875 C 18.765625 -33.789062 18.6875 -33.59375 18.65625 -33.375 C 18.625 -33.15625 18.546875 -32.953125 18.421875 -32.765625 C 20.398438 -32.585938 22.34375 -32.484375 24.25 -32.453125 C 26.164062 -32.421875 28.113281 -32.34375 30.09375 -32.21875 C 29.40625 -35.175781 28.675781 -38.117188 27.90625 -41.046875 C 27.132812 -43.984375 26.441406 -46.960938 25.828125 -49.984375 C 24.710938 -47.273438 23.566406 -44.609375 22.390625 -41.984375 C 21.222656 -39.359375 20.054688 -36.6875 18.890625 -33.96875 Z M 18.890625 -33.96875 "/></g></g></g><g fill="#ff0000" fill-opacity="1"><g transform="translate(338.563977, 211.250836)"><g><path d="M 7.875 0.734375 C 6.882812 0.734375 6.09375 0.472656 5.5 -0.046875 C 4.914062 -0.566406 4.53125 -1.179688 4.34375 -1.890625 C 4.164062 -2.609375 4.179688 -3.335938 4.390625 -4.078125 C 4.609375 -4.816406 5.023438 -5.429688 5.640625 -5.921875 C 6.140625 -8.023438 6.265625 -10.140625 6.015625 -12.265625 C 5.765625 -14.390625 5.519531 -16.503906 5.28125 -18.609375 C 4.96875 -21.203125 4.875 -23.75 5 -26.25 C 5.125 -28.75 5.367188 -31.289062 5.734375 -33.875 C 6.109375 -36.46875 6.507812 -39.046875 6.9375 -41.609375 C 7.375 -44.171875 7.742188 -46.75 8.046875 -49.34375 C 8.359375 -52.125 8.625 -54.867188 8.84375 -57.578125 C 9.0625 -60.296875 9.226562 -63.046875 9.34375 -65.828125 C 9.34375 -66.992188 9.742188 -67.882812 10.546875 -68.5 C 11.347656 -69.125 12.210938 -69.4375 13.140625 -69.4375 C 14.066406 -69.4375 14.898438 -69.125 15.640625 -68.5 C 16.378906 -67.882812 16.71875 -66.992188 16.65625 -65.828125 C 16.539062 -62.921875 16.375 -60.046875 16.15625 -57.203125 C 15.9375 -54.367188 15.675781 -51.472656 15.375 -48.515625 C 15.0625 -45.796875 14.671875 -43.140625 14.203125 -40.546875 C 13.742188 -37.953125 13.328125 -35.300781 12.953125 -32.59375 C 12.585938 -30 12.40625 -27.453125 12.40625 -24.953125 C 12.40625 -22.453125 12.5625 -19.90625 12.875 -17.3125 C 13.050781 -15.519531 13.21875 -13.726562 13.375 -11.9375 C 13.53125 -10.144531 13.484375 -8.359375 13.234375 -6.578125 C 17.867188 -6.453125 22.5 -6.21875 27.125 -5.875 C 31.75 -5.539062 36.378906 -5.28125 41.015625 -5.09375 C 42.179688 -5.03125 43.054688 -4.597656 43.640625 -3.796875 C 44.234375 -2.992188 44.53125 -2.128906 44.53125 -1.203125 C 44.53125 -0.273438 44.234375 0.554688 43.640625 1.296875 C 43.054688 2.035156 42.179688 2.375 41.015625 2.3125 C 35.398438 2.0625 29.859375 1.734375 24.390625 1.328125 C 18.929688 0.929688 13.425781 0.734375 7.875 0.734375 Z M 7.875 0.734375 "/></g></g></g><g clip-path="url(#b6b8f88c54)"><g fill="#ff0000" fill-opacity="1"><g transform="translate(379.2917, 211.250836)"><g><path d="M 10.1875 -1.203125 C 10.1875 -0.0234375 9.800781 0.851562 9.03125 1.4375 C 8.257812 2.019531 7.410156 2.3125 6.484375 2.3125 C 5.554688 2.3125 4.722656 2.019531 3.984375 1.4375 C 3.242188 0.851562 2.875 -0.0234375 2.875 -1.203125 C 2.875 -6.015625 3.425781 -10.640625 4.53125 -15.078125 C 5.644531 -19.523438 7.035156 -23.941406 8.703125 -28.328125 C 8.265625 -29.128906 8.140625 -30.023438 8.328125 -31.015625 C 8.703125 -32.304688 9.503906 -33.109375 10.734375 -33.421875 C 11.972656 -36.378906 13.253906 -39.320312 14.578125 -42.25 C 15.910156 -45.1875 17.191406 -48.132812 18.421875 -51.09375 C 19.660156 -54.0625 20.800781 -57.054688 21.84375 -60.078125 C 22.894531 -63.109375 23.757812 -66.195312 24.4375 -69.34375 C 24.625 -70.269531 25.007812 -71.070312 25.59375 -71.75 C 26.175781 -72.425781 26.992188 -72.765625 28.046875 -72.765625 C 29.035156 -72.765625 29.929688 -72.410156 30.734375 -71.703125 C 31.535156 -70.992188 31.875 -70.113281 31.75 -69.0625 C 31.5625 -65.476562 31.625 -62.191406 31.9375 -59.203125 C 32.25 -56.210938 32.710938 -53.25 33.328125 -50.3125 C 33.941406 -47.382812 34.632812 -44.453125 35.40625 -41.515625 C 36.175781 -38.585938 36.898438 -35.671875 37.578125 -32.765625 C 38.265625 -29.992188 38.882812 -27.21875 39.4375 -24.4375 C 39.988281 -21.664062 40.882812 -18.984375 42.125 -16.390625 C 42.738281 -15.085938 43.382812 -13.832031 44.0625 -12.625 C 44.738281 -11.425781 45.476562 -10.210938 46.28125 -8.984375 C 47.03125 -7.867188 47.710938 -6.707031 48.328125 -5.5 C 48.941406 -4.300781 49.375 -2.992188 49.625 -1.578125 C 49.75 -0.585938 49.609375 0.335938 49.203125 1.203125 C 48.804688 2.066406 48.082031 2.65625 47.03125 2.96875 C 46.164062 3.207031 45.238281 3.078125 44.25 2.578125 C 43.257812 2.085938 42.671875 1.351562 42.484375 0.375 C 42.242188 -1.050781 41.769531 -2.316406 41.0625 -3.421875 C 40.351562 -4.535156 39.625 -5.675781 38.875 -6.84375 C 38.007812 -8.207031 37.222656 -9.582031 36.515625 -10.96875 C 35.804688 -12.351562 35.175781 -13.789062 34.625 -15.28125 C 34.007812 -16.820312 33.484375 -18.378906 33.046875 -19.953125 C 32.617188 -21.523438 32.21875 -23.113281 31.84375 -24.71875 C 29.070312 -24.90625 26.34375 -25.039062 23.65625 -25.125 C 20.96875 -25.21875 18.265625 -25.421875 15.546875 -25.734375 C 14.066406 -21.785156 12.816406 -17.773438 11.796875 -13.703125 C 10.785156 -9.628906 10.25 -5.460938 10.1875 -1.203125 Z M 18.890625 -33.96875 C 18.765625 -33.789062 18.6875 -33.59375 18.65625 -33.375 C 18.625 -33.15625 18.546875 -32.953125 18.421875 -32.765625 C 20.398438 -32.585938 22.34375 -32.484375 24.25 -32.453125 C 26.164062 -32.421875 28.113281 -32.34375 30.09375 -32.21875 C 29.40625 -35.175781 28.675781 -38.117188 27.90625 -41.046875 C 27.132812 -43.984375 26.441406 -46.960938 25.828125 -49.984375 C 24.710938 -47.273438 23.566406 -44.609375 22.390625 -41.984375 C 21.222656 -39.359375 20.054688 -36.6875 18.890625 -33.96875 Z M 18.890625 -33.96875 "/></g></g></g></g><g fill="#00ffff" fill-opacity="1"><g transform="translate(32.790261, 208.737947)"><g><path d="M 10.1875 -1.203125 C 10.1875 -0.0234375 9.800781 0.851562 9.03125 1.4375 C 8.257812 2.019531 7.410156 2.3125 6.484375 2.3125 C 5.554688 2.3125 4.722656 2.019531 3.984375 1.4375 C 3.242188 0.851562 2.875 -0.0234375 2.875 -1.203125 C 2.875 -6.015625 3.425781 -10.640625 4.53125 -15.078125 C 5.644531 -19.523438 7.035156 -23.941406 8.703125 -28.328125 C 8.265625 -29.128906 8.140625 -30.023438 8.328125 -31.015625 C 8.703125 -32.304688 9.503906 -33.109375 10.734375 -33.421875 C 11.972656 -36.378906 13.253906 -39.320312 14.578125 -42.25 C 15.910156 -45.1875 17.191406 -48.132812 18.421875 -51.09375 C 19.660156 -54.0625 20.800781 -57.054688 21.84375 -60.078125 C 22.894531 -63.109375 23.757812 -66.195312 24.4375 -69.34375 C 24.625 -70.269531 25.007812 -71.070312 25.59375 -71.75 C 26.175781 -72.425781 26.992188 -72.765625 28.046875 -72.765625 C 29.035156 -72.765625 29.929688 -72.410156 30.734375 -71.703125 C 31.535156 -70.992188 31.875 -70.113281 31.75 -69.0625 C 31.5625 -65.476562 31.625 -62.191406 31.9375 -59.203125 C 32.25 -56.210938 32.710938 -53.25 33.328125 -50.3125 C 33.941406 -47.382812 34.632812 -44.453125 35.40625 -41.515625 C 36.175781 -38.585938 36.898438 -35.671875 37.578125 -32.765625 C 38.265625 -29.992188 38.882812 -27.21875 39.4375 -24.4375 C 39.988281 -21.664062 40.882812 -18.984375 42.125 -16.390625 C 42.738281 -15.085938 43.382812 -13.832031 44.0625 -12.625 C 44.738281 -11.425781 45.476562 -10.210938 46.28125 -8.984375 C 47.03125 -7.867188 47.710938 -6.707031 48.328125 -5.5 C 48.941406 -4.300781 49.375 -2.992188 49.625 -1.578125 C 49.75 -0.585938 49.609375 0.335938 49.203125 1.203125 C 48.804688 2.066406 48.082031 2.65625 47.03125 2.96875 C 46.164062 3.207031 45.238281 3.078125 44.25 2.578125 C 43.257812 2.085938 42.671875 1.351562 42.484375 0.375 C 42.242188 -1.050781 41.769531 -2.316406 41.0625 -3.421875 C 40.351562 -4.535156 39.625 -5.675781 38.875 -6.84375 C 38.007812 -8.207031 37.222656 -9.582031 36.515625 -10.96875 C 35.804688 -12.351562 35.175781 -13.789062 34.625 -15.28125 C 34.007812 -16.820312 33.484375 -18.378906 33.046875 -19.953125 C 32.617188 -21.523438 32.21875 -23.113281 31.84375 -24.71875 C 29.070312 -24.90625 26.34375 -25.039062 23.65625 -25.125 C 20.96875 -25.21875 18.265625 -25.421875 15.546875 -25.734375 C 14.066406 -21.785156 12.816406 -17.773438 11.796875 -13.703125 C 10.785156 -9.628906 10.25 -5.460938 10.1875 -1.203125 Z M 18.890625 -33.96875 C 18.765625 -33.789062 18.6875 -33.59375 18.65625 -33.375 C 18.625 -33.15625 18.546875 -32.953125 18.421875 -32.765625 C 20.398438 -32.585938 22.34375 -32.484375 24.25 -32.453125 C 26.164062 -32.421875 28.113281 -32.34375 30.09375 -32.21875 C 29.40625 -35.175781 28.675781 -38.117188 27.90625 -41.046875 C 27.132812 -43.984375 26.441406 -46.960938 25.828125 -49.984375 C 24.710938 -47.273438 23.566406 -44.609375 22.390625 -41.984375 C 21.222656 -39.359375 20.054688 -36.6875 18.890625 -33.96875 Z M 18.890625 -33.96875 "/></g></g></g><g fill="#00ffff" fill-opacity="1"><g transform="translate(83.885041, 208.737947)"><g><path d="M 13.046875 -1.84375 C 13.046875 -0.675781 12.660156 0.195312 11.890625 0.78125 C 11.117188 1.375 10.269531 1.671875 9.34375 1.671875 C 8.425781 1.671875 7.578125 1.375 6.796875 0.78125 C 6.023438 0.195312 5.640625 -0.675781 5.640625 -1.84375 C 5.640625 -11.71875 5.765625 -21.546875 6.015625 -31.328125 C 6.265625 -41.117188 6.851562 -50.921875 7.78125 -60.734375 C 7.90625 -61.773438 8.289062 -62.601562 8.9375 -63.21875 C 9.582031 -63.84375 10.289062 -64.203125 11.0625 -64.296875 C 11.832031 -64.390625 12.601562 -64.234375 13.375 -63.828125 C 14.144531 -63.429688 14.71875 -62.738281 15.09375 -61.75 C 16.320312 -58.226562 17.460938 -54.691406 18.515625 -51.140625 C 19.566406 -47.597656 20.597656 -44.035156 21.609375 -40.453125 C 22.628906 -36.878906 23.679688 -33.316406 24.765625 -29.765625 C 25.847656 -26.210938 27.035156 -22.707031 28.328125 -19.25 C 31.535156 -27.34375 34.453125 -35.460938 37.078125 -43.609375 C 39.703125 -51.753906 41.816406 -60.113281 43.421875 -68.6875 C 43.609375 -69.613281 44.039062 -70.289062 44.71875 -70.71875 C 45.394531 -71.15625 46.148438 -71.375 46.984375 -71.375 C 47.816406 -71.375 48.570312 -71.15625 49.25 -70.71875 C 49.925781 -70.289062 50.359375 -69.613281 50.546875 -68.6875 C 51.035156 -65.914062 51.203125 -63.1875 51.046875 -60.5 C 50.898438 -57.8125 50.828125 -55.082031 50.828125 -52.3125 C 50.828125 -49.34375 50.992188 -46.4375 51.328125 -43.59375 C 51.671875 -40.757812 51.96875 -37.894531 52.21875 -35 C 52.707031 -29.195312 53.070312 -23.394531 53.3125 -17.59375 C 53.5625 -11.789062 53.78125 -5.988281 53.96875 -0.1875 C 53.96875 1.050781 53.597656 1.960938 52.859375 2.546875 C 52.117188 3.128906 51.285156 3.421875 50.359375 3.421875 C 49.429688 3.421875 48.566406 3.128906 47.765625 2.546875 C 46.960938 1.960938 46.5625 1.050781 46.5625 -0.1875 C 46.4375 -5.988281 46.234375 -11.789062 45.953125 -17.59375 C 45.679688 -23.394531 45.300781 -29.195312 44.8125 -35 C 44.6875 -36.039062 44.578125 -37.117188 44.484375 -38.234375 C 44.390625 -39.347656 44.28125 -40.425781 44.15625 -41.46875 C 42.363281 -35.851562 40.429688 -30.328125 38.359375 -24.890625 C 36.296875 -19.460938 34.15625 -14.035156 31.9375 -8.609375 C 31.625 -7.867188 31.175781 -7.234375 30.59375 -6.703125 C 30.007812 -6.179688 29.285156 -5.921875 28.421875 -5.921875 C 27.804688 -5.921875 27.1875 -6.085938 26.5625 -6.421875 C 25.945312 -6.765625 25.488281 -7.21875 25.1875 -7.78125 C 22.71875 -13.207031 20.617188 -18.726562 18.890625 -24.34375 C 17.160156 -29.957031 15.460938 -35.632812 13.796875 -41.375 C 13.484375 -34.769531 13.28125 -28.179688 13.1875 -21.609375 C 13.09375 -15.035156 13.046875 -8.445312 13.046875 -1.84375 Z M 13.046875 -1.84375 "/></g></g></g><g fill="#00ffff" fill-opacity="1"><g transform="translate(143.958434, 208.737947)"><g><path d="M 1.671875 0 C 0.554688 -0.3125 -0.179688 -0.925781 -0.546875 -1.84375 C -0.921875 -2.769531 -0.984375 -3.664062 -0.734375 -4.53125 C -0.492188 -5.394531 0.0078125 -6.117188 0.78125 -6.703125 C 1.550781 -7.296875 2.492188 -7.4375 3.609375 -7.125 C 6.078125 -6.382812 8.546875 -5.921875 11.015625 -5.734375 C 13.484375 -5.554688 16.015625 -5.523438 18.609375 -5.640625 C 17.554688 -10.023438 17.03125 -14.421875 17.03125 -18.828125 C 17.03125 -23.242188 17.195312 -27.660156 17.53125 -32.078125 C 17.875 -36.492188 18.21875 -40.921875 18.5625 -45.359375 C 18.90625 -49.804688 18.921875 -54.25 18.609375 -58.6875 C 16.265625 -58.75 13.90625 -58.859375 11.53125 -59.015625 C 9.15625 -59.171875 6.789062 -59.398438 4.4375 -59.703125 C 3.394531 -59.828125 2.515625 -60.195312 1.796875 -60.8125 C 1.085938 -61.4375 0.734375 -62.273438 0.734375 -63.328125 C 0.734375 -64.242188 1.085938 -65.117188 1.796875 -65.953125 C 2.515625 -66.785156 3.394531 -67.144531 4.4375 -67.03125 C 7.28125 -66.71875 10.132812 -66.453125 13 -66.234375 C 15.875 -66.015625 18.726562 -65.9375 21.5625 -66 C 24.40625 -66.0625 27.226562 -66.304688 30.03125 -66.734375 C 32.84375 -67.171875 35.640625 -67.882812 38.421875 -68.875 C 39.347656 -69.1875 40.253906 -69.0625 41.140625 -68.5 C 42.035156 -67.945312 42.640625 -67.207031 42.953125 -66.28125 C 43.265625 -65.226562 43.15625 -64.285156 42.625 -63.453125 C 42.101562 -62.617188 41.347656 -62.050781 40.359375 -61.75 C 35.734375 -60.144531 30.921875 -59.1875 25.921875 -58.875 C 26.285156 -54.5 26.28125 -50.085938 25.90625 -45.640625 C 25.539062 -41.191406 25.171875 -36.773438 24.796875 -32.390625 C 24.429688 -28.015625 24.265625 -23.632812 24.296875 -19.25 C 24.328125 -14.875 24.898438 -10.523438 26.015625 -6.203125 C 27.984375 -6.390625 29.925781 -6.570312 31.84375 -6.75 C 33.757812 -6.9375 35.671875 -7.09375 37.578125 -7.21875 C 38.753906 -7.28125 39.632812 -6.957031 40.21875 -6.25 C 40.8125 -5.539062 41.109375 -4.722656 41.109375 -3.796875 C 41.109375 -2.867188 40.8125 -2.003906 40.21875 -1.203125 C 39.632812 -0.398438 38.753906 0.03125 37.578125 0.09375 C 34.554688 0.28125 31.546875 0.539062 28.546875 0.875 C 25.554688 1.21875 22.566406 1.460938 19.578125 1.609375 C 16.585938 1.765625 13.59375 1.75 10.59375 1.5625 C 7.601562 1.382812 4.628906 0.863281 1.671875 0 Z M 1.671875 0 "/></g></g></g><g fill="#00ffff" fill-opacity="1"><g transform="translate(186.074602, 208.737947)"><g><path d="M 14.4375 1.578125 C 12.59375 0.398438 10.925781 -1.050781 9.4375 -2.78125 C 7.957031 -4.507812 6.660156 -6.390625 5.546875 -8.421875 C 4.441406 -10.460938 3.519531 -12.5625 2.78125 -14.71875 C 2.039062 -16.875 1.484375 -19.035156 1.109375 -21.203125 C 0.742188 -23.234375 0.53125 -25.3125 0.46875 -27.4375 C 0.40625 -29.570312 0.679688 -31.660156 1.296875 -33.703125 C 1.785156 -35.304688 2.445312 -36.847656 3.28125 -38.328125 C 4.113281 -39.804688 5.023438 -41.222656 6.015625 -42.578125 C 8.421875 -45.910156 11.101562 -49.054688 14.0625 -52.015625 C 17.03125 -54.984375 20.273438 -57.578125 23.796875 -59.796875 C 25.398438 -60.847656 27.078125 -61.773438 28.828125 -62.578125 C 30.585938 -63.378906 32.378906 -63.960938 34.203125 -64.328125 C 36.023438 -64.703125 37.859375 -64.8125 39.703125 -64.65625 C 41.554688 -64.507812 43.410156 -64.003906 45.265625 -63.140625 C 46.191406 -62.703125 46.78125 -61.957031 47.03125 -60.90625 C 47.28125 -59.863281 47.15625 -58.941406 46.65625 -58.140625 C 46.101562 -57.210938 45.347656 -56.65625 44.390625 -56.46875 C 43.429688 -56.28125 42.488281 -56.40625 41.5625 -56.84375 C 40.519531 -57.332031 39.191406 -57.515625 37.578125 -57.390625 C 36.960938 -57.390625 36.207031 -57.28125 35.3125 -57.0625 C 34.414062 -56.851562 33.535156 -56.5625 32.671875 -56.1875 C 30.890625 -55.507812 29.117188 -54.566406 27.359375 -53.359375 C 25.597656 -52.160156 23.945312 -50.914062 22.40625 -49.625 C 19.6875 -47.28125 17.140625 -44.734375 14.765625 -41.984375 C 12.390625 -39.234375 10.398438 -36.253906 8.796875 -33.046875 C 8.609375 -32.617188 8.421875 -31.972656 8.234375 -31.109375 C 8.054688 -30.242188 7.9375 -29.503906 7.875 -28.890625 C 7.75 -27.097656 7.835938 -25.335938 8.140625 -23.609375 C 8.515625 -21.566406 9.023438 -19.539062 9.671875 -17.53125 C 10.316406 -15.53125 11.164062 -13.632812 12.21875 -11.84375 C 13.207031 -10.175781 14.363281 -8.523438 15.6875 -6.890625 C 17.019531 -5.253906 18.671875 -4.191406 20.640625 -3.703125 C 22.742188 -3.148438 24.90625 -3.273438 27.125 -4.078125 C 27.613281 -4.253906 28.070312 -4.453125 28.5 -4.671875 C 28.9375 -4.890625 29.40625 -5.125 29.90625 -5.375 C 30.082031 -5.488281 30.265625 -5.609375 30.453125 -5.734375 C 30.640625 -5.859375 30.828125 -5.984375 31.015625 -6.109375 C 32.429688 -7.347656 33.691406 -8.644531 34.796875 -10 C 35.910156 -11.351562 36.960938 -12.769531 37.953125 -14.25 C 38.453125 -15.113281 38.960938 -15.992188 39.484375 -16.890625 C 40.003906 -17.785156 40.421875 -18.664062 40.734375 -19.53125 C 41.046875 -20.332031 41.289062 -21.054688 41.46875 -21.703125 C 41.65625 -22.359375 41.75 -23.023438 41.75 -23.703125 C 41.132812 -23.941406 40.515625 -24.0625 39.890625 -24.0625 C 39.273438 -24.0625 38.628906 -24.0625 37.953125 -24.0625 C 36.222656 -24.007812 34.507812 -23.890625 32.8125 -23.703125 C 31.113281 -23.515625 29.375 -23.421875 27.59375 -23.421875 C 26.414062 -23.421875 25.53125 -23.804688 24.9375 -24.578125 C 24.351562 -25.347656 24.0625 -26.195312 24.0625 -27.125 C 24.0625 -28.050781 24.351562 -28.882812 24.9375 -29.625 C 25.53125 -30.363281 26.414062 -30.734375 27.59375 -30.734375 C 29.257812 -30.734375 30.925781 -30.828125 32.59375 -31.015625 C 34.257812 -31.203125 35.921875 -31.320312 37.578125 -31.375 C 39.242188 -31.4375 40.878906 -31.375 42.484375 -31.1875 C 44.097656 -31.007812 45.707031 -30.582031 47.3125 -29.90625 C 48.914062 -29.28125 50.269531 -28.164062 51.375 -26.5625 C 52.050781 -25.519531 52.34375 -24.347656 52.25 -23.046875 C 52.164062 -21.753906 52.125 -20.488281 52.125 -19.25 C 52 -16.601562 51.921875 -13.96875 51.890625 -11.34375 C 51.859375 -8.71875 51.8125 -6.109375 51.75 -3.515625 C 51.75 -2.285156 51.347656 -1.375 50.546875 -0.78125 C 49.742188 -0.195312 48.878906 0.09375 47.953125 0.09375 C 47.023438 0.09375 46.191406 -0.195312 45.453125 -0.78125 C 44.710938 -1.375 44.34375 -2.285156 44.34375 -3.515625 C 44.40625 -4.753906 44.4375 -5.988281 44.4375 -7.21875 C 44.4375 -8.457031 44.46875 -9.691406 44.53125 -10.921875 C 42.738281 -8.085938 40.734375 -5.46875 38.515625 -3.0625 C 37.035156 -1.445312 35.304688 -0.0703125 33.328125 1.0625 C 31.347656 2.207031 29.296875 3.023438 27.171875 3.515625 C 25.046875 4.015625 22.867188 4.140625 20.640625 3.890625 C 18.421875 3.640625 16.351562 2.867188 14.4375 1.578125 Z M 14.4375 1.578125 "/></g></g></g><g fill="#00ffff" fill-opacity="1"><g transform="translate(241.612407, 208.737947)"><g><path d="M 48.421875 -22.859375 C 48.109375 -19.097656 46.992188 -15.75 45.078125 -12.8125 C 43.171875 -9.882812 40.644531 -7.40625 37.5 -5.375 C 35.394531 -4.070312 33.140625 -2.894531 30.734375 -1.84375 C 28.328125 -0.800781 25.921875 0 23.515625 0.5625 C 21.359375 1.050781 19.242188 1.265625 17.171875 1.203125 C 15.109375 1.140625 13.023438 0.984375 10.921875 0.734375 C 10.429688 1.296875 9.828125 1.679688 9.109375 1.890625 C 8.398438 2.109375 7.707031 2.125 7.03125 1.9375 C 5.613281 1.570312 4.75 0.679688 4.4375 -0.734375 C 3.695312 -1.472656 3.328125 -2.367188 3.328125 -3.421875 C 3.328125 -4.785156 3.945312 -5.867188 5.1875 -6.671875 C 5.550781 -9.140625 5.84375 -11.609375 6.0625 -14.078125 C 6.28125 -16.546875 6.453125 -19.039062 6.578125 -21.5625 C 6.753906 -24.53125 6.90625 -27.460938 7.03125 -30.359375 C 7.15625 -33.265625 7.1875 -36.195312 7.125 -39.15625 C 7.125 -41.007812 7.0625 -42.921875 6.9375 -44.890625 C 6.820312 -46.867188 6.765625 -48.828125 6.765625 -50.765625 C 6.765625 -52.710938 6.867188 -54.644531 7.078125 -56.5625 C 7.296875 -58.476562 7.742188 -60.332031 8.421875 -62.125 C 8.117188 -63.101562 8.179688 -64.117188 8.609375 -65.171875 C 9.035156 -66.222656 9.867188 -66.867188 11.109375 -67.109375 C 11.847656 -67.921875 12.726562 -68.296875 13.75 -68.234375 C 14.769531 -68.171875 15.617188 -67.828125 16.296875 -67.203125 C 19.316406 -66.960938 22.257812 -66.394531 25.125 -65.5 C 28 -64.601562 30.640625 -63.164062 33.046875 -61.1875 C 36.015625 -58.84375 38.390625 -56.019531 40.171875 -52.71875 C 41.960938 -49.414062 43.414062 -46.003906 44.53125 -42.484375 C 45.019531 -40.941406 45.523438 -39.367188 46.046875 -37.765625 C 46.578125 -36.160156 47.039062 -34.523438 47.4375 -32.859375 C 47.84375 -31.191406 48.140625 -29.523438 48.328125 -27.859375 C 48.515625 -26.191406 48.546875 -24.523438 48.421875 -22.859375 Z M 32.953125 -11.296875 C 33.753906 -11.785156 34.476562 -12.273438 35.125 -12.765625 C 35.78125 -13.265625 36.445312 -13.851562 37.125 -14.53125 C 37.675781 -15.144531 38.101562 -15.640625 38.40625 -16.015625 C 38.71875 -16.390625 39.09375 -16.945312 39.53125 -17.6875 C 40.582031 -19.84375 41.078125 -22.28125 41.015625 -25 C 41.015625 -26.539062 40.890625 -27.972656 40.640625 -29.296875 C 40.390625 -30.628906 40.019531 -32.128906 39.53125 -33.796875 C 39.03125 -35.515625 38.519531 -37.222656 38 -38.921875 C 37.476562 -40.617188 36.878906 -42.269531 36.203125 -43.875 C 35.703125 -45.238281 35.035156 -46.707031 34.203125 -48.28125 C 33.367188 -49.851562 32.519531 -51.164062 31.65625 -52.21875 C 29.5 -54.800781 27.0625 -56.664062 24.34375 -57.8125 C 21.632812 -58.957031 18.671875 -59.617188 15.453125 -59.796875 C 14.773438 -58.078125 14.359375 -56.273438 14.203125 -54.390625 C 14.054688 -52.503906 14.007812 -50.601562 14.0625 -48.6875 C 14.125 -46.78125 14.234375 -44.867188 14.390625 -42.953125 C 14.546875 -41.035156 14.59375 -39.1875 14.53125 -37.40625 C 14.28125 -32.15625 14.046875 -26.96875 13.828125 -21.84375 C 13.617188 -16.71875 13.175781 -11.566406 12.5 -6.390625 C 13.601562 -6.265625 14.726562 -6.171875 15.875 -6.109375 C 17.019531 -6.046875 18.144531 -6.078125 19.25 -6.203125 C 21.601562 -6.453125 23.96875 -7.050781 26.34375 -8 C 28.71875 -8.957031 30.921875 -10.054688 32.953125 -11.296875 Z M 32.953125 -11.296875 "/></g></g></g><g fill="#00ffff" fill-opacity="1"><g transform="translate(294.373321, 208.737947)"><g><path d="M 10.1875 -1.203125 C 10.1875 -0.0234375 9.800781 0.851562 9.03125 1.4375 C 8.257812 2.019531 7.410156 2.3125 6.484375 2.3125 C 5.554688 2.3125 4.722656 2.019531 3.984375 1.4375 C 3.242188 0.851562 2.875 -0.0234375 2.875 -1.203125 C 2.875 -6.015625 3.425781 -10.640625 4.53125 -15.078125 C 5.644531 -19.523438 7.035156 -23.941406 8.703125 -28.328125 C 8.265625 -29.128906 8.140625 -30.023438 8.328125 -31.015625 C 8.703125 -32.304688 9.503906 -33.109375 10.734375 -33.421875 C 11.972656 -36.378906 13.253906 -39.320312 14.578125 -42.25 C 15.910156 -45.1875 17.191406 -48.132812 18.421875 -51.09375 C 19.660156 -54.0625 20.800781 -57.054688 21.84375 -60.078125 C 22.894531 -63.109375 23.757812 -66.195312 24.4375 -69.34375 C 24.625 -70.269531 25.007812 -71.070312 25.59375 -71.75 C 26.175781 -72.425781 26.992188 -72.765625 28.046875 -72.765625 C 29.035156 -72.765625 29.929688 -72.410156 30.734375 -71.703125 C 31.535156 -70.992188 31.875 -70.113281 31.75 -69.0625 C 31.5625 -65.476562 31.625 -62.191406 31.9375 -59.203125 C 32.25 -56.210938 32.710938 -53.25 33.328125 -50.3125 C 33.941406 -47.382812 34.632812 -44.453125 35.40625 -41.515625 C 36.175781 -38.585938 36.898438 -35.671875 37.578125 -32.765625 C 38.265625 -29.992188 38.882812 -27.21875 39.4375 -24.4375 C 39.988281 -21.664062 40.882812 -18.984375 42.125 -16.390625 C 42.738281 -15.085938 43.382812 -13.832031 44.0625 -12.625 C 44.738281 -11.425781 45.476562 -10.210938 46.28125 -8.984375 C 47.03125 -7.867188 47.710938 -6.707031 48.328125 -5.5 C 48.941406 -4.300781 49.375 -2.992188 49.625 -1.578125 C 49.75 -0.585938 49.609375 0.335938 49.203125 1.203125 C 48.804688 2.066406 48.082031 2.65625 47.03125 2.96875 C 46.164062 3.207031 45.238281 3.078125 44.25 2.578125 C 43.257812 2.085938 42.671875 1.351562 42.484375 0.375 C 42.242188 -1.050781 41.769531 -2.316406 41.0625 -3.421875 C 40.351562 -4.535156 39.625 -5.675781 38.875 -6.84375 C 38.007812 -8.207031 37.222656 -9.582031 36.515625 -10.96875 C 35.804688 -12.351562 35.175781 -13.789062 34.625 -15.28125 C 34.007812 -16.820312 33.484375 -18.378906 33.046875 -19.953125 C 32.617188 -21.523438 32.21875 -23.113281 31.84375 -24.71875 C 29.070312 -24.90625 26.34375 -25.039062 23.65625 -25.125 C 20.96875 -25.21875 18.265625 -25.421875 15.546875 -25.734375 C 14.066406 -21.785156 12.816406 -17.773438 11.796875 -13.703125 C 10.785156 -9.628906 10.25 -5.460938 10.1875 -1.203125 Z M 18.890625 -33.96875 C 18.765625 -33.789062 18.6875 -33.59375 18.65625 -33.375 C 18.625 -33.15625 18.546875 -32.953125 18.421875 -32.765625 C 20.398438 -32.585938 22.34375 -32.484375 24.25 -32.453125 C 26.164062 -32.421875 28.113281 -32.34375 30.09375 -32.21875 C 29.40625 -35.175781 28.675781 -38.117188 27.90625 -41.046875 C 27.132812 -43.984375 26.441406 -46.960938 25.828125 -49.984375 C 24.710938 -47.273438 23.566406 -44.609375 22.390625 -41.984375 C 21.222656 -39.359375 20.054688 -36.6875 18.890625 -33.96875 Z M 18.890625 -33.96875 "/></g></g></g><g fill="#00ffff" fill-opacity="1"><g transform="translate(345.468101, 208.737947)"><g><path d="M 7.875 0.734375 C 6.882812 0.734375 6.09375 0.472656 5.5 -0.046875 C 4.914062 -0.566406 4.53125 -1.179688 4.34375 -1.890625 C 4.164062 -2.609375 4.179688 -3.335938 4.390625 -4.078125 C 4.609375 -4.816406 5.023438 -5.429688 5.640625 -5.921875 C 6.140625 -8.023438 6.265625 -10.140625 6.015625 -12.265625 C 5.765625 -14.390625 5.519531 -16.503906 5.28125 -18.609375 C 4.96875 -21.203125 4.875 -23.75 5 -26.25 C 5.125 -28.75 5.367188 -31.289062 5.734375 -33.875 C 6.109375 -36.46875 6.507812 -39.046875 6.9375 -41.609375 C 7.375 -44.171875 7.742188 -46.75 8.046875 -49.34375 C 8.359375 -52.125 8.625 -54.867188 8.84375 -57.578125 C 9.0625 -60.296875 9.226562 -63.046875 9.34375 -65.828125 C 9.34375 -66.992188 9.742188 -67.882812 10.546875 -68.5 C 11.347656 -69.125 12.210938 -69.4375 13.140625 -69.4375 C 14.066406 -69.4375 14.898438 -69.125 15.640625 -68.5 C 16.378906 -67.882812 16.71875 -66.992188 16.65625 -65.828125 C 16.539062 -62.921875 16.375 -60.046875 16.15625 -57.203125 C 15.9375 -54.367188 15.675781 -51.472656 15.375 -48.515625 C 15.0625 -45.796875 14.671875 -43.140625 14.203125 -40.546875 C 13.742188 -37.953125 13.328125 -35.300781 12.953125 -32.59375 C 12.585938 -30 12.40625 -27.453125 12.40625 -24.953125 C 12.40625 -22.453125 12.5625 -19.90625 12.875 -17.3125 C 13.050781 -15.519531 13.21875 -13.726562 13.375 -11.9375 C 13.53125 -10.144531 13.484375 -8.359375 13.234375 -6.578125 C 17.867188 -6.453125 22.5 -6.21875 27.125 -5.875 C 31.75 -5.539062 36.378906 -5.28125 41.015625 -5.09375 C 42.179688 -5.03125 43.054688 -4.597656 43.640625 -3.796875 C 44.234375 -2.992188 44.53125 -2.128906 44.53125 -1.203125 C 44.53125 -0.273438 44.234375 0.554688 43.640625 1.296875 C 43.054688 2.035156 42.179688 2.375 41.015625 2.3125 C 35.398438 2.0625 29.859375 1.734375 24.390625 1.328125 C 18.929688 0.929688 13.425781 0.734375 7.875 0.734375 Z M 7.875 0.734375 "/></g></g></g><g clip-path="url(#2ed93cd2f4)"><g fill="#00ffff" fill-opacity="1"><g transform="translate(386.195824, 208.737947)"><g><path d="M 10.1875 -1.203125 C 10.1875 -0.0234375 9.800781 0.851562 9.03125 1.4375 C 8.257812 2.019531 7.410156 2.3125 6.484375 2.3125 C 5.554688 2.3125 4.722656 2.019531 3.984375 1.4375 C 3.242188 0.851562 2.875 -0.0234375 2.875 -1.203125 C 2.875 -6.015625 3.425781 -10.640625 4.53125 -15.078125 C 5.644531 -19.523438 7.035156 -23.941406 8.703125 -28.328125 C 8.265625 -29.128906 8.140625 -30.023438 8.328125 -31.015625 C 8.703125 -32.304688 9.503906 -33.109375 10.734375 -33.421875 C 11.972656 -36.378906 13.253906 -39.320312 14.578125 -42.25 C 15.910156 -45.1875 17.191406 -48.132812 18.421875 -51.09375 C 19.660156 -54.0625 20.800781 -57.054688 21.84375 -60.078125 C 22.894531 -63.109375 23.757812 -66.195312 24.4375 -69.34375 C 24.625 -70.269531 25.007812 -71.070312 25.59375 -71.75 C 26.175781 -72.425781 26.992188 -72.765625 28.046875 -72.765625 C 29.035156 -72.765625 29.929688 -72.410156 30.734375 -71.703125 C 31.535156 -70.992188 31.875 -70.113281 31.75 -69.0625 C 31.5625 -65.476562 31.625 -62.191406 31.9375 -59.203125 C 32.25 -56.210938 32.710938 -53.25 33.328125 -50.3125 C 33.941406 -47.382812 34.632812 -44.453125 35.40625 -41.515625 C 36.175781 -38.585938 36.898438 -35.671875 37.578125 -32.765625 C 38.265625 -29.992188 38.882812 -27.21875 39.4375 -24.4375 C 39.988281 -21.664062 40.882812 -18.984375 42.125 -16.390625 C 42.738281 -15.085938 43.382812 -13.832031 44.0625 -12.625 C 44.738281 -11.425781 45.476562 -10.210938 46.28125 -8.984375 C 47.03125 -7.867188 47.710938 -6.707031 48.328125 -5.5 C 48.941406 -4.300781 49.375 -2.992188 49.625 -1.578125 C 49.75 -0.585938 49.609375 0.335938 49.203125 1.203125 C 48.804688 2.066406 48.082031 2.65625 47.03125 2.96875 C 46.164062 3.207031 45.238281 3.078125 44.25 2.578125 C 43.257812 2.085938 42.671875 1.351562 42.484375 0.375 C 42.242188 -1.050781 41.769531 -2.316406 41.0625 -3.421875 C 40.351562 -4.535156 39.625 -5.675781 38.875 -6.84375 C 38.007812 -8.207031 37.222656 -9.582031 36.515625 -10.96875 C 35.804688 -12.351562 35.175781 -13.789062 34.625 -15.28125 C 34.007812 -16.820312 33.484375 -18.378906 33.046875 -19.953125 C 32.617188 -21.523438 32.21875 -23.113281 31.84375 -24.71875 C 29.070312 -24.90625 26.34375 -25.039062 23.65625 -25.125 C 20.96875 -25.21875 18.265625 -25.421875 15.546875 -25.734375 C 14.066406 -21.785156 12.816406 -17.773438 11.796875 -13.703125 C 10.785156 -9.628906 10.25 -5.460938 10.1875 -1.203125 Z M 18.890625 -33.96875 C 18.765625 -33.789062 18.6875 -33.59375 18.65625 -33.375 C 18.625 -33.15625 18.546875 -32.953125 18.421875 -32.765625 C 20.398438 -32.585938 22.34375 -32.484375 24.25 -32.453125 C 26.164062 -32.421875 28.113281 -32.34375 30.09375 -32.21875 C 29.40625 -35.175781 28.675781 -38.117188 27.90625 -41.046875 C 27.132812 -43.984375 26.441406 -46.960938 25.828125 -49.984375 C 24.710938 -47.273438 23.566406 -44.609375 22.390625 -41.984375 C 21.222656 -39.359375 20.054688 -36.6875 18.890625 -33.96875 Z M 18.890625 -33.96875 "/></g></g></g></g><g fill="#d89500" fill-opacity="1"><g transform="translate(29.338199, 209.994391)"><g><path d="M 10.1875 -1.203125 C 10.1875 -0.0234375 9.800781 0.851562 9.03125 1.4375 C 8.257812 2.019531 7.410156 2.3125 6.484375 2.3125 C 5.554688 2.3125 4.722656 2.019531 3.984375 1.4375 C 3.242188 0.851562 2.875 -0.0234375 2.875 -1.203125 C 2.875 -6.015625 3.425781 -10.640625 4.53125 -15.078125 C 5.644531 -19.523438 7.035156 -23.941406 8.703125 -28.328125 C 8.265625 -29.128906 8.140625 -30.023438 8.328125 -31.015625 C 8.703125 -32.304688 9.503906 -33.109375 10.734375 -33.421875 C 11.972656 -36.378906 13.253906 -39.320312 14.578125 -42.25 C 15.910156 -45.1875 17.191406 -48.132812 18.421875 -51.09375 C 19.660156 -54.0625 20.800781 -57.054688 21.84375 -60.078125 C 22.894531 -63.109375 23.757812 -66.195312 24.4375 -69.34375 C 24.625 -70.269531 25.007812 -71.070312 25.59375 -71.75 C 26.175781 -72.425781 26.992188 -72.765625 28.046875 -72.765625 C 29.035156 -72.765625 29.929688 -72.410156 30.734375 -71.703125 C 31.535156 -70.992188 31.875 -70.113281 31.75 -69.0625 C 31.5625 -65.476562 31.625 -62.191406 31.9375 -59.203125 C 32.25 -56.210938 32.710938 -53.25 33.328125 -50.3125 C 33.941406 -47.382812 34.632812 -44.453125 35.40625 -41.515625 C 36.175781 -38.585938 36.898438 -35.671875 37.578125 -32.765625 C 38.265625 -29.992188 38.882812 -27.21875 39.4375 -24.4375 C 39.988281 -21.664062 40.882812 -18.984375 42.125 -16.390625 C 42.738281 -15.085938 43.382812 -13.832031 44.0625 -12.625 C 44.738281 -11.425781 45.476562 -10.210938 46.28125 -8.984375 C 47.03125 -7.867188 47.710938 -6.707031 48.328125 -5.5 C 48.941406 -4.300781 49.375 -2.992188 49.625 -1.578125 C 49.75 -0.585938 49.609375 0.335938 49.203125 1.203125 C 48.804688 2.066406 48.082031 2.65625 47.03125 2.96875 C 46.164062 3.207031 45.238281 3.078125 44.25 2.578125 C 43.257812 2.085938 42.671875 1.351562 42.484375 0.375 C 42.242188 -1.050781 41.769531 -2.316406 41.0625 -3.421875 C 40.351562 -4.535156 39.625 -5.675781 38.875 -6.84375 C 38.007812 -8.207031 37.222656 -9.582031 36.515625 -10.96875 C 35.804688 -12.351562 35.175781 -13.789062 34.625 -15.28125 C 34.007812 -16.820312 33.484375 -18.378906 33.046875 -19.953125 C 32.617188 -21.523438 32.21875 -23.113281 31.84375 -24.71875 C 29.070312 -24.90625 26.34375 -25.039062 23.65625 -25.125 C 20.96875 -25.21875 18.265625 -25.421875 15.546875 -25.734375 C 14.066406 -21.785156 12.816406 -17.773438 11.796875 -13.703125 C 10.785156 -9.628906 10.25 -5.460938 10.1875 -1.203125 Z M 18.890625 -33.96875 C 18.765625 -33.789062 18.6875 -33.59375 18.65625 -33.375 C 18.625 -33.15625 18.546875 -32.953125 18.421875 -32.765625 C 20.398438 -32.585938 22.34375 -32.484375 24.25 -32.453125 C 26.164062 -32.421875 28.113281 -32.34375 30.09375 -32.21875 C 29.40625 -35.175781 28.675781 -38.117188 27.90625 -41.046875 C 27.132812 -43.984375 26.441406 -46.960938 25.828125 -49.984375 C 24.710938 -47.273438 23.566406 -44.609375 22.390625 -41.984375 C 21.222656 -39.359375 20.054688 -36.6875 18.890625 -33.96875 Z M 18.890625 -33.96875 "/></g></g></g><g fill="#d89500" fill-opacity="1"><g transform="translate(80.432979, 209.994391)"><g><path d="M 13.046875 -1.84375 C 13.046875 -0.675781 12.660156 0.195312 11.890625 0.78125 C 11.117188 1.375 10.269531 1.671875 9.34375 1.671875 C 8.425781 1.671875 7.578125 1.375 6.796875 0.78125 C 6.023438 0.195312 5.640625 -0.675781 5.640625 -1.84375 C 5.640625 -11.71875 5.765625 -21.546875 6.015625 -31.328125 C 6.265625 -41.117188 6.851562 -50.921875 7.78125 -60.734375 C 7.90625 -61.773438 8.289062 -62.601562 8.9375 -63.21875 C 9.582031 -63.84375 10.289062 -64.203125 11.0625 -64.296875 C 11.832031 -64.390625 12.601562 -64.234375 13.375 -63.828125 C 14.144531 -63.429688 14.71875 -62.738281 15.09375 -61.75 C 16.320312 -58.226562 17.460938 -54.691406 18.515625 -51.140625 C 19.566406 -47.597656 20.597656 -44.035156 21.609375 -40.453125 C 22.628906 -36.878906 23.679688 -33.316406 24.765625 -29.765625 C 25.847656 -26.210938 27.035156 -22.707031 28.328125 -19.25 C 31.535156 -27.34375 34.453125 -35.460938 37.078125 -43.609375 C 39.703125 -51.753906 41.816406 -60.113281 43.421875 -68.6875 C 43.609375 -69.613281 44.039062 -70.289062 44.71875 -70.71875 C 45.394531 -71.15625 46.148438 -71.375 46.984375 -71.375 C 47.816406 -71.375 48.570312 -71.15625 49.25 -70.71875 C 49.925781 -70.289062 50.359375 -69.613281 50.546875 -68.6875 C 51.035156 -65.914062 51.203125 -63.1875 51.046875 -60.5 C 50.898438 -57.8125 50.828125 -55.082031 50.828125 -52.3125 C 50.828125 -49.34375 50.992188 -46.4375 51.328125 -43.59375 C 51.671875 -40.757812 51.96875 -37.894531 52.21875 -35 C 52.707031 -29.195312 53.070312 -23.394531 53.3125 -17.59375 C 53.5625 -11.789062 53.78125 -5.988281 53.96875 -0.1875 C 53.96875 1.050781 53.597656 1.960938 52.859375 2.546875 C 52.117188 3.128906 51.285156 3.421875 50.359375 3.421875 C 49.429688 3.421875 48.566406 3.128906 47.765625 2.546875 C 46.960938 1.960938 46.5625 1.050781 46.5625 -0.1875 C 46.4375 -5.988281 46.234375 -11.789062 45.953125 -17.59375 C 45.679688 -23.394531 45.300781 -29.195312 44.8125 -35 C 44.6875 -36.039062 44.578125 -37.117188 44.484375 -38.234375 C 44.390625 -39.347656 44.28125 -40.425781 44.15625 -41.46875 C 42.363281 -35.851562 40.429688 -30.328125 38.359375 -24.890625 C 36.296875 -19.460938 34.15625 -14.035156 31.9375 -8.609375 C 31.625 -7.867188 31.175781 -7.234375 30.59375 -6.703125 C 30.007812 -6.179688 29.285156 -5.921875 28.421875 -5.921875 C 27.804688 -5.921875 27.1875 -6.085938 26.5625 -6.421875 C 25.945312 -6.765625 25.488281 -7.21875 25.1875 -7.78125 C 22.71875 -13.207031 20.617188 -18.726562 18.890625 -24.34375 C 17.160156 -29.957031 15.460938 -35.632812 13.796875 -41.375 C 13.484375 -34.769531 13.28125 -28.179688 13.1875 -21.609375 C 13.09375 -15.035156 13.046875 -8.445312 13.046875 -1.84375 Z M 13.046875 -1.84375 "/></g></g></g><g fill="#d89500" fill-opacity="1"><g transform="translate(140.506372, 209.994391)"><g><path d="M 1.671875 0 C 0.554688 -0.3125 -0.179688 -0.925781 -0.546875 -1.84375 C -0.921875 -2.769531 -0.984375 -3.664062 -0.734375 -4.53125 C -0.492188 -5.394531 0.0078125 -6.117188 0.78125 -6.703125 C 1.550781 -7.296875 2.492188 -7.4375 3.609375 -7.125 C 6.078125 -6.382812 8.546875 -5.921875 11.015625 -5.734375 C 13.484375 -5.554688 16.015625 -5.523438 18.609375 -5.640625 C 17.554688 -10.023438 17.03125 -14.421875 17.03125 -18.828125 C 17.03125 -23.242188 17.195312 -27.660156 17.53125 -32.078125 C 17.875 -36.492188 18.21875 -40.921875 18.5625 -45.359375 C 18.90625 -49.804688 18.921875 -54.25 18.609375 -58.6875 C 16.265625 -58.75 13.90625 -58.859375 11.53125 -59.015625 C 9.15625 -59.171875 6.789062 -59.398438 4.4375 -59.703125 C 3.394531 -59.828125 2.515625 -60.195312 1.796875 -60.8125 C 1.085938 -61.4375 0.734375 -62.273438 0.734375 -63.328125 C 0.734375 -64.242188 1.085938 -65.117188 1.796875 -65.953125 C 2.515625 -66.785156 3.394531 -67.144531 4.4375 -67.03125 C 7.28125 -66.71875 10.132812 -66.453125 13 -66.234375 C 15.875 -66.015625 18.726562 -65.9375 21.5625 -66 C 24.40625 -66.0625 27.226562 -66.304688 30.03125 -66.734375 C 32.84375 -67.171875 35.640625 -67.882812 38.421875 -68.875 C 39.347656 -69.1875 40.253906 -69.0625 41.140625 -68.5 C 42.035156 -67.945312 42.640625 -67.207031 42.953125 -66.28125 C 43.265625 -65.226562 43.15625 -64.285156 42.625 -63.453125 C 42.101562 -62.617188 41.347656 -62.050781 40.359375 -61.75 C 35.734375 -60.144531 30.921875 -59.1875 25.921875 -58.875 C 26.285156 -54.5 26.28125 -50.085938 25.90625 -45.640625 C 25.539062 -41.191406 25.171875 -36.773438 24.796875 -32.390625 C 24.429688 -28.015625 24.265625 -23.632812 24.296875 -19.25 C 24.328125 -14.875 24.898438 -10.523438 26.015625 -6.203125 C 27.984375 -6.390625 29.925781 -6.570312 31.84375 -6.75 C 33.757812 -6.9375 35.671875 -7.09375 37.578125 -7.21875 C 38.753906 -7.28125 39.632812 -6.957031 40.21875 -6.25 C 40.8125 -5.539062 41.109375 -4.722656 41.109375 -3.796875 C 41.109375 -2.867188 40.8125 -2.003906 40.21875 -1.203125 C 39.632812 -0.398438 38.753906 0.03125 37.578125 0.09375 C 34.554688 0.28125 31.546875 0.539062 28.546875 0.875 C 25.554688 1.21875 22.566406 1.460938 19.578125 1.609375 C 16.585938 1.765625 13.59375 1.75 10.59375 1.5625 C 7.601562 1.382812 4.628906 0.863281 1.671875 0 Z M 1.671875 0 "/></g></g></g><g fill="#d89500" fill-opacity="1"><g transform="translate(182.62254, 209.994391)"><g><path d="M 14.4375 1.578125 C 12.59375 0.398438 10.925781 -1.050781 9.4375 -2.78125 C 7.957031 -4.507812 6.660156 -6.390625 5.546875 -8.421875 C 4.441406 -10.460938 3.519531 -12.5625 2.78125 -14.71875 C 2.039062 -16.875 1.484375 -19.035156 1.109375 -21.203125 C 0.742188 -23.234375 0.53125 -25.3125 0.46875 -27.4375 C 0.40625 -29.570312 0.679688 -31.660156 1.296875 -33.703125 C 1.785156 -35.304688 2.445312 -36.847656 3.28125 -38.328125 C 4.113281 -39.804688 5.023438 -41.222656 6.015625 -42.578125 C 8.421875 -45.910156 11.101562 -49.054688 14.0625 -52.015625 C 17.03125 -54.984375 20.273438 -57.578125 23.796875 -59.796875 C 25.398438 -60.847656 27.078125 -61.773438 28.828125 -62.578125 C 30.585938 -63.378906 32.378906 -63.960938 34.203125 -64.328125 C 36.023438 -64.703125 37.859375 -64.8125 39.703125 -64.65625 C 41.554688 -64.507812 43.410156 -64.003906 45.265625 -63.140625 C 46.191406 -62.703125 46.78125 -61.957031 47.03125 -60.90625 C 47.28125 -59.863281 47.15625 -58.941406 46.65625 -58.140625 C 46.101562 -57.210938 45.347656 -56.65625 44.390625 -56.46875 C 43.429688 -56.28125 42.488281 -56.40625 41.5625 -56.84375 C 40.519531 -57.332031 39.191406 -57.515625 37.578125 -57.390625 C 36.960938 -57.390625 36.207031 -57.28125 35.3125 -57.0625 C 34.414062 -56.851562 33.535156 -56.5625 32.671875 -56.1875 C 30.890625 -55.507812 29.117188 -54.566406 27.359375 -53.359375 C 25.597656 -52.160156 23.945312 -50.914062 22.40625 -49.625 C 19.6875 -47.28125 17.140625 -44.734375 14.765625 -41.984375 C 12.390625 -39.234375 10.398438 -36.253906 8.796875 -33.046875 C 8.609375 -32.617188 8.421875 -31.972656 8.234375 -31.109375 C 8.054688 -30.242188 7.9375 -29.503906 7.875 -28.890625 C 7.75 -27.097656 7.835938 -25.335938 8.140625 -23.609375 C 8.515625 -21.566406 9.023438 -19.539062 9.671875 -17.53125 C 10.316406 -15.53125 11.164062 -13.632812 12.21875 -11.84375 C 13.207031 -10.175781 14.363281 -8.523438 15.6875 -6.890625 C 17.019531 -5.253906 18.671875 -4.191406 20.640625 -3.703125 C 22.742188 -3.148438 24.90625 -3.273438 27.125 -4.078125 C 27.613281 -4.253906 28.070312 -4.453125 28.5 -4.671875 C 28.9375 -4.890625 29.40625 -5.125 29.90625 -5.375 C 30.082031 -5.488281 30.265625 -5.609375 30.453125 -5.734375 C 30.640625 -5.859375 30.828125 -5.984375 31.015625 -6.109375 C 32.429688 -7.347656 33.691406 -8.644531 34.796875 -10 C 35.910156 -11.351562 36.960938 -12.769531 37.953125 -14.25 C 38.453125 -15.113281 38.960938 -15.992188 39.484375 -16.890625 C 40.003906 -17.785156 40.421875 -18.664062 40.734375 -19.53125 C 41.046875 -20.332031 41.289062 -21.054688 41.46875 -21.703125 C 41.65625 -22.359375 41.75 -23.023438 41.75 -23.703125 C 41.132812 -23.941406 40.515625 -24.0625 39.890625 -24.0625 C 39.273438 -24.0625 38.628906 -24.0625 37.953125 -24.0625 C 36.222656 -24.007812 34.507812 -23.890625 32.8125 -23.703125 C 31.113281 -23.515625 29.375 -23.421875 27.59375 -23.421875 C 26.414062 -23.421875 25.53125 -23.804688 24.9375 -24.578125 C 24.351562 -25.347656 24.0625 -26.195312 24.0625 -27.125 C 24.0625 -28.050781 24.351562 -28.882812 24.9375 -29.625 C 25.53125 -30.363281 26.414062 -30.734375 27.59375 -30.734375 C 29.257812 -30.734375 30.925781 -30.828125 32.59375 -31.015625 C 34.257812 -31.203125 35.921875 -31.320312 37.578125 -31.375 C 39.242188 -31.4375 40.878906 -31.375 42.484375 -31.1875 C 44.097656 -31.007812 45.707031 -30.582031 47.3125 -29.90625 C 48.914062 -29.28125 50.269531 -28.164062 51.375 -26.5625 C 52.050781 -25.519531 52.34375 -24.347656 52.25 -23.046875 C 52.164062 -21.753906 52.125 -20.488281 52.125 -19.25 C 52 -16.601562 51.921875 -13.96875 51.890625 -11.34375 C 51.859375 -8.71875 51.8125 -6.109375 51.75 -3.515625 C 51.75 -2.285156 51.347656 -1.375 50.546875 -0.78125 C 49.742188 -0.195312 48.878906 0.09375 47.953125 0.09375 C 47.023438 0.09375 46.191406 -0.195312 45.453125 -0.78125 C 44.710938 -1.375 44.34375 -2.285156 44.34375 -3.515625 C 44.40625 -4.753906 44.4375 -5.988281 44.4375 -7.21875 C 44.4375 -8.457031 44.46875 -9.691406 44.53125 -10.921875 C 42.738281 -8.085938 40.734375 -5.46875 38.515625 -3.0625 C 37.035156 -1.445312 35.304688 -0.0703125 33.328125 1.0625 C 31.347656 2.207031 29.296875 3.023438 27.171875 3.515625 C 25.046875 4.015625 22.867188 4.140625 20.640625 3.890625 C 18.421875 3.640625 16.351562 2.867188 14.4375 1.578125 Z M 14.4375 1.578125 "/></g></g></g><g fill="#d89500" fill-opacity="1"><g transform="translate(238.160345, 209.994391)"><g><path d="M 48.421875 -22.859375 C 48.109375 -19.097656 46.992188 -15.75 45.078125 -12.8125 C 43.171875 -9.882812 40.644531 -7.40625 37.5 -5.375 C 35.394531 -4.070312 33.140625 -2.894531 30.734375 -1.84375 C 28.328125 -0.800781 25.921875 0 23.515625 0.5625 C 21.359375 1.050781 19.242188 1.265625 17.171875 1.203125 C 15.109375 1.140625 13.023438 0.984375 10.921875 0.734375 C 10.429688 1.296875 9.828125 1.679688 9.109375 1.890625 C 8.398438 2.109375 7.707031 2.125 7.03125 1.9375 C 5.613281 1.570312 4.75 0.679688 4.4375 -0.734375 C 3.695312 -1.472656 3.328125 -2.367188 3.328125 -3.421875 C 3.328125 -4.785156 3.945312 -5.867188 5.1875 -6.671875 C 5.550781 -9.140625 5.84375 -11.609375 6.0625 -14.078125 C 6.28125 -16.546875 6.453125 -19.039062 6.578125 -21.5625 C 6.753906 -24.53125 6.90625 -27.460938 7.03125 -30.359375 C 7.15625 -33.265625 7.1875 -36.195312 7.125 -39.15625 C 7.125 -41.007812 7.0625 -42.921875 6.9375 -44.890625 C 6.820312 -46.867188 6.765625 -48.828125 6.765625 -50.765625 C 6.765625 -52.710938 6.867188 -54.644531 7.078125 -56.5625 C 7.296875 -58.476562 7.742188 -60.332031 8.421875 -62.125 C 8.117188 -63.101562 8.179688 -64.117188 8.609375 -65.171875 C 9.035156 -66.222656 9.867188 -66.867188 11.109375 -67.109375 C 11.847656 -67.921875 12.726562 -68.296875 13.75 -68.234375 C 14.769531 -68.171875 15.617188 -67.828125 16.296875 -67.203125 C 19.316406 -66.960938 22.257812 -66.394531 25.125 -65.5 C 28 -64.601562 30.640625 -63.164062 33.046875 -61.1875 C 36.015625 -58.84375 38.390625 -56.019531 40.171875 -52.71875 C 41.960938 -49.414062 43.414062 -46.003906 44.53125 -42.484375 C 45.019531 -40.941406 45.523438 -39.367188 46.046875 -37.765625 C 46.578125 -36.160156 47.039062 -34.523438 47.4375 -32.859375 C 47.84375 -31.191406 48.140625 -29.523438 48.328125 -27.859375 C 48.515625 -26.191406 48.546875 -24.523438 48.421875 -22.859375 Z M 32.953125 -11.296875 C 33.753906 -11.785156 34.476562 -12.273438 35.125 -12.765625 C 35.78125 -13.265625 36.445312 -13.851562 37.125 -14.53125 C 37.675781 -15.144531 38.101562 -15.640625 38.40625 -16.015625 C 38.71875 -16.390625 39.09375 -16.945312 39.53125 -17.6875 C 40.582031 -19.84375 41.078125 -22.28125 41.015625 -25 C 41.015625 -26.539062 40.890625 -27.972656 40.640625 -29.296875 C 40.390625 -30.628906 40.019531 -32.128906 39.53125 -33.796875 C 39.03125 -35.515625 38.519531 -37.222656 38 -38.921875 C 37.476562 -40.617188 36.878906 -42.269531 36.203125 -43.875 C 35.703125 -45.238281 35.035156 -46.707031 34.203125 -48.28125 C 33.367188 -49.851562 32.519531 -51.164062 31.65625 -52.21875 C 29.5 -54.800781 27.0625 -56.664062 24.34375 -57.8125 C 21.632812 -58.957031 18.671875 -59.617188 15.453125 -59.796875 C 14.773438 -58.078125 14.359375 -56.273438 14.203125 -54.390625 C 14.054688 -52.503906 14.007812 -50.601562 14.0625 -48.6875 C 14.125 -46.78125 14.234375 -44.867188 14.390625 -42.953125 C 14.546875 -41.035156 14.59375 -39.1875 14.53125 -37.40625 C 14.28125 -32.15625 14.046875 -26.96875 13.828125 -21.84375 C 13.617188 -16.71875 13.175781 -11.566406 12.5 -6.390625 C 13.601562 -6.265625 14.726562 -6.171875 15.875 -6.109375 C 17.019531 -6.046875 18.144531 -6.078125 19.25 -6.203125 C 21.601562 -6.453125 23.96875 -7.050781 26.34375 -8 C 28.71875 -8.957031 30.921875 -10.054688 32.953125 -11.296875 Z M 32.953125 -11.296875 "/></g></g></g><g fill="#d89500" fill-opacity="1"><g transform="translate(290.921259, 209.994391)"><g><path d="M 10.1875 -1.203125 C 10.1875 -0.0234375 9.800781 0.851562 9.03125 1.4375 C 8.257812 2.019531 7.410156 2.3125 6.484375 2.3125 C 5.554688 2.3125 4.722656 2.019531 3.984375 1.4375 C 3.242188 0.851562 2.875 -0.0234375 2.875 -1.203125 C 2.875 -6.015625 3.425781 -10.640625 4.53125 -15.078125 C 5.644531 -19.523438 7.035156 -23.941406 8.703125 -28.328125 C 8.265625 -29.128906 8.140625 -30.023438 8.328125 -31.015625 C 8.703125 -32.304688 9.503906 -33.109375 10.734375 -33.421875 C 11.972656 -36.378906 13.253906 -39.320312 14.578125 -42.25 C 15.910156 -45.1875 17.191406 -48.132812 18.421875 -51.09375 C 19.660156 -54.0625 20.800781 -57.054688 21.84375 -60.078125 C 22.894531 -63.109375 23.757812 -66.195312 24.4375 -69.34375 C 24.625 -70.269531 25.007812 -71.070312 25.59375 -71.75 C 26.175781 -72.425781 26.992188 -72.765625 28.046875 -72.765625 C 29.035156 -72.765625 29.929688 -72.410156 30.734375 -71.703125 C 31.535156 -70.992188 31.875 -70.113281 31.75 -69.0625 C 31.5625 -65.476562 31.625 -62.191406 31.9375 -59.203125 C 32.25 -56.210938 32.710938 -53.25 33.328125 -50.3125 C 33.941406 -47.382812 34.632812 -44.453125 35.40625 -41.515625 C 36.175781 -38.585938 36.898438 -35.671875 37.578125 -32.765625 C 38.265625 -29.992188 38.882812 -27.21875 39.4375 -24.4375 C 39.988281 -21.664062 40.882812 -18.984375 42.125 -16.390625 C 42.738281 -15.085938 43.382812 -13.832031 44.0625 -12.625 C 44.738281 -11.425781 45.476562 -10.210938 46.28125 -8.984375 C 47.03125 -7.867188 47.710938 -6.707031 48.328125 -5.5 C 48.941406 -4.300781 49.375 -2.992188 49.625 -1.578125 C 49.75 -0.585938 49.609375 0.335938 49.203125 1.203125 C 48.804688 2.066406 48.082031 2.65625 47.03125 2.96875 C 46.164062 3.207031 45.238281 3.078125 44.25 2.578125 C 43.257812 2.085938 42.671875 1.351562 42.484375 0.375 C 42.242188 -1.050781 41.769531 -2.316406 41.0625 -3.421875 C 40.351562 -4.535156 39.625 -5.675781 38.875 -6.84375 C 38.007812 -8.207031 37.222656 -9.582031 36.515625 -10.96875 C 35.804688 -12.351562 35.175781 -13.789062 34.625 -15.28125 C 34.007812 -16.820312 33.484375 -18.378906 33.046875 -19.953125 C 32.617188 -21.523438 32.21875 -23.113281 31.84375 -24.71875 C 29.070312 -24.90625 26.34375 -25.039062 23.65625 -25.125 C 20.96875 -25.21875 18.265625 -25.421875 15.546875 -25.734375 C 14.066406 -21.785156 12.816406 -17.773438 11.796875 -13.703125 C 10.785156 -9.628906 10.25 -5.460938 10.1875 -1.203125 Z M 18.890625 -33.96875 C 18.765625 -33.789062 18.6875 -33.59375 18.65625 -33.375 C 18.625 -33.15625 18.546875 -32.953125 18.421875 -32.765625 C 20.398438 -32.585938 22.34375 -32.484375 24.25 -32.453125 C 26.164062 -32.421875 28.113281 -32.34375 30.09375 -32.21875 C 29.40625 -35.175781 28.675781 -38.117188 27.90625 -41.046875 C 27.132812 -43.984375 26.441406 -46.960938 25.828125 -49.984375 C 24.710938 -47.273438 23.566406 -44.609375 22.390625 -41.984375 C 21.222656 -39.359375 20.054688 -36.6875 18.890625 -33.96875 Z M 18.890625 -33.96875 "/></g></g></g><g fill="#d89500" fill-opacity="1"><g transform="translate(342.016039, 209.994391)"><g><path d="M 7.875 0.734375 C 6.882812 0.734375 6.09375 0.472656 5.5 -0.046875 C 4.914062 -0.566406 4.53125 -1.179688 4.34375 -1.890625 C 4.164062 -2.609375 4.179688 -3.335938 4.390625 -4.078125 C 4.609375 -4.816406 5.023438 -5.429688 5.640625 -5.921875 C 6.140625 -8.023438 6.265625 -10.140625 6.015625 -12.265625 C 5.765625 -14.390625 5.519531 -16.503906 5.28125 -18.609375 C 4.96875 -21.203125 4.875 -23.75 5 -26.25 C 5.125 -28.75 5.367188 -31.289062 5.734375 -33.875 C 6.109375 -36.46875 6.507812 -39.046875 6.9375 -41.609375 C 7.375 -44.171875 7.742188 -46.75 8.046875 -49.34375 C 8.359375 -52.125 8.625 -54.867188 8.84375 -57.578125 C 9.0625 -60.296875 9.226562 -63.046875 9.34375 -65.828125 C 9.34375 -66.992188 9.742188 -67.882812 10.546875 -68.5 C 11.347656 -69.125 12.210938 -69.4375 13.140625 -69.4375 C 14.066406 -69.4375 14.898438 -69.125 15.640625 -68.5 C 16.378906 -67.882812 16.71875 -66.992188 16.65625 -65.828125 C 16.539062 -62.921875 16.375 -60.046875 16.15625 -57.203125 C 15.9375 -54.367188 15.675781 -51.472656 15.375 -48.515625 C 15.0625 -45.796875 14.671875 -43.140625 14.203125 -40.546875 C 13.742188 -37.953125 13.328125 -35.300781 12.953125 -32.59375 C 12.585938 -30 12.40625 -27.453125 12.40625 -24.953125 C 12.40625 -22.453125 12.5625 -19.90625 12.875 -17.3125 C 13.050781 -15.519531 13.21875 -13.726562 13.375 -11.9375 C 13.53125 -10.144531 13.484375 -8.359375 13.234375 -6.578125 C 17.867188 -6.453125 22.5 -6.21875 27.125 -5.875 C 31.75 -5.539062 36.378906 -5.28125 41.015625 -5.09375 C 42.179688 -5.03125 43.054688 -4.597656 43.640625 -3.796875 C 44.234375 -2.992188 44.53125 -2.128906 44.53125 -1.203125 C 44.53125 -0.273438 44.234375 0.554688 43.640625 1.296875 C 43.054688 2.035156 42.179688 2.375 41.015625 2.3125 C 35.398438 2.0625 29.859375 1.734375 24.390625 1.328125 C 18.929688 0.929688 13.425781 0.734375 7.875 0.734375 Z M 7.875 0.734375 "/></g></g></g><g clip-path="url(#8d59dba2aa)"><g fill="#d89500" fill-opacity="1"><g transform="translate(382.743762, 209.994391)"><g><path d="M 10.1875 -1.203125 C 10.1875 -0.0234375 9.800781 0.851562 9.03125 1.4375 C 8.257812 2.019531 7.410156 2.3125 6.484375 2.3125 C 5.554688 2.3125 4.722656 2.019531 3.984375 1.4375 C 3.242188 0.851562 2.875 -0.0234375 2.875 -1.203125 C 2.875 -6.015625 3.425781 -10.640625 4.53125 -15.078125 C 5.644531 -19.523438 7.035156 -23.941406 8.703125 -28.328125 C 8.265625 -29.128906 8.140625 -30.023438 8.328125 -31.015625 C 8.703125 -32.304688 9.503906 -33.109375 10.734375 -33.421875 C 11.972656 -36.378906 13.253906 -39.320312 14.578125 -42.25 C 15.910156 -45.1875 17.191406 -48.132812 18.421875 -51.09375 C 19.660156 -54.0625 20.800781 -57.054688 21.84375 -60.078125 C 22.894531 -63.109375 23.757812 -66.195312 24.4375 -69.34375 C 24.625 -70.269531 25.007812 -71.070312 25.59375 -71.75 C 26.175781 -72.425781 26.992188 -72.765625 28.046875 -72.765625 C 29.035156 -72.765625 29.929688 -72.410156 30.734375 -71.703125 C 31.535156 -70.992188 31.875 -70.113281 31.75 -69.0625 C 31.5625 -65.476562 31.625 -62.191406 31.9375 -59.203125 C 32.25 -56.210938 32.710938 -53.25 33.328125 -50.3125 C 33.941406 -47.382812 34.632812 -44.453125 35.40625 -41.515625 C 36.175781 -38.585938 36.898438 -35.671875 37.578125 -32.765625 C 38.265625 -29.992188 38.882812 -27.21875 39.4375 -24.4375 C 39.988281 -21.664062 40.882812 -18.984375 42.125 -16.390625 C 42.738281 -15.085938 43.382812 -13.832031 44.0625 -12.625 C 44.738281 -11.425781 45.476562 -10.210938 46.28125 -8.984375 C 47.03125 -7.867188 47.710938 -6.707031 48.328125 -5.5 C 48.941406 -4.300781 49.375 -2.992188 49.625 -1.578125 C 49.75 -0.585938 49.609375 0.335938 49.203125 1.203125 C 48.804688 2.066406 48.082031 2.65625 47.03125 2.96875 C 46.164062 3.207031 45.238281 3.078125 44.25 2.578125 C 43.257812 2.085938 42.671875 1.351562 42.484375 0.375 C 42.242188 -1.050781 41.769531 -2.316406 41.0625 -3.421875 C 40.351562 -4.535156 39.625 -5.675781 38.875 -6.84375 C 38.007812 -8.207031 37.222656 -9.582031 36.515625 -10.96875 C 35.804688 -12.351562 35.175781 -13.789062 34.625 -15.28125 C 34.007812 -16.820312 33.484375 -18.378906 33.046875 -19.953125 C 32.617188 -21.523438 32.21875 -23.113281 31.84375 -24.71875 C 29.070312 -24.90625 26.34375 -25.039062 23.65625 -25.125 C 20.96875 -25.21875 18.265625 -25.421875 15.546875 -25.734375 C 14.066406 -21.785156 12.816406 -17.773438 11.796875 -13.703125 C 10.785156 -9.628906 10.25 -5.460938 10.1875 -1.203125 Z M 18.890625 -33.96875 C 18.765625 -33.789062 18.6875 -33.59375 18.65625 -33.375 C 18.625 -33.15625 18.546875 -32.953125 18.421875 -32.765625 C 20.398438 -32.585938 22.34375 -32.484375 24.25 -32.453125 C 26.164062 -32.421875 28.113281 -32.34375 30.09375 -32.21875 C 29.40625 -35.175781 28.675781 -38.117188 27.90625 -41.046875 C 27.132812 -43.984375 26.441406 -46.960938 25.828125 -49.984375 C 24.710938 -47.273438 23.566406 -44.609375 22.390625 -41.984375 C 21.222656 -39.359375 20.054688 -36.6875 18.890625 -33.96875 Z M 18.890625 -33.96875 "/></g></g></g></g></svg>