<svg xmlns="http://www.w3.org/2000/svg" xmlns:xlink="http://www.w3.org/1999/xlink" width="566" zoomAndPan="magnify" viewBox="0 0 425.03998 425.249996" height="566" preserveAspectRatio="xMidYMid meet" version="1.0"><defs><g/><clipPath id="63ed24ffd8"><path d="M 0 0.105469 L 424.042969 0.105469 L 424.042969 424.148438 L 0 424.148438 Z M 0 0.105469 " clip-rule="nonzero"/></clipPath><clipPath id="9cb7f86c19"><path d="M 0 383 L 94 383 L 94 424.148438 L 0 424.148438 Z M 0 383 " clip-rule="nonzero"/></clipPath><clipPath id="d30665462d"><path d="M 16 264 L 215 264 L 215 424.148438 L 16 424.148438 Z M 16 264 " clip-rule="nonzero"/></clipPath><clipPath id="21f569fe49"><path d="M 0 246 L 233 246 L 233 424.148438 L 0 424.148438 Z M 0 246 " clip-rule="nonzero"/></clipPath><clipPath id="ed1e2248fb"><path d="M 0 158 L 148 158 L 148 424.148438 L 0 424.148438 Z M 0 158 " clip-rule="nonzero"/></clipPath><clipPath id="96b7ba6367"><path d="M 371 380 L 424.042969 380 L 424.042969 424.148438 L 371 424.148438 Z M 371 380 " clip-rule="nonzero"/></clipPath><clipPath id="a65c77892b"><path d="M 251 264 L 424.042969 264 L 424.042969 424.148438 L 251 424.148438 Z M 251 264 " clip-rule="nonzero"/></clipPath><clipPath id="206eaf6a51"><path d="M 233 246 L 424.042969 246 L 424.042969 424.148438 L 233 424.148438 Z M 233 246 " clip-rule="nonzero"/></clipPath><clipPath id="028d2c4e15"><path d="M 337 177 L 424.042969 177 L 424.042969 406 L 337 406 Z M 337 177 " clip-rule="nonzero"/></clipPath><clipPath id="009bc77071"><path d="M 318 158 L 424.042969 158 L 424.042969 424.148438 L 318 424.148438 Z M 318 158 " clip-rule="nonzero"/></clipPath><clipPath id="5d711d7e40"><path d="M 37 0.105469 L 424.042969 0.105469 L 424.042969 344 L 37 344 Z M 37 0.105469 " clip-rule="nonzero"/></clipPath><clipPath id="c50119532c"><path d="M 24 0.105469 L 424.042969 0.105469 L 424.042969 357 L 24 357 Z M 24 0.105469 " clip-rule="nonzero"/></clipPath><clipPath id="692af0ecf4"><path d="M 240 363 L 324 363 L 324 424.148438 L 240 424.148438 Z M 240 363 " clip-rule="nonzero"/></clipPath></defs><g clip-path="url(#63ed24ffd8)"><path fill="#ffffff" d="M 0 0.105469 L 424.042969 0.105469 L 424.042969 424.148438 L 0 424.148438 Z M 0 0.105469 " fill-opacity="1" fill-rule="nonzero"/><path fill="#5a5fa4" d="M 0 0.105469 L 424.042969 0.105469 L 424.042969 424.148438 L 0 424.148438 Z M 0 0.105469 " fill-opacity="1" fill-rule="nonzero"/></g><path fill="#100f0d" d="M -13.882812 299.257812 L -66.878906 232.550781 L -122.214844 232.550781 L -122.214844 208.023438 L -55.023438 208.023438 L 5.285156 284.039062 L -13.882812 299.257812 " fill-opacity="1" fill-rule="nonzero"/><g clip-path="url(#9cb7f86c19)"><path fill="#100f0d" d="M -29.566406 508.003906 L -52.34375 498.949219 L -21.277344 420.59375 L 85.140625 383.097656 L 93.300781 406.179688 L -2.578125 440.023438 L -29.566406 508.003906 " fill-opacity="1" fill-rule="nonzero"/></g><g clip-path="url(#d30665462d)"><path fill="#ffffff" d="M 83.570312 428.457031 L 97.339844 451.460938 L 50.632812 504.472656 C 40.472656 515.953125 36.90625 531.894531 41.070312 546.691406 L 58.238281 607.1875 L 16.292969 708.542969 L 92.28125 642.859375 C 105.5 631.421875 110.9375 613.269531 106.136719 596.347656 L 89.390625 537.253906 L 139.285156 483.386719 C 149.910156 471.910156 152.800781 455.199219 146.597656 440.832031 L 131.339844 405.457031 L 214.425781 312.988281 L 147.617188 264.90625 L 82.675781 383.4375 C 74.984375 397.507812 75.324219 414.683594 83.570312 428.457031 " fill-opacity="1" fill-rule="nonzero"/></g><g clip-path="url(#21f569fe49)"><path fill="#100f0d" d="M 151.695312 282.976562 L 93.429688 389.34375 C 87.820312 399.550781 88.074219 412.132812 94.066406 422.125 L 94.066406 422.167969 L 112.46875 452.820312 L 59.8125 512.59375 C 52.417969 521.011719 49.824219 532.492188 52.84375 543.375 L 71.160156 607.953125 L 47.359375 665.476562 L 84.25 633.589844 C 93.855469 625.257812 97.808594 611.992188 94.363281 599.707031 L 75.707031 533.980469 L 130.320312 475.054688 C 137.628906 467.148438 139.625 455.625 135.335938 445.675781 L 116.972656 403.078125 L 196.152344 314.988281 Z M -14.816406 751.609375 L 45.277344 606.425781 L 29.296875 550.050781 C 23.941406 531.132812 28.488281 511.0625 41.453125 496.355469 L 82.253906 450.054688 L 73.070312 434.75 C 62.617188 417.320312 62.191406 395.382812 71.925781 377.570312 L 143.496094 246.835938 L 232.660156 311.035156 L 145.703125 407.796875 L 157.816406 435.941406 C 165.933594 454.816406 162.195312 476.671875 148.296875 491.71875 L 103.078125 540.527344 L 117.910156 593.03125 C 123.988281 614.417969 117.058594 637.628906 100.273438 652.125 L -14.816406 751.609375 " fill-opacity="1" fill-rule="nonzero"/></g><path fill="#ffffff" d="M 65.550781 177.367188 L 45.617188 208.914062 L -15.371094 285.992188 L -68.707031 308.015625 L -122.214844 405.585938 L -35.472656 340.710938 L 31.421875 322.554688 L 102.097656 256.359375 L 129.257812 230.9375 L 65.550781 177.367188 " fill-opacity="1" fill-rule="nonzero"/><g clip-path="url(#ed1e2248fb)"><path fill="#100f0d" d="M -60.039062 317.707031 L -84.304688 361.925781 L -40.914062 329.484375 L 25.257812 311.542969 L 110.769531 231.40625 L 68.398438 195.777344 L 55.222656 216.523438 L -7.761719 296.113281 Z M -160.167969 449.289062 L -77.378906 298.363281 L -23.019531 275.875 L 35.585938 201.816406 L 62.660156 158.960938 L 147.703125 230.425781 L 37.542969 333.609375 L -29.988281 351.933594 L -160.167969 449.289062 " fill-opacity="1" fill-rule="nonzero"/></g><g clip-path="url(#96b7ba6367)"><path fill="#100f0d" d="M 478.265625 463.746094 L 371.929688 403.332031 L 384.042969 381.992188 L 453.742188 421.613281 L 453.742188 380.96875 L 478.265625 380.96875 L 478.265625 463.746094 " fill-opacity="1" fill-rule="nonzero"/></g><g clip-path="url(#a65c77892b)"><path fill="#ffffff" d="M 382.769531 428.457031 L 369 451.460938 L 415.707031 504.472656 C 425.863281 515.953125 429.433594 531.894531 425.269531 546.691406 L 408.097656 607.1875 L 450.046875 708.542969 L 374.054688 642.859375 C 360.839844 631.421875 355.398438 613.269531 360.203125 596.347656 L 376.945312 537.253906 L 327.007812 483.386719 C 316.425781 471.910156 313.535156 455.199219 319.742188 440.832031 L 335 405.457031 L 251.953125 312.988281 L 318.722656 264.90625 L 383.617188 383.4375 C 391.355469 397.507812 391.011719 414.683594 382.769531 428.457031 " fill-opacity="1" fill-rule="nonzero"/></g><g clip-path="url(#206eaf6a51)"><path fill="#100f0d" d="M 270.1875 314.988281 L 349.363281 403.078125 L 331.003906 445.675781 C 326.710938 455.625 328.707031 467.148438 336.019531 475.054688 L 390.632812 533.980469 L 371.972656 599.707031 C 368.488281 611.992188 372.484375 625.257812 382.046875 633.589844 L 418.980469 665.476562 L 395.136719 607.953125 L 413.453125 543.332031 C 416.554688 532.492188 413.921875 521.011719 406.527344 512.550781 L 353.867188 452.820312 L 372.269531 422.125 C 378.261719 412.132812 378.519531 399.550781 372.910156 389.34375 L 314.640625 282.976562 Z M 481.15625 751.609375 L 366.066406 652.125 C 349.277344 637.628906 342.351562 614.417969 348.429688 593.03125 L 363.304688 540.527344 L 318.042969 491.71875 C 304.144531 476.671875 300.363281 454.816406 308.519531 435.941406 L 320.632812 407.796875 L 233.679688 311.035156 L 322.800781 246.835938 L 394.371094 377.570312 C 404.144531 395.382812 403.722656 417.320312 393.265625 434.75 L 384.085938 450.054688 L 424.886719 496.355469 C 437.847656 511.0625 442.394531 531.132812 437.039062 550.050781 L 421.0625 606.425781 L 481.15625 751.609375 " fill-opacity="1" fill-rule="nonzero"/></g><g clip-path="url(#028d2c4e15)"><path fill="#ffffff" d="M 400.789062 177.367188 L 420.722656 208.914062 L 481.707031 285.992188 L 535.046875 308.015625 L 588.554688 405.585938 L 501.769531 340.710938 L 434.914062 322.554688 L 364.238281 256.359375 L 337.082031 230.9375 L 400.789062 177.367188 " fill-opacity="1" fill-rule="nonzero"/></g><g clip-path="url(#009bc77071)"><path fill="#100f0d" d="M 441.078125 311.542969 L 507.25 329.484375 L 550.601562 361.925781 L 526.375 317.707031 L 474.101562 296.113281 L 410.351562 215.460938 L 397.941406 195.777344 L 355.527344 231.40625 Z M 626.503906 449.289062 L 496.328125 351.933594 L 428.796875 333.609375 L 318.636719 230.425781 L 403.679688 158.960938 L 430.75 201.816406 L 489.359375 275.875 L 543.714844 298.363281 L 626.503906 449.289062 " fill-opacity="1" fill-rule="nonzero"/></g><g clip-path="url(#5d711d7e40)"><path fill="#efcf36" d="M 429.261719 146.164062 C 429.261719 135.746094 424.972656 126.4375 418.128906 119.71875 C 412.6875 114.40625 410.945312 105.988281 413.964844 98.972656 C 415.917969 94.507812 416.980469 89.578125 416.980469 84.347656 C 416.980469 63.898438 400.535156 47.316406 380.21875 47.316406 C 379.410156 47.316406 378.6875 47.488281 377.882812 47.53125 C 379.324219 43.578125 380.21875 39.410156 380.21875 34.945312 C 380.21875 14.496094 363.769531 -2.125 343.457031 -2.125 C 339.078125 -2.125 334.914062 -1.191406 330.960938 0.210938 C 331.003906 -0.554688 331.214844 -1.320312 331.214844 -2.125 C 331.214844 -22.574219 314.726562 -39.15625 294.453125 -39.15625 C 289.3125 -39.15625 284.425781 -38.09375 279.960938 -36.136719 C 273.035156 -33.078125 264.660156 -34.863281 259.347656 -40.347656 C 252.71875 -47.234375 243.453125 -51.527344 233.167969 -51.527344 C 222.882812 -51.527344 213.617188 -47.234375 206.988281 -40.347656 C 201.675781 -34.863281 193.347656 -33.078125 186.375 -36.136719 C 181.957031 -38.09375 177.027344 -39.15625 171.882812 -39.15625 C 151.570312 -39.15625 135.121094 -22.574219 135.121094 -2.125 C 135.121094 -1.320312 135.292969 -0.554688 135.375 0.210938 C 131.46875 -1.191406 127.257812 -2.125 122.882812 -2.125 C 102.566406 -2.125 86.121094 14.496094 86.121094 34.945312 C 86.121094 39.410156 87.011719 43.578125 88.414062 47.53125 C 87.648438 47.488281 86.925781 47.316406 86.121094 47.316406 C 65.804688 47.316406 49.355469 63.898438 49.355469 84.347656 C 49.355469 89.578125 50.417969 94.507812 52.375 98.972656 C 55.390625 105.988281 53.648438 114.40625 48.167969 119.71875 C 41.324219 126.4375 37.074219 135.746094 37.074219 146.164062 C 37.074219 156.535156 41.324219 165.847656 48.167969 172.566406 C 53.648438 177.878906 55.390625 186.296875 52.375 193.3125 C 50.417969 197.777344 49.355469 202.707031 49.355469 207.9375 C 49.355469 228.386719 65.804688 244.96875 86.121094 244.96875 C 86.925781 244.96875 87.648438 244.796875 88.414062 244.753906 C 87.011719 248.707031 86.121094 252.917969 86.121094 257.339844 C 86.121094 277.832031 102.566406 294.410156 122.882812 294.410156 C 127.257812 294.410156 131.46875 293.476562 135.375 292.074219 C 135.292969 292.839844 135.121094 293.601562 135.121094 294.410156 C 135.121094 314.859375 151.570312 331.484375 171.882812 331.484375 C 177.027344 331.484375 181.957031 330.378906 186.375 328.421875 C 193.347656 325.363281 201.675781 327.148438 206.988281 332.632812 C 213.617188 339.519531 222.882812 343.8125 233.167969 343.8125 C 243.453125 343.8125 252.71875 339.519531 259.347656 332.632812 C 264.660156 327.148438 273.035156 325.363281 279.960938 328.421875 C 284.425781 330.378906 289.3125 331.484375 294.453125 331.484375 C 314.726562 331.484375 331.214844 314.859375 331.214844 294.410156 C 331.214844 293.601562 331.003906 292.839844 330.960938 292.074219 C 334.914062 293.476562 339.078125 294.410156 343.457031 294.410156 C 363.769531 294.410156 380.21875 277.832031 380.21875 257.339844 C 380.21875 252.917969 379.324219 248.707031 377.882812 244.753906 C 378.6875 244.796875 379.410156 244.96875 380.21875 244.96875 C 400.535156 244.96875 416.980469 228.386719 416.980469 207.9375 C 416.980469 202.707031 415.917969 197.777344 413.964844 193.3125 C 410.945312 186.296875 412.6875 177.878906 418.128906 172.566406 C 424.972656 165.847656 429.261719 156.535156 429.261719 146.164062 " fill-opacity="1" fill-rule="nonzero"/></g><g clip-path="url(#c50119532c)"><path fill="#100f0d" d="M 193.558594 314.691406 C 201.761719 314.691406 209.878906 317.964844 215.785156 324.128906 C 225.007812 333.695312 241.285156 333.738281 250.550781 324.128906 C 259.476562 314.902344 273.246094 312.097656 284.890625 317.199219 C 287.910156 318.558594 291.140625 319.195312 294.453125 319.195312 C 307.96875 319.195312 318.933594 308.101562 318.933594 294.410156 L 318.722656 292.964844 L 317.320312 274.003906 L 335.167969 280.550781 C 338.144531 281.613281 340.820312 282.125 343.457031 282.125 C 356.972656 282.125 367.980469 271.027344 367.980469 257.339844 C 367.980469 254.660156 367.46875 251.898438 366.363281 248.921875 L 359.988281 231.234375 L 380.558594 232.722656 C 380.601562 232.722656 380.601562 232.722656 380.601562 232.722656 C 393.734375 232.722656 404.742188 221.582031 404.742188 207.9375 C 404.742188 204.535156 404.0625 201.261719 402.742188 198.199219 C 397.6875 186.550781 400.449219 172.734375 409.585938 163.808594 C 414.347656 159.128906 416.980469 152.839844 416.980469 146.164062 C 416.980469 139.445312 414.347656 133.195312 409.585938 128.476562 C 400.449219 119.550781 397.6875 105.730469 402.742188 94.082031 C 404.0625 91.023438 404.742188 87.75 404.742188 84.347656 C 404.742188 70.699219 393.734375 59.5625 380.21875 59.5625 L 378.730469 59.773438 L 359.988281 61.050781 L 366.363281 43.363281 C 367.46875 40.386719 367.980469 37.667969 367.980469 34.945312 C 367.980469 21.257812 356.972656 10.160156 343.457031 10.160156 C 340.820312 10.160156 338.144531 10.671875 335.167969 11.734375 L 317.320312 18.28125 L 318.933594 -2.382812 C 318.933594 -15.773438 307.96875 -26.914062 294.453125 -26.914062 C 291.140625 -26.914062 287.910156 -26.230469 284.933594 -24.914062 C 273.246094 -19.8125 259.433594 -22.617188 250.550781 -31.84375 C 241.328125 -41.410156 225.007812 -41.410156 215.785156 -31.84375 C 206.902344 -22.617188 193.089844 -19.8125 181.445312 -24.914062 C 178.429688 -26.230469 175.199219 -26.914062 171.882812 -26.914062 C 158.371094 -26.914062 147.363281 -15.773438 147.363281 -2.125 L 147.574219 -0.679688 L 149.019531 18.28125 L 131.167969 11.734375 C 128.195312 10.671875 125.515625 10.160156 122.882812 10.160156 C 109.367188 10.160156 98.359375 21.257812 98.359375 34.945312 C 98.359375 37.667969 98.910156 40.386719 99.972656 43.363281 L 106.347656 61.050781 L 85.78125 59.5625 C 85.738281 59.5625 85.738281 59.5625 85.738281 59.5625 C 72.605469 59.5625 61.597656 70.699219 61.597656 84.347656 C 61.597656 87.75 62.277344 91.023438 63.59375 94.125 C 68.652344 105.730469 65.890625 119.550781 56.753906 128.476562 C 51.992188 133.195312 49.355469 139.445312 49.355469 146.164062 C 49.355469 152.839844 51.992188 159.128906 56.753906 163.808594 C 65.890625 172.734375 68.652344 186.550781 63.59375 198.199219 C 62.277344 201.261719 61.597656 204.535156 61.597656 207.9375 C 61.597656 221.582031 72.605469 232.722656 86.121094 232.722656 L 87.566406 232.511719 L 106.347656 231.234375 L 99.972656 248.921875 C 98.910156 251.898438 98.359375 254.660156 98.359375 257.339844 C 98.359375 271.027344 109.367188 282.125 122.882812 282.125 C 125.515625 282.125 128.195312 281.613281 131.167969 280.550781 L 149.019531 274.003906 L 147.402344 294.667969 C 147.363281 308.101562 158.371094 319.195312 171.882812 319.195312 C 175.199219 319.195312 178.429688 318.558594 181.402344 317.199219 C 185.3125 315.5 189.4375 314.691406 193.558594 314.691406 Z M 233.167969 356.097656 C 219.867188 356.097656 207.414062 350.785156 198.148438 341.132812 C 196.363281 339.304688 193.472656 338.710938 191.308594 339.644531 C 185.1875 342.367188 178.640625 343.726562 171.882812 343.726562 C 149.0625 343.726562 129.808594 327.953125 124.371094 306.65625 C 96.746094 307.503906 73.878906 285.058594 73.878906 257.339844 C 73.878906 256.785156 73.878906 256.234375 73.878906 255.679688 C 52.757812 250.195312 37.074219 230.851562 37.074219 207.9375 C 37.074219 201.175781 38.433594 194.628906 41.113281 188.464844 C 42.089844 186.128906 41.496094 183.152344 39.625 181.324219 C 30.0625 171.96875 24.835938 159.511719 24.835938 146.164062 C 24.835938 132.8125 30.0625 120.316406 39.625 110.960938 C 41.496094 109.132812 42.089844 106.15625 41.113281 103.820312 C 38.433594 97.65625 37.074219 91.105469 37.074219 84.347656 C 37.074219 61.433594 52.757812 42.089844 73.878906 36.605469 C 73.878906 36.050781 73.878906 35.5 73.878906 34.945312 C 73.878906 7.226562 96.785156 -15.476562 124.371094 -14.371094 C 129.808594 -35.628906 149.0625 -51.441406 171.882812 -51.441406 C 178.640625 -51.441406 185.1875 -50.082031 191.308594 -47.363281 C 193.515625 -46.382812 196.40625 -47.023438 198.148438 -48.851562 C 207.414062 -58.5 219.867188 -63.773438 233.167969 -63.773438 C 246.472656 -63.773438 258.882812 -58.5 268.1875 -48.851562 C 269.972656 -47.023438 272.820312 -46.425781 275.074219 -47.363281 C 281.195312 -50.082031 287.695312 -51.441406 294.453125 -51.441406 C 317.277344 -51.441406 336.484375 -35.628906 341.925781 -14.371094 C 369.507812 -15.519531 392.457031 7.226562 392.457031 34.945312 C 392.457031 35.5 392.457031 36.050781 392.457031 36.605469 C 413.582031 42.089844 429.261719 61.433594 429.261719 84.347656 C 429.261719 91.105469 427.902344 97.65625 425.226562 103.820312 C 424.207031 106.15625 424.84375 109.132812 426.714844 110.960938 C 436.277344 120.316406 441.503906 132.8125 441.503906 146.164062 C 441.503906 159.511719 436.277344 171.96875 426.714844 181.324219 C 424.84375 183.152344 424.207031 186.128906 425.226562 188.464844 C 427.902344 194.628906 429.261719 201.175781 429.261719 207.9375 C 429.261719 230.851562 413.582031 250.195312 392.457031 255.679688 C 392.457031 256.234375 392.457031 256.785156 392.457031 257.339844 C 392.457031 285.058594 369.550781 307.546875 341.925781 306.65625 C 336.484375 327.953125 317.277344 343.726562 294.453125 343.726562 C 287.695312 343.726562 281.195312 342.367188 275.03125 339.644531 C 272.863281 338.667969 269.972656 339.304688 268.1875 341.132812 C 258.882812 350.785156 246.472656 356.097656 233.167969 356.097656 " fill-opacity="1" fill-rule="nonzero"/></g><path fill="#efcf36" d="M 122.882812 183.195312 C 122.882812 203.683594 139.328125 220.265625 159.644531 220.265625 C 159.644531 240.757812 176.089844 257.339844 196.40625 257.339844 L 122.882812 183.195312 " fill-opacity="1" fill-rule="nonzero"/><path fill="#100f0d" d="M 208.648438 269.582031 L 196.40625 269.582031 C 173.117188 269.582031 153.609375 253.214844 148.636719 231.277344 C 126.875 226.21875 110.640625 206.578125 110.640625 183.234375 L 110.640625 170.949219 L 135.121094 170.949219 L 135.121094 183.234375 C 135.121094 196.882812 146.128906 208.023438 159.644531 208.023438 L 171.882812 208.023438 L 171.882812 220.265625 C 171.882812 233.957031 182.890625 245.09375 196.40625 245.09375 L 208.648438 245.09375 L 208.648438 269.582031 " fill-opacity="1" fill-rule="nonzero"/><path fill="#efcf36" d="M 122.882812 96.71875 C 109.324219 96.71875 98.359375 107.773438 98.359375 121.421875 L 122.882812 96.71875 " fill-opacity="1" fill-rule="nonzero"/><path fill="#100f0d" d="M 110.640625 133.707031 L 86.121094 133.707031 L 86.121094 121.421875 C 86.121094 101.054688 102.609375 84.476562 122.882812 84.476562 L 135.121094 84.476562 L 135.121094 108.964844 L 122.882812 108.964844 C 116.125 108.964844 110.640625 114.574219 110.640625 121.421875 L 110.640625 133.707031 " fill-opacity="1" fill-rule="nonzero"/><path fill="#efcf36" d="M 269.675781 57.136719 C 268.359375 37.878906 252.632812 22.574219 233.167969 22.574219 C 216.167969 22.574219 202.058594 34.265625 197.808594 50.039062 C 193.601562 48.296875 188.96875 47.316406 184.167969 47.316406 C 174.6875 47.316406 166.105469 50.890625 159.601562 56.796875 L 269.675781 57.136719 " fill-opacity="1" fill-rule="nonzero"/><path fill="#100f0d" d="M 158.75 74.101562 L 142.304688 55.90625 L 151.355469 47.699219 C 161.980469 38.09375 176.472656 33.585938 190.585938 35.5 C 199.125 20.234375 215.277344 10.332031 233.167969 10.332031 C 258.753906 10.332031 280.132812 30.523438 281.917969 56.289062 L 282.722656 68.53125 L 258.285156 70.191406 L 257.4375 57.988281 C 256.585938 45.023438 245.917969 34.859375 233.167969 34.859375 C 222.246094 34.859375 212.554688 42.386719 209.667969 53.183594 L 206.054688 66.617188 L 193.175781 61.390625 C 184.378906 57.777344 174.5625 59.773438 167.804688 65.855469 L 158.75 74.101562 " fill-opacity="1" fill-rule="nonzero"/><path fill="#efcf36" d="M 355.695312 121.421875 C 355.695312 105.222656 345.328125 91.617188 331.003906 86.558594 L 355.695312 121.421875 " fill-opacity="1" fill-rule="nonzero"/><path fill="#100f0d" d="M 367.980469 133.707031 L 343.457031 133.707031 L 343.457031 121.421875 C 343.457031 110.960938 336.828125 101.609375 326.921875 98.121094 L 315.363281 94.082031 L 323.480469 70.957031 L 335.042969 74.996094 C 354.761719 81.925781 367.980469 100.589844 367.980469 121.421875 L 367.980469 133.707031 " fill-opacity="1" fill-rule="nonzero"/><path fill="#efcf36" d="M 318.933594 220.265625 C 339.25 220.265625 355.695312 203.683594 355.695312 183.195312 L 318.933594 220.265625 " fill-opacity="1" fill-rule="nonzero"/><path fill="#100f0d" d="M 318.933594 232.550781 L 306.695312 232.550781 L 306.695312 208.023438 L 318.933594 208.023438 C 332.449219 208.023438 343.457031 196.882812 343.457031 183.234375 L 343.457031 170.949219 L 367.980469 170.949219 L 367.980469 183.234375 C 367.980469 210.402344 345.964844 232.550781 318.933594 232.550781 " fill-opacity="1" fill-rule="nonzero"/><path fill="#efcf36" d="M 252.761719 272.175781 C 263.597656 280.339844 278.984375 278.128906 287.101562 267.203125 L 252.761719 272.175781 " fill-opacity="1" fill-rule="nonzero"/><path fill="#100f0d" d="M 267.425781 289.394531 C 259.476562 289.394531 251.828125 286.800781 245.367188 281.953125 L 235.632812 274.558594 L 250.382812 255 L 260.15625 262.398438 C 262.792969 264.351562 265.9375 265.203125 269.167969 264.734375 C 272.4375 264.269531 275.285156 262.566406 277.285156 259.890625 L 284.59375 250.070312 L 304.269531 264.695312 L 296.917969 274.558594 C 291.011719 282.464844 282.425781 287.609375 272.652344 289.011719 C 270.910156 289.265625 269.125 289.394531 267.425781 289.394531 " fill-opacity="1" fill-rule="nonzero"/><path fill="#100f0d" d="M 177.152344 144.972656 L 153.652344 137.957031 L 157.136719 126.222656 C 159.984375 116.699219 166.316406 108.921875 174.988281 104.246094 C 183.613281 99.566406 193.558594 98.546875 202.953125 101.394531 L 214.679688 104.96875 L 207.585938 128.433594 L 195.855469 124.863281 C 192.75 123.972656 189.523438 124.269531 186.632812 125.800781 C 183.699219 127.371094 181.574219 130.007812 180.640625 133.238281 L 177.152344 144.972656 " fill-opacity="1" fill-rule="nonzero"/><path fill="#100f0d" d="M 286.378906 213.847656 L 262.917969 206.832031 L 266.402344 195.097656 C 268.402344 188.507812 264.703125 181.535156 258.160156 179.578125 L 246.429688 176.007812 L 253.527344 152.539062 L 265.257812 156.113281 C 284.636719 161.9375 295.6875 182.597656 289.90625 202.070312 L 286.378906 213.847656 " fill-opacity="1" fill-rule="nonzero"/><path fill="#100f0d" d="M 229.9375 223.070312 L 217.785156 221.5 C 197.683594 218.992188 183.359375 200.453125 185.867188 180.261719 L 187.355469 168.101562 L 211.707031 171.121094 L 210.175781 183.277344 C 209.328125 190.082031 214.128906 196.371094 220.84375 197.179688 L 233 198.710938 L 229.9375 223.070312 " fill-opacity="1" fill-rule="nonzero"/><path fill="#efcf36" d="M 269.929688 109.089844 C 290.246094 109.089844 306.695312 125.671875 306.695312 146.164062 L 269.929688 109.089844 " fill-opacity="1" fill-rule="nonzero"/><path fill="#100f0d" d="M 318.933594 158.40625 L 294.453125 158.40625 L 294.453125 146.164062 C 294.453125 132.472656 283.445312 121.335938 269.929688 121.335938 L 257.691406 121.335938 L 257.691406 96.804688 L 269.929688 96.804688 C 296.960938 96.804688 318.933594 118.953125 318.933594 146.164062 L 318.933594 158.40625 " fill-opacity="1" fill-rule="nonzero"/><path fill="#ffffff" d="M 257.691406 417.957031 L 306.695312 380.886719 L 257.691406 417.957031 " fill-opacity="1" fill-rule="nonzero"/><g clip-path="url(#692af0ecf4)"><path fill="#100f0d" d="M 255.3125 435.132812 L 240.523438 415.578125 L 309.074219 363.710938 L 323.863281 383.265625 L 255.3125 435.132812 " fill-opacity="1" fill-rule="nonzero"/></g><g fill="#ff0000" fill-opacity="1"><g transform="translate(64.306552, 387.475297)"><g><path d="M 4.34375 -12.359375 C 3.125 -15.304688 2.285156 -18.332031 1.828125 -21.4375 C 1.578125 -23.207031 1.363281 -24.992188 1.1875 -26.796875 C 1.007812 -28.609375 1.171875 -30.40625 1.671875 -32.1875 C 1.929688 -33.300781 2.265625 -34.378906 2.671875 -35.421875 C 3.078125 -36.460938 3.484375 -37.519531 3.890625 -38.59375 C 4.191406 -39.40625 4.40625 -40.21875 4.53125 -41.03125 C 4.664062 -41.84375 4.859375 -42.679688 5.109375 -43.546875 C 5.617188 -45.378906 6.378906 -46.96875 7.390625 -48.3125 C 8.410156 -49.65625 9.757812 -50.757812 11.4375 -51.625 C 13.007812 -52.488281 14.632812 -53.175781 16.3125 -53.6875 C 18 -54.195312 19.707031 -54.601562 21.4375 -54.90625 C 23.007812 -55.21875 24.59375 -55.445312 26.1875 -55.59375 C 27.789062 -55.75 29.410156 -55.722656 31.046875 -55.515625 C 31.898438 -55.421875 32.617188 -55.117188 33.203125 -54.609375 C 33.796875 -54.097656 34.09375 -53.410156 34.09375 -52.546875 C 34.09375 -51.785156 33.796875 -51.0625 33.203125 -50.375 C 32.617188 -49.6875 31.898438 -49.394531 31.046875 -49.5 C 30.890625 -49.5 30.734375 -49.507812 30.578125 -49.53125 C 30.429688 -49.5625 30.28125 -49.578125 30.125 -49.578125 C 28.601562 -49.671875 27.066406 -49.628906 25.515625 -49.453125 C 23.960938 -49.273438 22.445312 -49.007812 20.96875 -48.65625 C 20.101562 -48.40625 19.238281 -48.164062 18.375 -47.9375 C 17.507812 -47.707031 16.671875 -47.410156 15.859375 -47.046875 C 15.304688 -46.796875 14.75 -46.519531 14.1875 -46.21875 C 13.78125 -46.007812 13.5 -45.832031 13.34375 -45.6875 C 12.375 -44.875 11.738281 -44.109375 11.4375 -43.390625 C 11.132812 -42.679688 10.894531 -41.929688 10.71875 -41.140625 C 10.539062 -40.359375 10.375 -39.554688 10.21875 -38.734375 C 10.0625 -37.921875 9.859375 -37.160156 9.609375 -36.453125 C 9.203125 -35.429688 8.796875 -34.382812 8.390625 -33.3125 C 7.984375 -32.25 7.648438 -31.160156 7.390625 -30.046875 C 7.242188 -29.285156 7.195312 -28.519531 7.25 -27.75 C 7.300781 -26.988281 7.375 -26.226562 7.46875 -25.46875 C 7.570312 -24.144531 7.738281 -22.769531 7.96875 -21.34375 C 8.195312 -19.925781 8.515625 -18.554688 8.921875 -17.234375 C 9.328125 -15.910156 9.875 -14.648438 10.5625 -13.453125 C 11.25 -12.265625 12.101562 -11.210938 13.125 -10.296875 C 14.394531 -9.222656 15.84375 -8.445312 17.46875 -7.96875 C 19.09375 -7.488281 20.71875 -7.144531 22.34375 -6.9375 C 24.375 -6.632812 26.351562 -6.609375 28.28125 -6.859375 C 30.21875 -7.117188 32.050781 -7.832031 33.78125 -9 C 34.59375 -9.507812 35.367188 -9.625 36.109375 -9.34375 C 36.847656 -9.0625 37.40625 -8.601562 37.78125 -7.96875 C 38.164062 -7.332031 38.316406 -6.59375 38.234375 -5.75 C 38.160156 -4.914062 37.71875 -4.242188 36.90625 -3.734375 C 34.46875 -2.109375 31.863281 -1.15625 29.09375 -0.875 C 26.320312 -0.59375 23.539062 -0.65625 20.75 -1.0625 C 18.863281 -1.320312 17.03125 -1.71875 15.25 -2.25 C 13.46875 -2.78125 11.816406 -3.628906 10.296875 -4.796875 C 7.648438 -6.734375 5.664062 -9.253906 4.34375 -12.359375 Z M 4.34375 -12.359375 "/></g></g></g><g fill="#ff0000" fill-opacity="1"><g transform="translate(102.967228, 387.475297)"><g><path d="M 11.4375 -3.734375 C 10.269531 -4.597656 9.210938 -5.578125 8.265625 -6.671875 C 7.328125 -7.765625 6.476562 -8.921875 5.71875 -10.140625 C 5.007812 -11.210938 4.320312 -12.359375 3.65625 -13.578125 C 3 -14.796875 2.414062 -16.039062 1.90625 -17.3125 C 1.394531 -18.582031 1 -19.878906 0.71875 -21.203125 C 0.445312 -22.523438 0.359375 -23.847656 0.453125 -25.171875 C 0.609375 -27.765625 0.875 -30.316406 1.25 -32.828125 C 1.632812 -35.347656 2.160156 -37.828125 2.828125 -40.265625 C 3.023438 -41.179688 3.273438 -42.195312 3.578125 -43.3125 C 3.890625 -44.4375 4.285156 -45.519531 4.765625 -46.5625 C 5.242188 -47.601562 5.8125 -48.554688 6.46875 -49.421875 C 7.132812 -50.285156 7.976562 -50.945312 9 -51.40625 C 10.519531 -52.0625 12.039062 -52.300781 13.5625 -52.125 C 15.09375 -51.945312 16.582031 -51.523438 18.03125 -50.859375 C 19.476562 -50.203125 20.863281 -49.398438 22.1875 -48.453125 C 23.507812 -47.515625 24.753906 -46.59375 25.921875 -45.6875 C 26.992188 -44.820312 28.050781 -43.914062 29.09375 -42.96875 C 30.132812 -42.03125 31.210938 -41.128906 32.328125 -40.265625 C 33.648438 -39.097656 34.984375 -37.925781 36.328125 -36.75 C 37.679688 -35.582031 38.789062 -34.238281 39.65625 -32.71875 C 40.675781 -30.988281 41.257812 -29.242188 41.40625 -27.484375 C 41.5625 -25.734375 41.4375 -24.003906 41.03125 -22.296875 C 40.625 -20.597656 39.988281 -18.9375 39.125 -17.3125 C 38.257812 -15.6875 37.316406 -14.109375 36.296875 -12.578125 C 35.378906 -11.253906 34.320312 -9.851562 33.125 -8.375 C 31.9375 -6.90625 30.617188 -5.5625 29.171875 -4.34375 C 27.722656 -3.125 26.171875 -2.15625 24.515625 -1.4375 C 22.867188 -0.726562 21.128906 -0.476562 19.296875 -0.6875 C 18.222656 -0.84375 17.4375 -1.25 16.9375 -1.90625 C 15.96875 -2.0625 15.023438 -2.265625 14.109375 -2.515625 C 13.191406 -2.765625 12.300781 -3.171875 11.4375 -3.734375 Z M 6.5625 -25.703125 C 6.457031 -24.429688 6.519531 -23.257812 6.75 -22.1875 C 6.976562 -21.125 7.375 -19.929688 7.9375 -18.609375 C 8.644531 -17.128906 9.429688 -15.640625 10.296875 -14.140625 C 11.160156 -12.640625 12.175781 -11.28125 13.34375 -10.0625 C 14.363281 -8.945312 15.535156 -8.257812 16.859375 -8 C 17.722656 -7.851562 18.5625 -7.710938 19.375 -7.578125 C 20.1875 -7.453125 21 -7.265625 21.8125 -7.015625 C 22.113281 -7.117188 22.414062 -7.234375 22.71875 -7.359375 C 23.03125 -7.484375 23.335938 -7.675781 23.640625 -7.9375 C 24.503906 -8.488281 25.289062 -9.09375 26 -9.75 C 26.71875 -10.414062 27.40625 -11.109375 28.0625 -11.828125 C 29.332031 -13.242188 30.566406 -14.789062 31.765625 -16.46875 C 32.960938 -18.144531 33.914062 -19.875 34.625 -21.65625 C 35.332031 -23.4375 35.609375 -25.113281 35.453125 -26.6875 C 35.304688 -28.269531 34.570312 -29.796875 33.25 -31.265625 C 32.03125 -32.640625 30.695312 -33.898438 29.25 -35.046875 C 27.800781 -36.191406 26.390625 -37.347656 25.015625 -38.515625 C 23.847656 -39.523438 22.703125 -40.488281 21.578125 -41.40625 C 20.460938 -42.320312 19.242188 -43.1875 17.921875 -44 C 16.703125 -44.8125 15.507812 -45.421875 14.34375 -45.828125 C 14.1875 -45.878906 14.046875 -45.914062 13.921875 -45.9375 C 13.796875 -45.96875 13.65625 -46.007812 13.5 -46.0625 L 12.359375 -46.140625 C 11.953125 -46.035156 11.695312 -45.929688 11.59375 -45.828125 C 11.238281 -45.421875 11.035156 -45.21875 10.984375 -45.21875 C 10.628906 -44.613281 10.398438 -44.179688 10.296875 -43.921875 C 10.191406 -43.671875 10.039062 -43.265625 9.84375 -42.703125 C 9.332031 -41.234375 8.894531 -39.75 8.53125 -38.25 C 8.175781 -36.75 7.875 -35.257812 7.625 -33.78125 C 7.375 -32.3125 7.160156 -30.960938 6.984375 -29.734375 C 6.804688 -28.515625 6.664062 -27.171875 6.5625 -25.703125 Z M 6.5625 -25.703125 "/></g></g></g><g fill="#ff0000" fill-opacity="1"><g transform="translate(145.593101, 387.475297)"><g><path d="M 33.09375 -1.90625 C 32.6875 -1.195312 32.0625 -0.710938 31.21875 -0.453125 C 30.382812 -0.203125 29.613281 -0.332031 28.90625 -0.84375 C 27.53125 -1.851562 26.207031 -2.90625 24.9375 -4 C 23.664062 -5.09375 22.289062 -6.070312 20.8125 -6.9375 C 19.5 -7.75 18.179688 -8.5 16.859375 -9.1875 C 15.535156 -9.875 14.265625 -10.675781 13.046875 -11.59375 C 11.566406 -12.707031 10.191406 -13.925781 8.921875 -15.25 C 8.867188 -12.707031 8.894531 -10.175781 9 -7.65625 C 9.101562 -5.144531 9.253906 -2.617188 9.453125 -0.078125 C 9.554688 0.785156 9.273438 1.507812 8.609375 2.09375 C 7.953125 2.675781 7.242188 2.96875 6.484375 2.96875 C 5.566406 2.96875 4.851562 2.675781 4.34375 2.09375 C 3.832031 1.507812 3.53125 0.785156 3.4375 -0.078125 C 3.125 -3.734375 2.941406 -7.328125 2.890625 -10.859375 C 2.847656 -14.398438 2.925781 -17.972656 3.125 -21.578125 C 2.71875 -22.140625 2.3125 -22.710938 1.90625 -23.296875 C 1.5 -23.878906 1.117188 -24.476562 0.765625 -25.09375 C 0.460938 -25.695312 0.347656 -26.28125 0.421875 -26.84375 C 0.492188 -27.40625 0.695312 -27.890625 1.03125 -28.296875 C 1.363281 -28.703125 1.769531 -29.03125 2.25 -29.28125 C 2.726562 -29.539062 3.25 -29.644531 3.8125 -29.59375 C 3.914062 -30.757812 4.039062 -31.9375 4.1875 -33.125 C 4.34375 -34.320312 4.5 -35.507812 4.65625 -36.6875 C 4.800781 -37.5 4.9375 -38.296875 5.0625 -39.078125 C 5.195312 -39.867188 5.316406 -40.671875 5.421875 -41.484375 C 5.515625 -41.890625 5.570312 -42.269531 5.59375 -42.625 C 5.625 -42.988281 5.691406 -43.375 5.796875 -43.78125 C 5.796875 -43.976562 5.847656 -44.226562 5.953125 -44.53125 C 6.003906 -45.195312 6.03125 -45.847656 6.03125 -46.484375 C 6.03125 -47.117188 6.050781 -47.765625 6.09375 -48.421875 C 6.144531 -49.234375 6.234375 -50.109375 6.359375 -51.046875 C 6.492188 -51.992188 6.695312 -52.910156 6.96875 -53.796875 C 7.25 -54.691406 7.644531 -55.519531 8.15625 -56.28125 C 8.664062 -57.039062 9.351562 -57.625 10.21875 -58.03125 C 11.03125 -58.394531 11.851562 -58.597656 12.6875 -58.640625 C 13.53125 -58.691406 14.367188 -58.640625 15.203125 -58.484375 C 16.046875 -58.335938 16.875 -58.125 17.6875 -57.84375 C 18.5 -57.5625 19.289062 -57.269531 20.0625 -56.96875 C 21.832031 -56.3125 23.59375 -55.5625 25.34375 -54.71875 C 27.101562 -53.875 28.671875 -52.796875 30.046875 -51.484375 C 31.367188 -50.160156 32.507812 -48.59375 33.46875 -46.78125 C 34.4375 -44.976562 34.875 -43.113281 34.78125 -41.1875 C 34.675781 -40.007812 34.429688 -38.976562 34.046875 -38.09375 C 33.671875 -37.207031 33.148438 -36.304688 32.484375 -35.390625 C 30.859375 -33.097656 29.101562 -30.910156 27.21875 -28.828125 C 25.34375 -26.742188 23.335938 -24.835938 21.203125 -23.109375 C 20.179688 -22.296875 19.070312 -21.484375 17.875 -20.671875 C 16.6875 -19.859375 15.429688 -19.171875 14.109375 -18.609375 C 14.566406 -18.203125 15.023438 -17.796875 15.484375 -17.390625 C 15.941406 -16.984375 16.425781 -16.628906 16.9375 -16.328125 C 18.25 -15.460938 19.578125 -14.660156 20.921875 -13.921875 C 22.273438 -13.179688 23.585938 -12.378906 24.859375 -11.515625 C 26.078125 -10.648438 27.269531 -9.734375 28.4375 -8.765625 C 29.613281 -7.804688 30.785156 -6.894531 31.953125 -6.03125 C 32.660156 -5.570312 33.128906 -4.957031 33.359375 -4.1875 C 33.585938 -3.425781 33.5 -2.664062 33.09375 -1.90625 Z M 12.5 -24.5625 C 13.726562 -25.21875 14.835938 -25.914062 15.828125 -26.65625 C 16.816406 -27.394531 17.796875 -28.195312 18.765625 -29.0625 C 19.773438 -29.96875 20.765625 -30.929688 21.734375 -31.953125 C 22.703125 -32.972656 23.644531 -33.988281 24.5625 -35 C 24.914062 -35.457031 25.242188 -35.863281 25.546875 -36.21875 C 25.847656 -36.582031 26.125 -36.925781 26.375 -37.25 C 26.632812 -37.582031 26.90625 -37.9375 27.1875 -38.3125 C 27.46875 -38.695312 27.757812 -39.144531 28.0625 -39.65625 C 28.164062 -39.8125 28.265625 -39.960938 28.359375 -40.109375 C 28.460938 -40.265625 28.566406 -40.421875 28.671875 -40.578125 C 28.722656 -41.992188 28.421875 -43.3125 27.765625 -44.53125 C 26.898438 -46.007812 25.816406 -47.207031 24.515625 -48.125 C 23.222656 -49.039062 21.785156 -49.800781 20.203125 -50.40625 C 19.296875 -50.8125 18.382812 -51.164062 17.46875 -51.46875 C 16.550781 -51.78125 15.582031 -52.0625 14.5625 -52.3125 C 14.3125 -52.414062 13.929688 -52.519531 13.421875 -52.625 C 13.117188 -52.519531 12.914062 -52.367188 12.8125 -52.171875 C 12.601562 -51.503906 12.5 -51.046875 12.5 -50.796875 C 12.457031 -50.640625 12.382812 -50.359375 12.28125 -49.953125 C 12.226562 -49.441406 12.1875 -49.046875 12.15625 -48.765625 C 12.132812 -48.484375 12.125 -48.191406 12.125 -47.890625 C 11.96875 -44.378906 11.597656 -40.921875 11.015625 -37.515625 C 10.429688 -34.109375 9.960938 -30.65625 9.609375 -27.15625 C 9.503906 -26.59375 9.4375 -26.019531 9.40625 -25.4375 C 9.382812 -24.851562 9.347656 -24.28125 9.296875 -23.71875 C 9.753906 -23.664062 10.007812 -23.664062 10.0625 -23.71875 C 10.625 -23.820312 11.066406 -23.9375 11.390625 -24.0625 C 11.722656 -24.1875 12.09375 -24.351562 12.5 -24.5625 Z M 12.5 -24.5625 "/></g></g></g><g fill="#ff0000" fill-opacity="1"><g transform="translate(181.127371, 387.475297)"><g><path d="M 1.0625 -47.125 C 0.25 -47.03125 -0.457031 -47.3125 -1.0625 -47.96875 C -1.675781 -48.632812 -1.984375 -49.375 -1.984375 -50.1875 C -1.984375 -51.050781 -1.675781 -51.75 -1.0625 -52.28125 C -0.457031 -52.8125 0.25 -53.128906 1.0625 -53.234375 C 3.601562 -53.429688 6.117188 -53.53125 8.609375 -53.53125 C 11.109375 -53.53125 13.628906 -53.457031 16.171875 -53.3125 C 16.878906 -53.5625 17.640625 -53.507812 18.453125 -53.15625 C 23.179688 -52.800781 27.960938 -52.191406 32.796875 -51.328125 C 33.609375 -51.171875 34.21875 -50.6875 34.625 -49.875 C 35.03125 -49.0625 35.109375 -48.300781 34.859375 -47.59375 C 34.597656 -46.726562 34.125 -46.128906 33.4375 -45.796875 C 32.75 -45.460938 31.972656 -45.347656 31.109375 -45.453125 C 29.179688 -45.804688 27.273438 -46.109375 25.390625 -46.359375 C 23.515625 -46.617188 21.609375 -46.828125 19.671875 -46.984375 C 18.960938 -43.421875 18.546875 -39.859375 18.421875 -36.296875 C 18.296875 -32.742188 18.410156 -29.132812 18.765625 -25.46875 C 19.117188 -21.707031 19.625 -17.984375 20.28125 -14.296875 C 20.945312 -10.609375 21.632812 -6.910156 22.34375 -3.203125 C 22.5 -2.335938 22.410156 -1.5625 22.078125 -0.875 C 21.742188 -0.1875 21.144531 0.28125 20.28125 0.53125 C 19.519531 0.789062 18.742188 0.710938 17.953125 0.296875 C 17.171875 -0.109375 16.703125 -0.71875 16.546875 -1.53125 C 15.734375 -5.644531 14.957031 -9.722656 14.21875 -13.765625 C 13.488281 -17.804688 12.941406 -21.882812 12.578125 -26 C 12.273438 -29.613281 12.195312 -33.195312 12.34375 -36.75 C 12.5 -40.3125 12.910156 -43.847656 13.578125 -47.359375 C 9.410156 -47.515625 5.238281 -47.4375 1.0625 -47.125 Z M 1.0625 -47.125 "/></g></g></g><g fill="#ff0000" fill-opacity="1"><g transform="translate(211.01886, 387.475297)"><g><path d="M 1.375 0 C 0.457031 -0.25 -0.148438 -0.753906 -0.453125 -1.515625 C -0.765625 -2.285156 -0.816406 -3.023438 -0.609375 -3.734375 C -0.410156 -4.441406 0.00390625 -5.035156 0.640625 -5.515625 C 1.273438 -6.003906 2.050781 -6.125 2.96875 -5.875 C 5.007812 -5.257812 7.046875 -4.875 9.078125 -4.71875 C 11.109375 -4.570312 13.191406 -4.550781 15.328125 -4.65625 C 14.460938 -8.257812 14.03125 -11.878906 14.03125 -15.515625 C 14.03125 -19.148438 14.171875 -22.785156 14.453125 -26.421875 C 14.734375 -30.054688 15.007812 -33.703125 15.28125 -37.359375 C 15.5625 -41.023438 15.578125 -44.6875 15.328125 -48.34375 C 13.398438 -48.394531 11.457031 -48.484375 9.5 -48.609375 C 7.539062 -48.742188 5.59375 -48.9375 3.65625 -49.1875 C 2.789062 -49.289062 2.066406 -49.597656 1.484375 -50.109375 C 0.898438 -50.617188 0.609375 -51.304688 0.609375 -52.171875 C 0.609375 -52.929688 0.898438 -53.65625 1.484375 -54.34375 C 2.066406 -55.03125 2.789062 -55.320312 3.65625 -55.21875 C 6 -54.957031 8.351562 -54.738281 10.71875 -54.5625 C 13.082031 -54.382812 15.429688 -54.320312 17.765625 -54.375 C 20.109375 -54.425781 22.4375 -54.628906 24.75 -54.984375 C 27.0625 -55.335938 29.363281 -55.921875 31.65625 -56.734375 C 32.414062 -56.992188 33.160156 -56.894531 33.890625 -56.4375 C 34.628906 -55.976562 35.128906 -55.367188 35.390625 -54.609375 C 35.640625 -53.742188 35.546875 -52.96875 35.109375 -52.28125 C 34.679688 -51.59375 34.0625 -51.125 33.25 -50.875 C 29.4375 -49.550781 25.472656 -48.757812 21.359375 -48.5 C 21.660156 -44.894531 21.65625 -41.257812 21.34375 -37.59375 C 21.039062 -33.9375 20.738281 -30.300781 20.4375 -26.6875 C 20.132812 -23.082031 19.992188 -19.472656 20.015625 -15.859375 C 20.046875 -12.253906 20.519531 -8.671875 21.4375 -5.109375 C 23.0625 -5.265625 24.660156 -5.414062 26.234375 -5.5625 C 27.804688 -5.71875 29.382812 -5.847656 30.96875 -5.953125 C 31.925781 -6.003906 32.644531 -5.734375 33.125 -5.140625 C 33.613281 -4.554688 33.859375 -3.882812 33.859375 -3.125 C 33.859375 -2.363281 33.613281 -1.648438 33.125 -0.984375 C 32.644531 -0.328125 31.925781 0.0234375 30.96875 0.078125 C 28.46875 0.234375 25.984375 0.445312 23.515625 0.71875 C 21.054688 1 18.59375 1.203125 16.125 1.328125 C 13.664062 1.460938 11.203125 1.453125 8.734375 1.296875 C 6.265625 1.140625 3.8125 0.707031 1.375 0 Z M 1.375 0 "/></g></g></g><g fill="#ff0000" fill-opacity="1"><g transform="translate(245.714338, 387.475297)"><g><path d="M 18.234375 -20.890625 C 17.003906 -22.160156 15.703125 -23.34375 14.328125 -24.4375 C 12.960938 -25.53125 11.601562 -26.625 10.25 -27.71875 C 8.90625 -28.8125 7.597656 -29.957031 6.328125 -31.15625 C 5.054688 -32.351562 3.890625 -33.660156 2.828125 -35.078125 C 1.703125 -36.554688 0.820312 -38.171875 0.1875 -39.921875 C -0.445312 -41.679688 -0.5625 -43.5 -0.15625 -45.375 C 0.25 -47.40625 1.238281 -49.179688 2.8125 -50.703125 C 4.394531 -52.234375 6.101562 -53.429688 7.9375 -54.296875 C 9.914062 -55.160156 11.921875 -55.757812 13.953125 -56.09375 C 15.984375 -56.425781 18.039062 -56.628906 20.125 -56.703125 C 22.21875 -56.773438 24.316406 -56.773438 26.421875 -56.703125 C 28.535156 -56.628906 30.632812 -56.640625 32.71875 -56.734375 C 33.6875 -56.785156 34.410156 -56.503906 34.890625 -55.890625 C 35.367188 -55.285156 35.609375 -54.601562 35.609375 -53.84375 C 35.609375 -53.082031 35.367188 -52.382812 34.890625 -51.75 C 34.410156 -51.113281 33.6875 -50.769531 32.71875 -50.71875 C 31.238281 -50.613281 29.773438 -50.570312 28.328125 -50.59375 C 26.878906 -50.625 25.421875 -50.664062 23.953125 -50.71875 C 21.960938 -50.769531 19.960938 -50.742188 17.953125 -50.640625 C 15.953125 -50.535156 13.984375 -50.128906 12.046875 -49.421875 C 11.390625 -49.160156 10.675781 -48.835938 9.90625 -48.453125 C 9.144531 -48.078125 8.445312 -47.609375 7.8125 -47.046875 C 7.175781 -46.492188 6.65625 -45.882812 6.25 -45.21875 C 5.84375 -44.5625 5.664062 -43.851562 5.71875 -43.09375 C 5.769531 -42.375 5.945312 -41.671875 6.25 -40.984375 C 6.5625 -40.304688 6.957031 -39.632812 7.4375 -38.96875 C 7.914062 -38.3125 8.4375 -37.675781 9 -37.0625 C 9.5625 -36.457031 10.09375 -35.898438 10.59375 -35.390625 C 11.769531 -34.210938 12.992188 -33.140625 14.265625 -32.171875 C 15.535156 -31.210938 16.804688 -30.222656 18.078125 -29.203125 C 19.398438 -28.140625 20.734375 -26.957031 22.078125 -25.65625 C 23.421875 -24.363281 24.585938 -22.96875 25.578125 -21.46875 C 26.578125 -19.96875 27.316406 -18.378906 27.796875 -16.703125 C 28.273438 -15.023438 28.335938 -13.242188 27.984375 -11.359375 C 27.628906 -9.578125 26.957031 -8.0625 25.96875 -6.8125 C 24.976562 -5.570312 23.804688 -4.457031 22.453125 -3.46875 C 21.109375 -2.476562 19.6875 -1.585938 18.1875 -0.796875 C 16.6875 -0.015625 15.25 0.78125 13.875 1.59375 C 13.007812 2.101562 12.207031 2.207031 11.46875 1.90625 C 10.738281 1.601562 10.179688 1.117188 9.796875 0.453125 C 9.421875 -0.203125 9.269531 -0.921875 9.34375 -1.703125 C 9.414062 -2.492188 9.882812 -3.144531 10.75 -3.65625 C 11.96875 -4.375 13.1875 -5.035156 14.40625 -5.640625 C 15.632812 -6.253906 16.832031 -6.941406 18 -7.703125 C 19.113281 -8.410156 20.085938 -9.257812 20.921875 -10.25 C 21.765625 -11.25 22.1875 -12.410156 22.1875 -13.734375 C 22.132812 -15.046875 21.710938 -16.3125 20.921875 -17.53125 C 20.140625 -18.757812 19.242188 -19.878906 18.234375 -20.890625 Z M 18.234375 -20.890625 "/></g></g></g><g fill="#ff0000" fill-opacity="1"><g transform="translate(277.817187, 387.475297)"><g><path d="M 11.4375 -3.734375 C 10.269531 -4.597656 9.210938 -5.578125 8.265625 -6.671875 C 7.328125 -7.765625 6.476562 -8.921875 5.71875 -10.140625 C 5.007812 -11.210938 4.320312 -12.359375 3.65625 -13.578125 C 3 -14.796875 2.414062 -16.039062 1.90625 -17.3125 C 1.394531 -18.582031 1 -19.878906 0.71875 -21.203125 C 0.445312 -22.523438 0.359375 -23.847656 0.453125 -25.171875 C 0.609375 -27.765625 0.875 -30.316406 1.25 -32.828125 C 1.632812 -35.347656 2.160156 -37.828125 2.828125 -40.265625 C 3.023438 -41.179688 3.273438 -42.195312 3.578125 -43.3125 C 3.890625 -44.4375 4.285156 -45.519531 4.765625 -46.5625 C 5.242188 -47.601562 5.8125 -48.554688 6.46875 -49.421875 C 7.132812 -50.285156 7.976562 -50.945312 9 -51.40625 C 10.519531 -52.0625 12.039062 -52.300781 13.5625 -52.125 C 15.09375 -51.945312 16.582031 -51.523438 18.03125 -50.859375 C 19.476562 -50.203125 20.863281 -49.398438 22.1875 -48.453125 C 23.507812 -47.515625 24.753906 -46.59375 25.921875 -45.6875 C 26.992188 -44.820312 28.050781 -43.914062 29.09375 -42.96875 C 30.132812 -42.03125 31.210938 -41.128906 32.328125 -40.265625 C 33.648438 -39.097656 34.984375 -37.925781 36.328125 -36.75 C 37.679688 -35.582031 38.789062 -34.238281 39.65625 -32.71875 C 40.675781 -30.988281 41.257812 -29.242188 41.40625 -27.484375 C 41.5625 -25.734375 41.4375 -24.003906 41.03125 -22.296875 C 40.625 -20.597656 39.988281 -18.9375 39.125 -17.3125 C 38.257812 -15.6875 37.316406 -14.109375 36.296875 -12.578125 C 35.378906 -11.253906 34.320312 -9.851562 33.125 -8.375 C 31.9375 -6.90625 30.617188 -5.5625 29.171875 -4.34375 C 27.722656 -3.125 26.171875 -2.15625 24.515625 -1.4375 C 22.867188 -0.726562 21.128906 -0.476562 19.296875 -0.6875 C 18.222656 -0.84375 17.4375 -1.25 16.9375 -1.90625 C 15.96875 -2.0625 15.023438 -2.265625 14.109375 -2.515625 C 13.191406 -2.765625 12.300781 -3.171875 11.4375 -3.734375 Z M 6.5625 -25.703125 C 6.457031 -24.429688 6.519531 -23.257812 6.75 -22.1875 C 6.976562 -21.125 7.375 -19.929688 7.9375 -18.609375 C 8.644531 -17.128906 9.429688 -15.640625 10.296875 -14.140625 C 11.160156 -12.640625 12.175781 -11.28125 13.34375 -10.0625 C 14.363281 -8.945312 15.535156 -8.257812 16.859375 -8 C 17.722656 -7.851562 18.5625 -7.710938 19.375 -7.578125 C 20.1875 -7.453125 21 -7.265625 21.8125 -7.015625 C 22.113281 -7.117188 22.414062 -7.234375 22.71875 -7.359375 C 23.03125 -7.484375 23.335938 -7.675781 23.640625 -7.9375 C 24.503906 -8.488281 25.289062 -9.09375 26 -9.75 C 26.71875 -10.414062 27.40625 -11.109375 28.0625 -11.828125 C 29.332031 -13.242188 30.566406 -14.789062 31.765625 -16.46875 C 32.960938 -18.144531 33.914062 -19.875 34.625 -21.65625 C 35.332031 -23.4375 35.609375 -25.113281 35.453125 -26.6875 C 35.304688 -28.269531 34.570312 -29.796875 33.25 -31.265625 C 32.03125 -32.640625 30.695312 -33.898438 29.25 -35.046875 C 27.800781 -36.191406 26.390625 -37.347656 25.015625 -38.515625 C 23.847656 -39.523438 22.703125 -40.488281 21.578125 -41.40625 C 20.460938 -42.320312 19.242188 -43.1875 17.921875 -44 C 16.703125 -44.8125 15.507812 -45.421875 14.34375 -45.828125 C 14.1875 -45.878906 14.046875 -45.914062 13.921875 -45.9375 C 13.796875 -45.96875 13.65625 -46.007812 13.5 -46.0625 L 12.359375 -46.140625 C 11.953125 -46.035156 11.695312 -45.929688 11.59375 -45.828125 C 11.238281 -45.421875 11.035156 -45.21875 10.984375 -45.21875 C 10.628906 -44.613281 10.398438 -44.179688 10.296875 -43.921875 C 10.191406 -43.671875 10.039062 -43.265625 9.84375 -42.703125 C 9.332031 -41.234375 8.894531 -39.75 8.53125 -38.25 C 8.175781 -36.75 7.875 -35.257812 7.625 -33.78125 C 7.375 -32.3125 7.160156 -30.960938 6.984375 -29.734375 C 6.804688 -28.515625 6.664062 -27.171875 6.5625 -25.703125 Z M 6.5625 -25.703125 "/></g></g></g><g fill="#ff0000" fill-opacity="1"><g transform="translate(320.443073, 387.475297)"><g><path d="M 6.484375 0.609375 C 5.671875 0.609375 5.019531 0.394531 4.53125 -0.03125 C 4.050781 -0.46875 3.734375 -0.976562 3.578125 -1.5625 C 3.429688 -2.144531 3.445312 -2.738281 3.625 -3.34375 C 3.800781 -3.957031 4.144531 -4.46875 4.65625 -4.875 C 5.0625 -6.601562 5.160156 -8.34375 4.953125 -10.09375 C 4.753906 -11.851562 4.550781 -13.597656 4.34375 -15.328125 C 4.09375 -17.460938 4.015625 -19.554688 4.109375 -21.609375 C 4.210938 -23.671875 4.421875 -25.769531 4.734375 -27.90625 C 5.035156 -30.039062 5.363281 -32.164062 5.71875 -34.28125 C 6.070312 -36.394531 6.378906 -38.515625 6.640625 -40.640625 C 6.890625 -42.929688 7.101562 -45.195312 7.28125 -47.4375 C 7.457031 -49.675781 7.597656 -51.9375 7.703125 -54.21875 C 7.703125 -55.1875 8.03125 -55.925781 8.6875 -56.4375 C 9.351562 -56.945312 10.066406 -57.203125 10.828125 -57.203125 C 11.585938 -57.203125 12.269531 -56.945312 12.875 -56.4375 C 13.488281 -55.925781 13.773438 -55.1875 13.734375 -54.21875 C 13.628906 -51.832031 13.488281 -49.46875 13.3125 -47.125 C 13.132812 -44.789062 12.914062 -42.40625 12.65625 -39.96875 C 12.40625 -37.726562 12.085938 -35.539062 11.703125 -33.40625 C 11.328125 -31.269531 10.984375 -29.082031 10.671875 -26.84375 C 10.367188 -24.707031 10.21875 -22.609375 10.21875 -20.546875 C 10.21875 -18.492188 10.34375 -16.398438 10.59375 -14.265625 C 10.75 -12.785156 10.890625 -11.304688 11.015625 -9.828125 C 11.140625 -8.359375 11.101562 -6.890625 10.90625 -5.421875 C 14.71875 -5.316406 18.53125 -5.125 22.34375 -4.84375 C 26.15625 -4.5625 29.96875 -4.34375 33.78125 -4.1875 C 34.75 -4.144531 35.472656 -3.789062 35.953125 -3.125 C 36.441406 -2.46875 36.6875 -1.753906 36.6875 -0.984375 C 36.6875 -0.222656 36.441406 0.457031 35.953125 1.0625 C 35.472656 1.675781 34.75 1.957031 33.78125 1.90625 C 29.15625 1.695312 24.59375 1.425781 20.09375 1.09375 C 15.59375 0.769531 11.054688 0.609375 6.484375 0.609375 Z M 6.484375 0.609375 "/></g></g></g><g fill="#00ffff" fill-opacity="1"><g transform="translate(69.994205, 385.405168)"><g><path d="M 4.34375 -12.359375 C 3.125 -15.304688 2.285156 -18.332031 1.828125 -21.4375 C 1.578125 -23.207031 1.363281 -24.992188 1.1875 -26.796875 C 1.007812 -28.609375 1.171875 -30.40625 1.671875 -32.1875 C 1.929688 -33.300781 2.265625 -34.378906 2.671875 -35.421875 C 3.078125 -36.460938 3.484375 -37.519531 3.890625 -38.59375 C 4.191406 -39.40625 4.40625 -40.21875 4.53125 -41.03125 C 4.664062 -41.84375 4.859375 -42.679688 5.109375 -43.546875 C 5.617188 -45.378906 6.378906 -46.96875 7.390625 -48.3125 C 8.410156 -49.65625 9.757812 -50.757812 11.4375 -51.625 C 13.007812 -52.488281 14.632812 -53.175781 16.3125 -53.6875 C 18 -54.195312 19.707031 -54.601562 21.4375 -54.90625 C 23.007812 -55.21875 24.59375 -55.445312 26.1875 -55.59375 C 27.789062 -55.75 29.410156 -55.722656 31.046875 -55.515625 C 31.898438 -55.421875 32.617188 -55.117188 33.203125 -54.609375 C 33.796875 -54.097656 34.09375 -53.410156 34.09375 -52.546875 C 34.09375 -51.785156 33.796875 -51.0625 33.203125 -50.375 C 32.617188 -49.6875 31.898438 -49.394531 31.046875 -49.5 C 30.890625 -49.5 30.734375 -49.507812 30.578125 -49.53125 C 30.429688 -49.5625 30.28125 -49.578125 30.125 -49.578125 C 28.601562 -49.671875 27.066406 -49.628906 25.515625 -49.453125 C 23.960938 -49.273438 22.445312 -49.007812 20.96875 -48.65625 C 20.101562 -48.40625 19.238281 -48.164062 18.375 -47.9375 C 17.507812 -47.707031 16.671875 -47.410156 15.859375 -47.046875 C 15.304688 -46.796875 14.75 -46.519531 14.1875 -46.21875 C 13.78125 -46.007812 13.5 -45.832031 13.34375 -45.6875 C 12.375 -44.875 11.738281 -44.109375 11.4375 -43.390625 C 11.132812 -42.679688 10.894531 -41.929688 10.71875 -41.140625 C 10.539062 -40.359375 10.375 -39.554688 10.21875 -38.734375 C 10.0625 -37.921875 9.859375 -37.160156 9.609375 -36.453125 C 9.203125 -35.429688 8.796875 -34.382812 8.390625 -33.3125 C 7.984375 -32.25 7.648438 -31.160156 7.390625 -30.046875 C 7.242188 -29.285156 7.195312 -28.519531 7.25 -27.75 C 7.300781 -26.988281 7.375 -26.226562 7.46875 -25.46875 C 7.570312 -24.144531 7.738281 -22.769531 7.96875 -21.34375 C 8.195312 -19.925781 8.515625 -18.554688 8.921875 -17.234375 C 9.328125 -15.910156 9.875 -14.648438 10.5625 -13.453125 C 11.25 -12.265625 12.101562 -11.210938 13.125 -10.296875 C 14.394531 -9.222656 15.84375 -8.445312 17.46875 -7.96875 C 19.09375 -7.488281 20.71875 -7.144531 22.34375 -6.9375 C 24.375 -6.632812 26.351562 -6.609375 28.28125 -6.859375 C 30.21875 -7.117188 32.050781 -7.832031 33.78125 -9 C 34.59375 -9.507812 35.367188 -9.625 36.109375 -9.34375 C 36.847656 -9.0625 37.40625 -8.601562 37.78125 -7.96875 C 38.164062 -7.332031 38.316406 -6.59375 38.234375 -5.75 C 38.160156 -4.914062 37.71875 -4.242188 36.90625 -3.734375 C 34.46875 -2.109375 31.863281 -1.15625 29.09375 -0.875 C 26.320312 -0.59375 23.539062 -0.65625 20.75 -1.0625 C 18.863281 -1.320312 17.03125 -1.71875 15.25 -2.25 C 13.46875 -2.78125 11.816406 -3.628906 10.296875 -4.796875 C 7.648438 -6.734375 5.664062 -9.253906 4.34375 -12.359375 Z M 4.34375 -12.359375 "/></g></g></g><g fill="#00ffff" fill-opacity="1"><g transform="translate(108.65488, 385.405168)"><g><path d="M 11.4375 -3.734375 C 10.269531 -4.597656 9.210938 -5.578125 8.265625 -6.671875 C 7.328125 -7.765625 6.476562 -8.921875 5.71875 -10.140625 C 5.007812 -11.210938 4.320312 -12.359375 3.65625 -13.578125 C 3 -14.796875 2.414062 -16.039062 1.90625 -17.3125 C 1.394531 -18.582031 1 -19.878906 0.71875 -21.203125 C 0.445312 -22.523438 0.359375 -23.847656 0.453125 -25.171875 C 0.609375 -27.765625 0.875 -30.316406 1.25 -32.828125 C 1.632812 -35.347656 2.160156 -37.828125 2.828125 -40.265625 C 3.023438 -41.179688 3.273438 -42.195312 3.578125 -43.3125 C 3.890625 -44.4375 4.285156 -45.519531 4.765625 -46.5625 C 5.242188 -47.601562 5.8125 -48.554688 6.46875 -49.421875 C 7.132812 -50.285156 7.976562 -50.945312 9 -51.40625 C 10.519531 -52.0625 12.039062 -52.300781 13.5625 -52.125 C 15.09375 -51.945312 16.582031 -51.523438 18.03125 -50.859375 C 19.476562 -50.203125 20.863281 -49.398438 22.1875 -48.453125 C 23.507812 -47.515625 24.753906 -46.59375 25.921875 -45.6875 C 26.992188 -44.820312 28.050781 -43.914062 29.09375 -42.96875 C 30.132812 -42.03125 31.210938 -41.128906 32.328125 -40.265625 C 33.648438 -39.097656 34.984375 -37.925781 36.328125 -36.75 C 37.679688 -35.582031 38.789062 -34.238281 39.65625 -32.71875 C 40.675781 -30.988281 41.257812 -29.242188 41.40625 -27.484375 C 41.5625 -25.734375 41.4375 -24.003906 41.03125 -22.296875 C 40.625 -20.597656 39.988281 -18.9375 39.125 -17.3125 C 38.257812 -15.6875 37.316406 -14.109375 36.296875 -12.578125 C 35.378906 -11.253906 34.320312 -9.851562 33.125 -8.375 C 31.9375 -6.90625 30.617188 -5.5625 29.171875 -4.34375 C 27.722656 -3.125 26.171875 -2.15625 24.515625 -1.4375 C 22.867188 -0.726562 21.128906 -0.476562 19.296875 -0.6875 C 18.222656 -0.84375 17.4375 -1.25 16.9375 -1.90625 C 15.96875 -2.0625 15.023438 -2.265625 14.109375 -2.515625 C 13.191406 -2.765625 12.300781 -3.171875 11.4375 -3.734375 Z M 6.5625 -25.703125 C 6.457031 -24.429688 6.519531 -23.257812 6.75 -22.1875 C 6.976562 -21.125 7.375 -19.929688 7.9375 -18.609375 C 8.644531 -17.128906 9.429688 -15.640625 10.296875 -14.140625 C 11.160156 -12.640625 12.175781 -11.28125 13.34375 -10.0625 C 14.363281 -8.945312 15.535156 -8.257812 16.859375 -8 C 17.722656 -7.851562 18.5625 -7.710938 19.375 -7.578125 C 20.1875 -7.453125 21 -7.265625 21.8125 -7.015625 C 22.113281 -7.117188 22.414062 -7.234375 22.71875 -7.359375 C 23.03125 -7.484375 23.335938 -7.675781 23.640625 -7.9375 C 24.503906 -8.488281 25.289062 -9.09375 26 -9.75 C 26.71875 -10.414062 27.40625 -11.109375 28.0625 -11.828125 C 29.332031 -13.242188 30.566406 -14.789062 31.765625 -16.46875 C 32.960938 -18.144531 33.914062 -19.875 34.625 -21.65625 C 35.332031 -23.4375 35.609375 -25.113281 35.453125 -26.6875 C 35.304688 -28.269531 34.570312 -29.796875 33.25 -31.265625 C 32.03125 -32.640625 30.695312 -33.898438 29.25 -35.046875 C 27.800781 -36.191406 26.390625 -37.347656 25.015625 -38.515625 C 23.847656 -39.523438 22.703125 -40.488281 21.578125 -41.40625 C 20.460938 -42.320312 19.242188 -43.1875 17.921875 -44 C 16.703125 -44.8125 15.507812 -45.421875 14.34375 -45.828125 C 14.1875 -45.878906 14.046875 -45.914062 13.921875 -45.9375 C 13.796875 -45.96875 13.65625 -46.007812 13.5 -46.0625 L 12.359375 -46.140625 C 11.953125 -46.035156 11.695312 -45.929688 11.59375 -45.828125 C 11.238281 -45.421875 11.035156 -45.21875 10.984375 -45.21875 C 10.628906 -44.613281 10.398438 -44.179688 10.296875 -43.921875 C 10.191406 -43.671875 10.039062 -43.265625 9.84375 -42.703125 C 9.332031 -41.234375 8.894531 -39.75 8.53125 -38.25 C 8.175781 -36.75 7.875 -35.257812 7.625 -33.78125 C 7.375 -32.3125 7.160156 -30.960938 6.984375 -29.734375 C 6.804688 -28.515625 6.664062 -27.171875 6.5625 -25.703125 Z M 6.5625 -25.703125 "/></g></g></g><g fill="#00ffff" fill-opacity="1"><g transform="translate(151.280753, 385.405168)"><g><path d="M 33.09375 -1.90625 C 32.6875 -1.195312 32.0625 -0.710938 31.21875 -0.453125 C 30.382812 -0.203125 29.613281 -0.332031 28.90625 -0.84375 C 27.53125 -1.851562 26.207031 -2.90625 24.9375 -4 C 23.664062 -5.09375 22.289062 -6.070312 20.8125 -6.9375 C 19.5 -7.75 18.179688 -8.5 16.859375 -9.1875 C 15.535156 -9.875 14.265625 -10.675781 13.046875 -11.59375 C 11.566406 -12.707031 10.191406 -13.925781 8.921875 -15.25 C 8.867188 -12.707031 8.894531 -10.175781 9 -7.65625 C 9.101562 -5.144531 9.253906 -2.617188 9.453125 -0.078125 C 9.554688 0.785156 9.273438 1.507812 8.609375 2.09375 C 7.953125 2.675781 7.242188 2.96875 6.484375 2.96875 C 5.566406 2.96875 4.851562 2.675781 4.34375 2.09375 C 3.832031 1.507812 3.53125 0.785156 3.4375 -0.078125 C 3.125 -3.734375 2.941406 -7.328125 2.890625 -10.859375 C 2.847656 -14.398438 2.925781 -17.972656 3.125 -21.578125 C 2.71875 -22.140625 2.3125 -22.710938 1.90625 -23.296875 C 1.5 -23.878906 1.117188 -24.476562 0.765625 -25.09375 C 0.460938 -25.695312 0.347656 -26.28125 0.421875 -26.84375 C 0.492188 -27.40625 0.695312 -27.890625 1.03125 -28.296875 C 1.363281 -28.703125 1.769531 -29.03125 2.25 -29.28125 C 2.726562 -29.539062 3.25 -29.644531 3.8125 -29.59375 C 3.914062 -30.757812 4.039062 -31.9375 4.1875 -33.125 C 4.34375 -34.320312 4.5 -35.507812 4.65625 -36.6875 C 4.800781 -37.5 4.9375 -38.296875 5.0625 -39.078125 C 5.195312 -39.867188 5.316406 -40.671875 5.421875 -41.484375 C 5.515625 -41.890625 5.570312 -42.269531 5.59375 -42.625 C 5.625 -42.988281 5.691406 -43.375 5.796875 -43.78125 C 5.796875 -43.976562 5.847656 -44.226562 5.953125 -44.53125 C 6.003906 -45.195312 6.03125 -45.847656 6.03125 -46.484375 C 6.03125 -47.117188 6.050781 -47.765625 6.09375 -48.421875 C 6.144531 -49.234375 6.234375 -50.109375 6.359375 -51.046875 C 6.492188 -51.992188 6.695312 -52.910156 6.96875 -53.796875 C 7.25 -54.691406 7.644531 -55.519531 8.15625 -56.28125 C 8.664062 -57.039062 9.351562 -57.625 10.21875 -58.03125 C 11.03125 -58.394531 11.851562 -58.597656 12.6875 -58.640625 C 13.53125 -58.691406 14.367188 -58.640625 15.203125 -58.484375 C 16.046875 -58.335938 16.875 -58.125 17.6875 -57.84375 C 18.5 -57.5625 19.289062 -57.269531 20.0625 -56.96875 C 21.832031 -56.3125 23.59375 -55.5625 25.34375 -54.71875 C 27.101562 -53.875 28.671875 -52.796875 30.046875 -51.484375 C 31.367188 -50.160156 32.507812 -48.59375 33.46875 -46.78125 C 34.4375 -44.976562 34.875 -43.113281 34.78125 -41.1875 C 34.675781 -40.007812 34.429688 -38.976562 34.046875 -38.09375 C 33.671875 -37.207031 33.148438 -36.304688 32.484375 -35.390625 C 30.859375 -33.097656 29.101562 -30.910156 27.21875 -28.828125 C 25.34375 -26.742188 23.335938 -24.835938 21.203125 -23.109375 C 20.179688 -22.296875 19.070312 -21.484375 17.875 -20.671875 C 16.6875 -19.859375 15.429688 -19.171875 14.109375 -18.609375 C 14.566406 -18.203125 15.023438 -17.796875 15.484375 -17.390625 C 15.941406 -16.984375 16.425781 -16.628906 16.9375 -16.328125 C 18.25 -15.460938 19.578125 -14.660156 20.921875 -13.921875 C 22.273438 -13.179688 23.585938 -12.378906 24.859375 -11.515625 C 26.078125 -10.648438 27.269531 -9.734375 28.4375 -8.765625 C 29.613281 -7.804688 30.785156 -6.894531 31.953125 -6.03125 C 32.660156 -5.570312 33.128906 -4.957031 33.359375 -4.1875 C 33.585938 -3.425781 33.5 -2.664062 33.09375 -1.90625 Z M 12.5 -24.5625 C 13.726562 -25.21875 14.835938 -25.914062 15.828125 -26.65625 C 16.816406 -27.394531 17.796875 -28.195312 18.765625 -29.0625 C 19.773438 -29.96875 20.765625 -30.929688 21.734375 -31.953125 C 22.703125 -32.972656 23.644531 -33.988281 24.5625 -35 C 24.914062 -35.457031 25.242188 -35.863281 25.546875 -36.21875 C 25.847656 -36.582031 26.125 -36.925781 26.375 -37.25 C 26.632812 -37.582031 26.90625 -37.9375 27.1875 -38.3125 C 27.46875 -38.695312 27.757812 -39.144531 28.0625 -39.65625 C 28.164062 -39.8125 28.265625 -39.960938 28.359375 -40.109375 C 28.460938 -40.265625 28.566406 -40.421875 28.671875 -40.578125 C 28.722656 -41.992188 28.421875 -43.3125 27.765625 -44.53125 C 26.898438 -46.007812 25.816406 -47.207031 24.515625 -48.125 C 23.222656 -49.039062 21.785156 -49.800781 20.203125 -50.40625 C 19.296875 -50.8125 18.382812 -51.164062 17.46875 -51.46875 C 16.550781 -51.78125 15.582031 -52.0625 14.5625 -52.3125 C 14.3125 -52.414062 13.929688 -52.519531 13.421875 -52.625 C 13.117188 -52.519531 12.914062 -52.367188 12.8125 -52.171875 C 12.601562 -51.503906 12.5 -51.046875 12.5 -50.796875 C 12.457031 -50.640625 12.382812 -50.359375 12.28125 -49.953125 C 12.226562 -49.441406 12.1875 -49.046875 12.15625 -48.765625 C 12.132812 -48.484375 12.125 -48.191406 12.125 -47.890625 C 11.96875 -44.378906 11.597656 -40.921875 11.015625 -37.515625 C 10.429688 -34.109375 9.960938 -30.65625 9.609375 -27.15625 C 9.503906 -26.59375 9.4375 -26.019531 9.40625 -25.4375 C 9.382812 -24.851562 9.347656 -24.28125 9.296875 -23.71875 C 9.753906 -23.664062 10.007812 -23.664062 10.0625 -23.71875 C 10.625 -23.820312 11.066406 -23.9375 11.390625 -24.0625 C 11.722656 -24.1875 12.09375 -24.351562 12.5 -24.5625 Z M 12.5 -24.5625 "/></g></g></g><g fill="#00ffff" fill-opacity="1"><g transform="translate(186.815023, 385.405168)"><g><path d="M 1.0625 -47.125 C 0.25 -47.03125 -0.457031 -47.3125 -1.0625 -47.96875 C -1.675781 -48.632812 -1.984375 -49.375 -1.984375 -50.1875 C -1.984375 -51.050781 -1.675781 -51.75 -1.0625 -52.28125 C -0.457031 -52.8125 0.25 -53.128906 1.0625 -53.234375 C 3.601562 -53.429688 6.117188 -53.53125 8.609375 -53.53125 C 11.109375 -53.53125 13.628906 -53.457031 16.171875 -53.3125 C 16.878906 -53.5625 17.640625 -53.507812 18.453125 -53.15625 C 23.179688 -52.800781 27.960938 -52.191406 32.796875 -51.328125 C 33.609375 -51.171875 34.21875 -50.6875 34.625 -49.875 C 35.03125 -49.0625 35.109375 -48.300781 34.859375 -47.59375 C 34.597656 -46.726562 34.125 -46.128906 33.4375 -45.796875 C 32.75 -45.460938 31.972656 -45.347656 31.109375 -45.453125 C 29.179688 -45.804688 27.273438 -46.109375 25.390625 -46.359375 C 23.515625 -46.617188 21.609375 -46.828125 19.671875 -46.984375 C 18.960938 -43.421875 18.546875 -39.859375 18.421875 -36.296875 C 18.296875 -32.742188 18.410156 -29.132812 18.765625 -25.46875 C 19.117188 -21.707031 19.625 -17.984375 20.28125 -14.296875 C 20.945312 -10.609375 21.632812 -6.910156 22.34375 -3.203125 C 22.5 -2.335938 22.410156 -1.5625 22.078125 -0.875 C 21.742188 -0.1875 21.144531 0.28125 20.28125 0.53125 C 19.519531 0.789062 18.742188 0.710938 17.953125 0.296875 C 17.171875 -0.109375 16.703125 -0.71875 16.546875 -1.53125 C 15.734375 -5.644531 14.957031 -9.722656 14.21875 -13.765625 C 13.488281 -17.804688 12.941406 -21.882812 12.578125 -26 C 12.273438 -29.613281 12.195312 -33.195312 12.34375 -36.75 C 12.5 -40.3125 12.910156 -43.847656 13.578125 -47.359375 C 9.410156 -47.515625 5.238281 -47.4375 1.0625 -47.125 Z M 1.0625 -47.125 "/></g></g></g><g fill="#00ffff" fill-opacity="1"><g transform="translate(216.706512, 385.405168)"><g><path d="M 1.375 0 C 0.457031 -0.25 -0.148438 -0.753906 -0.453125 -1.515625 C -0.765625 -2.285156 -0.816406 -3.023438 -0.609375 -3.734375 C -0.410156 -4.441406 0.00390625 -5.035156 0.640625 -5.515625 C 1.273438 -6.003906 2.050781 -6.125 2.96875 -5.875 C 5.007812 -5.257812 7.046875 -4.875 9.078125 -4.71875 C 11.109375 -4.570312 13.191406 -4.550781 15.328125 -4.65625 C 14.460938 -8.257812 14.03125 -11.878906 14.03125 -15.515625 C 14.03125 -19.148438 14.171875 -22.785156 14.453125 -26.421875 C 14.734375 -30.054688 15.007812 -33.703125 15.28125 -37.359375 C 15.5625 -41.023438 15.578125 -44.6875 15.328125 -48.34375 C 13.398438 -48.394531 11.457031 -48.484375 9.5 -48.609375 C 7.539062 -48.742188 5.59375 -48.9375 3.65625 -49.1875 C 2.789062 -49.289062 2.066406 -49.597656 1.484375 -50.109375 C 0.898438 -50.617188 0.609375 -51.304688 0.609375 -52.171875 C 0.609375 -52.929688 0.898438 -53.65625 1.484375 -54.34375 C 2.066406 -55.03125 2.789062 -55.320312 3.65625 -55.21875 C 6 -54.957031 8.351562 -54.738281 10.71875 -54.5625 C 13.082031 -54.382812 15.429688 -54.320312 17.765625 -54.375 C 20.109375 -54.425781 22.4375 -54.628906 24.75 -54.984375 C 27.0625 -55.335938 29.363281 -55.921875 31.65625 -56.734375 C 32.414062 -56.992188 33.160156 -56.894531 33.890625 -56.4375 C 34.628906 -55.976562 35.128906 -55.367188 35.390625 -54.609375 C 35.640625 -53.742188 35.546875 -52.96875 35.109375 -52.28125 C 34.679688 -51.59375 34.0625 -51.125 33.25 -50.875 C 29.4375 -49.550781 25.472656 -48.757812 21.359375 -48.5 C 21.660156 -44.894531 21.65625 -41.257812 21.34375 -37.59375 C 21.039062 -33.9375 20.738281 -30.300781 20.4375 -26.6875 C 20.132812 -23.082031 19.992188 -19.472656 20.015625 -15.859375 C 20.046875 -12.253906 20.519531 -8.671875 21.4375 -5.109375 C 23.0625 -5.265625 24.660156 -5.414062 26.234375 -5.5625 C 27.804688 -5.71875 29.382812 -5.847656 30.96875 -5.953125 C 31.925781 -6.003906 32.644531 -5.734375 33.125 -5.140625 C 33.613281 -4.554688 33.859375 -3.882812 33.859375 -3.125 C 33.859375 -2.363281 33.613281 -1.648438 33.125 -0.984375 C 32.644531 -0.328125 31.925781 0.0234375 30.96875 0.078125 C 28.46875 0.234375 25.984375 0.445312 23.515625 0.71875 C 21.054688 1 18.59375 1.203125 16.125 1.328125 C 13.664062 1.460938 11.203125 1.453125 8.734375 1.296875 C 6.265625 1.140625 3.8125 0.707031 1.375 0 Z M 1.375 0 "/></g></g></g><g fill="#00ffff" fill-opacity="1"><g transform="translate(251.40199, 385.405168)"><g><path d="M 18.234375 -20.890625 C 17.003906 -22.160156 15.703125 -23.34375 14.328125 -24.4375 C 12.960938 -25.53125 11.601562 -26.625 10.25 -27.71875 C 8.90625 -28.8125 7.597656 -29.957031 6.328125 -31.15625 C 5.054688 -32.351562 3.890625 -33.660156 2.828125 -35.078125 C 1.703125 -36.554688 0.820312 -38.171875 0.1875 -39.921875 C -0.445312 -41.679688 -0.5625 -43.5 -0.15625 -45.375 C 0.25 -47.40625 1.238281 -49.179688 2.8125 -50.703125 C 4.394531 -52.234375 6.101562 -53.429688 7.9375 -54.296875 C 9.914062 -55.160156 11.921875 -55.757812 13.953125 -56.09375 C 15.984375 -56.425781 18.039062 -56.628906 20.125 -56.703125 C 22.21875 -56.773438 24.316406 -56.773438 26.421875 -56.703125 C 28.535156 -56.628906 30.632812 -56.640625 32.71875 -56.734375 C 33.6875 -56.785156 34.410156 -56.503906 34.890625 -55.890625 C 35.367188 -55.285156 35.609375 -54.601562 35.609375 -53.84375 C 35.609375 -53.082031 35.367188 -52.382812 34.890625 -51.75 C 34.410156 -51.113281 33.6875 -50.769531 32.71875 -50.71875 C 31.238281 -50.613281 29.773438 -50.570312 28.328125 -50.59375 C 26.878906 -50.625 25.421875 -50.664062 23.953125 -50.71875 C 21.960938 -50.769531 19.960938 -50.742188 17.953125 -50.640625 C 15.953125 -50.535156 13.984375 -50.128906 12.046875 -49.421875 C 11.390625 -49.160156 10.675781 -48.835938 9.90625 -48.453125 C 9.144531 -48.078125 8.445312 -47.609375 7.8125 -47.046875 C 7.175781 -46.492188 6.65625 -45.882812 6.25 -45.21875 C 5.84375 -44.5625 5.664062 -43.851562 5.71875 -43.09375 C 5.769531 -42.375 5.945312 -41.671875 6.25 -40.984375 C 6.5625 -40.304688 6.957031 -39.632812 7.4375 -38.96875 C 7.914062 -38.3125 8.4375 -37.675781 9 -37.0625 C 9.5625 -36.457031 10.09375 -35.898438 10.59375 -35.390625 C 11.769531 -34.210938 12.992188 -33.140625 14.265625 -32.171875 C 15.535156 -31.210938 16.804688 -30.222656 18.078125 -29.203125 C 19.398438 -28.140625 20.734375 -26.957031 22.078125 -25.65625 C 23.421875 -24.363281 24.585938 -22.96875 25.578125 -21.46875 C 26.578125 -19.96875 27.316406 -18.378906 27.796875 -16.703125 C 28.273438 -15.023438 28.335938 -13.242188 27.984375 -11.359375 C 27.628906 -9.578125 26.957031 -8.0625 25.96875 -6.8125 C 24.976562 -5.570312 23.804688 -4.457031 22.453125 -3.46875 C 21.109375 -2.476562 19.6875 -1.585938 18.1875 -0.796875 C 16.6875 -0.015625 15.25 0.78125 13.875 1.59375 C 13.007812 2.101562 12.207031 2.207031 11.46875 1.90625 C 10.738281 1.601562 10.179688 1.117188 9.796875 0.453125 C 9.421875 -0.203125 9.269531 -0.921875 9.34375 -1.703125 C 9.414062 -2.492188 9.882812 -3.144531 10.75 -3.65625 C 11.96875 -4.375 13.1875 -5.035156 14.40625 -5.640625 C 15.632812 -6.253906 16.832031 -6.941406 18 -7.703125 C 19.113281 -8.410156 20.085938 -9.257812 20.921875 -10.25 C 21.765625 -11.25 22.1875 -12.410156 22.1875 -13.734375 C 22.132812 -15.046875 21.710938 -16.3125 20.921875 -17.53125 C 20.140625 -18.757812 19.242188 -19.878906 18.234375 -20.890625 Z M 18.234375 -20.890625 "/></g></g></g><g fill="#00ffff" fill-opacity="1"><g transform="translate(283.504839, 385.405168)"><g><path d="M 11.4375 -3.734375 C 10.269531 -4.597656 9.210938 -5.578125 8.265625 -6.671875 C 7.328125 -7.765625 6.476562 -8.921875 5.71875 -10.140625 C 5.007812 -11.210938 4.320312 -12.359375 3.65625 -13.578125 C 3 -14.796875 2.414062 -16.039062 1.90625 -17.3125 C 1.394531 -18.582031 1 -19.878906 0.71875 -21.203125 C 0.445312 -22.523438 0.359375 -23.847656 0.453125 -25.171875 C 0.609375 -27.765625 0.875 -30.316406 1.25 -32.828125 C 1.632812 -35.347656 2.160156 -37.828125 2.828125 -40.265625 C 3.023438 -41.179688 3.273438 -42.195312 3.578125 -43.3125 C 3.890625 -44.4375 4.285156 -45.519531 4.765625 -46.5625 C 5.242188 -47.601562 5.8125 -48.554688 6.46875 -49.421875 C 7.132812 -50.285156 7.976562 -50.945312 9 -51.40625 C 10.519531 -52.0625 12.039062 -52.300781 13.5625 -52.125 C 15.09375 -51.945312 16.582031 -51.523438 18.03125 -50.859375 C 19.476562 -50.203125 20.863281 -49.398438 22.1875 -48.453125 C 23.507812 -47.515625 24.753906 -46.59375 25.921875 -45.6875 C 26.992188 -44.820312 28.050781 -43.914062 29.09375 -42.96875 C 30.132812 -42.03125 31.210938 -41.128906 32.328125 -40.265625 C 33.648438 -39.097656 34.984375 -37.925781 36.328125 -36.75 C 37.679688 -35.582031 38.789062 -34.238281 39.65625 -32.71875 C 40.675781 -30.988281 41.257812 -29.242188 41.40625 -27.484375 C 41.5625 -25.734375 41.4375 -24.003906 41.03125 -22.296875 C 40.625 -20.597656 39.988281 -18.9375 39.125 -17.3125 C 38.257812 -15.6875 37.316406 -14.109375 36.296875 -12.578125 C 35.378906 -11.253906 34.320312 -9.851562 33.125 -8.375 C 31.9375 -6.90625 30.617188 -5.5625 29.171875 -4.34375 C 27.722656 -3.125 26.171875 -2.15625 24.515625 -1.4375 C 22.867188 -0.726562 21.128906 -0.476562 19.296875 -0.6875 C 18.222656 -0.84375 17.4375 -1.25 16.9375 -1.90625 C 15.96875 -2.0625 15.023438 -2.265625 14.109375 -2.515625 C 13.191406 -2.765625 12.300781 -3.171875 11.4375 -3.734375 Z M 6.5625 -25.703125 C 6.457031 -24.429688 6.519531 -23.257812 6.75 -22.1875 C 6.976562 -21.125 7.375 -19.929688 7.9375 -18.609375 C 8.644531 -17.128906 9.429688 -15.640625 10.296875 -14.140625 C 11.160156 -12.640625 12.175781 -11.28125 13.34375 -10.0625 C 14.363281 -8.945312 15.535156 -8.257812 16.859375 -8 C 17.722656 -7.851562 18.5625 -7.710938 19.375 -7.578125 C 20.1875 -7.453125 21 -7.265625 21.8125 -7.015625 C 22.113281 -7.117188 22.414062 -7.234375 22.71875 -7.359375 C 23.03125 -7.484375 23.335938 -7.675781 23.640625 -7.9375 C 24.503906 -8.488281 25.289062 -9.09375 26 -9.75 C 26.71875 -10.414062 27.40625 -11.109375 28.0625 -11.828125 C 29.332031 -13.242188 30.566406 -14.789062 31.765625 -16.46875 C 32.960938 -18.144531 33.914062 -19.875 34.625 -21.65625 C 35.332031 -23.4375 35.609375 -25.113281 35.453125 -26.6875 C 35.304688 -28.269531 34.570312 -29.796875 33.25 -31.265625 C 32.03125 -32.640625 30.695312 -33.898438 29.25 -35.046875 C 27.800781 -36.191406 26.390625 -37.347656 25.015625 -38.515625 C 23.847656 -39.523438 22.703125 -40.488281 21.578125 -41.40625 C 20.460938 -42.320312 19.242188 -43.1875 17.921875 -44 C 16.703125 -44.8125 15.507812 -45.421875 14.34375 -45.828125 C 14.1875 -45.878906 14.046875 -45.914062 13.921875 -45.9375 C 13.796875 -45.96875 13.65625 -46.007812 13.5 -46.0625 L 12.359375 -46.140625 C 11.953125 -46.035156 11.695312 -45.929688 11.59375 -45.828125 C 11.238281 -45.421875 11.035156 -45.21875 10.984375 -45.21875 C 10.628906 -44.613281 10.398438 -44.179688 10.296875 -43.921875 C 10.191406 -43.671875 10.039062 -43.265625 9.84375 -42.703125 C 9.332031 -41.234375 8.894531 -39.75 8.53125 -38.25 C 8.175781 -36.75 7.875 -35.257812 7.625 -33.78125 C 7.375 -32.3125 7.160156 -30.960938 6.984375 -29.734375 C 6.804688 -28.515625 6.664062 -27.171875 6.5625 -25.703125 Z M 6.5625 -25.703125 "/></g></g></g><g fill="#00ffff" fill-opacity="1"><g transform="translate(326.130726, 385.405168)"><g><path d="M 6.484375 0.609375 C 5.671875 0.609375 5.019531 0.394531 4.53125 -0.03125 C 4.050781 -0.46875 3.734375 -0.976562 3.578125 -1.5625 C 3.429688 -2.144531 3.445312 -2.738281 3.625 -3.34375 C 3.800781 -3.957031 4.144531 -4.46875 4.65625 -4.875 C 5.0625 -6.601562 5.160156 -8.34375 4.953125 -10.09375 C 4.753906 -11.851562 4.550781 -13.597656 4.34375 -15.328125 C 4.09375 -17.460938 4.015625 -19.554688 4.109375 -21.609375 C 4.210938 -23.671875 4.421875 -25.769531 4.734375 -27.90625 C 5.035156 -30.039062 5.363281 -32.164062 5.71875 -34.28125 C 6.070312 -36.394531 6.378906 -38.515625 6.640625 -40.640625 C 6.890625 -42.929688 7.101562 -45.195312 7.28125 -47.4375 C 7.457031 -49.675781 7.597656 -51.9375 7.703125 -54.21875 C 7.703125 -55.1875 8.03125 -55.925781 8.6875 -56.4375 C 9.351562 -56.945312 10.066406 -57.203125 10.828125 -57.203125 C 11.585938 -57.203125 12.269531 -56.945312 12.875 -56.4375 C 13.488281 -55.925781 13.773438 -55.1875 13.734375 -54.21875 C 13.628906 -51.832031 13.488281 -49.46875 13.3125 -47.125 C 13.132812 -44.789062 12.914062 -42.40625 12.65625 -39.96875 C 12.40625 -37.726562 12.085938 -35.539062 11.703125 -33.40625 C 11.328125 -31.269531 10.984375 -29.082031 10.671875 -26.84375 C 10.367188 -24.707031 10.21875 -22.609375 10.21875 -20.546875 C 10.21875 -18.492188 10.34375 -16.398438 10.59375 -14.265625 C 10.75 -12.785156 10.890625 -11.304688 11.015625 -9.828125 C 11.140625 -8.359375 11.101562 -6.890625 10.90625 -5.421875 C 14.71875 -5.316406 18.53125 -5.125 22.34375 -4.84375 C 26.15625 -4.5625 29.96875 -4.34375 33.78125 -4.1875 C 34.75 -4.144531 35.472656 -3.789062 35.953125 -3.125 C 36.441406 -2.46875 36.6875 -1.753906 36.6875 -0.984375 C 36.6875 -0.222656 36.441406 0.457031 35.953125 1.0625 C 35.472656 1.675781 34.75 1.957031 33.78125 1.90625 C 29.15625 1.695312 24.59375 1.425781 20.09375 1.09375 C 15.59375 0.769531 11.054688 0.609375 6.484375 0.609375 Z M 6.484375 0.609375 "/></g></g></g><g fill="#ff3131" fill-opacity="1"><g transform="translate(67.150378, 386.440232)"><g><path d="M 4.34375 -12.359375 C 3.125 -15.304688 2.285156 -18.332031 1.828125 -21.4375 C 1.578125 -23.207031 1.363281 -24.992188 1.1875 -26.796875 C 1.007812 -28.609375 1.171875 -30.40625 1.671875 -32.1875 C 1.929688 -33.300781 2.265625 -34.378906 2.671875 -35.421875 C 3.078125 -36.460938 3.484375 -37.519531 3.890625 -38.59375 C 4.191406 -39.40625 4.40625 -40.21875 4.53125 -41.03125 C 4.664062 -41.84375 4.859375 -42.679688 5.109375 -43.546875 C 5.617188 -45.378906 6.378906 -46.96875 7.390625 -48.3125 C 8.410156 -49.65625 9.757812 -50.757812 11.4375 -51.625 C 13.007812 -52.488281 14.632812 -53.175781 16.3125 -53.6875 C 18 -54.195312 19.707031 -54.601562 21.4375 -54.90625 C 23.007812 -55.21875 24.59375 -55.445312 26.1875 -55.59375 C 27.789062 -55.75 29.410156 -55.722656 31.046875 -55.515625 C 31.898438 -55.421875 32.617188 -55.117188 33.203125 -54.609375 C 33.796875 -54.097656 34.09375 -53.410156 34.09375 -52.546875 C 34.09375 -51.785156 33.796875 -51.0625 33.203125 -50.375 C 32.617188 -49.6875 31.898438 -49.394531 31.046875 -49.5 C 30.890625 -49.5 30.734375 -49.507812 30.578125 -49.53125 C 30.429688 -49.5625 30.28125 -49.578125 30.125 -49.578125 C 28.601562 -49.671875 27.066406 -49.628906 25.515625 -49.453125 C 23.960938 -49.273438 22.445312 -49.007812 20.96875 -48.65625 C 20.101562 -48.40625 19.238281 -48.164062 18.375 -47.9375 C 17.507812 -47.707031 16.671875 -47.410156 15.859375 -47.046875 C 15.304688 -46.796875 14.75 -46.519531 14.1875 -46.21875 C 13.78125 -46.007812 13.5 -45.832031 13.34375 -45.6875 C 12.375 -44.875 11.738281 -44.109375 11.4375 -43.390625 C 11.132812 -42.679688 10.894531 -41.929688 10.71875 -41.140625 C 10.539062 -40.359375 10.375 -39.554688 10.21875 -38.734375 C 10.0625 -37.921875 9.859375 -37.160156 9.609375 -36.453125 C 9.203125 -35.429688 8.796875 -34.382812 8.390625 -33.3125 C 7.984375 -32.25 7.648438 -31.160156 7.390625 -30.046875 C 7.242188 -29.285156 7.195312 -28.519531 7.25 -27.75 C 7.300781 -26.988281 7.375 -26.226562 7.46875 -25.46875 C 7.570312 -24.144531 7.738281 -22.769531 7.96875 -21.34375 C 8.195312 -19.925781 8.515625 -18.554688 8.921875 -17.234375 C 9.328125 -15.910156 9.875 -14.648438 10.5625 -13.453125 C 11.25 -12.265625 12.101562 -11.210938 13.125 -10.296875 C 14.394531 -9.222656 15.84375 -8.445312 17.46875 -7.96875 C 19.09375 -7.488281 20.71875 -7.144531 22.34375 -6.9375 C 24.375 -6.632812 26.351562 -6.609375 28.28125 -6.859375 C 30.21875 -7.117188 32.050781 -7.832031 33.78125 -9 C 34.59375 -9.507812 35.367188 -9.625 36.109375 -9.34375 C 36.847656 -9.0625 37.40625 -8.601562 37.78125 -7.96875 C 38.164062 -7.332031 38.316406 -6.59375 38.234375 -5.75 C 38.160156 -4.914062 37.71875 -4.242188 36.90625 -3.734375 C 34.46875 -2.109375 31.863281 -1.15625 29.09375 -0.875 C 26.320312 -0.59375 23.539062 -0.65625 20.75 -1.0625 C 18.863281 -1.320312 17.03125 -1.71875 15.25 -2.25 C 13.46875 -2.78125 11.816406 -3.628906 10.296875 -4.796875 C 7.648438 -6.734375 5.664062 -9.253906 4.34375 -12.359375 Z M 4.34375 -12.359375 "/></g></g></g><g fill="#ff3131" fill-opacity="1"><g transform="translate(105.811054, 386.440232)"><g><path d="M 11.4375 -3.734375 C 10.269531 -4.597656 9.210938 -5.578125 8.265625 -6.671875 C 7.328125 -7.765625 6.476562 -8.921875 5.71875 -10.140625 C 5.007812 -11.210938 4.320312 -12.359375 3.65625 -13.578125 C 3 -14.796875 2.414062 -16.039062 1.90625 -17.3125 C 1.394531 -18.582031 1 -19.878906 0.71875 -21.203125 C 0.445312 -22.523438 0.359375 -23.847656 0.453125 -25.171875 C 0.609375 -27.765625 0.875 -30.316406 1.25 -32.828125 C 1.632812 -35.347656 2.160156 -37.828125 2.828125 -40.265625 C 3.023438 -41.179688 3.273438 -42.195312 3.578125 -43.3125 C 3.890625 -44.4375 4.285156 -45.519531 4.765625 -46.5625 C 5.242188 -47.601562 5.8125 -48.554688 6.46875 -49.421875 C 7.132812 -50.285156 7.976562 -50.945312 9 -51.40625 C 10.519531 -52.0625 12.039062 -52.300781 13.5625 -52.125 C 15.09375 -51.945312 16.582031 -51.523438 18.03125 -50.859375 C 19.476562 -50.203125 20.863281 -49.398438 22.1875 -48.453125 C 23.507812 -47.515625 24.753906 -46.59375 25.921875 -45.6875 C 26.992188 -44.820312 28.050781 -43.914062 29.09375 -42.96875 C 30.132812 -42.03125 31.210938 -41.128906 32.328125 -40.265625 C 33.648438 -39.097656 34.984375 -37.925781 36.328125 -36.75 C 37.679688 -35.582031 38.789062 -34.238281 39.65625 -32.71875 C 40.675781 -30.988281 41.257812 -29.242188 41.40625 -27.484375 C 41.5625 -25.734375 41.4375 -24.003906 41.03125 -22.296875 C 40.625 -20.597656 39.988281 -18.9375 39.125 -17.3125 C 38.257812 -15.6875 37.316406 -14.109375 36.296875 -12.578125 C 35.378906 -11.253906 34.320312 -9.851562 33.125 -8.375 C 31.9375 -6.90625 30.617188 -5.5625 29.171875 -4.34375 C 27.722656 -3.125 26.171875 -2.15625 24.515625 -1.4375 C 22.867188 -0.726562 21.128906 -0.476562 19.296875 -0.6875 C 18.222656 -0.84375 17.4375 -1.25 16.9375 -1.90625 C 15.96875 -2.0625 15.023438 -2.265625 14.109375 -2.515625 C 13.191406 -2.765625 12.300781 -3.171875 11.4375 -3.734375 Z M 6.5625 -25.703125 C 6.457031 -24.429688 6.519531 -23.257812 6.75 -22.1875 C 6.976562 -21.125 7.375 -19.929688 7.9375 -18.609375 C 8.644531 -17.128906 9.429688 -15.640625 10.296875 -14.140625 C 11.160156 -12.640625 12.175781 -11.28125 13.34375 -10.0625 C 14.363281 -8.945312 15.535156 -8.257812 16.859375 -8 C 17.722656 -7.851562 18.5625 -7.710938 19.375 -7.578125 C 20.1875 -7.453125 21 -7.265625 21.8125 -7.015625 C 22.113281 -7.117188 22.414062 -7.234375 22.71875 -7.359375 C 23.03125 -7.484375 23.335938 -7.675781 23.640625 -7.9375 C 24.503906 -8.488281 25.289062 -9.09375 26 -9.75 C 26.71875 -10.414062 27.40625 -11.109375 28.0625 -11.828125 C 29.332031 -13.242188 30.566406 -14.789062 31.765625 -16.46875 C 32.960938 -18.144531 33.914062 -19.875 34.625 -21.65625 C 35.332031 -23.4375 35.609375 -25.113281 35.453125 -26.6875 C 35.304688 -28.269531 34.570312 -29.796875 33.25 -31.265625 C 32.03125 -32.640625 30.695312 -33.898438 29.25 -35.046875 C 27.800781 -36.191406 26.390625 -37.347656 25.015625 -38.515625 C 23.847656 -39.523438 22.703125 -40.488281 21.578125 -41.40625 C 20.460938 -42.320312 19.242188 -43.1875 17.921875 -44 C 16.703125 -44.8125 15.507812 -45.421875 14.34375 -45.828125 C 14.1875 -45.878906 14.046875 -45.914062 13.921875 -45.9375 C 13.796875 -45.96875 13.65625 -46.007812 13.5 -46.0625 L 12.359375 -46.140625 C 11.953125 -46.035156 11.695312 -45.929688 11.59375 -45.828125 C 11.238281 -45.421875 11.035156 -45.21875 10.984375 -45.21875 C 10.628906 -44.613281 10.398438 -44.179688 10.296875 -43.921875 C 10.191406 -43.671875 10.039062 -43.265625 9.84375 -42.703125 C 9.332031 -41.234375 8.894531 -39.75 8.53125 -38.25 C 8.175781 -36.75 7.875 -35.257812 7.625 -33.78125 C 7.375 -32.3125 7.160156 -30.960938 6.984375 -29.734375 C 6.804688 -28.515625 6.664062 -27.171875 6.5625 -25.703125 Z M 6.5625 -25.703125 "/></g></g></g><g fill="#ff3131" fill-opacity="1"><g transform="translate(148.436927, 386.440232)"><g><path d="M 33.09375 -1.90625 C 32.6875 -1.195312 32.0625 -0.710938 31.21875 -0.453125 C 30.382812 -0.203125 29.613281 -0.332031 28.90625 -0.84375 C 27.53125 -1.851562 26.207031 -2.90625 24.9375 -4 C 23.664062 -5.09375 22.289062 -6.070312 20.8125 -6.9375 C 19.5 -7.75 18.179688 -8.5 16.859375 -9.1875 C 15.535156 -9.875 14.265625 -10.675781 13.046875 -11.59375 C 11.566406 -12.707031 10.191406 -13.925781 8.921875 -15.25 C 8.867188 -12.707031 8.894531 -10.175781 9 -7.65625 C 9.101562 -5.144531 9.253906 -2.617188 9.453125 -0.078125 C 9.554688 0.785156 9.273438 1.507812 8.609375 2.09375 C 7.953125 2.675781 7.242188 2.96875 6.484375 2.96875 C 5.566406 2.96875 4.851562 2.675781 4.34375 2.09375 C 3.832031 1.507812 3.53125 0.785156 3.4375 -0.078125 C 3.125 -3.734375 2.941406 -7.328125 2.890625 -10.859375 C 2.847656 -14.398438 2.925781 -17.972656 3.125 -21.578125 C 2.71875 -22.140625 2.3125 -22.710938 1.90625 -23.296875 C 1.5 -23.878906 1.117188 -24.476562 0.765625 -25.09375 C 0.460938 -25.695312 0.347656 -26.28125 0.421875 -26.84375 C 0.492188 -27.40625 0.695312 -27.890625 1.03125 -28.296875 C 1.363281 -28.703125 1.769531 -29.03125 2.25 -29.28125 C 2.726562 -29.539062 3.25 -29.644531 3.8125 -29.59375 C 3.914062 -30.757812 4.039062 -31.9375 4.1875 -33.125 C 4.34375 -34.320312 4.5 -35.507812 4.65625 -36.6875 C 4.800781 -37.5 4.9375 -38.296875 5.0625 -39.078125 C 5.195312 -39.867188 5.316406 -40.671875 5.421875 -41.484375 C 5.515625 -41.890625 5.570312 -42.269531 5.59375 -42.625 C 5.625 -42.988281 5.691406 -43.375 5.796875 -43.78125 C 5.796875 -43.976562 5.847656 -44.226562 5.953125 -44.53125 C 6.003906 -45.195312 6.03125 -45.847656 6.03125 -46.484375 C 6.03125 -47.117188 6.050781 -47.765625 6.09375 -48.421875 C 6.144531 -49.234375 6.234375 -50.109375 6.359375 -51.046875 C 6.492188 -51.992188 6.695312 -52.910156 6.96875 -53.796875 C 7.25 -54.691406 7.644531 -55.519531 8.15625 -56.28125 C 8.664062 -57.039062 9.351562 -57.625 10.21875 -58.03125 C 11.03125 -58.394531 11.851562 -58.597656 12.6875 -58.640625 C 13.53125 -58.691406 14.367188 -58.640625 15.203125 -58.484375 C 16.046875 -58.335938 16.875 -58.125 17.6875 -57.84375 C 18.5 -57.5625 19.289062 -57.269531 20.0625 -56.96875 C 21.832031 -56.3125 23.59375 -55.5625 25.34375 -54.71875 C 27.101562 -53.875 28.671875 -52.796875 30.046875 -51.484375 C 31.367188 -50.160156 32.507812 -48.59375 33.46875 -46.78125 C 34.4375 -44.976562 34.875 -43.113281 34.78125 -41.1875 C 34.675781 -40.007812 34.429688 -38.976562 34.046875 -38.09375 C 33.671875 -37.207031 33.148438 -36.304688 32.484375 -35.390625 C 30.859375 -33.097656 29.101562 -30.910156 27.21875 -28.828125 C 25.34375 -26.742188 23.335938 -24.835938 21.203125 -23.109375 C 20.179688 -22.296875 19.070312 -21.484375 17.875 -20.671875 C 16.6875 -19.859375 15.429688 -19.171875 14.109375 -18.609375 C 14.566406 -18.203125 15.023438 -17.796875 15.484375 -17.390625 C 15.941406 -16.984375 16.425781 -16.628906 16.9375 -16.328125 C 18.25 -15.460938 19.578125 -14.660156 20.921875 -13.921875 C 22.273438 -13.179688 23.585938 -12.378906 24.859375 -11.515625 C 26.078125 -10.648438 27.269531 -9.734375 28.4375 -8.765625 C 29.613281 -7.804688 30.785156 -6.894531 31.953125 -6.03125 C 32.660156 -5.570312 33.128906 -4.957031 33.359375 -4.1875 C 33.585938 -3.425781 33.5 -2.664062 33.09375 -1.90625 Z M 12.5 -24.5625 C 13.726562 -25.21875 14.835938 -25.914062 15.828125 -26.65625 C 16.816406 -27.394531 17.796875 -28.195312 18.765625 -29.0625 C 19.773438 -29.96875 20.765625 -30.929688 21.734375 -31.953125 C 22.703125 -32.972656 23.644531 -33.988281 24.5625 -35 C 24.914062 -35.457031 25.242188 -35.863281 25.546875 -36.21875 C 25.847656 -36.582031 26.125 -36.925781 26.375 -37.25 C 26.632812 -37.582031 26.90625 -37.9375 27.1875 -38.3125 C 27.46875 -38.695312 27.757812 -39.144531 28.0625 -39.65625 C 28.164062 -39.8125 28.265625 -39.960938 28.359375 -40.109375 C 28.460938 -40.265625 28.566406 -40.421875 28.671875 -40.578125 C 28.722656 -41.992188 28.421875 -43.3125 27.765625 -44.53125 C 26.898438 -46.007812 25.816406 -47.207031 24.515625 -48.125 C 23.222656 -49.039062 21.785156 -49.800781 20.203125 -50.40625 C 19.296875 -50.8125 18.382812 -51.164062 17.46875 -51.46875 C 16.550781 -51.78125 15.582031 -52.0625 14.5625 -52.3125 C 14.3125 -52.414062 13.929688 -52.519531 13.421875 -52.625 C 13.117188 -52.519531 12.914062 -52.367188 12.8125 -52.171875 C 12.601562 -51.503906 12.5 -51.046875 12.5 -50.796875 C 12.457031 -50.640625 12.382812 -50.359375 12.28125 -49.953125 C 12.226562 -49.441406 12.1875 -49.046875 12.15625 -48.765625 C 12.132812 -48.484375 12.125 -48.191406 12.125 -47.890625 C 11.96875 -44.378906 11.597656 -40.921875 11.015625 -37.515625 C 10.429688 -34.109375 9.960938 -30.65625 9.609375 -27.15625 C 9.503906 -26.59375 9.4375 -26.019531 9.40625 -25.4375 C 9.382812 -24.851562 9.347656 -24.28125 9.296875 -23.71875 C 9.753906 -23.664062 10.007812 -23.664062 10.0625 -23.71875 C 10.625 -23.820312 11.066406 -23.9375 11.390625 -24.0625 C 11.722656 -24.1875 12.09375 -24.351562 12.5 -24.5625 Z M 12.5 -24.5625 "/></g></g></g><g fill="#ff3131" fill-opacity="1"><g transform="translate(183.971197, 386.440232)"><g><path d="M 1.0625 -47.125 C 0.25 -47.03125 -0.457031 -47.3125 -1.0625 -47.96875 C -1.675781 -48.632812 -1.984375 -49.375 -1.984375 -50.1875 C -1.984375 -51.050781 -1.675781 -51.75 -1.0625 -52.28125 C -0.457031 -52.8125 0.25 -53.128906 1.0625 -53.234375 C 3.601562 -53.429688 6.117188 -53.53125 8.609375 -53.53125 C 11.109375 -53.53125 13.628906 -53.457031 16.171875 -53.3125 C 16.878906 -53.5625 17.640625 -53.507812 18.453125 -53.15625 C 23.179688 -52.800781 27.960938 -52.191406 32.796875 -51.328125 C 33.609375 -51.171875 34.21875 -50.6875 34.625 -49.875 C 35.03125 -49.0625 35.109375 -48.300781 34.859375 -47.59375 C 34.597656 -46.726562 34.125 -46.128906 33.4375 -45.796875 C 32.75 -45.460938 31.972656 -45.347656 31.109375 -45.453125 C 29.179688 -45.804688 27.273438 -46.109375 25.390625 -46.359375 C 23.515625 -46.617188 21.609375 -46.828125 19.671875 -46.984375 C 18.960938 -43.421875 18.546875 -39.859375 18.421875 -36.296875 C 18.296875 -32.742188 18.410156 -29.132812 18.765625 -25.46875 C 19.117188 -21.707031 19.625 -17.984375 20.28125 -14.296875 C 20.945312 -10.609375 21.632812 -6.910156 22.34375 -3.203125 C 22.5 -2.335938 22.410156 -1.5625 22.078125 -0.875 C 21.742188 -0.1875 21.144531 0.28125 20.28125 0.53125 C 19.519531 0.789062 18.742188 0.710938 17.953125 0.296875 C 17.171875 -0.109375 16.703125 -0.71875 16.546875 -1.53125 C 15.734375 -5.644531 14.957031 -9.722656 14.21875 -13.765625 C 13.488281 -17.804688 12.941406 -21.882812 12.578125 -26 C 12.273438 -29.613281 12.195312 -33.195312 12.34375 -36.75 C 12.5 -40.3125 12.910156 -43.847656 13.578125 -47.359375 C 9.410156 -47.515625 5.238281 -47.4375 1.0625 -47.125 Z M 1.0625 -47.125 "/></g></g></g><g fill="#ff3131" fill-opacity="1"><g transform="translate(213.862686, 386.440232)"><g><path d="M 1.375 0 C 0.457031 -0.25 -0.148438 -0.753906 -0.453125 -1.515625 C -0.765625 -2.285156 -0.816406 -3.023438 -0.609375 -3.734375 C -0.410156 -4.441406 0.00390625 -5.035156 0.640625 -5.515625 C 1.273438 -6.003906 2.050781 -6.125 2.96875 -5.875 C 5.007812 -5.257812 7.046875 -4.875 9.078125 -4.71875 C 11.109375 -4.570312 13.191406 -4.550781 15.328125 -4.65625 C 14.460938 -8.257812 14.03125 -11.878906 14.03125 -15.515625 C 14.03125 -19.148438 14.171875 -22.785156 14.453125 -26.421875 C 14.734375 -30.054688 15.007812 -33.703125 15.28125 -37.359375 C 15.5625 -41.023438 15.578125 -44.6875 15.328125 -48.34375 C 13.398438 -48.394531 11.457031 -48.484375 9.5 -48.609375 C 7.539062 -48.742188 5.59375 -48.9375 3.65625 -49.1875 C 2.789062 -49.289062 2.066406 -49.597656 1.484375 -50.109375 C 0.898438 -50.617188 0.609375 -51.304688 0.609375 -52.171875 C 0.609375 -52.929688 0.898438 -53.65625 1.484375 -54.34375 C 2.066406 -55.03125 2.789062 -55.320312 3.65625 -55.21875 C 6 -54.957031 8.351562 -54.738281 10.71875 -54.5625 C 13.082031 -54.382812 15.429688 -54.320312 17.765625 -54.375 C 20.109375 -54.425781 22.4375 -54.628906 24.75 -54.984375 C 27.0625 -55.335938 29.363281 -55.921875 31.65625 -56.734375 C 32.414062 -56.992188 33.160156 -56.894531 33.890625 -56.4375 C 34.628906 -55.976562 35.128906 -55.367188 35.390625 -54.609375 C 35.640625 -53.742188 35.546875 -52.96875 35.109375 -52.28125 C 34.679688 -51.59375 34.0625 -51.125 33.25 -50.875 C 29.4375 -49.550781 25.472656 -48.757812 21.359375 -48.5 C 21.660156 -44.894531 21.65625 -41.257812 21.34375 -37.59375 C 21.039062 -33.9375 20.738281 -30.300781 20.4375 -26.6875 C 20.132812 -23.082031 19.992188 -19.472656 20.015625 -15.859375 C 20.046875 -12.253906 20.519531 -8.671875 21.4375 -5.109375 C 23.0625 -5.265625 24.660156 -5.414062 26.234375 -5.5625 C 27.804688 -5.71875 29.382812 -5.847656 30.96875 -5.953125 C 31.925781 -6.003906 32.644531 -5.734375 33.125 -5.140625 C 33.613281 -4.554688 33.859375 -3.882812 33.859375 -3.125 C 33.859375 -2.363281 33.613281 -1.648438 33.125 -0.984375 C 32.644531 -0.328125 31.925781 0.0234375 30.96875 0.078125 C 28.46875 0.234375 25.984375 0.445312 23.515625 0.71875 C 21.054688 1 18.59375 1.203125 16.125 1.328125 C 13.664062 1.460938 11.203125 1.453125 8.734375 1.296875 C 6.265625 1.140625 3.8125 0.707031 1.375 0 Z M 1.375 0 "/></g></g></g><g fill="#ff3131" fill-opacity="1"><g transform="translate(248.558164, 386.440232)"><g><path d="M 18.234375 -20.890625 C 17.003906 -22.160156 15.703125 -23.34375 14.328125 -24.4375 C 12.960938 -25.53125 11.601562 -26.625 10.25 -27.71875 C 8.90625 -28.8125 7.597656 -29.957031 6.328125 -31.15625 C 5.054688 -32.351562 3.890625 -33.660156 2.828125 -35.078125 C 1.703125 -36.554688 0.820312 -38.171875 0.1875 -39.921875 C -0.445312 -41.679688 -0.5625 -43.5 -0.15625 -45.375 C 0.25 -47.40625 1.238281 -49.179688 2.8125 -50.703125 C 4.394531 -52.234375 6.101562 -53.429688 7.9375 -54.296875 C 9.914062 -55.160156 11.921875 -55.757812 13.953125 -56.09375 C 15.984375 -56.425781 18.039062 -56.628906 20.125 -56.703125 C 22.21875 -56.773438 24.316406 -56.773438 26.421875 -56.703125 C 28.535156 -56.628906 30.632812 -56.640625 32.71875 -56.734375 C 33.6875 -56.785156 34.410156 -56.503906 34.890625 -55.890625 C 35.367188 -55.285156 35.609375 -54.601562 35.609375 -53.84375 C 35.609375 -53.082031 35.367188 -52.382812 34.890625 -51.75 C 34.410156 -51.113281 33.6875 -50.769531 32.71875 -50.71875 C 31.238281 -50.613281 29.773438 -50.570312 28.328125 -50.59375 C 26.878906 -50.625 25.421875 -50.664062 23.953125 -50.71875 C 21.960938 -50.769531 19.960938 -50.742188 17.953125 -50.640625 C 15.953125 -50.535156 13.984375 -50.128906 12.046875 -49.421875 C 11.390625 -49.160156 10.675781 -48.835938 9.90625 -48.453125 C 9.144531 -48.078125 8.445312 -47.609375 7.8125 -47.046875 C 7.175781 -46.492188 6.65625 -45.882812 6.25 -45.21875 C 5.84375 -44.5625 5.664062 -43.851562 5.71875 -43.09375 C 5.769531 -42.375 5.945312 -41.671875 6.25 -40.984375 C 6.5625 -40.304688 6.957031 -39.632812 7.4375 -38.96875 C 7.914062 -38.3125 8.4375 -37.675781 9 -37.0625 C 9.5625 -36.457031 10.09375 -35.898438 10.59375 -35.390625 C 11.769531 -34.210938 12.992188 -33.140625 14.265625 -32.171875 C 15.535156 -31.210938 16.804688 -30.222656 18.078125 -29.203125 C 19.398438 -28.140625 20.734375 -26.957031 22.078125 -25.65625 C 23.421875 -24.363281 24.585938 -22.96875 25.578125 -21.46875 C 26.578125 -19.96875 27.316406 -18.378906 27.796875 -16.703125 C 28.273438 -15.023438 28.335938 -13.242188 27.984375 -11.359375 C 27.628906 -9.578125 26.957031 -8.0625 25.96875 -6.8125 C 24.976562 -5.570312 23.804688 -4.457031 22.453125 -3.46875 C 21.109375 -2.476562 19.6875 -1.585938 18.1875 -0.796875 C 16.6875 -0.015625 15.25 0.78125 13.875 1.59375 C 13.007812 2.101562 12.207031 2.207031 11.46875 1.90625 C 10.738281 1.601562 10.179688 1.117188 9.796875 0.453125 C 9.421875 -0.203125 9.269531 -0.921875 9.34375 -1.703125 C 9.414062 -2.492188 9.882812 -3.144531 10.75 -3.65625 C 11.96875 -4.375 13.1875 -5.035156 14.40625 -5.640625 C 15.632812 -6.253906 16.832031 -6.941406 18 -7.703125 C 19.113281 -8.410156 20.085938 -9.257812 20.921875 -10.25 C 21.765625 -11.25 22.1875 -12.410156 22.1875 -13.734375 C 22.132812 -15.046875 21.710938 -16.3125 20.921875 -17.53125 C 20.140625 -18.757812 19.242188 -19.878906 18.234375 -20.890625 Z M 18.234375 -20.890625 "/></g></g></g><g fill="#ff3131" fill-opacity="1"><g transform="translate(280.661013, 386.440232)"><g><path d="M 11.4375 -3.734375 C 10.269531 -4.597656 9.210938 -5.578125 8.265625 -6.671875 C 7.328125 -7.765625 6.476562 -8.921875 5.71875 -10.140625 C 5.007812 -11.210938 4.320312 -12.359375 3.65625 -13.578125 C 3 -14.796875 2.414062 -16.039062 1.90625 -17.3125 C 1.394531 -18.582031 1 -19.878906 0.71875 -21.203125 C 0.445312 -22.523438 0.359375 -23.847656 0.453125 -25.171875 C 0.609375 -27.765625 0.875 -30.316406 1.25 -32.828125 C 1.632812 -35.347656 2.160156 -37.828125 2.828125 -40.265625 C 3.023438 -41.179688 3.273438 -42.195312 3.578125 -43.3125 C 3.890625 -44.4375 4.285156 -45.519531 4.765625 -46.5625 C 5.242188 -47.601562 5.8125 -48.554688 6.46875 -49.421875 C 7.132812 -50.285156 7.976562 -50.945312 9 -51.40625 C 10.519531 -52.0625 12.039062 -52.300781 13.5625 -52.125 C 15.09375 -51.945312 16.582031 -51.523438 18.03125 -50.859375 C 19.476562 -50.203125 20.863281 -49.398438 22.1875 -48.453125 C 23.507812 -47.515625 24.753906 -46.59375 25.921875 -45.6875 C 26.992188 -44.820312 28.050781 -43.914062 29.09375 -42.96875 C 30.132812 -42.03125 31.210938 -41.128906 32.328125 -40.265625 C 33.648438 -39.097656 34.984375 -37.925781 36.328125 -36.75 C 37.679688 -35.582031 38.789062 -34.238281 39.65625 -32.71875 C 40.675781 -30.988281 41.257812 -29.242188 41.40625 -27.484375 C 41.5625 -25.734375 41.4375 -24.003906 41.03125 -22.296875 C 40.625 -20.597656 39.988281 -18.9375 39.125 -17.3125 C 38.257812 -15.6875 37.316406 -14.109375 36.296875 -12.578125 C 35.378906 -11.253906 34.320312 -9.851562 33.125 -8.375 C 31.9375 -6.90625 30.617188 -5.5625 29.171875 -4.34375 C 27.722656 -3.125 26.171875 -2.15625 24.515625 -1.4375 C 22.867188 -0.726562 21.128906 -0.476562 19.296875 -0.6875 C 18.222656 -0.84375 17.4375 -1.25 16.9375 -1.90625 C 15.96875 -2.0625 15.023438 -2.265625 14.109375 -2.515625 C 13.191406 -2.765625 12.300781 -3.171875 11.4375 -3.734375 Z M 6.5625 -25.703125 C 6.457031 -24.429688 6.519531 -23.257812 6.75 -22.1875 C 6.976562 -21.125 7.375 -19.929688 7.9375 -18.609375 C 8.644531 -17.128906 9.429688 -15.640625 10.296875 -14.140625 C 11.160156 -12.640625 12.175781 -11.28125 13.34375 -10.0625 C 14.363281 -8.945312 15.535156 -8.257812 16.859375 -8 C 17.722656 -7.851562 18.5625 -7.710938 19.375 -7.578125 C 20.1875 -7.453125 21 -7.265625 21.8125 -7.015625 C 22.113281 -7.117188 22.414062 -7.234375 22.71875 -7.359375 C 23.03125 -7.484375 23.335938 -7.675781 23.640625 -7.9375 C 24.503906 -8.488281 25.289062 -9.09375 26 -9.75 C 26.71875 -10.414062 27.40625 -11.109375 28.0625 -11.828125 C 29.332031 -13.242188 30.566406 -14.789062 31.765625 -16.46875 C 32.960938 -18.144531 33.914062 -19.875 34.625 -21.65625 C 35.332031 -23.4375 35.609375 -25.113281 35.453125 -26.6875 C 35.304688 -28.269531 34.570312 -29.796875 33.25 -31.265625 C 32.03125 -32.640625 30.695312 -33.898438 29.25 -35.046875 C 27.800781 -36.191406 26.390625 -37.347656 25.015625 -38.515625 C 23.847656 -39.523438 22.703125 -40.488281 21.578125 -41.40625 C 20.460938 -42.320312 19.242188 -43.1875 17.921875 -44 C 16.703125 -44.8125 15.507812 -45.421875 14.34375 -45.828125 C 14.1875 -45.878906 14.046875 -45.914062 13.921875 -45.9375 C 13.796875 -45.96875 13.65625 -46.007812 13.5 -46.0625 L 12.359375 -46.140625 C 11.953125 -46.035156 11.695312 -45.929688 11.59375 -45.828125 C 11.238281 -45.421875 11.035156 -45.21875 10.984375 -45.21875 C 10.628906 -44.613281 10.398438 -44.179688 10.296875 -43.921875 C 10.191406 -43.671875 10.039062 -43.265625 9.84375 -42.703125 C 9.332031 -41.234375 8.894531 -39.75 8.53125 -38.25 C 8.175781 -36.75 7.875 -35.257812 7.625 -33.78125 C 7.375 -32.3125 7.160156 -30.960938 6.984375 -29.734375 C 6.804688 -28.515625 6.664062 -27.171875 6.5625 -25.703125 Z M 6.5625 -25.703125 "/></g></g></g><g fill="#ff3131" fill-opacity="1"><g transform="translate(323.2869, 386.440232)"><g><path d="M 6.484375 0.609375 C 5.671875 0.609375 5.019531 0.394531 4.53125 -0.03125 C 4.050781 -0.46875 3.734375 -0.976562 3.578125 -1.5625 C 3.429688 -2.144531 3.445312 -2.738281 3.625 -3.34375 C 3.800781 -3.957031 4.144531 -4.46875 4.65625 -4.875 C 5.0625 -6.601562 5.160156 -8.34375 4.953125 -10.09375 C 4.753906 -11.851562 4.550781 -13.597656 4.34375 -15.328125 C 4.09375 -17.460938 4.015625 -19.554688 4.109375 -21.609375 C 4.210938 -23.671875 4.421875 -25.769531 4.734375 -27.90625 C 5.035156 -30.039062 5.363281 -32.164062 5.71875 -34.28125 C 6.070312 -36.394531 6.378906 -38.515625 6.640625 -40.640625 C 6.890625 -42.929688 7.101562 -45.195312 7.28125 -47.4375 C 7.457031 -49.675781 7.597656 -51.9375 7.703125 -54.21875 C 7.703125 -55.1875 8.03125 -55.925781 8.6875 -56.4375 C 9.351562 -56.945312 10.066406 -57.203125 10.828125 -57.203125 C 11.585938 -57.203125 12.269531 -56.945312 12.875 -56.4375 C 13.488281 -55.925781 13.773438 -55.1875 13.734375 -54.21875 C 13.628906 -51.832031 13.488281 -49.46875 13.3125 -47.125 C 13.132812 -44.789062 12.914062 -42.40625 12.65625 -39.96875 C 12.40625 -37.726562 12.085938 -35.539062 11.703125 -33.40625 C 11.328125 -31.269531 10.984375 -29.082031 10.671875 -26.84375 C 10.367188 -24.707031 10.21875 -22.609375 10.21875 -20.546875 C 10.21875 -18.492188 10.34375 -16.398438 10.59375 -14.265625 C 10.75 -12.785156 10.890625 -11.304688 11.015625 -9.828125 C 11.140625 -8.359375 11.101562 -6.890625 10.90625 -5.421875 C 14.71875 -5.316406 18.53125 -5.125 22.34375 -4.84375 C 26.15625 -4.5625 29.96875 -4.34375 33.78125 -4.1875 C 34.75 -4.144531 35.472656 -3.789062 35.953125 -3.125 C 36.441406 -2.46875 36.6875 -1.753906 36.6875 -0.984375 C 36.6875 -0.222656 36.441406 0.457031 35.953125 1.0625 C 35.472656 1.675781 34.75 1.957031 33.78125 1.90625 C 29.15625 1.695312 24.59375 1.425781 20.09375 1.09375 C 15.59375 0.769531 11.054688 0.609375 6.484375 0.609375 Z M 6.484375 0.609375 "/></g></g></g></svg>