<svg xmlns="http://www.w3.org/2000/svg" xmlns:xlink="http://www.w3.org/1999/xlink" width="566" zoomAndPan="magnify" viewBox="0 0 425.25 425.249985" height="566" preserveAspectRatio="xMidYMid meet" version="1.0"><defs><clipPath id="378081ac23"><path d="M 0 0 L 424.5 0 L 424.5 424.5 L 0 424.5 Z M 0 0 " clip-rule="nonzero"/></clipPath><clipPath id="78353ac84f"><path d="M 86 107 L 351 107 L 351 424.5 L 86 424.5 Z M 86 107 " clip-rule="nonzero"/></clipPath><clipPath id="5a561be4d8"><path d="M 84 105.210938 L 353 105.210938 L 353 424.5 L 84 424.5 Z M 84 105.210938 " clip-rule="nonzero"/></clipPath><clipPath id="218b0e8312"><path d="M 169 156 L 216 156 L 216 221.445312 L 169 221.445312 Z M 169 156 " clip-rule="nonzero"/></clipPath><clipPath id="63ac7171ea"><path d="M 33.636719 159 L 81 159 L 81 219 L 33.636719 219 Z M 33.636719 159 " clip-rule="nonzero"/></clipPath><clipPath id="8a77682a56"><path d="M 355 156 L 390.757812 156 L 390.757812 220 L 355 220 Z M 355 156 " clip-rule="nonzero"/></clipPath></defs><g clip-path="url(#378081ac23)"><path fill="#ffffff" d="M 0 0 L 425.25 0 L 425.25 432.738281 L 0 432.738281 Z M 0 0 " fill-opacity="1" fill-rule="nonzero"/><path fill="#ffffff" d="M 0 0 L 424.5 0 L 424.5 424.5 L 0 424.5 Z M 0 0 " fill-opacity="1" fill-rule="nonzero"/><path fill="#b39ddb" d="M 0 0 L 424.5 0 L 424.5 424.5 L 0 424.5 Z M 0 0 " fill-opacity="1" fill-rule="nonzero"/></g><g clip-path="url(#78353ac84f)"><path fill="#fb3e93" d="M 315.332031 361.476562 C 313.226562 365.578125 311.421875 368.847656 310.113281 371.148438 C 307.6875 375.417969 304.710938 379.550781 301.390625 383.558594 C 301.390625 404.558594 301.390625 427.257812 301.390625 439.054688 C 301.390625 458.652344 270.097656 474.542969 231.496094 474.542969 C 192.894531 474.542969 161.601562 458.652344 161.601562 439.054688 C 161.601562 436.90625 161.601562 434.371094 161.601562 431.578125 C 119.101562 417.738281 101.625 372.121094 94.199219 343.113281 C 85.652344 309.746094 84.417969 253.15625 88.332031 220.6875 C 96.476562 153.171875 146.371094 107.222656 218.816406 107.222656 C 291.261719 107.222656 348.230469 154.367188 349.992188 212.457031 C 350.761719 237.921875 347.925781 261.605469 343.414062 282.597656 C 344.671875 284.222656 345.839844 286.054688 346.792969 288.328125 C 358.820312 316.960938 335.863281 355.433594 315.332031 361.476562 Z M 315.332031 361.476562 " fill-opacity="1" fill-rule="nonzero"/></g><path fill="#211d49" d="M 305.613281 173.53125 C 305.613281 174.40625 305.578125 175.28125 305.507812 176.160156 C 305.4375 177.035156 305.332031 177.90625 305.191406 178.78125 C 305.050781 179.652344 304.875 180.523438 304.664062 181.386719 C 304.457031 182.253906 304.210938 183.117188 303.933594 183.976562 C 303.652344 184.839844 303.339844 185.691406 302.992188 186.542969 C 302.644531 187.394531 302.261719 188.238281 301.847656 189.078125 C 301.429688 189.914062 300.980469 190.746094 300.5 191.570312 C 300.019531 192.398438 299.503906 193.214844 298.957031 194.023438 C 298.40625 194.835938 297.828125 195.636719 297.214844 196.425781 C 296.605469 197.21875 295.960938 198.003906 295.285156 198.773438 C 294.613281 199.546875 293.90625 200.308594 293.171875 201.0625 C 292.433594 201.8125 291.667969 202.554688 290.875 203.28125 C 290.078125 204.011719 289.253906 204.726562 288.402344 205.433594 C 287.550781 206.136719 286.667969 206.828125 285.761719 207.503906 C 284.855469 208.179688 283.917969 208.84375 282.957031 209.496094 C 281.996094 210.144531 281.011719 210.777344 280 211.398438 C 278.988281 212.019531 277.949219 212.621094 276.890625 213.210938 C 275.828125 213.800781 274.746094 214.371094 273.640625 214.925781 C 272.535156 215.484375 271.40625 216.023438 270.257812 216.542969 C 269.105469 217.066406 267.9375 217.570312 266.746094 218.058594 C 265.558594 218.546875 264.347656 219.015625 263.121094 219.464844 C 261.894531 219.914062 260.648438 220.347656 259.386719 220.761719 C 258.125 221.171875 256.84375 221.566406 255.550781 221.941406 C 254.257812 222.316406 252.949219 222.671875 251.628906 223.007812 C 250.304688 223.34375 248.972656 223.65625 247.625 223.953125 C 246.277344 224.246094 244.917969 224.523438 243.546875 224.777344 C 242.179688 225.03125 240.800781 225.265625 239.410156 225.476562 C 238.023438 225.691406 236.625 225.882812 235.222656 226.054688 C 233.820312 226.226562 232.410156 226.375 230.992188 226.503906 C 229.578125 226.632812 228.15625 226.738281 226.734375 226.824219 C 225.308594 226.910156 223.882812 226.976562 222.453125 227.019531 C 221.023438 227.0625 219.59375 227.082031 218.164062 227.082031 C 216.730469 227.082031 215.300781 227.0625 213.871094 227.019531 C 212.441406 226.976562 211.015625 226.910156 209.589844 226.824219 C 208.167969 226.738281 206.746094 226.632812 205.332031 226.503906 C 203.914062 226.375 202.503906 226.226562 201.101562 226.054688 C 199.699219 225.882812 198.300781 225.691406 196.914062 225.476562 C 195.523438 225.265625 194.144531 225.03125 192.777344 224.777344 C 191.40625 224.523438 190.046875 224.246094 188.699219 223.953125 C 187.355469 223.65625 186.019531 223.34375 184.695312 223.007812 C 183.375 222.671875 182.066406 222.316406 180.773438 221.941406 C 179.480469 221.566406 178.199219 221.171875 176.9375 220.761719 C 175.675781 220.347656 174.429688 219.914062 173.203125 219.464844 C 171.976562 219.015625 170.765625 218.546875 169.578125 218.058594 C 168.386719 217.570312 167.21875 217.066406 166.066406 216.542969 C 164.917969 216.023438 163.789062 215.484375 162.683594 214.925781 C 161.578125 214.371094 160.496094 213.800781 159.433594 213.210938 C 158.375 212.621094 157.335938 212.019531 156.324219 211.398438 C 155.3125 210.777344 154.328125 210.144531 153.367188 209.496094 C 152.40625 208.84375 151.46875 208.179688 150.5625 207.503906 C 149.65625 206.828125 148.773438 206.136719 147.921875 205.433594 C 147.070312 204.726562 146.246094 204.011719 145.449219 203.28125 C 144.65625 202.554688 143.890625 201.8125 143.152344 201.0625 C 142.417969 200.308594 141.710938 199.546875 141.039062 198.773438 C 140.363281 198.003906 139.71875 197.21875 139.109375 196.425781 C 138.496094 195.636719 137.917969 194.835938 137.367188 194.023438 C 136.820312 193.214844 136.304688 192.398438 135.824219 191.570312 C 135.34375 190.746094 134.894531 189.914062 134.476562 189.078125 C 134.0625 188.238281 133.679688 187.394531 133.332031 186.542969 C 132.984375 185.691406 132.671875 184.839844 132.390625 183.976562 C 132.113281 183.117188 131.867188 182.253906 131.660156 181.386719 C 131.449219 180.523438 131.273438 179.652344 131.132812 178.78125 C 130.992188 177.90625 130.886719 177.035156 130.816406 176.160156 C 130.746094 175.28125 130.710938 174.40625 130.710938 173.53125 C 130.710938 172.65625 130.746094 171.777344 130.816406 170.902344 C 130.886719 170.027344 130.992188 169.152344 131.132812 168.28125 C 131.273438 167.410156 131.449219 166.539062 131.660156 165.671875 C 131.867188 164.804688 132.113281 163.941406 132.390625 163.082031 C 132.671875 162.222656 132.984375 161.367188 133.332031 160.519531 C 133.679688 159.667969 134.0625 158.824219 134.476562 157.984375 C 134.894531 157.148438 135.34375 156.316406 135.824219 155.488281 C 136.304688 154.664062 136.820312 153.847656 137.367188 153.039062 C 137.917969 152.226562 138.496094 151.425781 139.109375 150.632812 C 139.71875 149.84375 140.363281 149.058594 141.039062 148.285156 C 141.710938 147.511719 142.417969 146.75 143.152344 146 C 143.890625 145.246094 144.65625 144.507812 145.449219 143.777344 C 146.246094 143.050781 147.070312 142.332031 147.921875 141.628906 C 148.773438 140.925781 149.65625 140.234375 150.5625 139.558594 C 151.46875 138.878906 152.40625 138.214844 153.367188 137.566406 C 154.328125 136.917969 155.3125 136.285156 156.324219 135.664062 C 157.335938 135.042969 158.375 134.441406 159.433594 133.851562 C 160.496094 133.261719 161.578125 132.691406 162.683594 132.132812 C 163.789062 131.578125 164.917969 131.039062 166.066406 130.515625 C 167.21875 129.996094 168.386719 129.492188 169.578125 129.003906 C 170.765625 128.515625 171.976562 128.046875 173.203125 127.597656 C 174.429688 127.148438 175.675781 126.714844 176.9375 126.300781 C 178.199219 125.886719 179.480469 125.496094 180.773438 125.121094 C 182.066406 124.746094 183.375 124.390625 184.695312 124.054688 C 186.019531 123.71875 187.355469 123.402344 188.699219 123.109375 C 190.046875 122.8125 191.40625 122.539062 192.777344 122.285156 C 194.144531 122.03125 195.523438 121.796875 196.914062 121.582031 C 198.300781 121.371094 199.699219 121.179688 201.101562 121.007812 C 202.503906 120.835938 203.914062 120.6875 205.332031 120.558594 C 206.746094 120.429688 208.167969 120.320312 209.589844 120.234375 C 211.015625 120.148438 212.441406 120.085938 213.871094 120.042969 C 215.300781 120 216.730469 119.976562 218.164062 119.976562 C 219.59375 119.976562 221.023438 120 222.453125 120.042969 C 223.882812 120.085938 225.308594 120.148438 226.734375 120.234375 C 228.15625 120.320312 229.578125 120.429688 230.992188 120.558594 C 232.410156 120.6875 233.820312 120.835938 235.222656 121.007812 C 236.625 121.179688 238.023438 121.371094 239.410156 121.582031 C 240.800781 121.796875 242.179688 122.03125 243.546875 122.285156 C 244.917969 122.539062 246.277344 122.8125 247.625 123.109375 C 248.96875 123.402344 250.304688 123.71875 251.628906 124.054688 C 252.949219 124.390625 254.257812 124.746094 255.550781 125.121094 C 256.84375 125.496094 258.125 125.886719 259.386719 126.300781 C 260.648438 126.714844 261.894531 127.148438 263.121094 127.597656 C 264.347656 128.046875 265.558594 128.515625 266.746094 129.003906 C 267.9375 129.492188 269.105469 129.996094 270.257812 130.515625 C 271.40625 131.039062 272.535156 131.578125 273.640625 132.132812 C 274.746094 132.691406 275.828125 133.261719 276.890625 133.851562 C 277.949219 134.441406 278.988281 135.042969 280 135.664062 C 281.011719 136.285156 281.996094 136.917969 282.957031 137.566406 C 283.917969 138.214844 284.855469 138.878906 285.761719 139.558594 C 286.667969 140.234375 287.550781 140.925781 288.402344 141.628906 C 289.253906 142.332031 290.078125 143.050781 290.875 143.777344 C 291.667969 144.507812 292.433594 145.246094 293.171875 146 C 293.90625 146.75 294.613281 147.511719 295.285156 148.285156 C 295.960938 149.058594 296.605469 149.84375 297.214844 150.632812 C 297.828125 151.425781 298.40625 152.226562 298.957031 153.039062 C 299.503906 153.847656 300.019531 154.664062 300.5 155.488281 C 300.980469 156.316406 301.429688 157.148438 301.847656 157.984375 C 302.261719 158.824219 302.644531 159.667969 302.992188 160.519531 C 303.339844 161.367188 303.652344 162.222656 303.933594 163.082031 C 304.210938 163.941406 304.457031 164.804688 304.664062 165.671875 C 304.875 166.539062 305.050781 167.410156 305.191406 168.28125 C 305.332031 169.152344 305.4375 170.027344 305.507812 170.902344 C 305.578125 171.777344 305.613281 172.65625 305.613281 173.53125 Z M 305.613281 173.53125 " fill-opacity="1" fill-rule="nonzero"/><path fill="#065fff" d="M 298.433594 192.6875 C 298.433594 193.488281 298.300781 194.261719 298.242188 195.050781 C 296.71875 197.175781 294.988281 199.230469 293.046875 201.199219 C 293.910156 198.4375 294.414062 195.597656 294.414062 192.6875 C 294.414062 167.371094 260.207031 146.777344 218.160156 146.777344 C 176.117188 146.777344 141.910156 167.371094 141.910156 192.6875 C 141.910156 195.597656 142.414062 198.4375 143.277344 201.199219 C 141.335938 199.230469 139.605469 197.175781 138.082031 195.050781 C 138.023438 194.261719 137.890625 193.488281 137.890625 192.6875 C 137.890625 165.152344 173.902344 142.75 218.160156 142.75 C 262.425781 142.75 298.433594 165.152344 298.433594 192.6875 Z M 218.160156 175.019531 C 187.472656 175.019531 162.507812 190.660156 162.507812 209.882812 C 162.507812 211.691406 162.792969 213.449219 163.21875 215.183594 C 164.820312 215.976562 166.472656 216.734375 168.164062 217.457031 C 167.132812 215.03125 166.527344 212.5 166.527344 209.882812 C 166.527344 192.882812 189.691406 179.046875 218.160156 179.046875 C 246.632812 179.046875 269.796875 192.882812 269.796875 209.882812 C 269.796875 212.5 269.191406 215.03125 268.160156 217.457031 C 269.851562 216.734375 271.503906 215.976562 273.105469 215.183594 C 273.53125 213.449219 273.820312 211.691406 273.820312 209.882812 C 273.820312 190.660156 248.851562 175.019531 218.160156 175.019531 Z M 218.160156 207.289062 C 202.566406 207.289062 190.03125 214.277344 187.582031 223.710938 C 188.886719 224.007812 190.207031 224.285156 191.539062 224.546875 C 193.691406 217.15625 204.992188 211.316406 218.160156 211.316406 C 231.332031 211.316406 242.632812 217.15625 244.785156 224.546875 C 246.117188 224.285156 247.4375 224.007812 248.742188 223.710938 C 246.292969 214.277344 233.757812 207.289062 218.160156 207.289062 Z M 218.160156 207.289062 " fill-opacity="1" fill-rule="nonzero"/><g clip-path="url(#5a561be4d8)"><path fill="#000000" d="M 233.398438 315.683594 C 233.753906 316.738281 233.191406 317.878906 232.140625 318.234375 C 223.023438 321.324219 215.085938 322.496094 208.300781 322.496094 C 187.898438 322.496094 177.886719 311.941406 177.339844 311.347656 C 176.589844 310.527344 176.640625 309.261719 177.453125 308.507812 C 178.265625 307.753906 179.535156 307.804688 180.292969 308.613281 C 180.953125 309.324219 196.921875 325.925781 230.851562 314.421875 C 231.894531 314.082031 233.042969 314.632812 233.398438 315.683594 Z M 169.386719 369.015625 C 168.125 369.414062 166.070312 369.917969 163.609375 370.324219 C 162.964844 370.429688 162.296875 370.527344 161.601562 370.617188 C 160.945312 370.699219 160.277344 370.769531 159.589844 370.832031 C 153.714844 371.351562 146.8125 370.941406 142.277344 367.621094 C 138.804688 365.078125 137.117188 361.195312 137.117188 355.753906 C 137.117188 336.6875 139.683594 270.9375 139.707031 270.277344 C 139.75 269.164062 138.886719 268.230469 137.777344 268.183594 C 136.675781 268.128906 135.734375 269.007812 135.691406 270.121094 C 135.679688 270.417969 135.15625 283.863281 134.582031 300.316406 C 109.433594 303.632812 101.621094 289.910156 101.277344 289.269531 C 100.757812 288.296875 99.539062 287.917969 98.5625 288.433594 C 97.582031 288.953125 97.203125 290.171875 97.726562 291.15625 C 98.054688 291.777344 105.238281 304.863281 127.03125 304.863281 C 129.328125 304.863281 131.8125 304.695312 134.441406 304.371094 C 133.777344 323.703125 133.097656 345.902344 133.097656 355.753906 C 133.097656 362.472656 135.390625 367.558594 139.902344 370.871094 C 144.324219 374.109375 150.085938 375.082031 155.425781 375.082031 C 156.863281 375.082031 158.25 374.996094 159.589844 374.878906 C 160.277344 374.820312 160.953125 374.757812 161.601562 374.679688 C 162.292969 374.59375 162.972656 374.5 163.609375 374.398438 C 167.695312 373.75 170.527344 372.875 170.601562 372.851562 C 171.660156 372.511719 172.246094 371.382812 171.910156 370.324219 C 171.574219 369.265625 170.445312 368.683594 169.386719 369.015625 Z M 348.644531 287.550781 C 360.359375 315.433594 340.507812 350.859375 321.40625 361.136719 C 319.820312 361.992188 318.265625 362.625 316.730469 363.132812 C 314.953125 366.566406 313.289062 369.628906 311.859375 372.144531 C 309.503906 376.292969 306.628906 380.339844 303.402344 384.277344 L 303.402344 439.050781 C 303.402344 460.082031 271.816406 476.554688 231.496094 476.554688 C 191.175781 476.554688 159.589844 460.082031 159.589844 439.050781 L 159.589844 433.046875 C 119.988281 419.425781 101.167969 378.421875 92.25 343.613281 C 83.53125 309.5625 82.394531 253.167969 86.339844 220.445312 C 94.78125 150.445312 146.78125 105.210938 218.816406 105.210938 C 291.675781 105.210938 350.175781 152.292969 352 212.394531 C 352.761719 237.589844 350.015625 261.035156 345.574219 282.03125 C 346.734375 283.664062 347.777344 285.484375 348.644531 287.550781 Z M 344.9375 289.113281 C 344.746094 288.648438 344.515625 288.238281 344.304688 287.800781 C 343.851562 286.867188 343.363281 285.996094 342.839844 285.183594 C 342.339844 284.410156 341.804688 283.695312 341.242188 283.035156 C 338.117188 279.394531 334.050781 277.464844 329.175781 277.464844 C 329.074219 277.464844 328.96875 277.464844 328.863281 277.46875 C 318.203125 277.644531 306.109375 286.757812 301.898438 297.785156 C 301.582031 298.628906 300.753906 299.097656 299.898438 299.042969 C 299.699219 299.03125 299.5 299.019531 299.304688 298.945312 C 298.269531 298.546875 297.75 297.386719 298.144531 296.347656 C 302.972656 283.707031 316.433594 273.648438 328.796875 273.445312 C 334.09375 273.363281 338.625 275.085938 342.277344 278.339844 C 346.292969 258.375 348.699219 236.210938 347.980469 212.523438 C 346.226562 154.601562 289.488281 109.238281 218.816406 109.238281 C 148.945312 109.238281 98.511719 153.078125 90.332031 220.925781 C 86.410156 253.421875 87.8125 310.074219 96.144531 342.613281 C 104.683594 375.957031 122.503906 415.179688 159.589844 428.765625 C 160.25 429.003906 160.929688 429.21875 161.601562 429.445312 C 162.269531 429.667969 162.929688 429.898438 163.609375 430.105469 C 169.484375 431.898438 175.804688 433.074219 182.628906 433.503906 C 223.296875 436.09375 273.710938 413.390625 299.382812 382.878906 C 300.089844 382.03125 300.71875 381.164062 301.390625 380.308594 C 302.0625 379.453125 302.769531 378.609375 303.402344 377.742188 C 305.21875 375.25 306.90625 372.726562 308.367188 370.152344 C 309.347656 368.425781 310.457031 366.390625 311.617188 364.21875 C 311.078125 364.265625 310.527344 364.335938 310 364.335938 C 307.675781 364.335938 305.464844 363.882812 303.402344 363 C 302.714844 362.707031 302.042969 362.363281 301.390625 361.972656 C 300.699219 361.558594 300.03125 361.085938 299.382812 360.5625 C 297.6875 359.210938 296.128906 357.515625 294.75 355.441406 C 294.132812 354.519531 294.382812 353.269531 295.308594 352.652344 C 295.6875 352.398438 296.121094 352.324219 296.546875 352.351562 C 297.152344 352.386719 297.734375 352.664062 298.09375 353.210938 C 298.515625 353.839844 298.945312 354.414062 299.382812 354.949219 C 300.03125 355.742188 300.707031 356.414062 301.390625 357.011719 C 302.050781 357.585938 302.71875 358.097656 303.402344 358.507812 C 306.84375 360.585938 310.523438 360.65625 313.933594 359.800781 C 314.855469 359.570312 315.753906 359.273438 316.625 358.929688 C 317.628906 358.53125 318.59375 358.082031 319.503906 357.59375 C 319.511719 357.589844 319.519531 357.582031 319.523438 357.582031 C 336.910156 348.207031 355.652344 314.601562 344.9375 289.113281 Z M 299.382812 388.847656 C 273.566406 416.898438 227.867188 437.722656 188.9375 437.726562 C 186.722656 437.726562 184.539062 437.660156 182.375 437.523438 C 175.667969 437.097656 169.433594 435.992188 163.609375 434.320312 L 163.609375 439.050781 C 163.609375 457.511719 194.0625 472.53125 231.496094 472.53125 C 268.925781 472.53125 299.382812 457.511719 299.382812 439.050781 Z M 332.695312 308.269531 C 332.261719 307.246094 331.085938 306.769531 330.0625 307.195312 C 329.039062 307.628906 328.558594 308.808594 328.988281 309.832031 C 332.316406 317.757812 326.113281 329.617188 320.597656 332.585938 C 318.167969 333.898438 317.0625 332.902344 316.300781 331.75 C 315.6875 330.824219 314.4375 330.574219 313.515625 331.191406 C 312.589844 331.808594 312.339844 333.058594 312.957031 333.980469 C 314.378906 336.121094 316.34375 337.222656 318.546875 337.222656 C 319.804688 337.222656 321.140625 336.863281 322.5 336.132812 C 323.582031 335.550781 324.667969 334.703125 325.722656 333.695312 C 327.273438 332.203125 328.75 330.324219 330.011719 328.175781 C 331.835938 325.074219 333.191406 321.457031 333.699219 317.816406 C 333.992188 315.730469 333.996094 313.640625 333.644531 311.632812 C 333.445312 310.480469 333.148438 309.347656 332.695312 308.269531 Z M 307.621094 173.53125 C 307.621094 204.167969 267.492188 229.097656 218.160156 229.097656 C 168.835938 229.097656 128.703125 204.167969 128.703125 173.53125 C 128.703125 142.894531 168.835938 117.964844 218.160156 117.964844 C 267.492188 117.964844 307.621094 142.894531 307.621094 173.53125 Z M 303.601562 173.53125 C 303.601562 145.109375 265.273438 121.992188 218.160156 121.992188 C 171.050781 121.992188 132.722656 145.109375 132.722656 173.53125 C 132.722656 179.75 134.652344 185.6875 138.011719 191.210938 C 139.253906 193.25 140.664062 195.238281 142.304688 197.148438 C 147.410156 203.09375 154.363281 208.359375 162.726562 212.675781 C 164.207031 213.4375 165.753906 214.152344 167.320312 214.855469 C 173.6875 217.714844 180.714844 220.042969 188.265625 221.75 C 189.636719 222.0625 190.988281 222.394531 192.394531 222.664062 C 200.53125 224.222656 209.183594 225.070312 218.160156 225.070312 C 227.140625 225.070312 235.792969 224.222656 243.929688 222.664062 C 245.335938 222.394531 246.6875 222.0625 248.058594 221.75 C 255.609375 220.042969 262.636719 217.714844 269.003906 214.855469 C 270.570312 214.152344 272.117188 213.4375 273.597656 212.671875 C 281.960938 208.359375 288.910156 203.089844 294.019531 197.148438 C 295.660156 195.238281 297.070312 193.25 298.3125 191.210938 C 301.671875 185.6875 303.601562 179.75 303.601562 173.53125 Z M 303.601562 173.53125 " fill-opacity="1" fill-rule="nonzero"/></g><path fill="#ffffff" d="M 148.039062 113.703125 C 150.621094 115.179688 152.984375 116.703125 155.429688 118.078125 C 155.808594 118.292969 156.714844 118.015625 157.125 117.667969 C 159.035156 116.066406 160.523438 114.074219 163.121094 113.210938 C 168.992188 111.265625 172.851562 113.6875 175.761719 117.519531 C 176.84375 118.949219 177.464844 119.40625 179.113281 118.433594 C 183.503906 115.851562 187.988281 113.433594 192.457031 110.984375 C 193.386719 110.472656 193.957031 110.273438 193.523438 108.78125 C 192.042969 103.65625 196.679688 96.519531 201.90625 95.261719 C 202.5625 95.101562 203.484375 94.273438 203.539062 93.6875 C 203.824219 90.625 203.863281 87.542969 204.007812 84.464844 C 204.066406 83.269531 203.601562 82.738281 202.378906 82.355469 C 196.699219 80.589844 193.53125 76.152344 193.832031 70.527344 C 194.144531 64.71875 198.90625 59.332031 204.789062 59.65625 C 207.027344 59.78125 209.074219 60.023438 210.964844 61.34375 C 212.597656 62.484375 213.957031 61.066406 215.179688 60.386719 C 219.59375 57.929688 223.769531 55.023438 228.277344 52.761719 C 230.546875 51.625 230.234375 49.753906 230.542969 48.140625 C 231.269531 44.351562 233.65625 41.875 236.886719 40.621094 C 243.550781 38.039062 250.386719 40.601562 253.851562 46.8125 C 255.304688 49.410156 255.402344 52.417969 254.398438 55.179688 C 253.871094 56.632812 254.253906 57.140625 255.351562 57.625 C 259.757812 59.574219 264.15625 61.558594 268.617188 63.382812 C 269.335938 63.675781 270.675781 63.550781 271.191406 63.058594 C 275.203125 59.210938 283.71875 59.367188 287.28125 63.722656 C 288.382812 65.066406 289.464844 65.148438 291.0625 64.117188 C 295.773438 61.082031 300.640625 58.296875 305.4375 55.398438 C 306.480469 54.769531 307.117188 53.9375 306.953125 52.570312 C 306.515625 49.019531 307.691406 46.015625 310.324219 43.613281 C 314.242188 40.03125 321.785156 39.847656 325.691406 43.722656 C 327.785156 45.800781 329.007812 48.179688 329.128906 50.898438 C 329.207031 52.675781 328.613281 54.789062 327.601562 56.257812 C 323.269531 62.566406 315.351562 63.625 309.769531 58.410156 C 307.566406 56.355469 307.632812 56.304688 303.925781 58.601562 C 299.929688 61.070312 295.890625 63.472656 291.929688 65.992188 C 290.734375 66.753906 290.066406 67.628906 290.566406 69.484375 C 291.972656 74.675781 289.273438 79.722656 283.707031 82.320312 C 282.78125 82.75 281.03125 82.824219 280.925781 83.332031 C 280.59375 84.910156 280.683594 86.652344 280.992188 88.257812 C 281.132812 89 282.03125 89.894531 282.789062 90.175781 C 287.9375 92.078125 291 95.582031 292.132812 101.011719 C 292.589844 103.21875 292.375 105.226562 291.617188 107.167969 C 291.023438 108.679688 291.449219 109.296875 292.800781 109.800781 C 296.523438 111.203125 300.222656 112.660156 303.933594 114.09375 C 304.382812 114.265625 304.878906 114.367188 305.28125 114.613281 C 306.875 115.59375 308.046875 115.148438 309.351562 113.890625 C 312.136719 111.199219 315.5625 110.097656 319.273438 111.441406 C 322.882812 112.75 325.082031 115.378906 325.765625 119.378906 C 326.792969 125.390625 324.382812 129.828125 319.5625 132.859375 C 313.867188 136.441406 307.039062 133.253906 305.371094 126.804688 C 304.691406 124.191406 304.667969 121.605469 305.753906 119.074219 C 306.199219 118.039062 306.113281 117.296875 304.859375 116.8125 C 300.027344 114.945312 295.242188 112.949219 290.386719 111.136719 C 289.84375 110.933594 288.78125 111.371094 288.300781 111.851562 C 284.519531 115.652344 276.660156 115.375 272.617188 111.996094 C 271.476562 111.042969 270.484375 111.214844 269.539062 111.808594 C 264.457031 115 259.425781 118.277344 254.386719 121.53125 C 253.050781 122.394531 252.917969 123.757812 252.921875 125.171875 C 252.941406 130.140625 249.605469 135.539062 244.269531 137.113281 C 238.210938 138.90625 232.464844 136.695312 229.789062 129.871094 C 229.390625 128.859375 229.007812 127.765625 228.984375 126.703125 C 228.910156 123.566406 226.488281 122.488281 224.367188 121.144531 C 221.480469 119.316406 218.519531 117.605469 215.664062 115.730469 C 214.429688 114.921875 213.609375 114.566406 212.238281 115.746094 C 208.554688 118.914062 204.222656 119.21875 199.851562 117.46875 C 198.445312 116.90625 197.234375 115.597656 196.214844 114.394531 C 194.957031 112.90625 193.894531 112.515625 192.375 113.378906 C 188.472656 115.601562 184.613281 117.914062 180.59375 119.90625 C 178.554688 120.917969 177.605469 122.003906 177.71875 124.414062 C 177.96875 129.78125 173.847656 135.109375 169.132812 136.414062 C 163.300781 138.03125 157.882812 135.078125 155.871094 129.667969 C 154.980469 127.273438 154.730469 124.851562 155.445312 122.324219 C 155.835938 120.9375 154.90625 120.207031 153.734375 119.542969 C 150.710938 117.835938 147.746094 116.015625 144.804688 114.167969 C 142.882812 112.957031 142.585938 112.988281 141.542969 114.90625 C 139.199219 119.207031 135.679688 121.609375 130.664062 121.527344 C 126.242188 121.453125 123.167969 118.964844 120.675781 115.675781 C 119.386719 113.976562 118.75 113.621094 116.804688 114.605469 C 113.355469 116.355469 109.9375 118.175781 106.4375 119.816406 C 105.570312 120.222656 104.433594 120.058594 103.421875 120.15625 C 104.082031 119.441406 104.609375 118.472656 105.421875 118.050781 C 109.332031 116.011719 113.300781 114.097656 117.277344 112.199219 C 118.394531 111.667969 118.574219 111.226562 118.398438 109.820312 C 117.601562 103.390625 121.808594 95.921875 129.886719 95.617188 C 136.980469 95.347656 143.023438 102.074219 142.894531 108.632812 C 142.84375 111.164062 144.730469 111.539062 146.183594 112.53125 C 146.742188 112.914062 147.289062 113.3125 148.039062 113.703125 M 267.011719 102.550781 C 267.011719 101.964844 267.015625 101.378906 267.011719 100.792969 C 266.988281 97.089844 268.417969 94.105469 271.410156 91.894531 C 272.292969 91.242188 273.855469 90.65625 273.933594 89.917969 C 274.191406 87.4375 273.992188 84.898438 273.796875 82.394531 C 273.753906 81.847656 273.097656 81.203125 272.558594 80.859375 C 268.671875 78.378906 266.0625 72.460938 268.128906 67.804688 C 268.800781 66.285156 268.21875 65.429688 266.851562 64.824219 C 262.613281 62.945312 258.402344 61 254.121094 59.21875 C 253.394531 58.914062 252.089844 58.964844 251.542969 59.429688 C 247.6875 62.679688 240.589844 63.265625 236.300781 60.167969 C 235.402344 59.519531 234.390625 59.246094 233.039062 60.03125 C 228.015625 62.941406 222.820312 65.550781 217.722656 68.335938 C 216.46875 69.019531 215.441406 69.957031 215.714844 71.6875 C 215.804688 72.265625 215.574219 72.90625 215.4375 73.507812 C 214.402344 77.957031 211.707031 80.773438 207.3125 82.121094 C 206.582031 82.347656 205.675781 83.492188 205.652344 84.238281 C 205.566406 86.851562 205.972656 89.476562 205.914062 92.089844 C 205.867188 94.019531 206.570312 94.777344 208.402344 95.378906 C 212.644531 96.769531 215.40625 99.703125 216.125 104.257812 C 216.433594 106.214844 217.371094 107.609375 219.113281 108.644531 C 222.632812 110.730469 226.128906 112.871094 229.488281 115.199219 C 230.890625 116.175781 231.675781 116.164062 232.796875 114.898438 C 235.082031 112.316406 238.117188 110.886719 241.507812 111.03125 C 246.128906 111.226562 249.546875 113.691406 251.710938 117.785156 C 252.9375 120.105469 252.894531 120.125 254.953125 118.789062 C 259.371094 115.917969 263.765625 113.015625 268.21875 110.207031 C 269.304688 109.523438 269.390625 108.96875 268.847656 107.847656 C 268.089844 106.285156 267.613281 104.585938 267.011719 102.550781 M 307.324219 120.550781 C 307.324219 122.261719 307.144531 124 307.363281 125.683594 C 307.773438 128.886719 309.617188 131.019531 312.785156 131.867188 C 315.761719 132.664062 318.3125 131.601562 320.460938 129.671875 C 323.613281 126.839844 324.359375 123.082031 323.71875 119.097656 C 323.1875 115.777344 319.191406 112.511719 316.179688 112.96875 C 311.820312 113.632812 309.21875 115.527344 307.324219 120.550781 M 308.890625 51.296875 C 309.046875 56.445312 313.015625 59.300781 317.660156 59.648438 C 322.148438 59.984375 326.628906 55.929688 326.917969 51.964844 C 327.308594 46.585938 323.171875 43.265625 318.824219 42.914062 C 313.660156 42.496094 309.125 46.285156 308.890625 51.296875 M 232.183594 57.945312 C 233.25 56.304688 231.222656 55.675781 231.03125 54.449219 C 230.230469 54.578125 229.347656 54.535156 228.652344 54.878906 C 227.183594 55.597656 225.820312 56.539062 224.398438 57.355469 C 221.1875 59.199219 217.972656 61.035156 214.746094 62.851562 C 213.203125 63.714844 214.128906 64.730469 214.589844 65.640625 C 215.054688 66.558594 215.808594 67.167969 216.898438 66.5625 C 221.933594 63.769531 226.957031 60.953125 232.183594 57.945312 M 226.898438 120.355469 C 227.660156 120.761719 228.519531 121.839844 229.257812 120.652344 C 229.933594 119.566406 230.40625 118.210938 228.851562 117.210938 C 225.101562 114.796875 221.398438 112.320312 217.605469 109.980469 C 217.234375 109.753906 215.996094 110.160156 215.824219 110.558594 C 215.472656 111.359375 214.257812 112.421875 215.539062 113.25 C 219.210938 115.628906 222.972656 117.867188 226.898438 120.355469 M 276.210938 89.054688 C 277.15625 90.144531 278.496094 89.6875 278.640625 88.820312 C 278.910156 87.199219 278.585938 85.449219 278.304688 83.785156 C 278.234375 83.386719 277.371094 83.121094 276.875 82.792969 C 276.585938 83.265625 276.089844 83.722656 276.054688 84.214844 C 275.945312 85.757812 276.015625 87.308594 276.210938 89.054688 Z M 276.210938 89.054688 " fill-opacity="1" fill-rule="nonzero"/><path fill="#ffffff" d="M 222.300781 185.207031 C 222.121094 178.796875 223.15625 172.679688 225.570312 166.867188 C 227.351562 162.582031 230.28125 159.371094 235.238281 158.695312 C 238.308594 158.277344 242.796875 160.960938 244.664062 164.667969 C 245.796875 166.917969 246.523438 169.371094 247.453125 171.722656 C 247.601562 172.097656 247.859375 172.433594 248.066406 172.785156 C 248.378906 172.460938 248.832031 172.191406 248.980469 171.808594 C 250.757812 167.117188 253.449219 163.085938 257.5625 160.15625 C 261.625 157.261719 267.164062 158.4375 269.78125 163.125 C 271.894531 166.914062 272.863281 171.035156 273.640625 175.210938 C 274.535156 180.015625 275.335938 184.84375 275.980469 189.6875 C 276.425781 193.074219 276.523438 196.507812 276.800781 199.917969 C 277.179688 204.578125 277.511719 209.246094 277.996094 213.898438 C 278.304688 216.824219 276.28125 219.34375 273.710938 219.382812 C 271.945312 219.410156 269.570312 217.539062 269.359375 213.957031 C 269.105469 209.632812 268.996094 205.292969 268.539062 200.988281 C 267.910156 195.039062 267.128906 189.101562 266.195312 183.191406 C 265.464844 178.585938 264.441406 174.023438 263.449219 169.46875 C 263.304688 168.8125 262.6875 168.070312 262.09375 167.789062 C 261.808594 167.65625 260.957031 168.421875 260.535156 168.921875 C 257.222656 172.839844 254.878906 177.308594 253.515625 182.230469 C 252.921875 184.371094 252.734375 186.644531 252.558594 188.871094 C 252.269531 192.550781 249.09375 194.789062 246.261719 193.476562 C 243.984375 192.421875 243.351562 190.066406 242.75 187.828125 C 241.179688 181.960938 239.628906 176.085938 238.035156 170.222656 C 237.878906 169.652344 237.570312 169.078125 237.191406 168.625 C 235.964844 167.160156 235.113281 167.289062 234.132812 168.925781 C 232.496094 171.65625 231.644531 174.640625 231.421875 177.769531 C 231.074219 182.675781 230.660156 187.59375 230.671875 192.503906 C 230.6875 198.195312 231.09375 203.890625 231.421875 209.582031 C 231.539062 211.632812 232.089844 213.664062 232.140625 215.710938 C 232.203125 218.40625 230.648438 219.730469 228.453125 220.097656 C 226.402344 220.441406 224.132812 218.457031 223.945312 216.484375 C 223.613281 212.925781 223.03125 209.386719 222.824219 205.824219 C 222.546875 200.996094 222.53125 196.15625 222.394531 191.320312 C 222.339844 189.316406 222.265625 187.308594 222.300781 185.207031 Z M 222.300781 185.207031 " fill-opacity="1" fill-rule="nonzero"/><g clip-path="url(#218b0e8312)"><path fill="#ffffff" d="M 209.972656 179.730469 C 211.179688 185.039062 212.421875 190.230469 213.351562 195.472656 C 213.984375 199.050781 214.144531 202.710938 214.582031 206.324219 C 214.910156 209.039062 215.296875 211.746094 215.757812 214.445312 C 216.015625 215.980469 214.53125 218.613281 212.871094 219.285156 C 211.066406 220.011719 208.472656 219.234375 207.558594 217.535156 C 207.109375 216.703125 206.878906 215.699219 206.765625 214.746094 C 206.195312 210.011719 205.699219 205.269531 205.175781 200.53125 C 205.046875 199.347656 205.03125 198.132812 204.730469 196.992188 C 204.609375 196.53125 203.839844 195.898438 203.402344 195.925781 C 200.902344 196.089844 198.410156 196.402344 195.921875 196.71875 C 194.449219 196.90625 193 197.285156 191.523438 197.417969 C 187.984375 197.734375 184.433594 197.898438 180.898438 198.246094 C 179.609375 198.375 178.601562 198.933594 178.53125 200.601562 C 178.386719 203.824219 177.945312 207.03125 177.820312 210.253906 C 177.746094 212.148438 177.933594 214.074219 178.203125 215.953125 C 178.5 218.023438 177.304688 220.449219 175.539062 220.910156 C 173.34375 221.484375 170.136719 219.894531 170.027344 217.761719 C 169.789062 213.121094 169.914062 208.460938 169.972656 203.8125 C 170 201.648438 170.21875 199.484375 170.34375 197.324219 C 170.777344 189.867188 171.417969 182.425781 173.902344 175.324219 C 175.699219 170.191406 178.195312 165.375 182.195312 161.558594 C 184.964844 158.917969 188.203125 156.988281 192.125 156.769531 C 197.195312 156.492188 200.898438 158.855469 203.625 163.046875 C 206.546875 167.535156 207.96875 172.601562 209.472656 177.644531 C 209.667969 178.289062 209.742188 178.96875 209.972656 179.730469 M 202.632812 186.871094 C 202.4375 185.570312 202.40625 184.222656 202.015625 182.984375 C 200.523438 178.269531 199.066406 173.535156 197.28125 168.925781 C 196.5 166.914062 195.054688 164.875 192.355469 165.414062 C 191.042969 165.675781 189.699219 166.402344 188.65625 167.265625 C 185.523438 169.855469 183.472656 173.289062 182.328125 177.117188 C 181.214844 180.855469 180.539062 184.730469 179.804688 188.570312 C 179.730469 188.957031 180.589844 189.949219 180.980469 189.925781 C 182.835938 189.828125 184.671875 189.429688 186.523438 189.226562 C 190.460938 188.800781 194.410156 188.484375 198.34375 188.019531 C 199.726562 187.855469 201.074219 187.390625 202.632812 186.871094 Z M 202.632812 186.871094 " fill-opacity="1" fill-rule="nonzero"/></g><g clip-path="url(#63ac7171ea)"><path fill="#ffffff" d="M 34.148438 191.175781 C 34.019531 184.707031 33.882812 178.4375 33.761719 172.167969 C 33.730469 170.519531 33.664062 168.859375 33.78125 167.214844 C 33.960938 164.621094 35.371094 162.816406 37.757812 161.839844 C 40.957031 160.527344 44.273438 159.824219 47.730469 159.410156 C 52.234375 158.871094 56.507812 159.765625 60.730469 160.882812 C 66.375 162.378906 70.585938 166.070312 74.054688 170.632812 C 77.085938 174.621094 79.128906 179.152344 79.847656 184.046875 C 80.484375 188.410156 79.75 192.769531 78.253906 197.023438 C 74.441406 207.835938 66.394531 213.636719 55.796875 216.613281 C 51.449219 217.835938 47.035156 218.683594 42.519531 218.519531 C 39.476562 218.410156 36.613281 217.523438 35.050781 214.53125 C 34.695312 213.851562 34.570312 212.984375 34.5625 212.203125 C 34.519531 207.617188 34.582031 203.03125 34.523438 198.445312 C 34.492188 196.085938 34.28125 193.726562 34.148438 191.175781 M 43.542969 207.804688 C 43.367188 209.550781 44.296875 210.125 45.871094 209.945312 C 46.410156 209.882812 46.929688 209.617188 47.46875 209.574219 C 52.355469 209.183594 56.855469 207.742188 61.148438 205.300781 C 68.460938 201.140625 72.9375 192.019531 70.917969 183.480469 C 69.503906 177.496094 66.066406 172.902344 60.59375 170.082031 C 55.929688 167.675781 50.863281 167.199219 45.730469 168.121094 C 42.734375 168.660156 42.683594 168.808594 42.777344 171.984375 C 42.988281 179.429688 43.335938 186.875 43.523438 194.324219 C 43.632812 198.683594 43.542969 203.046875 43.542969 207.804688 Z M 43.542969 207.804688 " fill-opacity="1" fill-rule="nonzero"/></g><path fill="#ffffff" d="M 326.792969 191.273438 C 324.804688 186.414062 322.929688 181.652344 320.992188 176.910156 C 320.839844 176.535156 320.285156 176.324219 319.917969 176.039062 C 319.765625 176.429688 319.492188 176.820312 319.472656 177.21875 C 319.1875 183.824219 318.675781 190.433594 318.761719 197.039062 C 318.820312 201.585938 319.667969 206.132812 320.261719 210.667969 C 320.503906 212.496094 319.835938 215.160156 318.472656 215.773438 C 316.832031 216.511719 314.945312 216.757812 313.550781 215.382812 C 312.660156 214.5 311.890625 213.183594 311.695312 211.960938 C 311.117188 208.304688 310.703125 204.609375 310.492188 200.914062 C 310.214844 196.152344 309.988281 191.371094 310.117188 186.605469 C 310.265625 181.191406 310.636719 175.765625 312.410156 170.558594 C 313.289062 167.972656 316.265625 164.644531 319.574219 165.40625 C 321.003906 165.738281 322.46875 166.484375 323.605469 167.414062 C 328.796875 171.667969 330.949219 177.746094 333.15625 183.777344 C 335.828125 191.082031 338.519531 198.378906 341.210938 205.675781 C 341.335938 206.011719 341.542969 206.332031 341.765625 206.613281 C 341.953125 206.847656 342.222656 207.019531 342.457031 207.214844 C 342.617188 206.945312 342.90625 206.683594 342.917969 206.410156 C 342.964844 204.953125 342.902344 203.496094 342.945312 202.039062 C 343.054688 198.441406 343.242188 194.847656 343.320312 191.246094 C 343.480469 183.738281 343.558594 176.230469 343.734375 168.722656 C 343.816406 165.25 345.804688 163.199219 348.6875 163.394531 C 350.351562 163.507812 352.308594 165.433594 352.320312 167.109375 C 352.351562 172.0625 352.382812 177.019531 352.316406 181.972656 C 352.261719 186.09375 352.28125 190.230469 351.890625 194.324219 C 351.261719 200.992188 351.671875 207.777344 349.609375 214.292969 C 348.746094 217.027344 347.066406 218.996094 344.25 219.261719 C 341.757812 219.496094 339.855469 218.167969 338.171875 216.0625 C 332.875 209.441406 330.222656 201.65625 327.675781 193.785156 C 327.414062 192.980469 327.152344 192.175781 326.792969 191.273438 Z M 326.792969 191.273438 " fill-opacity="1" fill-rule="nonzero"/><path fill="#ffffff" d="M 96.082031 211.421875 C 91.269531 206.449219 88.738281 200.480469 87.402344 193.953125 C 86.855469 191.277344 86.210938 188.535156 86.273438 185.839844 C 86.464844 177.980469 87.386719 170.347656 92.828125 163.914062 C 98.183594 157.582031 106.976562 156.976562 113.328125 162.109375 C 119.378906 167 122.496094 173.589844 124.074219 180.898438 C 124.972656 185.0625 125.433594 189.449219 125.230469 193.691406 C 124.875 201.109375 122.839844 208.015625 117.082031 213.378906 C 112.964844 217.214844 107.003906 218.109375 102.070312 215.742188 C 99.925781 214.710938 98.132812 212.949219 96.082031 211.421875 M 116.335938 196.847656 C 116.46875 195.988281 116.683594 195.136719 116.714844 194.273438 C 116.929688 188.726562 116.507812 183.28125 114.398438 178.046875 C 112.847656 174.195312 110.941406 170.667969 107.355469 168.292969 C 104.289062 166.261719 100.808594 166.8125 98.777344 169.8125 C 96.160156 173.671875 94.972656 178.046875 94.875 182.628906 C 94.808594 185.703125 95.046875 188.851562 95.65625 191.863281 C 96.832031 197.679688 98.8125 203.175781 103.796875 207.007812 C 106.699219 209.238281 110.574219 208.894531 112.832031 205.753906 C 114.683594 203.179688 115.539062 200.230469 116.335938 196.847656 Z M 116.335938 196.847656 " fill-opacity="1" fill-rule="nonzero"/><g clip-path="url(#8a77682a56)"><path fill="#ffffff" d="M 366.519531 161.144531 C 370.667969 158.023438 375.164062 156.351562 380.277344 156.761719 C 382.277344 156.921875 384.511719 159.398438 384.421875 161.160156 C 384.300781 163.617188 382.144531 165.378906 379.109375 165.335938 C 373.976562 165.257812 370.230469 167.761719 368.203125 172.148438 C 366.671875 175.464844 366.0625 179.234375 365.296875 182.855469 C 364.863281 184.914062 365.347656 185.902344 368.050781 185.703125 C 370.40625 185.53125 372.765625 185.347656 375.121094 185.332031 C 376.914062 185.320312 378.746094 185.382812 380.492188 185.746094 C 382.347656 186.132812 384.007812 188.835938 383.5625 190.273438 C 382.820312 192.6875 380.324219 194.039062 378.027344 193.65625 C 376.648438 193.425781 375.167969 193.828125 373.730469 193.910156 C 371.179688 194.054688 368.617188 194.101562 366.078125 194.359375 C 365.503906 194.417969 364.523438 195.191406 364.539062 195.609375 C 364.675781 199.675781 364.761719 203.769531 365.324219 207.789062 C 365.671875 210.257812 367.175781 211.152344 369.628906 211.113281 C 374.03125 211.042969 378.429688 210.878906 382.832031 210.722656 C 383.300781 210.707031 383.769531 210.484375 384.230469 210.34375 C 387.195312 209.441406 388.988281 210.324219 389.917969 213.003906 C 390.726562 215.335938 388.972656 218.152344 386.703125 218.570312 C 385.5625 218.78125 384.445312 219.261719 383.308594 219.3125 C 378.671875 219.519531 374.003906 219.972656 369.398438 219.636719 C 364.339844 219.273438 359.734375 217.402344 357.597656 212.214844 C 356.84375 210.375 356.515625 208.3125 356.285156 206.316406 C 355.988281 203.71875 355.777344 201.078125 355.894531 198.472656 C 356.148438 192.894531 356.621094 187.324219 357.03125 181.753906 C 357.390625 176.882812 358.617188 172.269531 360.886719 167.90625 C 362.261719 165.257812 363.90625 162.910156 366.519531 161.144531 Z M 366.519531 161.144531 " fill-opacity="1" fill-rule="nonzero"/></g><path fill="#ffffff" d="M 156.355469 160.164062 C 161.058594 164.332031 162.667969 169.644531 162.472656 175.542969 C 162.347656 179.210938 160.675781 182.382812 158.214844 185.101562 C 155.542969 188.054688 152.417969 190.347656 148.753906 191.996094 C 146.332031 193.089844 144.058594 194.527344 141.765625 195.886719 C 140.894531 196.402344 140.421875 197.050781 140.816406 198.324219 C 141.273438 199.792969 141.226562 201.421875 141.382812 202.984375 C 141.652344 205.679688 141.898438 208.375 142.167969 211.066406 C 142.398438 213.34375 140.726562 216.042969 138.980469 216.21875 C 135.136719 216.601562 133.917969 214.71875 133.601562 211.734375 C 132.929688 205.386719 132.421875 199.011719 132.023438 192.640625 C 131.734375 188.011719 131.398438 183.34375 131.695312 178.730469 C 131.988281 174.15625 132.589844 169.550781 134.320312 165.1875 C 136.34375 160.089844 140.335938 157.109375 145.898438 156.738281 C 149.804688 156.472656 153.226562 157.644531 156.355469 160.164062 M 141.972656 186.085938 C 143.472656 185.304688 144.976562 184.535156 146.46875 183.738281 C 149.296875 182.21875 152.046875 180.460938 153.304688 177.414062 C 154.789062 173.828125 153.921875 170.316406 151.664062 167.273438 C 150.089844 165.152344 147.609375 165.015625 145.265625 165.402344 C 143.167969 165.746094 142.332031 167.589844 141.792969 169.421875 C 140.21875 174.761719 140.023438 180.246094 140.226562 185.761719 C 140.246094 186.222656 140.515625 186.675781 140.671875 187.132812 C 141.039062 186.851562 141.40625 186.566406 141.972656 186.085938 Z M 141.972656 186.085938 " fill-opacity="1" fill-rule="nonzero"/><path fill="#ffffff" d="M 299.789062 216.117188 C 295.648438 217.609375 293.714844 215.5625 293.300781 211.761719 C 292.769531 206.886719 292.710938 201.957031 292.453125 197.046875 C 292.1875 192.011719 291.980469 186.96875 291.65625 181.9375 C 291.332031 176.949219 290.894531 171.96875 290.488281 166.988281 C 290.410156 166.058594 290.152344 165.144531 290.121094 164.214844 C 290.066406 162.429688 291.597656 160.277344 293.113281 159.871094 C 294.78125 159.421875 297.0625 160.375 297.882812 162.199219 C 298.519531 163.621094 298.871094 165.21875 299.066406 166.777344 C 299.347656 168.980469 299.378906 171.222656 299.492188 173.449219 C 299.761719 178.746094 299.992188 184.042969 300.289062 189.339844 C 300.503906 193.207031 300.792969 197.070312 301.066406 200.9375 C 301.3125 204.410156 301.621094 207.882812 301.828125 211.359375 C 301.9375 213.191406 301.445312 214.847656 299.789062 216.117188 Z M 299.789062 216.117188 " fill-opacity="1" fill-rule="nonzero"/><path fill="#ffffff" d="M 83.953125 119.667969 C 85.507812 117.125 87.320312 114.960938 90.117188 114.132812 C 94.855469 112.722656 98.765625 114.03125 101.78125 118.339844 C 105.492188 123.632812 105.3125 129.425781 101.191406 134.382812 C 97.714844 138.566406 91.789062 138.804688 87.441406 135.449219 C 84.296875 133.023438 82.933594 129.527344 82.765625 125.71875 C 82.675781 123.753906 83.460938 121.753906 83.953125 119.667969 M 97.355469 116.832031 C 94.886719 115.648438 92.347656 115.125 89.824219 116.558594 C 83.898438 119.917969 83.230469 128.292969 88.007812 133.144531 C 90.734375 135.914062 93.84375 136.734375 97.960938 134.433594 C 100.472656 133.027344 102.835938 127.46875 102.230469 124.816406 C 101.519531 121.6875 100.347656 118.882812 97.355469 116.832031 Z M 97.355469 116.832031 " fill-opacity="1" fill-rule="nonzero"/></svg>